<svg viewBox="0 -28 512 512" xmlns="http://www.w3.org/2000/svg">
  <path class="inSvg" d="M256 455.5a30 30 0 0 1-19.8-7.4C215.5 430 195.6 413 178 398h-.1c-51.6-44-96.1-82-127.1-119.4C16 236.8 0 197.2 0 154A160 160 0 0 1 40.6 44.6 137.7 137.7 0 0 1 143 0c29.6 0 56.7 9.3 80.5 27.8 12 9.3 22.9 20.7 32.5 34a164.6 164.6 0 0 1 32.5-34A128.8 128.8 0 0 1 369 0c39.5 0 75.9 15.8 102.4 44.6A160 160 0 0 1 512 153.9c0 43.3-16.1 83-50.8 124.7-31 37.4-75.5 75.4-127 119.3-17.7 15-37.7 32-58.4 50.2a30 30 0 0 1-19.8 7.4zM143 30a108 108 0 0 0-80.3 35A130.2 130.2 0 0 0 30 153.8c0 36.4 13.5 69 43.9 105.6 29.3 35.4 73 72.6 123.4 115.6h.1c17.7 15.1 37.7 32.2 58.6 50.4 21-18.2 41-35.3 58.7-50.4 50.5-43 94.1-80.2 123.4-115.6 30.4-36.6 44-69.2 44-105.6 0-34.5-11.7-66.1-32.8-89A108 108 0 0 0 369 30a99.5 99.5 0 0 0-62.1 21.6 145.5 145.5 0 0 0-34.6 40c-3.5 5.8-9.6 9.3-16.3 9.3s-12.8-3.5-16.3-9.3a145.4 145.4 0 0 0-34.6-40 99.5 99.5 0 0 0-62-21.5zm0 0"/>
</svg>
