<?xml version="1.0" standalone="no"?>
<!DOCTYPE svg PUBLIC "-//W3C//DTD SVG 20010904//EN"
 "http://www.w3.org/TR/2001/REC-SVG-20010904/DTD/svg10.dtd">
<svg version="1.0" xmlns="http://www.w3.org/2000/svg"
 width="700.000000pt" height="700.000000pt" viewBox="0 0 700.000000 700.000000"
 preserveAspectRatio="xMidYMid meet">
<metadata>
Created by potrace 1.11, written by Peter Selinger 2001-2013
</metadata>
<g transform="translate(0.000000,700.000000) scale(0.100000,-0.100000)"
fill="#000000" stroke="none">
<path d="M0 3500 l0 -3500 3500 0 3500 0 0 3500 0 3500 -3500 0 -3500 0 0
-3500z m4430 2556 l0 -95 -57 -5 c-227 -22 -304 -48 -373 -122 l-40 -44 0
-2280 c0 -2487 -4 -2304 57 -2362 59 -56 163 -88 346 -104 l67 -6 0 -94 0 -94
-940 0 -940 0 0 94 0 94 68 7 c194 18 284 46 349 111 l43 43 0 2297 0 2297
-25 33 c-14 19 -45 45 -69 59 -54 32 -183 65 -251 65 -29 0 -67 3 -84 6 l-31
7 0 93 0 94 940 0 940 0 0 -94z"/>
</g>
</svg>
