<svg width="24" height="25" viewBox="0 0 24 25" fill="none" xmlns="http://www.w3.org/2000/svg">
<path d="M12 2.90137C8.60639 2.90137 7.19999 5.07817 7.19999 7.70137C7.19999 8.58457 7.62187 9.47168 7.62187 9.47168C7.45227 9.56928 7.17334 9.87909 7.24374 10.4295C7.37494 11.4559 7.81992 11.7173 8.10312 11.7389C8.21112 12.6965 9.23999 13.9214 9.59999 14.0998V15.6998C9.59824 15.7051 9.59399 15.7086 9.59218 15.7139C9.32762 15.7467 9.09159 15.9028 8.97187 16.1451L8.72187 16.6482C6.74743 17.7553 2.39999 17.4808 2.39999 22.0998H10.6437L11.6 18.967L10.6891 17.2998H11.9781H13.3109L12.4 18.967L13.3562 22.0998H16V21.2998C16 20.8582 16.3584 20.4998 16.8 20.4998H18.4C18.8416 20.4998 19.2 20.8582 19.2 21.2998V22.0998H21.6C21.6 17.4808 17.2526 17.7553 15.2781 16.6482L15.0281 16.1451C14.9084 15.9028 14.6724 15.7467 14.4078 15.7139C14.406 15.7086 14.4017 15.7051 14.4 15.6998V14.0998C14.76 13.9214 15.7889 12.6965 15.8969 11.7389C16.1801 11.7173 16.625 11.4559 16.7562 10.4295C16.8266 9.87829 16.5477 9.56928 16.3781 9.47168C16.3781 9.47168 16.8 8.67017 16.8 7.70137C16.8 5.75897 16.0376 4.10137 14.4 4.10137C14.4 4.10137 13.8312 2.90137 12 2.90137Z" fill="#18898D"/>
</svg>
