<svg width="24" height="25" viewBox="0 0 24 25" fill="none" xmlns="http://www.w3.org/2000/svg">
<path d="M12.025 2.9001C11.9333 2.89804 11.8418 2.91178 11.7547 2.94073L6.1469 4.80792C6.04431 4.83872 5.94894 4.8898 5.86647 4.95815C5.78399 5.02649 5.71607 5.1107 5.66675 5.20579C5.61742 5.30087 5.5877 5.40489 5.57932 5.51167C5.57095 5.61846 5.58411 5.72584 5.61801 5.82745C5.65192 5.92906 5.70588 6.02282 5.7767 6.10318C5.84752 6.18355 5.93375 6.24887 6.03029 6.29528C6.12683 6.34169 6.2317 6.36825 6.33869 6.37337C6.44568 6.37849 6.55262 6.36208 6.65315 6.3251L12.0078 4.54385L17.3469 6.3251C17.4474 6.36208 17.5544 6.37849 17.6614 6.37337C17.7683 6.36825 17.8732 6.3417 17.9698 6.29528C18.0663 6.24887 18.1525 6.18355 18.2233 6.10319C18.2942 6.02282 18.3481 5.92906 18.382 5.82745C18.4159 5.72584 18.4291 5.61846 18.4207 5.51167C18.4123 5.40489 18.3826 5.30087 18.3333 5.20579C18.284 5.1107 18.2161 5.02649 18.1336 4.95815C18.0511 4.8898 17.9557 4.83872 17.8531 4.80792L12.261 2.94073C12.1848 2.91543 12.1053 2.90174 12.025 2.9001ZM12.0172 6.1001C11.9254 6.09804 11.834 6.11178 11.7469 6.14073L4.5469 8.54073C4.36691 8.60108 4.21424 8.72343 4.11612 8.88593C4.01801 9.04844 3.98084 9.24053 4.01126 9.42791C4.04167 9.61528 4.13769 9.78575 4.28217 9.90888C4.42665 10.032 4.61019 10.0998 4.80002 10.1001V22.1001H9.60002V18.9001H14.4V22.1001H19.2V10.1001C19.3898 10.0998 19.5734 10.032 19.7179 9.90888C19.8623 9.78575 19.9584 9.61528 19.9888 9.42791C20.0192 9.24053 19.982 9.04844 19.8839 8.88593C19.7858 8.72343 19.6331 8.60108 19.4531 8.54073L12.2531 6.14073C12.177 6.11543 12.0974 6.10174 12.0172 6.1001ZM8.00002 9.3001V10.9001H6.40002V9.81104L8.00002 9.3001ZM9.60002 9.3001H11.2V10.9001H9.60002V9.3001ZM12.8 9.3001H14.4V10.9001H12.8V9.3001ZM16 9.3001L17.6 9.81104V10.9001H16V9.3001ZM6.40002 12.5001H8.00002V14.1001H6.40002V12.5001ZM9.60002 12.5001H11.2V14.1001H9.60002V12.5001ZM12.8 12.5001H14.4V14.1001H12.8V12.5001ZM16 12.5001H17.6V14.1001H16V12.5001ZM6.40002 15.7001H8.00002V17.3001H6.40002V15.7001ZM9.60002 15.7001H11.2V17.3001H9.60002V15.7001ZM12.8 15.7001H14.4V17.3001H12.8V15.7001ZM16 15.7001H17.6V17.3001H16V15.7001ZM6.40002 18.9001H8.00002V20.5001H6.40002V18.9001ZM16 18.9001H17.6V20.5001H16V18.9001Z" fill="#18898D"/>
</svg>
