<svg width="24" height="25" viewBox="0 0 24 25" fill="none" xmlns="http://www.w3.org/2000/svg">
<path d="M12 2.1001C7.14001 2.1001 3.20001 6.0401 3.20001 10.9001C3.20001 16.6873 8.92161 19.4577 9.63841 20.1025C10.3704 20.7609 10.9752 22.2369 11.2192 23.0737C11.3376 23.4801 11.6704 23.6857 12 23.6945C12.3304 23.6849 12.6624 23.4793 12.7808 23.0737C13.0248 22.2369 13.6296 20.7617 14.3616 20.1025C15.0784 19.4577 20.8 16.6873 20.8 10.9001C20.8 6.0401 16.86 2.1001 12 2.1001ZM12 13.3001C10.6744 13.3001 9.60001 12.2257 9.60001 10.9001C9.60001 9.5745 10.6744 8.5001 12 8.5001C13.3256 8.5001 14.4 9.5745 14.4 10.9001C14.4 12.2257 13.3256 13.3001 12 13.3001Z" fill="#18898D"/>
</svg>
