<svg width="36" height="36" viewBox="0 0 36 36" fill="none" xmlns="http://www.w3.org/2000/svg">
<rect x="2.25" y="2.25" width="31.5" height="31.5" rx="6" fill="#2789F6"/>
<path d="M25.7887 20.6259C25.5464 20.297 25.4921 19.9642 25.6245 19.6269C25.955 18.7271 30.7681 13.0119 28.763 13.0119C27.3852 13.0302 25.7283 13.0119 24.4074 13.0119C24.1622 13.0716 24.0035 13.2003 23.9042 13.4621C23.1318 15.2431 22.1866 17.4167 20.8013 18.8135C20.6191 18.9605 20.5054 18.9542 20.2978 18.8999C19.3261 17.8769 20.3622 14.372 19.7713 12.9871C19.6549 12.716 19.3999 12.5935 19.1391 12.5246C17.8199 12.2102 14.8069 12.3973 14.3153 13.0302C14.1748 13.2111 14.1552 13.3099 14.2566 13.3261C14.725 13.4 15.0566 13.5768 15.2518 13.8562C15.6199 14.667 15.8913 18.986 14.8069 18.986C13.7225 18.986 11.974 14.7474 11.4936 13.5724C11.3658 13.2186 11.0404 13.0158 10.6975 12.9559L7.48946 12.9804C6.92556 12.9804 6.61042 13.2586 6.81028 13.819C8.48116 17.9666 12.1376 26.0059 17.7457 25.8047C18.3074 25.8047 19.2739 26.0204 19.7127 25.5333C20.3156 24.7334 19.5803 23.3087 20.6142 22.7654C20.875 22.6266 21.1452 22.7429 21.3693 22.9135C22.5193 23.7892 23.1299 25.3262 24.5482 25.7928C24.7975 25.875 25.016 25.8955 25.2036 25.8545L28.2008 25.8052C28.7572 25.8052 29.3054 25.5577 29.1902 24.8924C28.7533 23.4658 27.0121 21.9993 25.7887 20.6259Z" fill="white"/>
</svg>
