<svg width="58" height="58" viewBox="0 0 58 58" fill="none" xmlns="http://www.w3.org/2000/svg">
<rect width="58" height="58" rx="20" fill="#18898D"/>
<path d="M38.6 17.2667C38.0342 17.2667 37.4916 17.4914 37.0915 17.8915C36.6914 18.2916 36.4667 18.8342 36.4667 19.4C36.4667 19.5215 36.4772 19.6428 36.4979 19.7625L32.9333 22.7333C32.6986 22.6462 32.4504 22.6011 32.2 22.6C31.7821 22.6004 31.3735 22.7236 31.025 22.9542L27.9271 21.4042C27.8942 20.8621 27.6559 20.353 27.2606 19.9806C26.8654 19.6082 26.343 19.4006 25.8 19.4C25.2342 19.4 24.6916 19.6248 24.2915 20.0248C23.8914 20.4249 23.6667 20.9675 23.6667 21.5333C23.6673 21.5792 23.6694 21.6251 23.6729 21.6708L20.3437 23.8896C20.0504 23.7438 19.7275 23.6675 19.4 23.6667C18.8342 23.6667 18.2916 23.8914 17.8915 24.2915C17.4914 24.6916 17.2667 25.2342 17.2667 25.8C17.2667 26.3658 17.4914 26.9084 17.8915 27.3085C18.2916 27.7086 18.8342 27.9333 19.4 27.9333C19.9658 27.9333 20.5084 27.7086 20.9085 27.3085C21.3086 26.9084 21.5333 26.3658 21.5333 25.8C21.5327 25.7548 21.5306 25.7096 21.5271 25.6646L24.8562 23.4437C25.1495 23.5895 25.4725 23.6658 25.8 23.6667C26.2179 23.6662 26.6265 23.5431 26.975 23.3125L30.0729 24.8625C30.1058 25.4045 30.3441 25.9136 30.7394 26.286C31.1346 26.6584 31.657 26.8661 32.2 26.8667C32.7658 26.8667 33.3084 26.6419 33.7085 26.2418C34.1086 25.8417 34.3333 25.2991 34.3333 24.7333C34.3333 24.6118 34.3228 24.4906 34.3021 24.3708L37.8667 21.4C38.1014 21.4871 38.3496 21.5323 38.6 21.5333C39.1658 21.5333 39.7084 21.3086 40.1085 20.9085C40.5086 20.5084 40.7333 19.9658 40.7333 19.4C40.7333 18.8342 40.5086 18.2916 40.1085 17.8915C39.7084 17.4914 39.1658 17.2667 38.6 17.2667ZM37.5333 25.8C36.9445 25.8 36.4667 26.2779 36.4667 26.8667V40.7333H40.7333V26.8667C40.7333 26.2779 40.2555 25.8 39.6667 25.8H37.5333ZM24.7333 27.9333C24.1445 27.9333 23.6667 28.4112 23.6667 29V40.7333H27.9333V29C27.9333 28.4112 27.4555 27.9333 26.8667 27.9333H24.7333ZM31.1333 30.0667C30.5445 30.0667 30.0667 30.5445 30.0667 31.1333V40.7333H34.3333V31.1333C34.3333 30.5445 33.8555 30.0667 33.2667 30.0667H31.1333ZM18.3333 32.2C17.7445 32.2 17.2667 32.6779 17.2667 33.2667V40.7333H21.5333V33.2667C21.5333 32.6779 21.0555 32.2 20.4667 32.2H18.3333Z" fill="white"/>
</svg>
