<svg width="58" height="58" viewBox="0 0 58 58" fill="none" xmlns="http://www.w3.org/2000/svg">
<rect width="58" height="58" rx="20" fill="#18898D"/>
<path d="M38.0666 17.2667C37.1834 17.2667 36.4666 17.9835 36.4666 18.8667V18.9896L24.7333 22.6V33.2667L36.4666 36.8771V37C36.4666 37.8832 37.1834 38.6 38.0666 38.6C38.9498 38.6 39.6666 37.8832 39.6666 37V18.8667C39.6666 17.9835 38.9498 17.2667 38.0666 17.2667ZM22.6 22.8125L15.9875 23.475C14.8974 23.5838 14.0667 24.5014 14.0667 25.5979V30.2687C14.0667 31.3653 14.8974 32.2829 15.9875 32.3917L18.5792 32.6521L19.8062 39.8458C19.8926 40.3589 20.3368 40.7333 20.8562 40.7333H21.5333C22.1221 40.7333 22.6 40.2555 22.6 39.6667L22.5958 33.0542H22.6V22.8125ZM41.8 25.2667V30.6L42.3166 30.4708C43.266 30.233 43.9333 29.3802 43.9333 28.4021V27.4667C43.9333 26.4875 43.266 25.6337 42.3166 25.3958L41.8 25.2667Z" fill="white"/>
</svg>
