<svg width="58" height="58" viewBox="0 0 58 58" fill="none" xmlns="http://www.w3.org/2000/svg">
<rect width="58" height="58" rx="20" fill="#18898D"/>
<path d="M41.8 18.3333L40.7334 19.4L39.6667 18.3333L38.6 19.4L37.5334 18.3333L36.4667 19.4L35.4 18.3333L34.3334 19.4L33.2667 18.3333L32.2 19.4L31.1334 18.3333L30.0667 19.4L29 18.3333L27.9334 19.4L26.8667 18.3333L25.8 19.4L24.7334 18.3333L23.6667 19.4L22.6 18.3333L21.5334 19.4L20.4667 18.3333L19.4 19.4L18.3334 18.3333L17.2667 19.4L16.2 18.3333L15.1334 19.4V37.5333C15.1334 38.712 16.088 39.6666 17.2667 39.6666H40.7334C41.912 39.6666 42.8667 38.712 42.8667 37.5333V19.4L41.8 18.3333ZM19.4 23.6666H27.9334C28.5222 23.6666 29 24.1445 29 24.7333C29 25.3221 28.5222 25.8 27.9334 25.8H19.4C18.8112 25.8 18.3334 25.3221 18.3334 24.7333C18.3334 24.1445 18.8112 23.6666 19.4 23.6666ZM19.4 27.9333H25.8C26.3888 27.9333 26.8667 28.4112 26.8667 29C26.8667 29.5888 26.3888 30.0666 25.8 30.0666H19.4C18.8112 30.0666 18.3334 29.5888 18.3334 29C18.3334 28.4112 18.8112 27.9333 19.4 27.9333ZM28.8688 34.3333C28.648 34.3333 28.1275 35.0181 27.8758 35.7456C27.7307 36.1658 27.3392 36.4538 26.8944 36.4645C26.4507 36.473 26.0443 36.2117 25.8779 35.8C25.8416 35.7242 25.6518 35.4 25.175 35.4C24.9659 35.4 24.6662 36.0133 24.5894 36.3994C24.4827 36.9317 23.9856 37.2976 23.4544 37.2528C22.9136 37.2069 22.4944 36.7632 22.4774 36.2213C22.4763 36.2053 22.3558 34.3333 21.5334 34.3333C20.8379 34.3333 20.5062 35.9504 20.4646 36.5392C20.4251 37.1002 19.9558 37.5312 19.4011 37.5312C19.3766 37.5312 19.352 37.5312 19.3275 37.529C18.7408 37.4885 18.2971 36.9829 18.3355 36.3962C18.4379 34.8378 19.2272 32.2 21.5334 32.2C22.6267 32.2 23.4182 32.7941 23.9238 33.64C24.2704 33.4106 24.6843 33.2666 25.1739 33.2666C25.7328 33.2666 26.2022 33.4064 26.5862 33.6154C27.079 32.9029 27.8288 32.2 28.8688 32.2C29.4576 32.2 29.9355 32.6778 29.9355 33.2666C29.9355 33.8554 29.4587 34.3333 28.8688 34.3333ZM37.5334 32.8378V34.3333H35.4V32.8464C34.1222 32.5701 33.3435 31.7744 33.3179 30.6181H35.1408C35.1878 31.1653 35.735 31.5141 36.5264 31.5141C37.24 31.5141 37.7296 31.1706 37.7296 30.6757C37.7296 30.2586 37.4011 30.0346 36.5424 29.8629L35.5526 29.6645C34.1776 29.4042 33.4694 28.6544 33.4694 27.4714C33.4694 26.3152 34.2054 25.481 35.4 25.1738V23.6666H37.5334V25.1802C38.6939 25.4885 39.4448 26.2992 39.4694 27.3829H37.704C37.6624 26.8517 37.1568 26.4816 36.4848 26.4816C35.8128 26.4816 35.3702 26.7994 35.3702 27.2997C35.3702 27.7114 35.703 27.9504 36.4955 28.1072L37.464 28.2949C38.9488 28.5818 39.6155 29.2528 39.6155 30.4464C39.6155 31.6965 38.8422 32.5434 37.5334 32.8378Z" fill="white"/>
</svg>
