<svg width="58" height="58" viewBox="0 0 58 58" fill="none" xmlns="http://www.w3.org/2000/svg">
<rect width="58" height="58" rx="20" fill="#18898D"/>
<path d="M30.0667 15.1333C29.7838 15.1333 29.5125 15.2457 29.3124 15.4458C29.1124 15.6458 29 15.9171 29 16.2C29 16.4829 29.1124 16.7542 29.3124 16.9542C29.5125 17.1543 29.7838 17.2667 30.0667 17.2667C30.3496 17.2667 30.6209 17.1543 30.8209 16.9542C31.021 16.7542 31.1333 16.4829 31.1333 16.2C31.1333 15.9171 31.021 15.6458 30.8209 15.4458C30.6209 15.2457 30.3496 15.1333 30.0667 15.1333ZM39.6667 15.1333C39.3838 15.1333 39.1125 15.2457 38.9124 15.4458C38.7124 15.6458 38.6 15.9171 38.6 16.2C38.6 16.4829 38.7124 16.7542 38.9124 16.9542C39.1125 17.1543 39.3838 17.2667 39.6667 17.2667C39.9496 17.2667 40.2209 17.1543 40.4209 16.9542C40.621 16.7542 40.7333 16.4829 40.7333 16.2C40.7333 15.9171 40.621 15.6458 40.4209 15.4458C40.2209 15.2457 39.9496 15.1333 39.6667 15.1333ZM34.3167 16.1854C34.0341 16.1898 33.7649 16.3062 33.568 16.5089C33.3712 16.7116 33.2628 16.9841 33.2667 17.2667V19.6271C32.4764 19.8509 31.75 20.2328 31.1333 20.7417V19.4C31.1353 19.2573 31.1086 19.1156 31.0548 18.9834C31.001 18.8512 30.9213 18.7312 30.8203 18.6303C30.7192 18.5295 30.599 18.45 30.4667 18.3965C30.3344 18.3429 30.1927 18.3165 30.05 18.3187C29.7675 18.3232 29.4982 18.4395 29.3014 18.6422C29.1045 18.8449 28.9961 19.1175 29 19.4V25.2667C28.9997 25.3077 29.0018 25.3488 29.0063 25.3896C29.0723 28.5728 31.6676 31.1333 34.8667 31.1333C38.0685 31.1333 40.6654 28.5683 40.7271 25.3812C40.7312 25.3432 40.7333 25.3049 40.7333 25.2667V20.4667C40.7353 20.324 40.7086 20.1823 40.6548 20.0501C40.601 19.9179 40.5213 19.7978 40.4203 19.697C40.3192 19.5962 40.199 19.5167 40.0667 19.4631C39.9344 19.4096 39.7927 19.3832 39.65 19.3854C39.3675 19.3898 39.0982 19.5062 38.9014 19.7089C38.7045 19.9116 38.5961 20.1841 38.6 20.4667V20.7417C37.7143 20.01 36.6103 19.5362 35.4 19.4271V17.2667C35.402 17.124 35.3753 16.9823 35.3215 16.8501C35.2677 16.7179 35.1879 16.5978 35.0869 16.497C34.9859 16.3962 34.8657 16.3167 34.7334 16.2631C34.6011 16.2096 34.4594 16.1832 34.3167 16.1854ZM34.3313 21.5333H35.3979V22.5146C36.4262 22.65 37.0307 23.1877 37.0979 24.0667H35.7938C35.7212 23.7221 35.3987 23.5104 34.875 23.5104C34.3715 23.5104 33.9979 23.7389 33.9979 24.0771C33.9979 24.3384 34.2249 24.4984 34.7188 24.6104L35.7229 24.8271C36.7597 25.0553 37.225 25.4917 37.225 26.2917C37.225 27.2175 36.504 27.8609 35.4 28.0167V29H34.3333V28.0229C33.2453 27.8906 32.5926 27.3417 32.5083 26.4521H33.8854C33.9921 26.8158 34.3358 27.0229 34.8979 27.0229C35.4451 27.0229 35.8229 26.7955 35.8229 26.4521C35.8229 26.1907 35.6193 26.0295 35.15 25.9271L34.1813 25.7104C33.1445 25.4821 32.6396 24.988 32.6396 24.1646C32.6396 23.2942 33.2998 22.6776 34.3313 22.5208V21.5333ZM21.5333 29C21.1279 29.0007 20.7264 29.0785 20.35 29.2292H20.3458L15.1333 31.1333V39.6667L19.6354 37.7104C20.1666 37.48 20.7676 37.4719 21.3042 37.6917L30.9729 41.6417C30.9729 41.6417 30.9771 41.6417 30.9771 41.6417C31.1922 41.7452 31.4279 41.7993 31.6667 41.8C31.9436 41.7994 32.2157 41.7269 32.4563 41.5896C32.4563 41.5896 32.4604 41.5896 32.4604 41.5896L42.0333 36.2708C42.2855 36.1332 42.496 35.9301 42.6426 35.6831C42.7892 35.436 42.8666 35.154 42.8667 34.8667C42.8667 34.4423 42.6981 34.0354 42.398 33.7353C42.098 33.4352 41.691 33.2667 41.2667 33.2667C41.0317 33.2676 40.7998 33.3202 40.5875 33.4208V33.4187L33.2667 36.4667H31.6667C32.091 36.4667 32.498 36.2981 32.798 35.998C33.0981 35.698 33.2667 35.291 33.2667 34.8667C33.2661 34.5295 33.1591 34.201 32.9608 33.9283C32.7625 33.6555 32.4831 33.4524 32.1625 33.3479V33.3437L22.8896 29.3H22.8792C22.4577 29.1034 21.9984 29.001 21.5333 29Z" fill="white"/>
</svg>
