<svg width="58" height="58" viewBox="0 0 58 58" fill="none" xmlns="http://www.w3.org/2000/svg">
<rect width="58" height="58" rx="20" fill="#18898D"/>
<g clip-path="url(#clip0)">
<path d="M29 14C28.7171 14 28.4458 14.1124 28.2458 14.3124C28.0457 14.5125 27.9333 14.7838 27.9333 15.0667C27.9333 15.3496 28.0457 15.6209 28.2458 15.8209C28.4458 16.021 28.7171 16.1333 29 16.1333C29.2829 16.1333 29.5542 16.021 29.7542 15.8209C29.9543 15.6209 30.0667 15.3496 30.0667 15.0667C30.0667 14.7838 29.9543 14.5125 29.7542 14.3124C29.5542 14.1124 29.2829 14 29 14V14ZM22.6 15.0667C22.3171 15.0667 22.0458 15.179 21.8458 15.3791C21.6457 15.5791 21.5333 15.8504 21.5333 16.1333C21.5333 16.4162 21.6457 16.6875 21.8458 16.8876C22.0458 17.0876 22.3171 17.2 22.6 17.2C22.8829 17.2 23.1542 17.0876 23.3542 16.8876C23.5543 16.6875 23.6667 16.4162 23.6667 16.1333C23.6667 15.8504 23.5543 15.5791 23.3542 15.3791C23.1542 15.179 22.8829 15.0667 22.6 15.0667ZM35.4 15.0667C35.1171 15.0667 34.8458 15.179 34.6458 15.3791C34.4457 15.5791 34.3333 15.8504 34.3333 16.1333C34.3333 16.4162 34.4457 16.6875 34.6458 16.8876C34.8458 17.0876 35.1171 17.2 35.4 17.2C35.6829 17.2 35.9542 17.0876 36.1542 16.8876C36.3543 16.6875 36.4667 16.4162 36.4667 16.1333C36.4667 15.8504 36.3543 15.5791 36.1542 15.3791C35.9542 15.179 35.6829 15.0667 35.4 15.0667ZM16.2 17.2C15.9171 17.2 15.6458 17.3124 15.4458 17.5124C15.2457 17.7125 15.1333 17.9838 15.1333 18.2667C15.1333 18.5496 15.2457 18.8209 15.4458 19.0209C15.6458 19.221 15.9171 19.3333 16.2 19.3333C16.4829 19.3333 16.7542 19.221 16.9542 19.0209C17.1543 18.8209 17.2667 18.5496 17.2667 18.2667C17.2667 17.9838 17.1543 17.7125 16.9542 17.5124C16.7542 17.3124 16.4829 17.2 16.2 17.2ZM41.8 17.2C41.5171 17.2 41.2458 17.3124 41.0458 17.5124C40.8457 17.7125 40.7333 17.9838 40.7333 18.2667C40.7333 18.5496 40.8457 18.8209 41.0458 19.0209C41.2458 19.221 41.5171 19.3333 41.8 19.3333C42.0829 19.3333 42.3542 19.221 42.5542 19.0209C42.7543 18.8209 42.8667 18.5496 42.8667 18.2667C42.8667 17.9838 42.7543 17.7125 42.5542 17.5124C42.3542 17.3124 42.0829 17.2 41.8 17.2ZM36.4562 19.3021C36.3769 19.3037 36.2979 19.3142 36.2208 19.3333H21.6958C21.6428 19.3244 21.5892 19.3196 21.5354 19.3187C21.3542 19.3178 21.1757 19.3629 21.0168 19.4501C20.8578 19.5372 20.7237 19.6633 20.6271 19.8167L14.4125 27.0687C14.2945 27.1734 14.2011 27.3029 14.1391 27.4479C14.0772 27.5929 14.0481 27.7499 14.0541 27.9075C14.0601 28.0651 14.1009 28.2194 14.1737 28.3593C14.2465 28.4992 14.3494 28.6213 14.475 28.7167L28.2208 42.4625C28.2243 42.4667 28.2277 42.4709 28.2312 42.475L28.2458 42.4875C28.296 42.538 28.3512 42.5834 28.4104 42.6229C28.4132 42.6243 28.416 42.6257 28.4187 42.6271C28.4444 42.6442 28.4708 42.6602 28.4979 42.675C28.5035 42.6771 28.509 42.6792 28.5146 42.6812C28.6372 42.7445 28.7709 42.7835 28.9083 42.7958C28.9443 42.7991 28.9805 42.8004 29.0167 42.8C29.0306 42.7996 29.0445 42.7989 29.0583 42.7979C29.0764 42.797 29.0945 42.7956 29.1125 42.7937C29.116 42.7938 29.1194 42.7938 29.1229 42.7937C29.1292 42.7924 29.1354 42.791 29.1417 42.7896C29.1703 42.7859 29.1988 42.781 29.2271 42.775C29.2551 42.7692 29.2829 42.7622 29.3104 42.7542C29.3174 42.7522 29.3243 42.7501 29.3312 42.7479C29.3389 42.7452 29.3466 42.7424 29.3542 42.7396C29.4133 42.7189 29.4704 42.6932 29.525 42.6625C29.5257 42.6618 29.5264 42.6611 29.5271 42.6604C29.5513 42.6468 29.5749 42.6322 29.5979 42.6167C29.6035 42.6126 29.6091 42.6084 29.6146 42.6042C29.6643 42.5693 29.711 42.5303 29.7542 42.4875L29.7625 42.4812C29.7674 42.4757 29.7723 42.4702 29.7771 42.4646L43.5271 28.7146C43.6522 28.619 43.7546 28.497 43.827 28.3572C43.8993 28.2173 43.9399 28.0632 43.9456 27.9059C43.9514 27.7486 43.9223 27.5919 43.8604 27.4472C43.7985 27.3025 43.7053 27.1732 43.5875 27.0687L37.4187 19.8729C37.3269 19.698 37.1883 19.552 37.0184 19.4512C36.8484 19.3504 36.6538 19.2988 36.4562 19.3021ZM29 22.2375L32.2583 26.8H25.7417L29 22.2375ZM36.9479 22.5979L40.5479 26.8H35.7479L36.9479 22.5979ZM21.0521 22.6L22.2521 26.8H17.4521L21.0521 22.6ZM25.2208 28.9333H32.7792L29 38.7604L25.2208 28.9333Z" fill="white"/>
</g>
<defs>
<clipPath id="clip0">
<rect width="32" height="32" fill="white" transform="translate(13 14)"/>
</clipPath>
</defs>
</svg>
