<?xml version="1.0" encoding="UTF-8" standalone="no"?>
<!-- Generator: Adobe Illustrator 19.0.0, SVG Export Plug-In . SVG Version: 6.00 Build 0)  -->

<svg
   xmlns:dc="http://purl.org/dc/elements/1.1/"
   xmlns:cc="http://creativecommons.org/ns#"
   xmlns:rdf="http://www.w3.org/1999/02/22-rdf-syntax-ns#"
   xmlns:svg="http://www.w3.org/2000/svg"
   xmlns="http://www.w3.org/2000/svg"
   xmlns:sodipodi="http://sodipodi.sourceforge.net/DTD/sodipodi-0.dtd"
   xmlns:inkscape="http://www.inkscape.org/namespaces/inkscape"
   version="1.1"
   id="Capa_1"
   x="0px"
   y="0px"
   viewBox="0 0 50 50"
   style="enable-background:new 0 0 50 50;"
   xml:space="preserve"
   sodipodi:docname="like-shadow.svg"
   inkscape:version="0.92.2 (5c3e80d, 2017-08-06)"><metadata
     id="metadata891"><rdf:RDF><cc:Work
         rdf:about=""><dc:format>image/svg+xml</dc:format><dc:type
           rdf:resource="http://purl.org/dc/dcmitype/StillImage" /><dc:title></dc:title></cc:Work></rdf:RDF></metadata><defs
     id="defs889"><filter
       inkscape:collect="always"
       style="color-interpolation-filters:sRGB"
       id="filter1416"
       x="-0.065168487"
       width="1.130337"
       y="-0.071968716"
       height="1.1439374"><feGaussianBlur
         inkscape:collect="always"
         stdDeviation="1.2806668"
         id="feGaussianBlur1418" /></filter></defs><sodipodi:namedview
     pagecolor="#ffffff"
     bordercolor="#666666"
     borderopacity="1"
     objecttolerance="10"
     gridtolerance="10"
     guidetolerance="10"
     inkscape:pageopacity="0"
     inkscape:pageshadow="2"
     inkscape:window-width="1920"
     inkscape:window-height="1017"
     id="namedview887"
     showgrid="false"
     inkscape:zoom="11.313709"
     inkscape:cx="14.973734"
     inkscape:cy="27.200903"
     inkscape:window-x="-8"
     inkscape:window-y="-8"
     inkscape:window-maximized="1"
     inkscape:current-layer="Capa_1" /><path
     style="fill:#000000;fill-opacity:1;stroke:none;stroke-width:0.97211462;stroke-opacity:1;filter:url(#filter1416)"
     d="m 24.775092,10.057345 c 1.903573,-4.7916703 6.252172,-6.6387942 11.31013,-6.6387942 6.813433,0 11.720464,4.6892666 12.33738,12.0666152 0,0 0.332984,1.831314 -0.399957,5.12828 -0.998009,4.490124 -3.343988,8.479342 -6.506862,11.523851 L 24.775092,46.125 8.3164473,32.136296 C 5.1535728,29.092788 2.8075934,25.102568 1.8095853,20.612444 1.0766436,17.315478 1.4096274,15.484164 1.4096274,15.484164 2.0265435,8.1068156 6.9335741,3.417549 13.747007,3.417549 c 5.058902,0 9.124512,1.8481257 11.028085,6.639796 z"
     id="path854"
     inkscape:connector-curvature="0"
     sodipodi:nodetypes="cscccccccsc"
     transform="matrix(0.93582317,0,0,0.91836842,1.5990372,2.3948421)" /><g
     id="g856" /><g
     id="g858" /><g
     id="g860" /><g
     id="g862" /><g
     id="g864" /><g
     id="g866" /><g
     id="g868" /><g
     id="g870" /><g
     id="g872" /><g
     id="g874" /><g
     id="g876" /><g
     id="g878" /><g
     id="g880" /><g
     id="g882" /><g
     id="g884" /><path
     inkscape:connector-curvature="0"
     style="fill:#d75a4a;stroke-width:0.87510419"
     d="m 24.785287,11.983701 c 1.765961,-4.1856231 5.80019,-7.1102212 10.492499,-7.1102212 6.320876,0 10.873168,5.4072692 11.445487,11.8515362 0,0 0.308912,1.59969 -0.371044,4.479658 -0.92586,3.922217 -3.102245,7.406881 -6.036469,10.066323 L 24.785287,45.127395 9.5164691,31.270121 C 6.5822452,28.611555 4.4058612,25.126015 3.480001,21.203799 2.8000451,18.32383 3.1089569,16.724141 3.1089569,16.724141 3.681275,10.279873 8.2335668,4.8726047 14.554444,4.8726047 c 4.693183,0 8.464883,2.9254732 10.230843,7.1110963 z"
     id="path854-6" /></svg>