<?xml version="1.0" encoding="UTF-8" standalone="no"?>
<!-- Generator: Adobe Illustrator 19.0.0, SVG Export Plug-In . SVG Version: 6.00 Build 0)  -->

<svg
   xmlns:dc="http://purl.org/dc/elements/1.1/"
   xmlns:cc="http://creativecommons.org/ns#"
   xmlns:rdf="http://www.w3.org/1999/02/22-rdf-syntax-ns#"
   xmlns:svg="http://www.w3.org/2000/svg"
   xmlns="http://www.w3.org/2000/svg"
   xmlns:sodipodi="http://sodipodi.sourceforge.net/DTD/sodipodi-0.dtd"
   xmlns:inkscape="http://www.inkscape.org/namespaces/inkscape"
   version="1.1"
   id="Capa_1"
   x="0px"
   y="0px"
   viewBox="0 0 512 512"
   style="enable-background:new 0 0 512 512;"
   xml:space="preserve"
   sodipodi:docname="slider-tool.svg"
   inkscape:version="0.92.2 (5c3e80d, 2017-08-06)"><metadata
     id="metadata61"><rdf:RDF><cc:Work
         rdf:about=""><dc:format>image/svg+xml</dc:format><dc:type
           rdf:resource="http://purl.org/dc/dcmitype/StillImage" /></cc:Work></rdf:RDF></metadata><defs
     id="defs59" /><sodipodi:namedview
     pagecolor="#ffffff"
     bordercolor="#666666"
     borderopacity="1"
     objecttolerance="10"
     gridtolerance="10"
     guidetolerance="10"
     inkscape:pageopacity="0"
     inkscape:pageshadow="2"
     inkscape:window-width="716"
     inkscape:window-height="480"
     id="namedview57"
     showgrid="false"
     inkscape:zoom="0.4609375"
     inkscape:cx="256"
     inkscape:cy="256"
     inkscape:window-x="0"
     inkscape:window-y="0"
     inkscape:window-maximized="0"
     inkscape:current-layer="Capa_1" /><g
     id="g8"
     style="fill:#e81f51;fill-opacity:0.77348065"><path
       style="fill:#e81f51;fill-opacity:0.77348065"
       d="M473.997,59.999H38.004c-15.464,0-28,12.536-28,28l0,0c0,15.464,12.536,28,28,28h435.993   c15.464,0,28-12.536,28-28l0,0C501.997,72.535,489.461,59.999,473.997,59.999z"
       id="path2" /><path
       style="fill:#e81f51;fill-opacity:0.77348065"
       d="M473.997,227.996H38.004c-15.464,0-28,12.536-28,28l0,0c0,15.464,12.536,28,28,28h435.993   c15.464,0,28-12.536,28-28l0,0C501.997,240.532,489.461,227.996,473.997,227.996z"
       id="path4" /><path
       style="fill:#e81f51;fill-opacity:0.77348065"
       d="M473.997,395.994H38.004c-15.464,0-28,12.536-28,28l0,0c0,15.464,12.536,28,28,28h435.993   c15.464,0,28-12.536,28-28l0,0C501.997,408.53,489.461,395.994,473.997,395.994z"
       id="path6" /></g><circle
     style="fill:#e81f51;fill-opacity:0.77348065"
     cx="370.525"
     cy="255.996"
     r="77.999"
     id="circle10" /><circle
     style="fill:#e81f51;fill-opacity:0.77348065"
     cx="166.228"
     cy="87.999"
     r="77.999"
     id="circle12" /><circle
     style="fill:#e81f51;fill-opacity:0.77348065"
     cx="166.228"
     cy="424.003"
     r="77.999"
     id="circle14" /><path
     d="M251.291,291.064c1.859-1.859,2.93-4.439,2.93-7.069c0-2.63-1.07-5.21-2.93-7.07c-1.86-1.86-4.431-2.93-7.07-2.93  c-2.63,0-5.21,1.069-7.07,2.93c-1.859,1.86-2.93,4.44-2.93,7.07c0,2.63,1.07,5.21,2.93,7.069c1.86,1.86,4.44,2.931,7.07,2.931  S249.431,292.925,251.291,291.064z"
     id="path16" /><path
     d="M473.997,217.997h-24.111c-14.207-29.552-44.441-49.999-79.363-49.999s-65.156,20.448-79.363,49.999H38.004  c-20.953,0-37.999,17.047-37.999,37.999s17.047,37.999,37.999,37.999h160.33c5.522,0,10-4.478,10-10c0-5.522-4.478-10-10-10H38.004  c-9.925,0-18-8.075-18-18s8.075-18,18-18h246.374c-1.213,5.813-1.854,11.833-1.854,18c0,48.522,39.476,87.999,87.999,87.999  c34.921,0,65.156-20.448,79.363-49.999h24.111c20.953,0,37.999-17.047,37.999-37.999S494.95,217.997,473.997,217.997z   M370.523,323.995c-37.494,0-67.999-30.505-67.999-67.999s30.505-67.999,67.999-67.999s67.999,30.505,67.999,67.999  S408.017,323.995,370.523,323.995z M473.997,273.996h-17.329c1.213-5.813,1.854-11.833,1.854-18s-0.641-12.188-1.854-18h17.329  c9.925,0,18,8.075,18,18C491.997,265.921,483.922,273.996,473.997,273.996z"
     id="path18"
     style="fill:#e81f51;fill-opacity:0.77348065" /><path
     d="M473.997,386.119H245.643c-14.183-29.614-44.45-50.116-79.418-50.116s-65.235,20.503-79.418,50.116H38.004  c-20.953,0-37.999,17.047-37.999,37.999s17.047,37.999,37.999,37.999h48.912C101.146,491.606,131.348,512,166.224,512  s65.078-20.394,79.308-49.882h228.464c20.953,0,37.999-17.047,37.999-37.999S494.95,386.119,473.997,386.119z M38.004,442.118  c-9.925,0-18-8.075-18-18s8.075-18,18-18h42.05c-1.197,5.776-1.828,11.757-1.828,17.883c0,6.209,0.65,12.268,1.879,18.117H38.004z   M166.225,492c-37.494,0-67.999-30.505-67.999-67.999s30.505-67.999,67.999-67.999s67.999,30.505,67.999,67.999  S203.719,492,166.225,492z M473.997,442.118H252.344c1.229-5.849,1.879-11.908,1.879-18.117c0-6.126-0.631-12.107-1.828-17.883  h221.602c9.925,0,18,8.075,18,18S483.922,442.118,473.997,442.118z"
     id="path20"
     style="fill:#e81f51;fill-opacity:0.77348065" /><path
     d="M348.999,69.999c2.63,0,5.21-1.07,7.069-2.931c1.86-1.859,2.931-4.439,2.931-7.069c0-2.63-1.07-5.21-2.931-7.07  c-1.859-1.86-4.439-2.93-7.069-2.93c-2.63,0-5.21,1.069-7.07,2.93c-1.86,1.861-2.93,4.44-2.93,7.07c0,2.63,1.069,5.21,2.93,7.069  C343.789,68.929,346.369,69.999,348.999,69.999z"
     id="path22" /><path
     d="M38.004,125.998h48.857c14.207,29.552,44.441,49.999,79.363,49.999s65.156-20.448,79.363-49.999h228.409  c20.953,0,37.999-17.047,37.999-37.999s-17.047-37.999-37.999-37.999h-88.499c-5.522,0-10,4.478-10,10c0,5.522,4.478,10,10,10  h88.499c9.925,0,18,8.075,18,18s-8.075,18-18,18H252.37c1.213-5.813,1.854-11.833,1.854-18c0-6.167-0.641-12.188-1.854-18H307  c5.522,0,10-4.478,10-10s-4.478-10-10-10h-61.412C231.381,20.448,201.146,0,166.225,0s-65.156,20.448-79.363,49.999H38.004  c-20.953,0-37.999,17.047-37.999,37.999S17.051,125.998,38.004,125.998z M166.225,20c37.494,0,67.999,30.505,67.999,67.999  s-30.505,67.999-67.999,67.999s-67.999-30.505-67.999-67.999S128.729,20,166.225,20z M38.004,69.999h42.075  c-1.213,5.813-1.854,11.833-1.854,18c0,6.167,0.641,12.188,1.854,18H38.004c-9.925,0-18-8.075-18-18S28.079,69.999,38.004,69.999z"
     id="path24"
     style="fill:#e81f51;fill-opacity:0.77348065" /><g
     id="g26" /><g
     id="g28" /><g
     id="g30" /><g
     id="g32" /><g
     id="g34" /><g
     id="g36" /><g
     id="g38" /><g
     id="g40" /><g
     id="g42" /><g
     id="g44" /><g
     id="g46" /><g
     id="g48" /><g
     id="g50" /><g
     id="g52" /><g
     id="g54" /></svg>