<svg width="58" height="58" viewBox="0 0 58 58" fill="none" xmlns="http://www.w3.org/2000/svg">
<rect width="58" height="58" rx="20" fill="#18898D"/>
<path d="M29 16.2002C24.0912 16.2002 18.9854 17.3064 18.9854 17.3064L18.9812 17.3106C18.4981 17.4073 18.0633 17.6683 17.7508 18.0492C17.4382 18.4301 17.2672 18.9075 17.2667 19.4002V25.8002C17.2667 36.8914 27.9562 41.5273 27.9562 41.5273C28.275 41.7062 28.6344 41.8001 29 41.8002C29.3641 41.7994 29.722 41.7055 30.0396 41.5273H30.0437C30.0448 41.5273 40.7333 36.8914 40.7333 25.8002V19.4002C40.7336 18.9062 40.5624 18.4274 40.2489 18.0455C39.9355 17.6637 39.4992 17.4025 39.0146 17.3064C39.0146 17.3064 33.9088 16.2002 29 16.2002ZM35.4 22.6002C35.6728 22.6002 35.9456 22.7042 36.1542 22.9127C36.5712 23.3298 36.5712 24.004 36.1542 24.421L28.0896 32.4856C27.889 32.6861 27.6181 32.7981 27.3354 32.7981C27.0527 32.7981 26.7807 32.6861 26.5812 32.4856L22.8979 28.8023C22.4808 28.3852 22.4808 27.711 22.8979 27.2939C23.315 26.8769 23.9892 26.8769 24.4062 27.2939L27.3354 30.2231L34.6458 22.9127C34.8544 22.7042 35.1272 22.6002 35.4 22.6002Z" fill="white"/>
</svg>
