<svg width="58" height="58" viewBox="0 0 58 58" fill="none" xmlns="http://www.w3.org/2000/svg">
<rect width="58" height="58" rx="20" fill="#18898D"/>
<path d="M29 19.4004C25.6059 19.4004 24.2 21.5775 24.2 24.2004C24.2 25.0836 24.6229 25.9712 24.6229 25.9712C24.4533 26.0694 24.1713 26.3812 24.2417 26.9316C24.3729 27.9578 24.8184 28.2166 25.1021 28.2379C25.2098 29.1958 26.2405 30.4223 26.6 30.6004V32.0316C25.8 34.4316 19.4 34.0671 19.4 39.6671H38.6C38.6 34.0671 32.2 34.4316 31.4 32.0316V30.6004C31.7605 30.4223 32.7902 29.1958 32.8979 28.2379C33.1817 28.2166 33.6271 27.9578 33.7583 26.9316C33.8287 26.3802 33.5467 26.0694 33.3771 25.9712C33.3771 25.9712 33.8 25.17 33.8 24.2004C33.8 22.258 33.0373 20.6004 31.4 20.6004C31.4 20.6004 30.8315 19.4004 29 19.4004ZM37 21.5316C36.4539 21.5316 35.9892 21.6304 35.5625 21.7712C35.7961 22.4955 35.9333 23.3033 35.9333 24.2004C35.9333 24.7679 35.8443 25.2881 35.7313 25.7233C35.8859 26.1809 35.9391 26.6841 35.8729 27.2004C35.7225 28.3748 35.2666 29.173 34.6938 29.6754C34.5274 30.0786 34.2995 30.4606 34.0542 30.8254C34.3571 31.4473 34.8005 32.0009 35 32.1129V32.1254C37.1728 33.1441 40.7333 34.8564 40.7333 39.6671H45C45 34.3785 39.6667 35.1379 39 32.8712V32.1108C39.2997 31.9423 40.1583 30.7841 40.2479 29.8796C40.4837 29.8593 40.8558 29.6158 40.9646 28.6462C41.0233 28.1257 40.7887 27.8328 40.6479 27.74C40.6479 27.74 41 26.9812 41 26.0671C41 24.2324 40.3643 22.6671 39 22.6671C39 22.6671 38.5264 21.5316 37 21.5316ZM21 21.5337C19.4736 21.5337 19 22.6671 19 22.6671C17.6357 22.6671 17 24.2345 17 26.0691C17 26.9843 17.3521 27.74 17.3521 27.74C17.2102 27.8317 16.9768 28.1257 17.0354 28.6462C17.1442 29.6158 17.5164 29.8614 17.7521 29.8816C17.8417 30.7862 18.7003 31.9444 19 32.1129V32.8712C18.3333 35.1368 13 34.3785 13 39.6671H17.2667C17.2667 34.8564 20.8272 33.1451 23 32.1254V32.1108C23.1995 31.9988 23.6429 31.4483 23.9458 30.8254C23.7005 30.4606 23.4727 30.0765 23.3063 29.6733C22.7335 29.172 22.2764 28.3737 22.1271 27.2004C22.0599 26.6777 22.1151 26.1664 22.2729 25.7046C22.1577 25.2662 22.0667 24.7455 22.0667 24.2004C22.0667 23.3183 22.1916 22.5073 22.4188 21.7671C21.9974 21.6295 21.5387 21.5337 21 21.5337Z" fill="white"/>
</svg>
