<svg width="58" height="58" viewBox="0 0 58 58" fill="none" xmlns="http://www.w3.org/2000/svg">
<rect width="58" height="58" rx="20" fill="#18898D"/>
<path d="M38.6 17.2666C38.0342 17.2666 37.4916 17.4914 37.0915 17.8914C36.6914 18.2915 36.4667 18.8341 36.4667 19.3999C36.4675 19.6406 36.5091 19.8794 36.5896 20.1062L32.5917 24.7708C32.4625 24.7462 32.3314 24.7337 32.2 24.7333C31.8726 24.7335 31.5497 24.8091 31.2563 24.9541L27.9271 22.7354C27.9306 22.6903 27.9327 22.6451 27.9333 22.5999C27.9333 22.0341 27.7086 21.4915 27.3085 21.0914C26.9084 20.6914 26.3658 20.4666 25.8 20.4666C25.257 20.4672 24.7346 20.6749 24.3394 21.0472C23.9441 21.4196 23.7058 21.9287 23.6729 22.4708L20.5729 24.0208C20.225 23.7906 19.8172 23.6674 19.4 23.6666C18.8342 23.6666 18.2916 23.8914 17.8915 24.2914C17.4914 24.6915 17.2667 25.2341 17.2667 25.7999C17.2667 26.3657 17.4914 26.9084 17.8915 27.3084C18.2916 27.7085 18.8342 27.9333 19.4 27.9333C19.943 27.9327 20.4654 27.725 20.8606 27.3526C21.2559 26.9802 21.4942 26.4711 21.5271 25.9291L24.6271 24.3791C24.975 24.6093 25.3828 24.7324 25.8 24.7333C26.1274 24.733 26.4503 24.6575 26.7438 24.5124L30.0729 26.7312C30.0694 26.7762 30.0673 26.8214 30.0667 26.8666C30.0667 27.4324 30.2914 27.975 30.6915 28.3751C31.0916 28.7752 31.6342 28.9999 32.2 28.9999C32.7658 28.9999 33.3084 28.7752 33.7085 28.3751C34.1086 27.975 34.3333 27.4324 34.3333 26.8666C34.3325 26.6259 34.2909 26.3871 34.2104 26.1604L38.2083 21.4958C38.3375 21.5203 38.4686 21.5329 38.6 21.5333C39.1658 21.5333 39.7084 21.3085 40.1085 20.9084C40.5086 20.5084 40.7333 19.9657 40.7333 19.3999C40.7333 18.8341 40.5086 18.2915 40.1085 17.8914C39.7084 17.4914 39.1658 17.2666 38.6 17.2666ZM25.8 30.0666C25.2342 30.0666 24.6916 30.2914 24.2915 30.6914C23.8914 31.0915 23.6667 31.6341 23.6667 32.1999C23.6675 32.4406 23.7091 32.6794 23.7896 32.9062L19.7917 37.5708C19.6625 37.5462 19.5314 37.5337 19.4 37.5333C18.8342 37.5333 18.2916 37.758 17.8915 38.1581C17.4914 38.5582 17.2667 39.1008 17.2667 39.6666C17.2667 40.2324 17.4914 40.775 17.8915 41.1751C18.2916 41.5752 18.8342 41.7999 19.4 41.7999C19.9658 41.7999 20.5084 41.5752 20.9085 41.1751C21.3086 40.775 21.5333 40.2324 21.5333 39.6666C21.5325 39.4259 21.4909 39.1871 21.4104 38.9604L25.4083 34.2958C25.5375 34.3203 25.6686 34.3329 25.8 34.3333C25.9858 34.3323 26.1707 34.3071 26.35 34.2583L30.1396 38.0478C30.0913 38.2279 30.0667 38.4135 30.0667 38.5999C30.0667 39.1657 30.2914 39.7083 30.6915 40.1084C31.0916 40.5085 31.6342 40.7333 32.2 40.7333C32.7658 40.7333 33.3084 40.5085 33.7085 40.1084C34.1086 39.7083 34.3333 39.1657 34.3333 38.5999C34.3327 38.5547 34.3306 38.5096 34.3271 38.4645L37.6562 36.2458C37.9497 36.3908 38.2726 36.4664 38.6 36.4666C39.1658 36.4666 39.7084 36.2418 40.1085 35.8418C40.5086 35.4417 40.7333 34.8991 40.7333 34.3333C40.7333 33.7675 40.5086 33.2249 40.1085 32.8248C39.7084 32.4247 39.1658 32.1999 38.6 32.1999C38.0342 32.1999 37.4916 32.4247 37.0915 32.8248C36.6914 33.2249 36.4667 33.7675 36.4667 34.3333C36.4673 34.3785 36.4694 34.4236 36.4729 34.4687L33.1438 36.6874C32.8503 36.5424 32.5274 36.4668 32.2 36.4666C32.0142 36.4675 31.8293 36.4928 31.65 36.5416L27.8604 32.752C27.9087 32.572 27.9333 32.3864 27.9333 32.1999C27.9333 31.6341 27.7086 31.0915 27.3085 30.6914C26.9084 30.2914 26.3658 30.0666 25.8 30.0666Z" fill="white"/>
</svg>
