<svg width="58" height="58" viewBox="0 0 58 58" fill="none" xmlns="http://www.w3.org/2000/svg">
<rect width="58" height="58" rx="20" fill="#18898D"/>
<path d="M17.2667 18.333C17.1281 18.3335 16.99 18.3474 16.8542 18.3747C16.8429 18.3769 16.8321 18.3806 16.8208 18.383C16.3437 18.485 15.916 18.7474 15.6089 19.1265C15.3019 19.5056 15.134 19.9785 15.1333 20.4663V33.2663C15.1338 33.4049 15.1478 33.543 15.175 33.6788C15.1773 33.6901 15.1809 33.7009 15.1833 33.7122C15.2853 34.1893 15.5477 34.617 15.9268 34.9241C16.3059 35.2312 16.7788 35.399 17.2667 35.3997H40.7333C40.8719 35.3992 41.01 35.3853 41.1458 35.358C41.1571 35.3557 41.1679 35.3521 41.1792 35.3497C41.6563 35.2477 42.084 34.9853 42.3911 34.6062C42.6981 34.2271 42.866 33.7542 42.8667 33.2663V20.4663C42.8662 20.3278 42.8522 20.1897 42.825 20.0538C42.8227 20.0425 42.8191 20.0317 42.8167 20.0205C42.7147 19.5434 42.4523 19.1157 42.0732 18.8086C41.6941 18.5015 41.2212 18.3337 40.7333 18.333H17.2667ZM19.4 20.4663H38.6C38.6 21.0321 38.8248 21.5748 39.2248 21.9748C39.6249 22.3749 40.1675 22.5997 40.7333 22.5997V31.133C40.1675 31.133 39.6249 31.3578 39.2248 31.7578C38.8248 32.1579 38.6 32.7005 38.6 33.2663H19.4C19.4 32.7005 19.1752 32.1579 18.7752 31.7578C18.3751 31.3578 17.8325 31.133 17.2667 31.133V22.5997C17.8325 22.5997 18.3751 22.3749 18.7752 21.9748C19.1752 21.5748 19.4 21.0321 19.4 20.4663ZM29 22.5997C26.6437 22.5997 24.7333 24.749 24.7333 27.3997C24.7333 28.9165 25.3709 30.253 26.3479 31.133H31.6521C32.6292 30.253 33.2667 28.9165 33.2667 27.3997C33.2667 24.749 31.3563 22.5997 29 22.5997ZM20.4667 25.7997C20.1838 25.7997 19.9125 25.9121 19.7124 26.1121C19.5124 26.3121 19.4 26.5834 19.4 26.8663C19.4 27.1492 19.5124 27.4205 19.7124 27.6206C19.9125 27.8206 20.1838 27.933 20.4667 27.933C20.7496 27.933 21.0209 27.8206 21.2209 27.6206C21.421 27.4205 21.5333 27.1492 21.5333 26.8663C21.5333 26.5834 21.421 26.3121 21.2209 26.1121C21.0209 25.9121 20.7496 25.7997 20.4667 25.7997ZM37.5333 25.7997C37.2504 25.7997 36.9791 25.9121 36.7791 26.1121C36.579 26.3121 36.4667 26.5834 36.4667 26.8663C36.4667 27.1492 36.579 27.4205 36.7791 27.6206C36.9791 27.8206 37.2504 27.933 37.5333 27.933C37.8162 27.933 38.0875 27.8206 38.2876 27.6206C38.4876 27.4205 38.6 27.1492 38.6 26.8663C38.6 26.5834 38.4876 26.3121 38.2876 26.1121C38.0875 25.9121 37.8162 25.7997 37.5333 25.7997ZM17.2667 37.533C17.1253 37.531 16.985 37.5571 16.8538 37.6098C16.7227 37.6625 16.6033 37.7408 16.5026 37.84C16.402 37.9393 16.322 38.0575 16.2675 38.188C16.2129 38.3184 16.1848 38.4583 16.1848 38.5997C16.1848 38.741 16.2129 38.881 16.2675 39.0114C16.322 39.1418 16.402 39.2601 16.5026 39.3593C16.6033 39.4586 16.7227 39.5368 16.8538 39.5895C16.985 39.6422 17.1253 39.6683 17.2667 39.6663H40.7333C40.8747 39.6683 41.015 39.6422 41.1462 39.5895C41.2773 39.5368 41.3967 39.4586 41.4974 39.3593C41.5981 39.2601 41.678 39.1418 41.7325 39.0114C41.7871 38.881 41.8152 38.741 41.8152 38.5997C41.8152 38.4583 41.7871 38.3184 41.7325 38.188C41.678 38.0575 41.5981 37.9393 41.4974 37.84C41.3967 37.7408 41.2773 37.6625 41.1462 37.6098C41.015 37.5571 40.8747 37.531 40.7333 37.533H17.2667Z" fill="white"/>
</svg>
