<svg width="58" height="58" viewBox="0 0 58 58" fill="none" xmlns="http://www.w3.org/2000/svg">
<rect width="58" height="58" rx="20" fill="#18898D"/>
<path d="M38.6001 17.2667C38.0343 17.2667 37.4916 17.4914 37.0916 17.8915C36.6915 18.2916 36.4667 18.8342 36.4667 19.4C36.4676 19.6407 36.5091 19.8794 36.5896 20.1062L32.5917 24.7708C32.4626 24.7463 32.3315 24.7337 32.2001 24.7333C31.8727 24.7336 31.5498 24.8091 31.2563 24.9542L27.9271 22.7354C27.9307 22.6904 27.9327 22.6452 27.9334 22.6C27.9334 22.0342 27.7086 21.4916 27.3086 21.0915C26.9085 20.6914 26.3659 20.4667 25.8001 20.4667C25.257 20.4673 24.7347 20.6749 24.3394 21.0473C23.9442 21.4197 23.7059 21.9288 23.673 22.4708L20.573 24.0208C20.225 23.7906 19.8172 23.6675 19.4001 23.6667C18.8343 23.6667 18.2916 23.8914 17.8916 24.2915C17.4915 24.6916 17.2667 25.2342 17.2667 25.8C17.2667 26.3658 17.4915 26.9084 17.8916 27.3085C18.2916 27.7086 18.8343 27.9333 19.4001 27.9333C19.9431 27.9327 20.4655 27.7251 20.8607 27.3527C21.2559 26.9803 21.4943 26.4712 21.5271 25.9292L24.6271 24.3792C24.9751 24.6094 25.3829 24.7325 25.8001 24.7333C26.1274 24.7331 26.4503 24.6575 26.7438 24.5125L30.073 26.7312C30.0695 26.7763 30.0674 26.8215 30.0667 26.8667C30.0667 27.4325 30.2915 27.9751 30.6916 28.3752C31.0916 28.7752 31.6343 29 32.2001 29C32.7659 29 33.3085 28.7752 33.7086 28.3752C34.1086 27.9751 34.3334 27.4325 34.3334 26.8667C34.3326 26.626 34.291 26.3872 34.2105 26.1604L38.2084 21.4958C38.3375 21.5204 38.4686 21.5329 38.6001 21.5333C39.1659 21.5333 39.7085 21.3086 40.1086 20.9085C40.5086 20.5084 40.7334 19.9658 40.7334 19.4C40.7334 18.8342 40.5086 18.2916 40.1086 17.8915C39.7085 17.4914 39.1659 17.2667 38.6001 17.2667ZM25.8001 30.0667C25.2343 30.0667 24.6916 30.2914 24.2916 30.6915C23.8915 31.0916 23.6667 31.6342 23.6667 32.2C23.6676 32.4407 23.7091 32.6794 23.7896 32.9062L19.7917 37.5708C19.6626 37.5463 19.5315 37.5337 19.4001 37.5333C18.8343 37.5333 18.2916 37.7581 17.8916 38.1582C17.4915 38.5582 17.2667 39.1009 17.2667 39.6667C17.2667 40.2325 17.4915 40.7751 17.8916 41.1752C18.2916 41.5752 18.8343 41.8 19.4001 41.8C19.9659 41.8 20.5085 41.5752 20.9086 41.1752C21.3086 40.7751 21.5334 40.2325 21.5334 39.6667C21.5325 39.426 21.491 39.1872 21.4105 38.9604L25.4084 34.2958C25.5375 34.3204 25.6686 34.3329 25.8001 34.3333C25.9859 34.3324 26.1708 34.3072 26.3501 34.2583L30.1396 38.0479C30.0913 38.228 30.0668 38.4136 30.0667 38.6C30.0667 39.1658 30.2915 39.7084 30.6916 40.1085C31.0916 40.5086 31.6343 40.7333 32.2001 40.7333C32.7659 40.7333 33.3085 40.5086 33.7086 40.1085C34.1086 39.7084 34.3334 39.1658 34.3334 38.6C34.3327 38.5548 34.3307 38.5096 34.3271 38.4646L37.6563 36.2458C37.9498 36.3909 38.2727 36.4664 38.6001 36.4667C39.1659 36.4667 39.7085 36.2419 40.1086 35.8418C40.5086 35.4417 40.7334 34.8991 40.7334 34.3333C40.7334 33.7675 40.5086 33.2249 40.1086 32.8248C39.7085 32.4248 39.1659 32.2 38.6001 32.2C38.0343 32.2 37.4916 32.4248 37.0916 32.8248C36.6915 33.2249 36.4667 33.7675 36.4667 34.3333C36.4674 34.3785 36.4695 34.4237 36.473 34.4687L33.1438 36.6875C32.8503 36.5424 32.5274 36.4669 32.2001 36.4667C32.0142 36.4676 31.8293 36.4928 31.6501 36.5417L27.8605 32.7521C27.9088 32.572 27.9333 32.3864 27.9334 32.2C27.9334 31.6342 27.7086 31.0916 27.3086 30.6915C26.9085 30.2914 26.3659 30.0667 25.8001 30.0667Z" fill="white"/>
</svg>
