<svg width="58" height="58" viewBox="0 0 58 58" fill="none" xmlns="http://www.w3.org/2000/svg">
<rect width="58" height="58" rx="20" fill="#18898D"/>
<path d="M17.2666 18.3333C17.1281 18.3338 16.99 18.3477 16.8541 18.375C16.8428 18.3773 16.832 18.3809 16.8208 18.3833C16.3437 18.4853 15.916 18.7477 15.6089 19.1268C15.3018 19.5059 15.134 19.9788 15.1333 20.4667V33.2667C15.1338 33.4052 15.1477 33.5433 15.175 33.6792C15.1772 33.6905 15.1808 33.7013 15.1833 33.7125C15.2853 34.1896 15.5477 34.6173 15.9268 34.9244C16.3059 35.2315 16.7788 35.3993 17.2666 35.4H40.7333C40.8718 35.3995 41.01 35.3856 41.1458 35.3583C41.1571 35.3561 41.1679 35.3524 41.1791 35.35C41.6562 35.248 42.084 34.9856 42.391 34.6065C42.6981 34.2274 42.866 33.7545 42.8666 33.2667V20.4667C42.8662 20.3281 42.8522 20.19 42.825 20.0542C42.8227 20.0429 42.8191 20.0321 42.8166 20.0208C42.7147 19.5437 42.4523 19.116 42.0732 18.8089C41.6941 18.5018 41.2212 18.334 40.7333 18.3333H17.2666ZM19.4 20.4667H38.6C38.6 21.0325 38.8247 21.5751 39.2248 21.9752C39.6249 22.3752 40.1675 22.6 40.7333 22.6V31.1333C40.1675 31.1333 39.6249 31.3581 39.2248 31.7582C38.8247 32.1582 38.6 32.7009 38.6 33.2667H19.4C19.4 32.7009 19.1752 32.1582 18.7751 31.7582C18.3751 31.3581 17.8324 31.1333 17.2666 31.1333V22.6C17.8324 22.6 18.3751 22.3752 18.7751 21.9752C19.1752 21.5751 19.4 21.0325 19.4 20.4667ZM29 22.6C26.6437 22.6 24.7333 24.7493 24.7333 27.4C24.7333 28.9168 25.3708 30.2533 26.3479 31.1333H31.6521C32.6291 30.2533 33.2666 28.9168 33.2666 27.4C33.2666 24.7493 31.3562 22.6 29 22.6ZM20.4666 25.8C20.1837 25.8 19.9124 25.9124 19.7124 26.1124C19.5123 26.3125 19.4 26.5838 19.4 26.8667C19.4 27.1496 19.5123 27.4209 19.7124 27.6209C19.9124 27.8209 20.1837 27.9333 20.4666 27.9333C20.7495 27.9333 21.0208 27.8209 21.2209 27.6209C21.4209 27.4209 21.5333 27.1496 21.5333 26.8667C21.5333 26.5838 21.4209 26.3125 21.2209 26.1124C21.0208 25.9124 20.7495 25.8 20.4666 25.8ZM37.5333 25.8C37.2504 25.8 36.9791 25.9124 36.7791 26.1124C36.579 26.3125 36.4666 26.5838 36.4666 26.8667C36.4666 27.1496 36.579 27.4209 36.7791 27.6209C36.9791 27.8209 37.2504 27.9333 37.5333 27.9333C37.8162 27.9333 38.0875 27.8209 38.2875 27.6209C38.4876 27.4209 38.6 27.1496 38.6 26.8667C38.6 26.5838 38.4876 26.3125 38.2875 26.1124C38.0875 25.9124 37.8162 25.8 37.5333 25.8ZM17.2666 37.5333C17.1253 37.5313 16.985 37.5574 16.8538 37.6101C16.7226 37.6629 16.6032 37.7411 16.5026 37.8404C16.4019 37.9396 16.322 38.0579 16.2674 38.1883C16.2129 38.3187 16.1848 38.4586 16.1848 38.6C16.1848 38.7414 16.2129 38.8813 16.2674 39.0117C16.322 39.1421 16.4019 39.2604 16.5026 39.3596C16.6032 39.4589 16.7226 39.5371 16.8538 39.5898C16.985 39.6425 17.1253 39.6687 17.2666 39.6667H40.7333C40.8746 39.6687 41.015 39.6425 41.1461 39.5898C41.2773 39.5371 41.3967 39.4589 41.4974 39.3596C41.598 39.2604 41.678 39.1421 41.7325 39.0117C41.7871 38.8813 41.8152 38.7414 41.8152 38.6C41.8152 38.4586 41.7871 38.3187 41.7325 38.1883C41.678 38.0579 41.598 37.9396 41.4974 37.8404C41.3967 37.7411 41.2773 37.6629 41.1461 37.6101C41.015 37.5574 40.8746 37.5313 40.7333 37.5333H17.2666Z" fill="white"/>
</svg>
