<svg width="58" height="58" viewBox="0 0 58 58" fill="none" xmlns="http://www.w3.org/2000/svg">
<rect width="58" height="58" rx="20" fill="#18898D"/>
<path d="M28.9999 16.2C24.0911 16.2 18.9854 17.3062 18.9854 17.3062L18.9812 17.3104C18.498 17.4071 18.0633 17.6681 17.7507 18.049C17.4382 18.4299 17.2671 18.9073 17.2666 19.4V25.8C17.2666 36.8912 27.9562 41.5271 27.9562 41.5271C28.275 41.706 28.6344 41.8 28.9999 41.8C29.3641 41.7992 29.722 41.7053 30.0395 41.5271H30.0437C30.0448 41.5271 40.7333 36.8912 40.7333 25.8V19.4C40.7335 18.906 40.5623 18.4272 40.2488 18.0453C39.9354 17.6635 39.4991 17.4023 39.0145 17.3062C39.0145 17.3062 33.9087 16.2 28.9999 16.2ZM35.3999 22.6C35.6727 22.6 35.9456 22.704 36.1541 22.9125C36.5712 23.3296 36.5712 24.0038 36.1541 24.4208L28.0895 32.4854C27.889 32.6859 27.618 32.7979 27.3354 32.7979C27.0527 32.7979 26.7807 32.6859 26.5812 32.4854L22.8979 28.8021C22.4808 28.385 22.4808 27.7108 22.8979 27.2937C23.3149 26.8767 23.9891 26.8767 24.4062 27.2937L27.3354 30.2229L34.6458 22.9125C34.8543 22.704 35.1271 22.6 35.3999 22.6Z" fill="white"/>
</svg>
