<svg width="58" height="58" viewBox="0 0 58 58" fill="none" xmlns="http://www.w3.org/2000/svg">
<rect width="58" height="58" rx="20" fill="#18898D"/>
<path d="M29 19.4C25.6059 19.4 24.2 21.5771 24.2 24.2C24.2 25.0832 24.6229 25.9708 24.6229 25.9708C24.4533 26.069 24.1713 26.3808 24.2417 26.9312C24.3729 27.9574 24.8184 28.2162 25.1021 28.2375C25.2098 29.1954 26.2405 30.4219 26.6 30.6V32.0312C25.8 34.4312 19.4 34.0667 19.4 39.6667H38.6C38.6 34.0667 32.2 34.4312 31.4 32.0312V30.6C31.7605 30.4219 32.7902 29.1954 32.8979 28.2375C33.1817 28.2162 33.6271 27.9574 33.7583 26.9312C33.8287 26.3798 33.5467 26.069 33.3771 25.9708C33.3771 25.9708 33.8 25.1696 33.8 24.2C33.8 22.2576 33.0373 20.6 31.4 20.6C31.4 20.6 30.8315 19.4 29 19.4ZM37 21.5312C36.4539 21.5312 35.9892 21.63 35.5625 21.7708C35.7961 22.4951 35.9333 23.3029 35.9333 24.2C35.9333 24.7675 35.8443 25.2877 35.7313 25.7229C35.8859 26.1805 35.9391 26.6837 35.8729 27.2C35.7225 28.3744 35.2666 29.1726 34.6938 29.675C34.5274 30.0782 34.2995 30.4602 34.0542 30.825C34.3571 31.4469 34.8005 32.0005 35 32.1125V32.125C37.1728 33.1437 40.7333 34.856 40.7333 39.6667H45C45 34.3781 39.6667 35.1375 39 32.8708V32.1104C39.2997 31.9419 40.1583 30.7837 40.2479 29.8792C40.4837 29.8589 40.8558 29.6154 40.9646 28.6458C41.0233 28.1253 40.7887 27.8324 40.6479 27.7396C40.6479 27.7396 41 26.9808 41 26.0667C41 24.232 40.3643 22.6667 39 22.6667C39 22.6667 38.5264 21.5312 37 21.5312ZM21 21.5333C19.4736 21.5333 19 22.6667 19 22.6667C17.6357 22.6667 17 24.2341 17 26.0687C17 26.9839 17.3521 27.7396 17.3521 27.7396C17.2102 27.8313 16.9768 28.1253 17.0354 28.6458C17.1442 29.6154 17.5164 29.861 17.7521 29.8812C17.8417 30.7858 18.7003 31.944 19 32.1125V32.8708C18.3333 35.1364 13 34.3781 13 39.6667H17.2667C17.2667 34.856 20.8272 33.1447 23 32.125V32.1104C23.1995 31.9984 23.6429 31.4479 23.9458 30.825C23.7005 30.4602 23.4727 30.0761 23.3063 29.6729C22.7335 29.1716 22.2764 28.3733 22.1271 27.2C22.0599 26.6773 22.1151 26.166 22.2729 25.7042C22.1577 25.2658 22.0667 24.7451 22.0667 24.2C22.0667 23.3179 22.1916 22.5069 22.4188 21.7667C21.9974 21.6291 21.5387 21.5333 21 21.5333Z" fill="white"/>
</svg>
