<svg xmlns="http://www.w3.org/2000/svg" width="420mm" height="250mm" viewBox="0 0 42000 25000" shape-rendering="geometricPrecision" text-rendering="geometricPrecision" image-rendering="optimizeQuality" fill-rule="evenodd" clip-rule="evenodd"><defs><style>.str0{stroke:#434242;stroke-width:7.62;stroke-miterlimit:22.9256}.fil1{fill:#c85b20}.fil2,.fil3{fill:#fefefe;fill-rule:nonzero}</style></defs><g id="Слой_x0020_1"><path d="M14413.76 13673.03s3160.36 2498.36 5966.78-484.71c2319.92-3075.72-1342.68-11726.08 5968.62-11862.64 0 0-706.56 2845.42 1186.19 4275.24 859.04-467.88-139.23 1571.79-2127.06 1102.15-874.46-130.95-1833.89-1770.5-2660.54.14 0 0-480.03 1003.63-229.34 3006.26 1233.15-2698.84 5110.55-3858.02 6254.12-371.75 0 0-3681.81-2393.54-5907.97 1195.04-1219.31 2168.75-1949 6439.21-4930.79 6565.23 0 0-3091.67 504.12-3520.01-3424.96zm10254.63-9060.26s1289.34-254.77 1771.15 1116.82c-299.17 59.98-1474.4-83.67-1771.15-1116.82z" fill="#ef7f1a"/><path class="fil1" d="M27690.53 9245.75s-1980.32-1028.64-3900.96 686.94c-1317.45 1393.08-1578.07 3666.29-2726.01 5355.58 0 0-86.31 2270.62 2356.01 4015.92 418.98-2800.14-628.34-10978.79 4270.96-10058.44z"/><path class="fil1" d="M25086.09 10365.25c-1238.17 1066.07-1205.13 5714.51-1214.73 7367.22l796.31 1208.21c-208.32-1455.84-708.79-7515.16 418.42-8575.43zM26639.9 2395.4s-37.61 504.9 150.18 1377.41l1015.1-1517.24s-1163.64-145.49-1165.28 139.83z"/><path class="fil2 str0" d="M7190.02 11144.79H2309.09c70.41 458.03 258.79 823.24 563.26 1095.64 304.46 270.38 694.55 405.57 1166.47 405.57 567.06 0 1052.3-211.86 1459.53-635.59l1274.93 639.63c-317.78 480.23-700.26 835.35-1143.64 1067.4-445.28 230.02-972.38 345.04-1583.21 345.04-947.64 0-1720.21-316.79-2315.82-952.39-595.6-633.58-894.36-1428.58-894.36-2382.98 0-978.62 298.76-1791.78 894.36-2437.46 595.61-647.71 1341.54-970.55 2241.61-970.55 953.35 0 1729.74 322.84 2327.25 966.51 597.5 645.69 896.25 1495.16 896.25 2554.49l-5.7 304.69zM5677.22 9885.7c-100.86-351.09-298.76-637.62-593.71-857.55-296.85-219.94-639.37-328.9-1031.37-328.9-424.34 0-795.4 123.09-1117 371.27-199.8 153.35-386.28 425.75-557.54 815.18h3299.62zM13824.59 8784l-1265.42 738.5c-237.86-264.33-471.93-445.93-704.07-548.83-232.16-102.91-504.27-153.35-816.35-153.35-568.96 0-1029.47 179.58-1379.6 536.72-352.03 359.17-527.1 817.2-527.1 1378.14 0 544.8 169.36 988.7 506.17 1333.74 338.72 345.04 782.09 516.55 1332.02 516.55 679.34 0 1208.35-246.17 1588.93-738.5l1196.91 871.67c-650.78 895.89-1567.98 1343.84-2753.48 1343.84-1067.53 0-1902.9-334.95-2506.11-1002.83-603.22-667.89-905.78-1448.76-905.78-2344.65 0-621.47 146.52-1192.5 439.56-1715.1 294.96-522.6 704.08-934.23 1231.18-1232.86 525.19-298.63 1113.19-447.94 1763.98-447.94 603.22 0 1143.64 127.12 1623.17 381.36s871.53 615.42 1175.99 1083.54z"/><path class="fil3 str0" d="M25104.73 12471.8h569.01c4.03-841.41 18.16-1337.78 40.35-1491.13 44.39-353.11 191.69-633.58 443.91-839.4 254.24-205.81 611.38-308.71 1073.45-308.71 334.95 0 710.26 76.67 1129.95 230.02v1226.8c-232.04-66.58-421.71-100.88-571.03-100.88-187.65 0-324.86 38.33-411.62 117.03-62.55 58.51-94.84 181.6-94.84 365.21l-6.05 801.06h1023.01v1368.04h-1016.96v5060.56h-1610.17v-5060.56h-569.01V12471.8zm4828.11 0h1634.39v3091.21c0 601.3 42.38 1018.98 125.1 1253.04 82.73 234.06 215.91 415.66 399.52 546.81 183.62 129.14 411.63 193.71 679.99 193.71s498.39-64.57 686.04-191.69c187.65-127.12 326.88-314.77 417.68-562.96 66.58-185.63 100.89-581.11 100.89-1186.44V12471.8h1610.17v2719.94c0 1121.88-88.78 1888.63-266.34 2302.28-215.9 504.44-536.73 889.83-958.44 1160.21-421.71 268.37-958.44 403.56-1608.16 403.56-706.22 0-1275.23-157.39-1711.07-472.16-435.83-314.77-742.53-752.63-920.1-1315.59-127.12-389.42-189.67-1097.66-189.67-2124.7V12471.8zm7568.25 0h1392.26v817.19c149.31-318.81 347.05-560.94 593.22-726.4 248.19-165.45 518.57-248.18 811.14-248.18 207.83 0 425.75 54.48 653.76 165.46l-500.41 1392.26c-187.65-94.84-343.02-141.25-464.08-141.25-246.17 0-456.02 153.35-625.51 460.05-171.51 306.7-256.26 908-256.26 1803.89l6.06 312.75v2592.83h-1610.18v-6428.6z"/><path class="fil2 str0" d="M17243.19 7319.1c611.33 0 1186.11 151.33 1724.33 454 540.24 302.66 958.63 712.27 1261.25 1230.83 302.63 520.59 452.91 1079.51 452.91 1680.8 0 605.33-152.32 1170.31-454.94 1696.95-304.65 526.63-718.98 938.26-1242.97 1234.87-526.03 296.61-1102.84 445.93-1734.48 445.93-930.2 0-1724.33-326.88-2380.34-980.64-658.05-655.77-987.07-1450.77-987.07-2385 0-1002.83 371.67-1838.18 1115.02-2506.07 651.96-581.11 1399.37-871.67 2246.29-871.67zm24.38 1513.32c-505.73 0-926.14 173.53-1261.26 520.59-335.12 349.07-503.69 792.98-503.69 1335.76 0 556.9 166.55 1008.88 497.6 1353.92 331.06 345.04 751.47 518.57 1261.25 518.57 507.76 0 930.2-175.55 1269.38-524.62 337.15-349.08 505.72-799.04 505.72-1347.87 0-550.85-166.54-996.78-497.59-1341.81-331.06-343.03-755.54-514.54-1271.41-514.54z"/><path class="fil3 str0" d="M5934.63 20543.98l-521.83 676.71 519.94 688.73h-288.26l-468.43-661.86v661.86H4940.9v-1365.44h235.15v658.06l489.29-658.06h269.29zm1794.05 1365.44h-252.54l-128.96-345.15h-524.37l-127.38 345.15h-250.64l536.69-1365.44h212.4l534.8 1365.44zm-457.36-553.76l-183.64-516.47-186.8 516.47h370.44zm2643.97-811.68l-487.38 677.03 487.38 688.41h-293.95l-428.59-665.65v665.65h-231.37v-665.65l-428.6 665.65h-293.95l487.39-688.41-489.29-677.03h274.99l449.46 659.96v-659.96h231.37v659.96l449.45-659.96h273.09zm1788.35 1632.84h-221.88v-267.4h-796.51v267.4h-221.88v-483.6h108.09l388.78-1149.24h244.64l388.77 1149.24h109.99v483.6zm-342.31-483.6l-277.83-850.87-279.72 850.87h557.55zm2193.25 216.2h-235.16v-1365.44h235.16v1365.44zm-335.67-417.22c0 141.6-48.68 248.44-146.03 320.5-85.97 64.48-202.92 96.72-350.84 96.72h-341.36v-1365.44h235.16v531c180.79 0 317.97 24.02 411.53 72.07 127.69 65.74 191.54 180.79 191.54 345.15zm-235.16-.95c0-79.33-24.02-134.65-72.07-166.25-39.19-26.24-100.51-39.51-183.95-39.51h-111.89v407.73h109.99c171.95 0 257.92-67.32 257.92-201.97zm2201.78-1324.67c0 85.97-28.44 160.57-85.02 223.78-56.89 63.22-127.38 94.83-211.77 94.83-84.39 0-153.93-31.61-208.93-94.83-54.68-63.21-82.18-137.81-82.18-223.78h162.47c0 45.52 10.11 82.81 30.34 111.89 24.02 34.14 57.21 51.21 100.2 51.21 86.92 0 130.53-54.37 130.53-163.1h164.36zm235.16 1742.84h-235.16v-965.29l-633.41 965.29h-206.71v-1365.44h235.16v962.44l634.04-962.44h206.08v1365.44zm1792.15 0h-235.16v-1145.46h-513.93v1145.46h-235.16v-1365.44h984.25v1365.44zm790.82 0v-1365.44h375.5c146.66 0 262.97 32.87 348.95 98.61 94.82 73.33 142.23 180.8 142.23 322.4 0 137.81-44.88 244.01-134.33 318.6-83.13 70.8-194.7 106.2-334.41 106.2h-162.78v519.63h-235.16zm627.73-941.59c0-140.97-86.29-211.45-258.55-211.45h-134.02v417.22h126.43c84.39 0 147.29-12.65 188.7-37.62 51.52-32.87 77.44-88.81 77.44-168.15zm2027.3 941.59h-235.16v-965.29l-633.41 965.29h-206.71v-1365.44h235.16v962.44l634.04-962.44h206.08v1365.44zm2080.41-384.98c-56.89 131.49-140.02 232.95-249.38 304.38-109.36 71.43-235.47 107.15-378.34 107.15-198.5 0-365.38-69.54-500.66-208.61-135.28-139.07-202.92-308.49-202.92-508.25 0-194.7 68.27-360.32 204.81-496.87 136.55-136.54 302.17-204.81 496.87-204.81 145.4 0 274.04 36.34 385.93 109.04 111.89 72.7 193.12 176.06 243.69 310.07h-267.4c-84.7-130.22-206.08-195.33-364.11-195.33-127.7 0-236.11 47.41-325.24 142.23-89.14 94.82-133.7 206.71-133.7 335.67 0 131.49 43.93 246.54 131.8 345.16 87.87 98.61 196.91 147.92 327.14 147.92 158.03 0 276.88-62.58 356.53-187.75h274.98zm1596.81-34.14c0 279.41-167.52 419.12-502.56 419.12h-362.22v-1365.44h347.05c131.49 0 235.16 27.81 311.02 83.44 87.24 63.21 130.86 158.04 130.86 284.47 0 117.58-49.94 204.81-149.82 261.71 69.53 21.49 124.53 61.32 164.99 119.47 40.46 58.16 60.68 123.91 60.68 197.23zm-311.01-564.19c0-110.63-70.49-165.94-211.14-165.94h-113.16v347.05h81.23c162.15 0 243.07-60.37 243.07-181.11zm75.85 577.47c0-139.07-80.28-208.61-240.84-208.61h-159.31v398.25h157.41c111.26 0 183.95-28.44 218.09-85.34 16.44-26.55 24.65-61.31 24.65-104.3zm2313.68-282.57c0 199.76-67.64 368.86-202.92 507.3-135.28 138.44-302.17 207.66-500.66 207.66-195.97 0-362.54-69.85-499.72-209.56-137.18-139.7-205.76-308.17-205.76-505.4 0-193.44 69.53-359.06 208.61-496.87 139.07-137.81 305.32-206.71 498.76-206.71 194.7 0 360.33 68.58 496.87 205.76 136.55 137.18 204.82 303.12 204.82 497.82zm-240.85-3.79c0-126.43-45.83-237.38-137.49-332.83-91.66-95.46-200.08-143.18-325.24-143.18-126.43 0-235.48 48.04-327.14 144.13-91.66 96.08-137.49 207.97-137.49 335.67 0 132.75 44.88 247.8 134.64 345.15 89.77 97.35 199.76 146.03 329.99 146.03 135.28 0 247.17-49.31 335.67-147.92 84.71-94.83 127.06-210.51 127.06-347.05zm1695.43 692.2h-720.65v-1365.44h720.65v212.4h-485.49v358.43h483.6v210.5h-483.6v367.91h485.49v216.2zm1619.57-1742.84c0 85.97-28.44 160.57-85.02 223.78-56.89 63.22-127.38 94.83-211.77 94.83-84.39 0-153.93-31.61-208.93-94.83-54.68-63.21-82.18-137.81-82.18-223.78h162.47c0 45.52 10.11 82.81 30.34 111.89 24.02 34.14 57.21 51.21 100.2 51.21 86.92 0 130.53-54.37 130.53-163.1h164.36zm235.16 1742.84h-235.16v-965.29l-633.41 965.29h-206.71v-1365.44h235.16v962.44l634.04-962.44h206.08v1365.44zm2336.44 0h-1526.65v-1365.44h235.16v1149.24h417.22v-1149.24h219.99v1149.24h419.12v-1149.24h235.16v1365.44zm1835.76-1365.44l-580.31 1365.44h-243.07l128.96-298.69-481.38-1066.75h245.59l349.58 788.92 335.36-788.92h245.27zm1503.89 948.22c0 142.87-48.68 250.33-146.03 322.4-84.71 63.21-201.02 94.82-348.94 94.82h-352.74v-1365.44h768.06v216.19h-536.7v314.81c150.45 0 254.76 6.96 312.92 20.86 202.29 49.31 303.43 181.43 303.43 396.36zm-235.16-.95c0-79.33-24.02-134.65-71.75-166.25-38.88-26.24-99.88-39.51-183.01-39.51h-126.43v407.73h124.54c170.99 0 256.65-67.32 256.65-201.97zm1682.15 418.17h-720.65v-1365.44h720.65v212.4h-485.49v358.43h483.6v210.5h-483.6v367.91h485.49v216.2z"/></g></svg>