<?xml version="1.0" encoding="UTF-8"?>
<!DOCTYPE svg PUBLIC "-//W3C//DTD SVG 1.1//EN" "http://www.w3.org/Graphics/SVG/1.1/DTD/svg11.dtd">
<!-- Creator: CorelDRAW 2017 -->
<svg xmlns="http://www.w3.org/2000/svg" xml:space="preserve" width="420mm" height="250mm" version="1.1" style="shape-rendering:geometricPrecision; text-rendering:geometricPrecision; image-rendering:optimizeQuality; fill-rule:evenodd; clip-rule:evenodd"
viewBox="0 0 42000 25000"
 xmlns:xlink="http://www.w3.org/1999/xlink">
 <defs>
  <style type="text/css">
   <![CDATA[
    .str0 {stroke:#434242;stroke-width:7.62;stroke-miterlimit:22.9256}
    .fil0 {fill:#EF7F1A}
    .fil1 {fill:#C85B20}
    .fil2 {fill:#FEFEFE;fill-rule:nonzero}
    .fil3 {fill:#FEFEFE;fill-rule:nonzero}
   ]]>
  </style>
 </defs>
 <g id="Слой_x0020_1">
  <metadata id="CorelCorpID_0Corel-Layer"/>
  <path class="fil0" d="M14413.76 13673.03c0,0 3160.36,2498.36 5966.78,-484.71 2319.92,-3075.72 -1342.68,-11726.08 5968.62,-11862.64 0,0 -706.56,2845.42 1186.19,4275.24 859.04,-467.88 -139.23,1571.79 -2127.06,1102.15 -874.46,-130.95 -1833.89,-1770.5 -2660.54,0.14 0,0 -480.03,1003.63 -229.34,3006.26 1233.15,-2698.84 5110.55,-3858.02 6254.12,-371.75 0,0 -3681.81,-2393.54 -5907.97,1195.04 -1219.31,2168.75 -1949,6439.21 -4930.79,6565.23 0,0 -3091.67,504.12 -3520.01,-3424.96zm10254.63 -9060.26c0,0 1289.34,-254.77 1771.15,1116.82 -299.17,59.98 -1474.4,-83.67 -1771.15,-1116.82z"/>
  <path class="fil1" d="M27690.53 9245.75c0,0 -1980.32,-1028.64 -3900.96,686.94 -1317.45,1393.08 -1578.07,3666.29 -2726.01,5355.58 0,0 -86.31,2270.62 2356.01,4015.92 418.98,-2800.14 -628.34,-10978.79 4270.96,-10058.44z"/>
  <path class="fil1" d="M25086.09 10365.25c-1238.17,1066.07 -1205.13,5714.51 -1214.73,7367.22l796.31 1208.21c-208.32,-1455.84 -708.79,-7515.16 418.42,-8575.43z"/>
  <path class="fil1" d="M26639.9 2395.4c0,0 -37.61,504.9 150.18,1377.41l1015.1 -1517.24c0,0 -1163.64,-145.49 -1165.28,139.83z"/>
  <path class="fil2 str0" d="M7190.02 11144.79l-4880.93 0c70.41,458.03 258.79,823.24 563.26,1095.64 304.46,270.38 694.55,405.57 1166.47,405.57 567.06,0 1052.3,-211.86 1459.53,-635.59l1274.93 639.63c-317.78,480.23 -700.26,835.35 -1143.64,1067.4 -445.28,230.02 -972.38,345.04 -1583.21,345.04 -947.64,0 -1720.21,-316.79 -2315.82,-952.39 -595.6,-633.58 -894.36,-1428.58 -894.36,-2382.98 0,-978.62 298.76,-1791.78 894.36,-2437.46 595.61,-647.71 1341.54,-970.55 2241.61,-970.55 953.35,0 1729.74,322.84 2327.25,966.51 597.5,645.69 896.25,1495.16 896.25,2554.49l-5.7 304.69zm-1512.8 -1259.09c-100.86,-351.09 -298.76,-637.62 -593.71,-857.55 -296.85,-219.94 -639.37,-328.9 -1031.37,-328.9 -424.34,0 -795.4,123.09 -1117,371.27 -199.8,153.35 -386.28,425.75 -557.54,815.18l3299.62 0zm8147.37 -1101.7l-1265.42 738.5c-237.86,-264.33 -471.93,-445.93 -704.07,-548.83 -232.16,-102.91 -504.27,-153.35 -816.35,-153.35 -568.96,0 -1029.47,179.58 -1379.6,536.72 -352.03,359.17 -527.1,817.2 -527.1,1378.14 0,544.8 169.36,988.7 506.17,1333.74 338.72,345.04 782.09,516.55 1332.02,516.55 679.34,0 1208.35,-246.17 1588.93,-738.5l1196.91 871.67c-650.78,895.89 -1567.98,1343.84 -2753.48,1343.84 -1067.53,0 -1902.9,-334.95 -2506.11,-1002.83 -603.22,-667.89 -905.78,-1448.76 -905.78,-2344.65 0,-621.47 146.52,-1192.5 439.56,-1715.1 294.96,-522.6 704.08,-934.23 1231.18,-1232.86 525.19,-298.63 1113.19,-447.94 1763.98,-447.94 603.22,0 1143.64,127.12 1623.17,381.36 479.53,254.24 871.53,615.42 1175.99,1083.54z"/>
  <path class="fil3 str0" d="M25104.73 12471.8l569.01 0c4.03,-841.41 18.16,-1337.78 40.35,-1491.13 44.39,-353.11 191.69,-633.58 443.91,-839.4 254.24,-205.81 611.38,-308.71 1073.45,-308.71 334.95,0 710.26,76.67 1129.95,230.02l0 1226.8c-232.04,-66.58 -421.71,-100.88 -571.03,-100.88 -187.65,0 -324.86,38.33 -411.62,117.03 -62.55,58.51 -94.84,181.6 -94.84,365.21l-6.05 801.06 1023.01 0 0 1368.04 -1016.96 0 0 5060.56 -1610.17 0 0 -5060.56 -569.01 0 0 -1368.04zm4828.11 0l1634.39 0 0 3091.21c0,601.3 42.38,1018.98 125.1,1253.04 82.73,234.06 215.91,415.66 399.52,546.81 183.62,129.14 411.63,193.71 679.99,193.71 268.36,0 498.39,-64.57 686.04,-191.69 187.65,-127.12 326.88,-314.77 417.68,-562.96 66.58,-185.63 100.89,-581.11 100.89,-1186.44l0 -3143.68 1610.17 0 0 2719.94c0,1121.88 -88.78,1888.63 -266.34,2302.28 -215.9,504.44 -536.73,889.83 -958.44,1160.21 -421.71,268.37 -958.44,403.56 -1608.16,403.56 -706.22,0 -1275.23,-157.39 -1711.07,-472.16 -435.83,-314.77 -742.53,-752.63 -920.1,-1315.59 -127.12,-389.42 -189.67,-1097.66 -189.67,-2124.7l0 -2673.54zm7568.25 0l1392.26 0 0 817.19c149.31,-318.81 347.05,-560.94 593.22,-726.4 248.19,-165.45 518.57,-248.18 811.14,-248.18 207.83,0 425.75,54.48 653.76,165.46l-500.41 1392.26c-187.65,-94.84 -343.02,-141.25 -464.08,-141.25 -246.17,0 -456.02,153.35 -625.51,460.05 -171.51,306.7 -256.26,908 -256.26,1803.89l6.06 312.75 0 2592.83 -1610.18 0 0 -6428.6z"/>
  <path class="fil2 str0" d="M17243.19 7319.1c611.33,0 1186.11,151.33 1724.33,454 540.24,302.66 958.63,712.27 1261.25,1230.83 302.63,520.59 452.91,1079.51 452.91,1680.8 0,605.33 -152.32,1170.31 -454.94,1696.95 -304.65,526.63 -718.98,938.26 -1242.97,1234.87 -526.03,296.61 -1102.84,445.93 -1734.48,445.93 -930.2,0 -1724.33,-326.88 -2380.34,-980.64 -658.05,-655.77 -987.07,-1450.77 -987.07,-2385 0,-1002.83 371.67,-1838.18 1115.02,-2506.07 651.96,-581.11 1399.37,-871.67 2246.29,-871.67zm24.38 1513.32c-505.73,0 -926.14,173.53 -1261.26,520.59 -335.12,349.07 -503.69,792.98 -503.69,1335.76 0,556.9 166.55,1008.88 497.6,1353.92 331.06,345.04 751.47,518.57 1261.25,518.57 507.76,0 930.2,-175.55 1269.38,-524.62 337.15,-349.08 505.72,-799.04 505.72,-1347.87 0,-550.85 -166.54,-996.78 -497.59,-1341.81 -331.06,-343.03 -755.54,-514.54 -1271.41,-514.54z"/>
  <path class="fil3 str0" d="M5934.63 20543.98l-521.83 676.71 519.94 688.73 -288.26 0 -468.43 -661.86 0 661.86 -235.15 0 0 -1365.44 235.15 0 0 658.06 489.29 -658.06 269.29 0zm1794.05 1365.44l-252.54 0 -128.96 -345.15 -524.37 0 -127.38 345.15 -250.64 0 536.69 -1365.44 212.4 0 534.8 1365.44zm-457.36 -553.76l-183.64 -516.47 -186.8 516.47 370.44 0zm2643.97 -811.68l-487.38 677.03 487.38 688.41 -293.95 0 -428.59 -665.65 0 665.65 -231.37 0 0 -665.65 -428.6 665.65 -293.95 0 487.39 -688.41 -489.29 -677.03 274.99 0 449.46 659.96 0 -659.96 231.37 0 0 659.96 449.45 -659.96 273.09 0zm1788.35 1632.84l-221.88 0 0 -267.4 -796.51 0 0 267.4 -221.88 0 0 -483.6 108.09 0 388.78 -1149.24 244.64 0 388.77 1149.24 109.99 0 0 483.6zm-342.31 -483.6l-277.83 -850.87 -279.72 850.87 557.55 0zm2193.25 216.2l-235.16 0 0 -1365.44 235.16 0 0 1365.44zm-335.67 -417.22c0,141.6 -48.68,248.44 -146.03,320.5 -85.97,64.48 -202.92,96.72 -350.84,96.72l-341.36 0 0 -1365.44 235.16 0 0 531c180.79,0 317.97,24.02 411.53,72.07 127.69,65.74 191.54,180.79 191.54,345.15zm-235.16 -0.95c0,-79.33 -24.02,-134.65 -72.07,-166.25 -39.19,-26.24 -100.51,-39.51 -183.95,-39.51l-111.89 0 0 407.73 109.99 0c171.95,0 257.92,-67.32 257.92,-201.97zm2201.78 -1324.67c0,85.97 -28.44,160.57 -85.02,223.78 -56.89,63.22 -127.38,94.83 -211.77,94.83 -84.39,0 -153.93,-31.61 -208.93,-94.83 -54.68,-63.21 -82.18,-137.81 -82.18,-223.78l162.47 0c0,45.52 10.11,82.81 30.34,111.89 24.02,34.14 57.21,51.21 100.2,51.21 86.92,0 130.53,-54.37 130.53,-163.1l164.36 0zm235.16 1742.84l-235.16 0 0 -965.29 -633.41 965.29 -206.71 0 0 -1365.44 235.16 0 0 962.44 634.04 -962.44 206.08 0 0 1365.44zm1792.15 0l-235.16 0 0 -1145.46 -513.93 0 0 1145.46 -235.16 0 0 -1365.44 984.25 0 0 1365.44zm790.82 0l0 -1365.44 375.5 0c146.66,0 262.97,32.87 348.95,98.61 94.82,73.33 142.23,180.8 142.23,322.4 0,137.81 -44.88,244.01 -134.33,318.6 -83.13,70.8 -194.7,106.2 -334.41,106.2l-162.78 0 0 519.63 -235.16 0zm627.73 -941.59c0,-140.97 -86.29,-211.45 -258.55,-211.45l-134.02 0 0 417.22 126.43 0c84.39,0 147.29,-12.65 188.7,-37.62 51.52,-32.87 77.44,-88.81 77.44,-168.15zm2027.3 941.59l-235.16 0 0 -965.29 -633.41 965.29 -206.71 0 0 -1365.44 235.16 0 0 962.44 634.04 -962.44 206.08 0 0 1365.44zm2080.41 -384.98c-56.89,131.49 -140.02,232.95 -249.38,304.38 -109.36,71.43 -235.47,107.15 -378.34,107.15 -198.5,0 -365.38,-69.54 -500.66,-208.61 -135.28,-139.07 -202.92,-308.49 -202.92,-508.25 0,-194.7 68.27,-360.32 204.81,-496.87 136.55,-136.54 302.17,-204.81 496.87,-204.81 145.4,0 274.04,36.34 385.93,109.04 111.89,72.7 193.12,176.06 243.69,310.07l-267.4 0c-84.7,-130.22 -206.08,-195.33 -364.11,-195.33 -127.7,0 -236.11,47.41 -325.24,142.23 -89.14,94.82 -133.7,206.71 -133.7,335.67 0,131.49 43.93,246.54 131.8,345.16 87.87,98.61 196.91,147.92 327.14,147.92 158.03,0 276.88,-62.58 356.53,-187.75l274.98 0zm1596.81 -34.14c0,279.41 -167.52,419.12 -502.56,419.12l-362.22 0 0 -1365.44 347.05 0c131.49,0 235.16,27.81 311.02,83.44 87.24,63.21 130.86,158.04 130.86,284.47 0,117.58 -49.94,204.81 -149.82,261.71 69.53,21.49 124.53,61.32 164.99,119.47 40.46,58.16 60.68,123.91 60.68,197.23zm-311.01 -564.19c0,-110.63 -70.49,-165.94 -211.14,-165.94l-113.16 0 0 347.05 81.23 0c162.15,0 243.07,-60.37 243.07,-181.11zm75.85 577.47c0,-139.07 -80.28,-208.61 -240.84,-208.61l-159.31 0 0 398.25 157.41 0c111.26,0 183.95,-28.44 218.09,-85.34 16.44,-26.55 24.65,-61.31 24.65,-104.3zm2313.68 -282.57c0,199.76 -67.64,368.86 -202.92,507.3 -135.28,138.44 -302.17,207.66 -500.66,207.66 -195.97,0 -362.54,-69.85 -499.72,-209.56 -137.18,-139.7 -205.76,-308.17 -205.76,-505.4 0,-193.44 69.53,-359.06 208.61,-496.87 139.07,-137.81 305.32,-206.71 498.76,-206.71 194.7,0 360.33,68.58 496.87,205.76 136.55,137.18 204.82,303.12 204.82,497.82zm-240.85 -3.79c0,-126.43 -45.83,-237.38 -137.49,-332.83 -91.66,-95.46 -200.08,-143.18 -325.24,-143.18 -126.43,0 -235.48,48.04 -327.14,144.13 -91.66,96.08 -137.49,207.97 -137.49,335.67 0,132.75 44.88,247.8 134.64,345.15 89.77,97.35 199.76,146.03 329.99,146.03 135.28,0 247.17,-49.31 335.67,-147.92 84.71,-94.83 127.06,-210.51 127.06,-347.05zm1695.43 692.2l-720.65 0 0 -1365.44 720.65 0 0 212.4 -485.49 0 0 358.43 483.6 0 0 210.5 -483.6 0 0 367.91 485.49 0 0 216.2zm1619.57 -1742.84c0,85.97 -28.44,160.57 -85.02,223.78 -56.89,63.22 -127.38,94.83 -211.77,94.83 -84.39,0 -153.93,-31.61 -208.93,-94.83 -54.68,-63.21 -82.18,-137.81 -82.18,-223.78l162.47 0c0,45.52 10.11,82.81 30.34,111.89 24.02,34.14 57.21,51.21 100.2,51.21 86.92,0 130.53,-54.37 130.53,-163.1l164.36 0zm235.16 1742.84l-235.16 0 0 -965.29 -633.41 965.29 -206.71 0 0 -1365.44 235.16 0 0 962.44 634.04 -962.44 206.08 0 0 1365.44zm2336.44 0l-1526.65 0 0 -1365.44 235.16 0 0 1149.24 417.22 0 0 -1149.24 219.99 0 0 1149.24 419.12 0 0 -1149.24 235.16 0 0 1365.44zm1835.76 -1365.44l-580.31 1365.44 -243.07 0 128.96 -298.69 -481.38 -1066.75 245.59 0 349.58 788.92 335.36 -788.92 245.27 0zm1503.89 948.22c0,142.87 -48.68,250.33 -146.03,322.4 -84.71,63.21 -201.02,94.82 -348.94,94.82l-352.74 0 0 -1365.44 768.06 0 0 216.19 -536.7 0 0 314.81c150.45,0 254.76,6.96 312.92,20.86 202.29,49.31 303.43,181.43 303.43,396.36zm-235.16 -0.95c0,-79.33 -24.02,-134.65 -71.75,-166.25 -38.88,-26.24 -99.88,-39.51 -183.01,-39.51l-126.43 0 0 407.73 124.54 0c170.99,0 256.65,-67.32 256.65,-201.97zm1682.15 418.17l-720.65 0 0 -1365.44 720.65 0 0 212.4 -485.49 0 0 358.43 483.6 0 0 210.5 -483.6 0 0 367.91 485.49 0 0 216.2z"/>
 </g>
</svg>
