<svg width="58" height="58" viewBox="0 0 58 58" fill="none" xmlns="http://www.w3.org/2000/svg">
<rect width="58" height="58" rx="20" fill="#18898D"/>
<path d="M20.9521 18.3333C18.962 18.3333 17.2587 19.7432 16.0479 21.6833C14.8372 23.6234 14.0667 26.1978 14.0667 29C14.0667 30.7507 14.4917 32.5132 15.3521 33.9312C16.2125 35.3492 17.6302 36.4666 19.4 36.4666C21.0279 36.4666 22.0776 35.3139 22.7396 34.4458C22.9433 34.1786 23.0738 34.0037 23.2271 33.7958C23.2933 34.0518 23.3539 34.2557 23.4292 34.577C23.5581 35.1272 23.6966 35.7161 23.9854 36.2833C24.1298 36.5669 24.3152 36.856 24.6146 37.1041C24.914 37.3523 25.3529 37.5333 25.7917 37.5333C26.6632 37.5333 27.2525 36.9884 27.5437 36.7291C27.7308 36.5627 27.7439 36.5829 27.7937 36.5604C27.9175 36.7542 28.0843 37.0869 28.2958 37.4875C28.5217 37.9153 28.7928 38.4046 29.2354 38.8416C29.678 39.2787 30.3614 39.6458 31.1354 39.6458C31.2768 39.6478 31.4171 39.6217 31.5483 39.569C31.6794 39.5163 31.7988 39.438 31.8995 39.3388C32.0001 39.2395 32.0801 39.1213 32.1346 38.9909C32.1892 38.8604 32.2173 38.7205 32.2173 38.5791C32.2173 38.4378 32.1892 38.2978 32.1346 38.1674C32.0801 38.037 32.0001 37.9187 31.8995 37.8195C31.7988 37.7202 31.6794 37.642 31.5483 37.5893C31.4171 37.5366 31.2768 37.5105 31.1354 37.5125C30.951 37.5125 30.8943 37.4819 30.7333 37.3229C30.5723 37.1639 30.375 36.8585 30.1812 36.4916C29.9875 36.1248 29.8028 35.7093 29.5208 35.2958C29.2388 34.8823 28.7162 34.3333 27.9333 34.3333C27.0563 34.3333 26.4329 34.8634 26.125 35.1375C25.9075 35.331 25.9176 35.3093 25.8896 35.3229C25.887 35.3181 25.888 35.3218 25.8854 35.3166C25.7669 35.0839 25.6273 34.6061 25.5062 34.0895C25.3852 33.573 25.278 33.0216 25.0812 32.4937C24.9828 32.2298 24.8674 31.963 24.6333 31.6895C24.3993 31.4161 23.9524 31.1333 23.4708 31.1333C22.6583 31.1333 22.2252 31.6343 21.9062 32.0104C21.5873 32.3865 21.3228 32.7882 21.0437 33.1541C20.4857 33.886 20.0121 34.3333 19.4 34.3333C18.4978 34.3333 17.782 33.8219 17.1771 32.825C16.5722 31.8281 16.2 30.3895 16.2 29C16.2 26.5958 16.8859 24.3707 17.8583 22.8125C18.8308 21.2542 20.0377 20.4666 20.9521 20.4666C22.225 20.4666 22.7531 21.1396 23.1687 21.9979C23.5844 22.8561 23.6708 23.7541 23.6708 23.7541C23.6775 23.8973 23.7129 24.0376 23.775 24.1667C23.8371 24.2959 23.9246 24.4112 24.0322 24.5058C24.1398 24.6004 24.2654 24.6723 24.4015 24.7173C24.5375 24.7623 24.6812 24.7794 24.824 24.7677C24.9668 24.7559 25.1058 24.7155 25.2326 24.6488C25.3595 24.5822 25.4716 24.4907 25.5623 24.3798C25.653 24.2688 25.7204 24.1408 25.7605 24.0032C25.8007 23.8657 25.8127 23.7214 25.7958 23.5791C25.7958 23.5791 25.707 22.3438 25.0896 21.0687C24.4721 19.7936 23.1095 18.3333 20.9521 18.3333ZM41.3437 18.3354C40.4051 18.3838 39.5829 18.9847 39.2437 19.9583L38.8208 21.1729L43.4229 22.5916L43.7875 21.5437C44.2408 20.2445 43.6065 18.9314 42.3083 18.4791C41.9835 18.3658 41.6566 18.3192 41.3437 18.3354ZM38.1187 23.1895L33.9729 35.0916C33.7596 35.7039 33.7337 36.3644 33.8958 36.9916L34.4312 39.0625C34.5752 39.6182 35.2361 39.8497 35.6937 39.5041L37.3979 38.2145C37.9152 37.8231 38.3054 37.2872 38.5187 36.675L42.7208 24.6083L38.1187 23.1895Z" fill="white"/>
</svg>
