<svg width="58" height="58" viewBox="0 0 58 58" fill="none" xmlns="http://www.w3.org/2000/svg">
<rect width="58" height="58" rx="20" fill="#18898D"/>
<path d="M33.2667 15.1458C32.3296 15.1458 31.3922 15.4994 30.6834 16.2083L30.3792 16.5124C29.7201 17.1715 29.0681 18.1086 28.3396 19.102C27.6111 20.0954 26.8287 21.1296 26.1125 21.8458C26.0102 21.944 25.9284 22.0618 25.8721 22.192C25.8158 22.3223 25.7861 22.4625 25.7846 22.6044C25.7832 22.7463 25.8101 22.8871 25.8637 23.0185C25.9174 23.1499 25.9967 23.2692 26.097 23.3696C26.1974 23.4699 26.3167 23.5493 26.4481 23.6029C26.5795 23.6565 26.7203 23.6834 26.8622 23.682C27.0041 23.6805 27.1443 23.6508 27.2746 23.5945C27.4048 23.5382 27.5226 23.4565 27.6209 23.3541C28.5047 22.4703 29.3222 21.3711 30.0604 20.3645C30.7979 19.3589 31.4777 18.4311 31.8854 18.0228L31.8875 18.0208L32.1917 17.7166C32.7943 17.114 33.7391 17.114 34.3417 17.7166L34.6459 18.0208L27.9334 24.7333L33.2667 30.0666L41.175 22.1583C41.8771 21.4562 41.9793 20.3905 41.4979 19.5728C41.9861 18.7104 41.8724 17.5994 41.1375 16.8645L41.1354 16.8624C40.4005 16.1275 39.2895 16.0138 38.4271 16.502C37.7342 16.0941 36.8653 16.1038 36.1875 16.5458L35.85 16.2083C35.1412 15.4994 34.2038 15.1458 33.2667 15.1458ZM25.8 26.8666L19.1438 33.5228C18.6136 34.053 18.2317 34.7132 18.0375 35.4374L17.3438 38.0291L17.3459 38.0312C17.294 38.2163 17.2673 38.4076 17.2667 38.5999C17.2668 38.7863 17.2913 38.9719 17.3396 39.152L16.5125 39.9791C16.4102 40.0774 16.3284 40.1951 16.2721 40.3254C16.2158 40.4556 16.1861 40.5958 16.1846 40.7377C16.1832 40.8797 16.2101 41.0204 16.2637 41.1518C16.3174 41.2832 16.3967 41.4026 16.497 41.5029C16.5974 41.6033 16.7167 41.6826 16.8481 41.7362C16.9795 41.7899 17.1203 41.8168 17.2622 41.8153C17.4041 41.8139 17.5443 41.7841 17.6746 41.7278C17.8048 41.6715 17.9226 41.5898 18.0209 41.4874L18.85 40.6583C19.0293 40.7071 19.2142 40.7323 19.4 40.7332C19.6422 40.7322 19.8824 40.6899 20.1104 40.6082L20.1125 40.6103L22.5563 39.9624C23.2837 39.7683 23.948 39.3853 24.4792 38.8541L31.1334 32.1999L25.8 26.8666Z" fill="white"/>
</svg>
