<svg width="58" height="58" viewBox="0 0 58 58" fill="none" xmlns="http://www.w3.org/2000/svg">
<rect width="58" height="58" rx="20" fill="#18898D"/>
<path d="M29 17.2666C28.2928 17.2666 27.6145 17.5476 27.1144 18.0477C26.6143 18.5477 26.3333 19.226 26.3333 19.9333C26.3333 20.6405 26.6143 21.3188 27.1144 21.8189C27.6145 22.319 28.2928 22.5999 29 22.5999C29.7073 22.5999 30.3855 22.319 30.8856 21.8189C31.3857 21.3188 31.6667 20.6405 31.6667 19.9333C31.6667 19.226 31.3857 18.5477 30.8856 18.0477C30.3855 17.5476 29.7073 17.2666 29 17.2666ZM18.8667 18.3333C18.1594 18.3333 17.4812 18.6142 16.9811 19.1143C16.481 19.6144 16.2 20.2927 16.2 20.9999C16.2 21.7072 16.481 22.3855 16.9811 22.8856C17.4812 23.3856 18.1594 23.6666 18.8667 23.6666C19.5739 23.6666 20.2522 23.3856 20.7523 22.8856C21.2524 22.3855 21.5333 21.7072 21.5333 20.9999C21.5333 20.2927 21.2524 19.6144 20.7523 19.1143C20.2522 18.6142 19.5739 18.3333 18.8667 18.3333ZM39.1333 18.3333C38.4261 18.3333 37.7478 18.6142 37.2477 19.1143C36.7476 19.6144 36.4667 20.2927 36.4667 20.9999C36.4667 21.7072 36.7476 22.3855 37.2477 22.8856C37.7478 23.3856 38.4261 23.6666 39.1333 23.6666C39.8406 23.6666 40.5189 23.3856 41.019 22.8856C41.5191 22.3855 41.8 21.7072 41.8 20.9999C41.8 20.2927 41.5191 19.6144 41.019 19.1143C40.5189 18.6142 39.8406 18.3333 39.1333 18.3333ZM29 24.7333C26.6437 24.7333 24.7333 26.6437 24.7333 28.9999V30.0666H21.5333V28.4666C21.5333 26.9935 20.3397 25.7999 18.8667 25.7999C17.3936 25.7999 16.2 26.9935 16.2 28.4666V33.7999C16.2 35.2138 17.3029 36.3593 18.6938 36.4499V36.4541L23.2417 36.8937L23.6667 40.7333C23.6647 40.8746 23.6908 41.0149 23.7435 41.1461C23.7962 41.2773 23.8745 41.3967 23.9737 41.4973C24.073 41.598 24.1912 41.6779 24.3216 41.7325C24.452 41.787 24.592 41.8151 24.7333 41.8151C24.8747 41.8151 25.0147 41.787 25.1451 41.7325C25.2755 41.6779 25.3937 41.598 25.493 41.4973C25.5922 41.3967 25.6705 41.2773 25.7232 41.1461C25.7759 41.0149 25.802 40.8746 25.8 40.7333V35.9333C25.8 35.227 25.3182 34.6213 24.6729 34.4145V34.4041L21.5333 33.4958V32.1999H36.4667V33.4958L33.3271 34.4041V34.4145C32.6818 34.6213 32.2 35.227 32.2 35.9333V40.7333C32.198 40.8746 32.2241 41.0149 32.2768 41.1461C32.3295 41.2773 32.4078 41.3967 32.507 41.4973C32.6063 41.598 32.7246 41.6779 32.855 41.7325C32.9854 41.787 33.1253 41.8151 33.2667 41.8151C33.408 41.8151 33.548 41.787 33.6784 41.7325C33.8088 41.6779 33.9271 41.598 34.0263 41.4973C34.1256 41.3967 34.2038 41.2773 34.2565 41.1461C34.3092 41.0149 34.3353 40.8746 34.3333 40.7333L34.7583 36.8937L39.3063 36.4541V36.4499C40.6971 36.3593 41.8 35.2138 41.8 33.7999V28.4666C41.8 26.9935 40.6064 25.7999 39.1333 25.7999C37.6603 25.7999 36.4667 26.9935 36.4667 28.4666V30.0666H33.2667V28.9999C33.2667 26.6437 31.3563 24.7333 29 24.7333Z" fill="white"/>
</svg>
