<svg width="58" height="58" viewBox="0 0 58 58" fill="none" xmlns="http://www.w3.org/2000/svg">
<rect width="58" height="58" rx="20" fill="#18898D"/>
<path d="M29 17.2666C24.5349 17.2666 18.7396 18.3854 18.7396 18.3854L18.725 18.402C16.6914 18.7273 15.1333 20.4747 15.1333 22.5999V28.9999V29.002V35.3999V35.402C15.1353 36.417 15.4991 37.398 16.1592 38.1689C16.8194 38.9399 17.7328 39.4502 18.7354 39.6083L18.7396 39.6145C18.7396 39.6145 24.5349 40.7354 29 40.7354C33.4651 40.7354 39.2604 39.6145 39.2604 39.6145L39.2625 39.6124C40.2662 39.4547 41.1806 38.9439 41.8413 38.1721C42.502 37.4003 42.8656 36.418 42.8667 35.402V35.3999V29.002V28.9999V22.5999C42.8652 21.5846 42.5017 20.6031 41.8414 19.8317C41.1812 19.0604 40.2675 18.5498 39.2646 18.3916L39.2604 18.3854C39.2604 18.3854 33.4651 17.2666 29 17.2666ZM25.8 24.0916L34.3333 28.9999L25.8 33.9083V24.0916Z" fill="white"/>
</svg>
