<svg width="58" height="58" viewBox="0 0 58 58" fill="none" xmlns="http://www.w3.org/2000/svg">
<rect width="58" height="58" rx="20" fill="#18898D"/>
<path d="M40.7333 18.3333H17.2667C16.088 18.3333 15.1333 19.2879 15.1333 20.4666V37.5333C15.1333 38.7119 16.088 39.6666 17.2667 39.6666H40.7333C41.912 39.6666 42.8667 38.7119 42.8667 37.5333V20.4666C42.8667 19.2879 41.912 18.3333 40.7333 18.3333ZM21.6336 37.5333C22.2363 34.2533 25.6464 34.6917 26.8667 33.4618V31.1845C26.4731 30.7653 25.9611 30.0143 25.8907 29.3903C25.6389 29.3711 25.2432 29.1397 25.1269 28.2277C25.064 27.7381 25.3136 27.4618 25.464 27.3754C25.464 27.3754 25.0885 26.5861 25.0885 25.801C25.0885 23.4693 26.5189 21.5343 29 21.5343C30.5115 21.5343 30.7781 22.601 30.7781 22.601C32.2341 22.601 32.9115 24.0741 32.9115 25.801C32.9115 26.6618 32.536 27.3754 32.536 27.3754C32.6864 27.4618 32.936 27.7381 32.8731 28.2277C32.7568 29.1397 32.3611 29.3711 32.1093 29.3903C32.0389 30.0154 31.5269 30.7663 31.1333 31.1845V33.4618C32.3525 34.6906 35.7637 34.2533 36.3664 37.5333H21.6336Z" fill="white"/>
</svg>
