<svg width="350" height="350" xmlns="http://www.w3.org/2000/svg" preserveAspectRatio="xMidYMid"><path fill="none" d="M-1-1h352v352H-1z"/><path d="M21.488 65.603H62.87v12.171H21.49v-12.17zm0-22.603H62.87v12.17H21.49V43zm74.243 45.032H21.488v12.171H92.95c7.824 0 26.08.174 32.861 11.128v-6.78c-3.303-10.78-13.04-16.519-30.08-16.519zm.174 22.604H21.488v12.17H92.95c17.387 0 28.34.696 32.861 3.13v-5.39c-3.477-8.52-18.082-9.91-29.905-9.91zm-.174 57.377H21.488v-12.171H92.95c7.824 0 26.08-.174 32.861-11.128v6.781c-3.303 10.78-13.04 16.518-30.08 16.518zm.174-22.603H21.488v-12.171H92.95c17.387 0 28.34-.696 32.861-3.13v5.39c-3.477 8.52-18.082 9.91-29.905 9.91zm47.988 43.641h54.595v-7.476h-53.03c-4.695 0-15.822-.174-19.821-6.607v4.172c1.912 6.434 7.824 9.911 18.256 9.911zm-.174-13.736h54.595v-7.476h-52.856c-10.606 0-17.213-.348-19.821-1.913v3.304c2.086 5.216 10.953 6.085 18.082 6.085z" fill="#010101"/><path fill="#563D7C" d="M188.154 325.937c0 10.161 8.236 18.396 18.396 18.396h105.876c10.16 0 18.395-8.236 18.395-18.396V220.061c0-10.16-8.236-18.395-18.395-18.395H206.55c-10.161 0-18.396 8.236-18.396 18.395v105.876z"/><path fill="#FFF" d="M247.315 264.773v-20.204h17.784c1.694 0 3.327.14 4.9.423 1.573.283 2.964.787 4.174 1.512 1.21.726 2.177 1.735 2.903 3.025.726 1.29 1.09 2.944 1.09 4.96 0 3.63-1.09 6.25-3.267 7.864-2.178 1.613-4.96 2.42-8.348 2.42h-19.236zm-18.994-34.964v86.38h41.86c3.87 0 7.641-.483 11.311-1.451 3.67-.968 6.936-2.46 9.8-4.477 2.863-2.016 5.141-4.617 6.835-7.803s2.54-6.956 2.54-11.312c0-5.403-1.31-10.02-3.931-13.852-2.622-3.83-6.594-6.513-11.917-8.045 3.872-1.855 6.795-4.234 8.771-7.138 1.976-2.904 2.964-6.533 2.964-10.888 0-4.033-.665-7.42-1.996-10.163-1.33-2.742-3.206-4.94-5.626-6.593-2.42-1.654-5.323-2.843-8.71-3.57-3.388-.725-7.138-1.088-11.251-1.088h-40.65zm18.994 71.62v-23.711h20.688c4.113 0 7.42.947 9.92 2.843 2.5 1.895 3.75 5.06 3.75 9.497 0 2.258-.383 4.113-1.149 5.565s-1.794 2.6-3.085 3.448c-1.29.847-2.782 1.451-4.476 1.814a25.346 25.346 0 01-5.323.545h-20.325z"/><path d="M151.502 269.332c-5.798.03-10.838 1.427-15.058 3.491-1.548-3.066-3.096-5.798-3.37-7.802-.303-2.338-.667-3.764-.303-6.557.364-2.793 2.004-6.77 1.973-7.074-.03-.304-.364-1.73-3.703-1.76-3.34-.031-6.224.637-6.558 1.517-.334.88-.971 2.884-1.396 4.949-.577 3.035-6.679 13.873-10.17 19.55-1.123-2.216-2.095-4.159-2.307-5.707-.304-2.338-.668-3.764-.304-6.557.364-2.793 2.004-6.77 1.973-7.074-.03-.303-.364-1.73-3.703-1.76-3.34-.031-6.224.637-6.558 1.517-.334.88-.698 2.945-1.396 4.949-.698 2.003-8.804 20.097-10.93 24.772a139.767 139.767 0 01-2.701 5.616s-.03.091-.122.243a76.848 76.848 0 01-.91 1.73v.03c-.456.82-.941 1.58-1.184 1.58-.182 0-.516-2.186.06-5.161 1.215-6.285 4.099-16.06 4.068-16.394 0-.182.547-1.882-1.882-2.762-2.368-.88-3.218.576-3.43.576-.213 0-.365.516-.365.516s2.642-10.99-5.039-10.99c-4.797 0-11.415 5.253-14.693 9.989a4065.335 4065.335 0 00-11.172 6.102c-1.791 1.001-3.643 2.003-5.374 2.944-.121-.121-.242-.273-.364-.394-9.29-9.927-26.472-16.94-25.744-30.267.274-4.858 1.943-17.608 33-33.09 25.561-12.6 45.901-9.108 49.423-1.367 5.04 11.05-10.899 31.573-37.31 34.548-10.08 1.123-15.362-2.763-16.697-4.22-1.397-1.518-1.61-1.61-2.125-1.306-.85.456-.304 1.822 0 2.611.789 2.065 4.037 5.708 9.532 7.499 4.857 1.578 16.667 2.459 30.965-3.066 16-6.194 28.507-23.407 24.833-37.827-3.673-14.632-27.96-19.46-50.94-11.293-13.662 4.857-28.477 12.508-39.132 22.465-12.66 11.84-14.663 22.131-13.844 26.442 2.945 15.3 24.044 25.258 32.484 32.635-.425.243-.82.456-1.154.638-4.22 2.094-20.31 10.504-24.317 19.399-4.554 10.079.729 17.304 4.22 18.275 10.838 3.006 21.98-2.398 27.96-11.323 5.98-8.926 5.252-20.523 2.49-25.835a.635.635 0 00-.122-.182c1.093-.638 2.216-1.306 3.309-1.943a161.445 161.445 0 016.102-3.43c-1.032 2.823-1.791 6.192-2.156 11.05-.455 5.707 1.882 13.114 4.949 16.029 1.366 1.275 2.975 1.305 4.007 1.305 3.582 0 5.191-2.975 6.982-6.496 2.186-4.311 4.16-9.32 4.16-9.32s-2.46 13.54 4.22 13.54c2.428 0 4.887-3.158 5.98-4.767v.03s.06-.09.182-.303c.243-.395.395-.638.395-.638v-.06c.971-1.7 3.157-5.556 6.405-11.962 4.19-8.257 8.227-18.579 8.227-18.579s.365 2.52 1.61 6.71c.728 2.458 2.246 5.16 3.46 7.771a52.024 52.024 0 01-1.579 2.125l.03.03c-.788 1.033-1.639 2.156-2.58 3.249-3.309 3.946-7.255 8.47-7.802 9.775-.637 1.548-.485 2.672.729 3.582.88.668 2.459.76 4.068.668 2.975-.212 5.07-.94 6.102-1.396 1.609-.577 3.491-1.457 5.252-2.763 3.248-2.398 5.221-5.829 5.04-10.352-.092-2.49-.911-4.979-1.913-7.316.303-.425.577-.85.88-1.275 5.13-7.499 9.108-15.726 9.108-15.726s.364 2.52 1.609 6.71c.607 2.124 1.851 4.432 2.944 6.678-4.827 3.916-7.802 8.47-8.864 11.445-1.913 5.525-.425 8.015 2.398 8.592 1.275.273 3.097-.334 4.432-.911 1.7-.547 3.704-1.488 5.617-2.884 3.248-2.398 6.375-5.738 6.193-10.261-.091-2.065-.638-4.099-1.397-6.072 4.099-1.7 9.381-2.641 16.12-1.852 14.451 1.7 17.305 10.717 16.758 14.511-.546 3.795-3.582 5.86-4.584 6.497-1.002.638-1.336.85-1.244 1.306.121.667.607.637 1.457.516 1.184-.213 7.59-3.067 7.863-10.049.455-8.925-8.045-18.67-23.073-18.58zM40.027 306.915c-4.797 5.222-11.476 7.195-14.36 5.526-3.096-1.792-1.882-9.503 4.008-15.028 3.582-3.37 8.196-6.496 11.262-8.409.699-.425 1.73-1.032 2.976-1.791.212-.122.334-.182.334-.182l.728-.456c2.156 7.893.091 14.845-4.948 20.34zm34.912-23.74c-1.67 4.068-5.161 14.481-7.286 13.904-1.822-.486-2.945-8.379-.365-16.18 1.306-3.917 4.068-8.592 5.677-10.414 2.611-2.914 5.495-3.885 6.193-2.701.88 1.548-3.187 12.841-4.22 15.391zm28.81 13.783c-.699.364-1.366.607-1.67.425-.213-.122.304-.607.304-.607s3.612-3.886 5.039-5.647c.82-1.032 1.791-2.246 2.823-3.613v.395c0 4.645-4.493 7.772-6.496 9.047zm22.222-5.07c-.516-.364-.425-1.579 1.305-5.373.668-1.488 2.247-3.977 4.949-6.376.303.972.516 1.913.485 2.793-.03 5.86-4.22 8.045-6.74 8.956z" fill="#CD6799"/><g fill="#DA4648" fill-rule="evenodd"><path d="M256.6 150.232c-10.888 0-19.302-1.636-23.348-2.611-2.767-.667-4.989-1.356-6.676-2.065l5.396 9.22 2.11 28.805c0 3.23 10.26 5.848 22.914 5.848 12.655 0 22.914-2.618 22.914-5.848l1.671-29.12 5.106-8.932c-1.695.718-3.937 1.417-6.738 2.092-4.046.975-12.46 2.61-23.348 2.61zm30.262-93.736c-7.992 1.116-18.598 1.73-29.866 1.73-11.267 0-21.874-.614-29.866-1.73-3.958-.553-7.09-1.205-9.309-1.937-.529-.176-1.426-.474-2.288-.95l4.951 45.57c.23-.785.486-1.568.77-2.35a44.55 44.55 0 012.017-4.693 41.575 41.575 0 012.493-4.334 33.516 33.516 0 012.868-3.757 22.904 22.904 0 013.122-2.953c1.068-.824 2.145-1.469 3.233-1.933 1.088-.464 2.166-.696 3.233-.696 1.23 0 2.42.336 3.568 1.008 1.149.672 2.223 1.761 3.223 3.266.23.336.375.676.436 1.02.06.344.09.668.09.972 0 .72-.171 1.289-.516 1.705-.344.416-.753.624-1.226.624-.433 0-.835-.228-1.206-.684-.372-.456-.788-1.108-1.247-1.957-.433-.768-.91-1.324-1.43-1.668a3.01 3.01 0 00-1.692-.517c-.946 0-1.956.393-3.03 1.177-1.075.784-2.139 1.82-3.192 3.109-1.055 1.289-2.065 2.76-3.03 4.418a46.101 46.101 0 00-2.565 5.089 36.352 36.352 0 00-1.774 5.139c-.44 1.688-.659 3.204-.659 4.549 0 .448.031.909.092 1.38.06.473.175.9.344 1.285.169.385.399.7.69.948.29.248.658.372 1.104.372.5 0 1.067-.168 1.703-.504a12.794 12.794 0 001.976-1.32 24.818 24.818 0 002.058-1.85 32.946 32.946 0 003.506-4.116c.46-.648.804-1.213 1.034-1.693l1.885-5.642c.23-.608.53-1.04.902-1.296.372-.257.754-.385 1.146-.385.188 0 .377.032.567.096.19.064.358.165.507.3.149.137.267.312.354.529.088.215.132.468.132.756 0 .768-.067 1.488-.202 2.16a17.18 17.18 0 01-.518 1.97 33.97 33.97 0 01-.699 1.932 47.777 47.777 0 00-.75 2.03c-.054.08-.151.33-.294.755a137.434 137.434 0 00-1.176 3.746c-.236.792-.479 1.6-.729 2.424-.25.825-.49 1.633-.72 2.426a612.694 612.694 0 00-1.075 3.757 23.6 23.6 0 01-.222.769 5 5 0 01-.324.851 5.625 5.625 0 01-.527.889 3.24 3.24 0 01-.67.696c-.242.183-.492.276-.75.276-.431 0-.746-.144-.941-.432-.197-.288-.294-.816-.294-1.584v-.337c0-.112.006-.232.02-.36.013-.256.115-.736.304-1.441.19-.704.415-1.5.68-2.388.263-.889.547-1.81.85-2.762.304-.952.578-1.804.822-2.556-.718.8-1.494 1.596-2.332 2.389a25.144 25.144 0 01-2.574 2.136 15.265 15.265 0 01-2.655 1.55c-.892.399-1.75.6-2.575.6-.946 0-1.76-.209-2.443-.625a5.562 5.562 0 01-.355-.244l2.755 28.887c.718 1.798 14.22 6.215 32.025 6.215 17.812 0 31.32-4.421 32.025-6.218l3.958-34.344c-.328.3-.647.594-.952.878a41.498 41.498 0 01-3.213 2.725c-1.006.76-1.99 1.349-2.95 1.764a7.652 7.652 0 01-3.08.625c-1.027 0-1.822-.224-2.382-.673-.56-.447-.842-1.063-.842-1.848v-.18c0-.056.007-.124.021-.204.054-.48.264-1.033.629-1.657a19.03 19.03 0 011.316-1.944 53.62 53.62 0 011.642-2.041 94.421 94.421 0 001.612-1.957c.493-.615.902-1.18 1.226-1.693.325-.512.487-.928.487-1.248a.566.566 0 00-.202-.457c-.136-.11-.36-.168-.67-.168-.54 0-1.098.14-1.671.42a8.306 8.306 0 00-1.704 1.13 15.43 15.43 0 00-1.642 1.62 23.913 23.913 0 00-1.5 1.896 27.855 27.855 0 00-2.26 3.817c-.08.177-.196.426-.345.745-.148.32-.31.681-.486 1.08-.176.401-.362.814-.558 1.237-.195.425-.374.825-.536 1.2l-.435 1.009c-.13.296-.22.5-.275.612a15.32 15.32 0 00-.334.816c-.156.4-.335.869-.537 1.405l-.64 1.693a471.76 471.76 0 00-1.144 3.073c-.148.4-.244.672-.284.816a8.755 8.755 0 01-.476 1.177 4.845 4.845 0 01-.629.972c-.236.28-.506.504-.81.672a2.073 2.073 0 01-1.023.252c-.488 0-.889-.117-1.207-.348-.317-.232-.476-.677-.476-1.332 0-.32.04-.649.121-.984.081-.337.183-.67.305-.997.121-.329.246-.648.375-.96.128-.313.246-.612.354-.9.73-1.601 1.473-3.206 2.23-4.815a225.23 225.23 0 002.18-4.777c.144-.33.277-.651.418-.978l-.125.125a26.91 26.91 0 01-2.625 2.245 13.923 13.923 0 01-2.594 1.549c-.859.383-1.693.576-2.505.576-.553 0-1.016-.088-1.387-.264a2.316 2.316 0 01-.892-.72 2.877 2.877 0 01-.477-1.08c-.032-.143-.052-.292-.073-.44-.237.185-.476.365-.718.536a14.55 14.55 0 01-2.473 1.428c-.81.36-1.54.54-2.188.54-.65 0-1.176-.216-1.582-.649-.405-.431-.607-1.168-.607-2.208 0-.737.108-1.593.323-2.569-.35.624-.79 1.257-1.317 1.896a11.556 11.556 0 01-1.804 1.754 9.014 9.014 0 01-2.27 1.284c-.838.328-1.75.492-2.737.492-.446 0-.875-.056-1.287-.168a2.698 2.698 0 01-1.084-.576c-.311-.272-.56-.637-.75-1.093-.19-.455-.284-1.028-.284-1.716 0-.016.027-.26.081-.733.054-.472.226-1.216.517-2.233.29-1.016.74-2.333 1.347-3.95.61-1.616 1.467-3.577 2.575-5.88.284-.61.612-1.046.983-1.31a2.041 2.041 0 011.794-.312c.203.056.392.144.568.264.175.12.317.273.426.457.107.183.162.395.162.635 0 .16-.02.313-.061.456-.068.274-.214.629-.435 1.069-.224.44-.484.945-.782 1.513-.297.568-.611 1.18-.942 1.837a26.214 26.214 0 00-.922 2.04 20.373 20.373 0 00-.73 2.15 9.26 9.26 0 00-.344 2.124c0 .288.067.552.202.792s.359.36.67.36c.877 0 1.715-.288 2.513-.864a11.17 11.17 0 002.209-2.149 20.632 20.632 0 001.834-2.761 34.92 34.92 0 001.368-2.7c.257-.545.484-1.13.68-1.753.195-.625.409-1.2.638-1.73.23-.528.493-.968.79-1.32a1.4 1.4 0 011.115-.528c.487 0 .872.184 1.156.552.284.369.425.809.425 1.32 0 .288-.09.685-.273 1.19-.183.504-.413 1.08-.69 1.728-.277.649-.577 1.34-.901 2.076a36.446 36.446 0 00-.902 2.246c-.278.76-.507 1.504-.69 2.233a8.364 8.364 0 00-.273 2.028c0 .576.297.865.891.865.42 0 .94-.144 1.561-.433.622-.288 1.274-.692 1.956-1.213.17-.13.342-.265.513-.407.19-.786.413-1.512.673-2.173.473-1.249.953-2.489 1.44-3.721a2277.3 2277.3 0 011.338-3.386l6.141-15.485c.243-.625.571-1.065.983-1.321.413-.256.828-.384 1.247-.384.418 0 .8.136 1.145.408.345.273.517.712.517 1.32 0 .289-.057.593-.172.913-.115.32-.26.664-.436 1.032-.338.753-.74 1.673-1.206 2.761a419.559 419.559 0 00-3.142 7.55c-.56 1.386-1.108 2.734-1.642 4.046a489.007 489.007 0 00-2.706 6.795 13.48 13.48 0 00-.435 1.285 4.729 4.729 0 00-.213 1.309c0 .239.04.43.121.575.082.144.237.217.466.217.284 0 .639-.1 1.065-.3.425-.2.884-.465 1.378-.793a22.009 22.009 0 001.54-1.129 47.857 47.857 0 003.101-2.689c.48-.456.91-.876 1.288-1.26a.91.91 0 01.312-.206c.228-.682.436-1.35.62-2.002.108-.289.257-.696.446-1.225.189-.529.406-1.049.649-1.561s.517-.957.82-1.332c.305-.376.632-.565.984-.565.54 0 .933.125 1.176.372.243.25.364.613.364 1.093 0 .096-.013.248-.04.456a13.507 13.507 0 01-.233 1.321 2.99 2.99 0 01-.132.456 27.34 27.34 0 011.621-1.62 16.689 16.689 0 011.804-1.453 10.426 10.426 0 011.907-1.057 5.01 5.01 0 011.945-.408c.446 0 .888.064 1.327.193.44.127.832.316 1.176.563.345.25.626.56.841.937.216.376.324.812.324 1.308 0 .657-.165 1.357-.496 2.102a15.13 15.13 0 01-1.246 2.243c-.5.753-1.041 1.485-1.622 2.198a83.875 83.875 0 01-1.631 1.944c-.507.585-.933 1.08-1.278 1.489-.344.409-.524.684-.537.829a.63.63 0 00.183.468c.121.12.324.18.608.18.23 0 .568-.128 1.013-.384.446-.257 1.071-.7 1.875-1.333a93.686 93.686 0 003.06-2.545c.849-.73 1.842-1.6 2.96-2.588l5.361-49.65c-.863.477-1.761.776-2.291.952-2.218.732-5.35 1.384-9.31 1.937zm-29.898-11.78c-23.176 0-41.965 2.591-41.965 5.788s18.789 5.789 41.965 5.789c23.177 0 41.966-2.592 41.966-5.789 0-3.197-18.79-5.788-41.966-5.788zm16.756 7.48c0 .75-2.232 1.358-4.987 1.358-2.754 0-4.987-.608-4.987-1.358 0-.75 2.233-1.359 4.987-1.359 2.755 0 4.987.608 4.987 1.359z"/><path d="M264.756 51.595a.225.225 0 00-.038.121c0 .486 1.798.879 4.015.879 2.217 0 4.015-.393 4.015-.879l5.243-21.261 20.854-22.018a.414.414 0 00.02-.02c.441-.5-.454-2.045-1.94-3.37-1.487-1.325-3.092-1.773-3.59-1.269a.362.362 0 00-.011.012l-22.25 23.413-6.318 24.392z"/></g></svg>