<svg width="280" height="190" xmlns="http://www.w3.org/2000/svg"><style>.st1{fill:#29a9df}.st2{fill:#cfcfcf}</style><g id="svg_24" transform="translate(58 23) scale(.38986)"><g id="svg_13"><path id="svg_15" d="M286-41h60l-1 19h-41V5h41v16h-59v-62z"/><path id="svg_16" d="M353-41h60v18h-44v7h44v37h-60V6h42v-9h-42v-38z"/><path id="svg_17" d="M420-41h60v18h-44v7l44 1v36h-60V6h42v-9h-42v-38z"/></g><g id="svg_12"><path id="svg_18" d="M221 46h324a45629 45629 0 01-29 330l-69 19-64 18h-1l-60-17-71-20-9-96-16-179-5-53v-2m163 26l-1 39H272l4 38 104 1-91 39-8 4c0 14 2 27 3 41h56l44-1-1 68-29-5-24-5-3-32-6-1h-34c1 21 3 42 6 62l33 9 51 13 6 1v41l12-2 95-27 4-37 10-115 12-131H384z" fill="#0170ba"/></g><g id="svg_11"><path id="svg_19" d="M384 72h132l-12 131-10 115-4 37-95 27-12 2v-41h1l89-24c3-41 8-83 10-125h-86l41-19 41-18 7-4 1-10 3-31-107-1 1-39z" class="st1"/><path id="svg_20" d="M384 233l51 1-3 52-32 10-17 5 1-68z" class="st1"/></g><g id="svg_10"><path id="svg_21" d="M272 111h111l1 123H284c-1-14-3-27-3-41l8-4 91-39-104-1-4-38z" class="st2"/><path id="svg_22" d="M287 258h34l6 1 3 32 24 5 29 5 1 42h-1l-6-1-51-13-33-9c-3-20-5-41-6-62z" class="st2"/></g><g id="svg_9"><path id="svg_23" d="M383 111h107l-2 32-2 10-7 4-40 18c-14 6-29 11-42 18l11 1h75c-2 42-6 83-10 125l-89 24-1-42 17-5 32-10 3-52-51-1-1-122z" fill="#fff"/></g></g><g id="svg_45" transform="translate(-30 -39) scale(.3484)"><g id="svg_31"><g id="svg_32"><g id="svg_33"><path id="svg_34" d="M140 129h23v23h22v-23h23v69h-23v-23h-22v23h-23v-69z"/><path id="svg_35" d="M238 152h-20v-23h63v23h-20v46h-23v-46z"/><path id="svg_36" d="M292 129h24l14 24 15-24h24v69h-23v-34l-16 24-16-24v34h-22v-69z"/><path id="svg_37" d="M381 129h23v46h32v23h-55v-69z"/></g></g></g><g id="svg_29"><g id="svg_38"><path id="svg_39" fill="#E34E26" d="M139 600l-33-372h364l-33 372-149 41z"/><path id="svg_40" fill="#EF662A" d="M288 259v351l120-34 29-317z"/><path id="svg_41" fill="#FFF" d="M174 304l12 138h158l-5 59-51 14-51-14-3-38h-46l6 73 94 26 93-26 13-140H228l-4-46h174l4-46z"/><g id="svg_42" fill="#EBEBEB"><path id="svg_43" d="M288 304H174l12 138h102v-46h-60l-4-46h64z"/><path id="svg_44" d="M288 515l-51-14-3-38h-46l6 73 94 26z"/></g></g></g></g></svg>