<svg xmlns="http://www.w3.org/2000/svg" height="440" width="800"><path d="M574.62 320.7l21.378-54.059h61.724l-29.292-82.004 36.636-92.648L770 370.6h-77.385l-17.932-49.9H574.62z" fill="#616161"/><path d="M508.6 370.601L620.935 91.99H546.46l-76.843 180.046L414.974 91.99H357.73l-58.672 180.045-41.377-82.043-37.445 115.36 38.018 65.249h73.291l53.02-161.462 50.55 161.462H508.6z" fill="#fb8c00"/><path d="M100.693 274.958h45.872c13.895 0 26.269-1.551 37.12-4.653l11.863-36.548 33.156-102.146a81.616 81.616 0 00-8.653-11.358c-17.023-18.843-41.93-28.264-74.72-28.264H30V370.6h70.693v-95.643zm60.718-118.872c6.65 6.692 9.974 15.648 9.974 26.867 0 11.306-2.924 20.272-8.771 26.9-6.411 7.364-18.215 11.045-35.412 11.045h-26.51v-74.85h26.705c16.027 0 27.365 3.346 34.014 10.038z" fill="#616161"/><path fill="none" d="M0 0h800v440H0z"/></svg>