<?xml version="1.0" encoding="UTF-8"?>
<svg width="374px" height="84px" viewBox="0 0 374 84" version="1.1" xmlns="http://www.w3.org/2000/svg" xmlns:xlink="http://www.w3.org/1999/xlink">
    <!-- Generator: Sketch 55.2 (78181) - https://sketchapp.com -->
    <title>Palm_color</title>
    <desc>Created with Sketch.</desc>
    <g id="Page-1" stroke="none" stroke-width="1" fill="none" fill-rule="evenodd">
        <g id="Artboard-2" transform="translate(-326.000000, -318.000000)">
            <g id="Palmarius-color-(svg)" transform="translate(328.000000, 320.000000)">
                <g id="Group">
                    <polygon id="Path" fill="#424351" fill-rule="nonzero" points="31.7647639 34.7850836 31.7405469 34.8081694 31.7497444 34.8135318"/>
                    <path d="M9.55010581,44.182841 C8.9250275,42.9432693 8.61557383,41.5379058 8.6548088,40.1185535 C8.71336956,38.004566 9.51925346,36.0128813 10.9243692,34.5098179 C13.600597,31.6483794 18.0158425,30.9855724 21.4234431,32.9343523 C23.591016,34.1747407 24.5480185,35.9151785 25.1145332,37.7012038 L26.9690435,35.9313848 L29.2244014,33.6727091 L31.3344606,31.550444 L31.2895212,31.6046578 L31.4788276,31.4150855 L23.9847602,23.9152773 L24.7791183,23.700637 C25.1675062,23.5961739 25.5521705,23.4991716 25.9321766,23.4059012 C28.1889305,22.8462742 30.1383262,22.364996 31.3156013,20.1619335 C32.6297903,17.7014436 32.0737501,14.5712672 29.993962,12.7263662 C28.886772,11.7445722 27.4335736,11.234263 25.9766516,11.234263 C24.9921743,11.234263 24.006066,11.467091 23.1231103,11.9447551 C21.1392525,13.0172555 20.5574847,14.7239989 20.045104,16.7160354 C19.9934123,16.9171506 19.9419527,17.1181495 19.8902611,17.3247448 C19.7933963,17.7127525 19.6946696,18.1082226 19.586628,18.5036911 L19.3658895,19.3076884 L18.7847036,18.7107529 L9.86782531,9.62125722 L9.86049119,9.63757973 L9.85967566,9.63932869 C3.77456727,15.6730318 0,24.0388605 0,33.2918149 C0,41.2442191 2.79311697,48.538365 7.43876519,54.2640381 L14.0345077,48.0963774 C12.3137681,47.4299549 10.6574098,46.3803071 9.55010581,44.182841 Z" id="Path" fill="#E8B65F" fill-rule="nonzero"/>
                    <path d="M44.579151,56.6250814 C43.3591479,57.2850865 41.9648608,57.6339227 40.5470562,57.6339227 C38.4352498,57.6339227 36.4247313,56.882394 34.8854967,55.5174851 C31.9549991,52.9179048 31.1710023,48.5164446 33.0217889,45.0513102 C34.1961531,42.8537278 35.900126,41.8473336 37.6614981,41.2302274 L31.4769645,35.0596516 L23.7364294,42.5329909 L23.5443309,41.7317941 C23.450843,41.3400559 23.3646892,40.9523984 23.2820283,40.5694027 C22.7860646,38.2947562 22.3596041,36.3300025 20.1931949,35.0904308 C17.7735659,33.7066359 14.6336227,34.1764904 12.7344052,36.2073509 C11.7236162,37.2884782 11.1739815,38.728934 11.133582,40.1874592 C11.1063393,41.172866 11.3113612,42.1665532 11.7636661,43.0635869 C12.8817978,45.282738 14.8104695,45.8224283 17.044288,46.4489774 C17.4288346,46.5567045 17.8208331,46.6664136 18.2125979,46.7855688 L19.0090514,47.0288898 L18.8518794,47.174043 C18.8572356,47.1748597 18.8621246,47.1781237 18.8674808,47.1789404 L9.30189108,56.3530797 C9.30701364,56.3583229 9.31167042,56.3641532 9.31667619,56.3694022 L9.28524195,56.3690534 L31.3968633,78.4783703 C32.417782,79.4993373 34.0714637,79.4994536 35.0926117,78.4788354 L54.9789156,58.6030099 L48.3962132,51.9335473 C47.7814969,53.7077928 46.7810685,55.4345936 44.579151,56.6250814 Z" id="Path" fill="#4592FF"/>
                    <path d="M18.1014144,14.5216006 C18.7140339,12.7226359 19.7135306,10.9661087 21.944554,9.75988114 C23.1645571,9.09987238 24.5588442,8.75103832 25.9766518,8.75103832 C28.0884582,8.75103832 30.0989738,9.50256998 31.6382113,10.8674752 C34.568706,13.4670555 35.3527028,17.8685157 33.5019191,21.3336516 C32.3052013,23.5730882 30.5588487,24.5782005 28.7619668,25.1921561 L35.0720053,31.4709298 L42.7239413,24.2131609 L42.9196503,25.013544 C43.014884,25.404698 43.1027836,25.792123 43.1869594,26.1747669 C43.6931697,28.4470825 44.1282443,30.4099732 46.3001229,31.6398664 C48.7258061,33.0129336 51.8636567,32.5290905 53.7539062,30.4898362 C54.7598083,29.4042765 55.3031567,27.9612572 55.3370325,26.502732 C55.3599724,25.5170898 55.1505238,24.5244547 54.6942623,23.6294018 C53.5662308,21.4152628 51.6352328,20.8840855 49.3987371,20.2675636 C49.0136056,20.161467 48.6211428,20.0533898 48.2287961,19.936102 L47.4312948,19.6963952 L47.5878835,19.5505415 L47.5876513,19.5505415 L57.2733939,10.3254533 C51.2195979,3.97532838 42.7035669,0 33.2445068,0 C33.2314667,0 33.21901,0.00198201905 33.2059698,0.00198201905 C33.1922331,0.00186544762 33.1786097,0 33.164873,0 C32.9163071,0 32.6685596,0.0292637714 32.4199936,0.0354429714 C32.3138153,0.0381244952 32.2083364,0.0539805714 32.1021581,0.0577114667 C24.3262308,0.32295101 17.2325451,3.24023581 11.7000988,7.96441356 L11.6438664,7.97269181 L11.6293135,7.97490651 L11.6928807,8.03949699 C11.7410802,8.09429349 18.1014144,14.5216006 18.1014144,14.5216006 Z" id="Path" fill="#4592FF"/>
                    <path d="M58.9670056,12.2080136 L58.9680504,12.2031163 L52.2386533,18.5419326 L52.3414592,18.5581389 L52.3231803,18.5756269 C54.0747687,19.2328375 55.7688506,20.2745579 56.9028145,22.500356 C57.5333659,23.7371288 57.8491031,25.141093 57.8160399,26.5605614 C57.7669095,28.6747814 56.9697594,30.6700817 55.5713945,32.1793242 C52.9079739,35.0526559 48.4956379,35.7350493 45.0794233,33.8014235 C42.9159237,32.5761922 41.9508891,30.8498622 41.3754092,29.0747971 L35.1190403,35.0746896 L42.5390609,42.4698021 L41.7445867,42.6843233 C41.3561988,42.7887893 40.9715345,42.8857887 40.5915284,42.979062 C38.3347745,43.5386875 36.3853788,44.0199643 35.2081065,46.2230283 C33.8939175,48.6835182 34.4499548,51.8136917 36.5297459,53.6585926 C37.636933,54.6403867 39.0901313,55.1506987 40.5470563,55.1506987 C41.5315336,55.1506987 42.517639,54.9178699 43.4005961,54.4402088 C45.5847021,53.2593937 46.0699549,51.3137614 46.6334453,49.0603318 C46.7303101,48.6723255 46.8290353,48.2768555 46.9370769,47.8813854 L47.1578155,47.0773897 L47.30707,47.2307042 C47.3050935,47.2467943 56.8513567,56.723133 56.8513567,56.723133 L56.8561281,56.7277949 L56.8600869,56.7135708 C62.809562,50.6981725 66.4891299,42.4272462 66.4891299,33.291815 C66.4891299,25.2893938 63.665391,17.9497782 58.9670056,12.2080136 Z" id="Path" fill="#E8B65F" fill-rule="nonzero"/>
                </g>
                <g id="Group" transform="translate(82.169072, 14.476190)" fill="#424351" fill-rule="nonzero">
                    <path d="M113.768572,11.9471528 C118.328297,11.7736445 122.513715,10.1325945 125.889294,8.23340899 C128.973945,10.5665108 130.881185,12.8013308 130.918683,12.8461661 L133.754873,11.1248463 C133.596662,10.9367877 131.772753,8.79322741 128.769739,6.43696398 C131.949725,4.25569296 133.936952,2.22061116 134.108793,2.04126373 L131.413702,0.163755618 C131.372954,0.206414676 129.295499,2.32829879 126.035641,4.48205447 C122.816647,2.39708898 118.767312,0.523143803 114.233082,0.092095881 C109.009865,-0.401803168 104.051966,1.09236435 99.5092381,4.53777852 L98.1463918,5.57130398 L99.4258836,6.6799534 C103.687923,10.3748917 108.523228,12.146791 113.768572,11.9471528 Z M113.833306,3.03490096 C117.220749,3.35459963 120.359755,4.68822507 122.998611,6.2742444 C120.240667,7.70763959 117.004678,8.86122428 113.600215,8.98851059 C109.921819,9.1193586 106.47475,8.02585291 103.308486,5.71739552 C106.64659,3.59323397 110.180381,2.69936641 113.833306,3.03490096 Z" id="Shape" transform="translate(116.127592, 6.423083) scale(-1, 1) translate(-116.127592, -6.423083) "/>
                    <path d="M0.23585567,2.13333333 L16.5935876,2.13333333 C27.4551216,2.13333333 36.1574351,5.54057143 36.1574351,17.2038095 C36.1574351,28.8670476 27.4551216,32.2742857 16.5935876,32.2742857 L7.69498144,32.2742857 L7.69498144,48 L0.23585567,48 L0.23585567,2.13333333 Z M28.5674474,17.2038095 C28.5674474,10.520381 23.3329732,8.94780952 16.9861732,8.94780952 L7.69498144,8.94780952 L7.69498144,25.4598095 L16.9861732,25.4598095 C23.2675423,25.4598095 28.5674474,23.8872381 28.5674474,17.2038095 Z M67.6099299,40.7268571 C67.6099299,42.496 68.6568247,43.0201905 69.9000124,43.0201905 C70.6197526,43.0201905 71.3394928,42.823619 71.9938021,42.6270476 L71.9938021,47.672381 C70.6851835,48.1965714 69.1148412,48.4586667 67.544499,48.4586667 C64.6655381,48.4586667 62.3754557,47.3447619 61.2631299,44.7893333 C58.1878763,47.2792381 54.3274515,48.8518095 49.420132,48.8518095 C43.7276412,48.8518095 38.4277361,45.7066667 38.4277361,39.2198095 C38.4277361,31.160381 45.8868619,28.6704762 52.4299546,28.6704762 C55.1126227,28.6704762 58.1224454,29.063619 60.6088206,29.5878095 L60.6088206,28.4739048 C60.6088206,24.5424762 57.7298598,21.7904762 52.3645237,21.7904762 C47.7189278,21.7904762 43.8585031,22.9699048 41.0449732,24.2148571 L41.0449732,17.7935238 C43.5313485,16.9417143 48.0460825,15.6967619 53.0842639,15.6967619 C61.9828701,15.6967619 67.6099299,19.9558095 67.6099299,29.4567619 L67.6099299,40.7268571 Z M53.8040041,33.5847619 C49.8127175,33.5847619 45.6251381,34.8297143 45.6251381,38.7611429 C45.6251381,41.8407619 48.3732371,43.4133333 51.5139216,43.4133333 C54.850899,43.4133333 58.1224454,42.168381 60.6088206,39.6784762 L60.6088206,34.3710476 C58.7113237,33.9779048 56.0286557,33.5847619 53.8040041,33.5847619 Z M76.3578928,0.167619048 L83.3590021,0.167619048 L83.3590021,48 L76.3578928,48 L76.3578928,0.167619048 Z M98.6500577,48 L91.6489485,48 L91.6489485,16.5485714 L97.8648866,16.5485714 L97.8648866,20.48 C99.5660907,18.5798095 103.230223,15.6967619 108.333835,15.6967619 C113.044862,15.6967619 116.316408,17.6624762 118.148474,20.7420952 C120.896573,17.9900952 124.560705,15.6967619 129.14087,15.6967619 C137.450598,15.6967619 141.049299,21.856 141.049299,28.3428571 L141.049299,48 L134.04819,48 L134.04819,28.5394286 C134.04819,24.4769524 131.627245,21.9215238 127.832252,21.9215238 C124.364412,21.9215238 121.681744,24.2148571 120.045971,26.1805714 C120.111402,26.9013333 120.176833,27.6220952 120.176833,28.3428571 L120.176833,48 L113.175724,48 L113.175724,28.5394286 C113.175724,24.4769524 110.754779,21.9215238 106.959786,21.9215238 C103.164792,21.9215238 100.285831,24.6735238 98.6500577,26.7702857 L98.6500577,48 Z M174.881654,40.7268571 C174.881654,42.496 175.928548,43.0201905 177.171736,43.0201905 C177.891476,43.0201905 178.611216,42.823619 179.265526,42.6270476 L179.265526,47.672381 C177.956907,48.1965714 176.386565,48.4586667 174.816223,48.4586667 C171.937262,48.4586667 169.647179,47.3447619 168.534854,44.7893333 C165.4596,47.2792381 161.599175,48.8518095 156.691856,48.8518095 C150.999365,48.8518095 145.69946,45.7066667 145.69946,39.2198095 C145.69946,31.160381 153.158586,28.6704762 159.701678,28.6704762 C162.384346,28.6704762 165.394169,29.063619 167.880544,29.5878095 L167.880544,28.4739048 C167.880544,24.5424762 165.001584,21.7904762 159.636247,21.7904762 C154.990652,21.7904762 151.130227,22.9699048 148.316697,24.2148571 L148.316697,17.7935238 C150.803072,16.9417143 155.317806,15.6967619 160.355988,15.6967619 C169.254594,15.6967619 174.881654,19.9558095 174.881654,29.4567619 L174.881654,40.7268571 Z M161.075728,33.5847619 C157.084441,33.5847619 152.896862,34.8297143 152.896862,38.7611429 C152.896862,41.8407619 155.644961,43.4133333 158.785645,43.4133333 C162.122623,43.4133333 165.394169,42.168381 167.880544,39.6784762 L167.880544,34.3710476 C165.983047,33.9779048 163.300379,33.5847619 161.075728,33.5847619 Z M190.475518,21.7249524 C192.896462,17.8590476 198.000074,15.3691429 203.692565,15.8933333 L203.692565,22.7733333 C198.065505,21.9870476 193.158186,24.4769524 191.260689,28.9325714 L191.260689,48 L184.259579,48 L184.259579,16.5485714 L190.475518,16.5485714 L190.475518,21.7249524 Z M215.515781,48 L208.514672,48 L208.514672,16.5485714 L215.515781,16.5485714 L215.515781,48 Z M216.300953,6.32685714 C216.300953,9.20990476 214.338025,10.520381 212.047942,10.520381 C209.75786,10.520381 207.729501,9.20990476 207.729501,6.32685714 C207.729501,3.57485714 209.75786,2.19885714 212.047942,2.19885714 C214.338025,2.19885714 216.300953,3.57485714 216.300953,6.32685714 Z M246.575691,16.5485714 L253.5768,16.5485714 L253.5768,48 L247.360862,48 L247.360862,43.6754286 C245.070779,46.4274286 241.210355,48.8518095 236.433897,48.8518095 C228.124169,48.8518095 223.478573,43.4788571 223.478573,36.0091429 L223.478573,16.5485714 L230.479682,16.5485714 L230.479682,35.0918095 C230.479682,40.2026667 233.162351,42.6270476 237.807946,42.6270476 C241.799233,42.6270476 244.809056,39.9405714 246.575691,37.3851429 L246.575691,16.5485714 Z M260.100111,25.0666667 C260.100111,18.1866667 266.38148,15.6967619 272.597419,15.6967619 C276.91586,15.6967619 280.841715,16.8106667 283.916969,18.3832381 L283.916969,24.5424762 C281.299732,22.7733333 276.784998,21.4628571 273.055435,21.4628571 C270.241905,21.4628571 267.232082,22.3146667 267.232082,24.8700952 C267.232082,30.9638095 286.141621,28.1462857 286.141621,39.6129524 C286.141621,46.5584762 279.72939,48.8518095 272.597419,48.8518095 C268.017254,48.8518095 263.371658,47.7379048 260.296404,45.8377143 L260.296404,39.6129524 C263.567951,41.7752381 268.344408,42.9546667 272.270264,42.9546667 C276.19612,42.9546667 279.07508,42.2994286 279.07508,39.744 C279.07508,33.912381 260.100111,36.3367619 260.100111,25.0666667 Z" id="Palmarius"/>
                </g>
            </g>
        </g>
    </g>
</svg>