<?xml version="1.0" encoding="UTF-8"?>
<svg width="54px" height="54px" viewBox="0 0 84 84" version="1.1" xmlns="http://www.w3.org/2000/svg" xmlns:xlink="http://www.w3.org/1999/xlink">
    <!-- Generator: Sketch 55.2 (78181) - https://sketchapp.com -->
    <title>Palm_color</title>
    <desc>Created with Sketch.</desc>
    <g id="Page-1" stroke="none" stroke-width="1" fill="none" fill-rule="evenodd">
        <g id="Artboard-2" transform="translate(-326.000000, -318.000000)">
            <g id="Palmarius-color-(svg)" transform="translate(328.000000, 320.000000)">
                <g id="Group">
                    <polygon id="Path" fill="#424351" fill-rule="nonzero" points="31.7647639 34.7850836 31.7405469 34.8081694 31.7497444 34.8135318"/>
                    <path d="M9.55010581,44.182841 C8.9250275,42.9432693 8.61557383,41.5379058 8.6548088,40.1185535 C8.71336956,38.004566 9.51925346,36.0128813 10.9243692,34.5098179 C13.600597,31.6483794 18.0158425,30.9855724 21.4234431,32.9343523 C23.591016,34.1747407 24.5480185,35.9151785 25.1145332,37.7012038 L26.9690435,35.9313848 L29.2244014,33.6727091 L31.3344606,31.550444 L31.2895212,31.6046578 L31.4788276,31.4150855 L23.9847602,23.9152773 L24.7791183,23.700637 C25.1675062,23.5961739 25.5521705,23.4991716 25.9321766,23.4059012 C28.1889305,22.8462742 30.1383262,22.364996 31.3156013,20.1619335 C32.6297903,17.7014436 32.0737501,14.5712672 29.993962,12.7263662 C28.886772,11.7445722 27.4335736,11.234263 25.9766516,11.234263 C24.9921743,11.234263 24.006066,11.467091 23.1231103,11.9447551 C21.1392525,13.0172555 20.5574847,14.7239989 20.045104,16.7160354 C19.9934123,16.9171506 19.9419527,17.1181495 19.8902611,17.3247448 C19.7933963,17.7127525 19.6946696,18.1082226 19.586628,18.5036911 L19.3658895,19.3076884 L18.7847036,18.7107529 L9.86782531,9.62125722 L9.86049119,9.63757973 L9.85967566,9.63932869 C3.77456727,15.6730318 0,24.0388605 0,33.2918149 C0,41.2442191 2.79311697,48.538365 7.43876519,54.2640381 L14.0345077,48.0963774 C12.3137681,47.4299549 10.6574098,46.3803071 9.55010581,44.182841 Z" id="Path" fill="#E8B65F" fill-rule="nonzero"/>
                    <path d="M44.579151,56.6250814 C43.3591479,57.2850865 41.9648608,57.6339227 40.5470562,57.6339227 C38.4352498,57.6339227 36.4247313,56.882394 34.8854967,55.5174851 C31.9549991,52.9179048 31.1710023,48.5164446 33.0217889,45.0513102 C34.1961531,42.8537278 35.900126,41.8473336 37.6614981,41.2302274 L31.4769645,35.0596516 L23.7364294,42.5329909 L23.5443309,41.7317941 C23.450843,41.3400559 23.3646892,40.9523984 23.2820283,40.5694027 C22.7860646,38.2947562 22.3596041,36.3300025 20.1931949,35.0904308 C17.7735659,33.7066359 14.6336227,34.1764904 12.7344052,36.2073509 C11.7236162,37.2884782 11.1739815,38.728934 11.133582,40.1874592 C11.1063393,41.172866 11.3113612,42.1665532 11.7636661,43.0635869 C12.8817978,45.282738 14.8104695,45.8224283 17.044288,46.4489774 C17.4288346,46.5567045 17.8208331,46.6664136 18.2125979,46.7855688 L19.0090514,47.0288898 L18.8518794,47.174043 C18.8572356,47.1748597 18.8621246,47.1781237 18.8674808,47.1789404 L9.30189108,56.3530797 C9.30701364,56.3583229 9.31167042,56.3641532 9.31667619,56.3694022 L9.28524195,56.3690534 L31.3968633,78.4783703 C32.417782,79.4993373 34.0714637,79.4994536 35.0926117,78.4788354 L54.9789156,58.6030099 L48.3962132,51.9335473 C47.7814969,53.7077928 46.7810685,55.4345936 44.579151,56.6250814 Z" id="Path" fill="#4592FF"/>
                    <path d="M18.1014144,14.5216006 C18.7140339,12.7226359 19.7135306,10.9661087 21.944554,9.75988114 C23.1645571,9.09987238 24.5588442,8.75103832 25.9766518,8.75103832 C28.0884582,8.75103832 30.0989738,9.50256998 31.6382113,10.8674752 C34.568706,13.4670555 35.3527028,17.8685157 33.5019191,21.3336516 C32.3052013,23.5730882 30.5588487,24.5782005 28.7619668,25.1921561 L35.0720053,31.4709298 L42.7239413,24.2131609 L42.9196503,25.013544 C43.014884,25.404698 43.1027836,25.792123 43.1869594,26.1747669 C43.6931697,28.4470825 44.1282443,30.4099732 46.3001229,31.6398664 C48.7258061,33.0129336 51.8636567,32.5290905 53.7539062,30.4898362 C54.7598083,29.4042765 55.3031567,27.9612572 55.3370325,26.502732 C55.3599724,25.5170898 55.1505238,24.5244547 54.6942623,23.6294018 C53.5662308,21.4152628 51.6352328,20.8840855 49.3987371,20.2675636 C49.0136056,20.161467 48.6211428,20.0533898 48.2287961,19.936102 L47.4312948,19.6963952 L47.5878835,19.5505415 L47.5876513,19.5505415 L57.2733939,10.3254533 C51.2195979,3.97532838 42.7035669,0 33.2445068,0 C33.2314667,0 33.21901,0.00198201905 33.2059698,0.00198201905 C33.1922331,0.00186544762 33.1786097,0 33.164873,0 C32.9163071,0 32.6685596,0.0292637714 32.4199936,0.0354429714 C32.3138153,0.0381244952 32.2083364,0.0539805714 32.1021581,0.0577114667 C24.3262308,0.32295101 17.2325451,3.24023581 11.7000988,7.96441356 L11.6438664,7.97269181 L11.6293135,7.97490651 L11.6928807,8.03949699 C11.7410802,8.09429349 18.1014144,14.5216006 18.1014144,14.5216006 Z" id="Path" fill="#4592FF"/>
                    <path d="M58.9670056,12.2080136 L58.9680504,12.2031163 L52.2386533,18.5419326 L52.3414592,18.5581389 L52.3231803,18.5756269 C54.0747687,19.2328375 55.7688506,20.2745579 56.9028145,22.500356 C57.5333659,23.7371288 57.8491031,25.141093 57.8160399,26.5605614 C57.7669095,28.6747814 56.9697594,30.6700817 55.5713945,32.1793242 C52.9079739,35.0526559 48.4956379,35.7350493 45.0794233,33.8014235 C42.9159237,32.5761922 41.9508891,30.8498622 41.3754092,29.0747971 L35.1190403,35.0746896 L42.5390609,42.4698021 L41.7445867,42.6843233 C41.3561988,42.7887893 40.9715345,42.8857887 40.5915284,42.979062 C38.3347745,43.5386875 36.3853788,44.0199643 35.2081065,46.2230283 C33.8939175,48.6835182 34.4499548,51.8136917 36.5297459,53.6585926 C37.636933,54.6403867 39.0901313,55.1506987 40.5470563,55.1506987 C41.5315336,55.1506987 42.517639,54.9178699 43.4005961,54.4402088 C45.5847021,53.2593937 46.0699549,51.3137614 46.6334453,49.0603318 C46.7303101,48.6723255 46.8290353,48.2768555 46.9370769,47.8813854 L47.1578155,47.0773897 L47.30707,47.2307042 C47.3050935,47.2467943 56.8513567,56.723133 56.8513567,56.723133 L56.8561281,56.7277949 L56.8600869,56.7135708 C62.809562,50.6981725 66.4891299,42.4272462 66.4891299,33.291815 C66.4891299,25.2893938 63.665391,17.9497782 58.9670056,12.2080136 Z" id="Path" fill="#E8B65F" fill-rule="nonzero"/>
                </g>
              
            </g>
        </g>
    </g>
</svg>