<svg width="120" height="40" viewBox="0 0 120 40" fill="none" xmlns="http://www.w3.org/2000/svg">
<rect x="0.5" y="0.5" width="119" height="39" rx="7.5" fill="black" stroke="#A6A6A6"/>
<path fill-rule="evenodd" clip-rule="evenodd" d="M59.0938 8.43701H59.9824V14.6978H59.0938V8.43701ZM37.8262 8.73101C38.2158 8.70305 38.6068 8.76191 38.9709 8.90335C39.335 9.04478 39.6632 9.26526 39.9318 9.54889C40.2003 9.83251 40.4026 10.1722 40.524 10.5435C40.6454 10.9148 40.6829 11.3083 40.6338 11.6959C40.6338 13.6021 39.6035 14.6979 37.8262 14.6979H35.6709V8.73101H37.8262ZM36.5977 13.854H37.7227C38.0011 13.8707 38.2797 13.825 38.5382 13.7204C38.7968 13.6158 39.0287 13.4548 39.2172 13.2493C39.4057 13.0437 39.546 12.7987 39.6279 12.5321C39.7097 12.2655 39.7311 11.9839 39.6904 11.708C39.7281 11.4332 39.7046 11.1534 39.6215 10.8887C39.5384 10.6241 39.3977 10.3811 39.2097 10.1771C39.0216 9.97322 38.7908 9.81341 38.5337 9.70917C38.2766 9.60494 37.9997 9.55885 37.7227 9.57422H36.5977V13.854ZM74.6792 29.0761C73.0445 29.0761 71.8482 28.2676 71.7105 27.0361L69.8081 27.0361C69.9282 29.2822 71.7876 30.7031 74.5415 30.7031C77.4849 30.7031 79.3354 29.248 79.3354 26.9247C79.3354 25.1084 78.2768 24.0849 75.729 23.4824L74.3608 23.1464C72.7603 22.7509 72.106 22.2343 72.106 21.3564C72.106 20.2549 73.1304 19.498 74.6274 19.498C76.1245 19.498 77.1489 20.2461 77.2612 21.4853H79.1372C79.0767 19.3427 77.2778 17.8711 74.6538 17.8711C72.0025 17.8711 70.1353 19.3427 70.1353 21.4853C70.1353 23.2158 71.1939 24.2822 73.4742 24.833L75.0835 25.2207C76.6929 25.6162 77.3726 26.1933 77.3726 27.1572C77.3726 28.2676 76.2456 29.0761 74.6792 29.0761ZM37.5689 27.1397H42.3023L43.438 30.4961H45.4771L40.9937 18.0781H38.9107L34.4273 30.4961H36.4322L37.5689 27.1397ZM41.8111 25.5908H38.0591L39.9097 20.1436H39.9615L41.8111 25.5908ZM51.3814 30.5908C53.6538 30.5908 55.1597 28.7832 55.1597 25.9697C55.1597 23.1641 53.645 21.3477 51.3472 21.3477C50.7669 21.3289 50.1923 21.4679 49.6847 21.7498C49.1771 22.0316 48.7553 22.4458 48.4644 22.9483H48.4302V21.4424H46.6313V33.4912H48.4897V29.0068H48.5327C48.8109 29.5117 49.2256 29.9281 49.7294 30.2082C50.2332 30.4883 50.8057 30.6209 51.3814 30.5908ZM50.8569 22.9317C52.3023 22.9317 53.2495 24.1367 53.2495 25.9697C53.2495 27.8194 52.3023 29.0156 50.8569 29.0156C49.437 29.0156 48.4819 27.794 48.4819 25.9697C48.4819 24.1621 49.437 22.9317 50.8569 22.9317ZM65.1245 25.9697C65.1245 28.7832 63.6187 30.5908 61.3462 30.5908C60.7706 30.621 60.1981 30.4883 59.6943 30.2082C59.1905 29.9281 58.7757 29.5117 58.4976 29.0068H58.4546V33.4912H56.5962V21.4424H58.395V22.9483H58.4292C58.7201 22.4458 59.1419 22.0316 59.6495 21.7498C60.1571 21.4679 60.7317 21.329 61.312 21.3477C63.6099 21.3477 65.1245 23.1641 65.1245 25.9697ZM63.2144 25.9697C63.2144 24.1367 62.2671 22.9317 60.8218 22.9317C59.4019 22.9317 58.4468 24.1621 58.4468 25.9697C58.4468 27.794 59.4019 29.0156 60.8218 29.0156C62.2671 29.0156 63.2144 27.8194 63.2144 25.9697ZM83.3462 19.2998V21.4424H85.0679V22.9141H83.3462V27.9053C83.3462 28.6807 83.6909 29.042 84.4478 29.042C84.6522 29.0384 84.8562 29.0241 85.0591 28.999V30.4619C84.7188 30.5255 84.373 30.5543 84.0269 30.5478C82.1939 30.5478 81.479 29.8594 81.479 28.1035V22.9141H80.1626V21.4424H81.479V19.2998H83.3462ZM90.3589 21.3311C87.7427 21.3311 86.065 23.1211 86.065 25.9697C86.065 28.8262 87.7261 30.6084 90.3589 30.6084C92.9927 30.6084 94.6539 28.8262 94.6539 25.9697C94.6539 23.1211 92.9839 21.3311 90.3589 21.3311ZM90.3589 22.8623C91.8648 22.8623 92.7603 24.0156 92.7603 25.9697C92.7603 27.9317 91.8648 29.0762 90.3589 29.0762C88.8531 29.0762 87.9585 27.9317 87.9585 25.9697C87.9585 24.0244 88.8531 22.8623 90.3589 22.8623ZM96.1861 21.4424H97.9585V22.9834H98.0015C98.1214 22.5021 98.4034 22.0768 98.8 21.7789C99.1966 21.481 99.6836 21.3287 100.179 21.3477C100.393 21.3469 100.607 21.3702 100.816 21.417V23.1553C100.546 23.0727 100.264 23.0347 99.981 23.043C99.711 23.032 99.4418 23.0796 99.192 23.1825C98.9422 23.2854 98.7175 23.4411 98.5336 23.639C98.3496 23.8369 98.2106 24.0723 98.1262 24.3289C98.0418 24.5856 98.0139 24.8575 98.0444 25.126V30.4961H96.1861L96.1861 21.4424ZM105.486 30.6084C107.534 30.6084 109.134 29.4805 109.384 27.8369L107.62 27.8369C107.455 28.246 107.162 28.5909 106.785 28.8204C106.409 29.0498 105.968 29.1515 105.529 29.1104C105.195 29.1227 104.861 29.0637 104.552 28.9374C104.242 28.8111 103.963 28.6203 103.732 28.3778C103.502 28.1352 103.326 27.8465 103.216 27.5306C103.105 27.2148 103.064 26.8791 103.093 26.5459V26.4336H109.488V25.7969C109.488 23.0518 107.913 21.3311 105.408 21.3311C102.861 21.3311 101.217 23.1729 101.217 26.0127C101.217 28.8438 102.852 30.6084 105.486 30.6084ZM107.628 25.1348H103.102C103.101 24.8322 103.16 24.5324 103.276 24.2527C103.392 23.9731 103.562 23.7191 103.776 23.5055C103.99 23.2918 104.245 23.1228 104.525 23.008C104.805 22.8933 105.105 22.8351 105.408 22.8369C105.708 22.8305 106.006 22.8861 106.283 23.0003C106.561 23.1145 106.812 23.2849 107.02 23.5007C107.229 23.7164 107.39 23.973 107.495 24.2542C107.6 24.5354 107.645 24.8352 107.628 25.1348ZM41.7801 11.5678C41.6862 11.8499 41.6524 12.1484 41.6807 12.4444C41.6518 12.7406 41.6853 13.0396 41.7789 13.3221C41.8725 13.6046 42.0241 13.8644 42.2241 14.0848C42.4241 14.3053 42.668 14.4814 42.9401 14.6019C43.2123 14.7225 43.5066 14.7847 43.8042 14.7847C44.1018 14.7847 44.3962 14.7225 44.6683 14.6019C44.9404 14.4814 45.1843 14.3053 45.3843 14.0848C45.5843 13.8644 45.736 13.6046 45.8296 13.3221C45.9231 13.0396 45.9566 12.7406 45.9277 12.4444C45.9561 12.1484 45.9222 11.8499 45.8284 11.5678C45.7345 11.2857 45.5828 11.0264 45.3828 10.8064C45.1829 10.5864 44.9392 10.4107 44.6673 10.2904C44.3955 10.1701 44.1015 10.108 43.8042 10.108C43.5069 10.108 43.213 10.1701 42.9411 10.2904C42.6693 10.4107 42.4255 10.5864 42.2256 10.8064C42.0257 11.0264 41.8739 11.2857 41.7801 11.5678ZM43.8057 10.8975C44.5752 10.8975 45.0137 11.4683 45.0137 12.4444C45.0137 13.4243 44.5752 13.9946 43.8057 13.9947C43.0332 13.9947 42.5987 13.4283 42.5987 12.4444C42.5987 11.4683 43.0332 10.8975 43.8057 10.8975ZM51.5733 14.6978H50.6514L49.7207 11.3814H49.6504L48.7237 14.6978H47.8106L46.5694 10.1948H47.4707L48.2774 13.6308H48.3438L49.2696 10.1948H50.1221L51.0479 13.6308H51.1182L51.9209 10.1948H52.8096L51.5733 14.6978ZM54.709 10.1948H53.8535L53.8535 14.6978H54.7422V12.0635C54.7264 11.9154 54.7429 11.7657 54.7904 11.6245C54.8379 11.4834 54.9154 11.3542 55.0176 11.2458C55.1197 11.1375 55.244 11.0524 55.3821 10.9966C55.5201 10.9408 55.6686 10.9154 55.8174 10.9224C56.4746 10.9224 56.7891 11.2822 56.7891 12.0059V14.6977H57.6777V11.7827C57.7099 11.5654 57.6928 11.3436 57.6276 11.1337C57.5624 10.9239 57.4508 10.7315 57.3011 10.5706C57.1514 10.4098 56.9675 10.2847 56.7629 10.2046C56.5583 10.1245 56.3383 10.0914 56.1192 10.1079C55.8395 10.0852 55.5598 10.1503 55.3189 10.2941C55.0781 10.4379 54.8881 10.6532 54.7754 10.9102H54.709V10.1948ZM61.3172 11.5678C61.2234 11.8498 61.1895 12.1484 61.2178 12.4444C61.189 12.7406 61.2225 13.0396 61.3161 13.3221C61.4097 13.6046 61.5614 13.8644 61.7614 14.0848C61.9614 14.3053 62.2053 14.4814 62.4775 14.6019C62.7496 14.7224 63.0439 14.7847 63.3416 14.7847C63.6392 14.7847 63.9335 14.7224 64.2057 14.6019C64.4778 14.4814 64.7217 14.3053 64.9217 14.0848C65.1217 13.8644 65.2734 13.6046 65.3671 13.3221C65.4607 13.0396 65.4942 12.7406 65.4653 12.4444C65.4936 12.1484 65.4598 11.8498 65.3659 11.5678C65.272 11.2857 65.1203 11.0263 64.9203 10.8063C64.7203 10.5863 64.4766 10.4106 64.2047 10.2903C63.9329 10.17 63.6389 10.1079 63.3416 10.1079C63.0443 10.1079 62.7503 10.17 62.4784 10.2903C62.2065 10.4106 61.9628 10.5863 61.7628 10.8063C61.5629 11.0263 61.4111 11.2857 61.3172 11.5678ZM63.3428 10.8975C64.1123 10.8975 64.5508 11.4683 64.5508 12.4444C64.5508 13.4243 64.1123 13.9946 63.3428 13.9947C62.5704 13.9947 62.1358 13.4283 62.1358 12.4444C62.1358 11.4683 62.5703 10.8975 63.3428 10.8975ZM66.4009 13.4243C66.4009 12.6138 67.0044 12.1465 68.0757 12.0801L69.2954 12.0098V11.6211C69.2954 11.1455 68.981 10.877 68.3736 10.877C67.8775 10.877 67.5337 11.0591 67.4351 11.3775H66.5747C66.6656 10.604 67.3931 10.1079 68.4146 10.1079C69.5435 10.1079 70.1802 10.6699 70.1802 11.6211V14.6978H69.3247V14.065H69.2544C69.1117 14.292 68.9113 14.477 68.6737 14.6012C68.4361 14.7254 68.1697 14.7843 67.9019 14.772C67.7128 14.7916 67.5218 14.7715 67.341 14.7128C67.1603 14.6541 66.9938 14.5581 66.8524 14.4312C66.711 14.3042 66.5977 14.149 66.52 13.9756C66.4422 13.8022 66.4016 13.6144 66.4009 13.4243ZM69.2954 13.0396V12.6631L68.1958 12.7334C67.5757 12.7749 67.2944 12.9859 67.2944 13.3828C67.2944 13.7881 67.646 14.0239 68.1294 14.0239C68.2711 14.0383 68.4142 14.024 68.5502 13.9819C68.6862 13.9398 68.8123 13.8708 68.9211 13.7789C69.0299 13.6871 69.1191 13.5743 69.1834 13.4473C69.2477 13.3203 69.2858 13.1816 69.2954 13.0396ZM73.2173 10.1201C72.0796 10.1201 71.3482 11.0215 71.3482 12.4444C71.3482 13.8706 72.0718 14.772 73.2173 14.772C73.5023 14.7825 73.7846 14.7148 74.0339 14.5763C74.2831 14.4378 74.4898 14.2338 74.6314 13.9863H74.7017V14.6978H75.5532V8.43701H74.6646V10.9101H74.5982C74.4667 10.661 74.2671 10.4544 74.0225 10.3145C73.778 10.1746 73.4987 10.1072 73.2173 10.1201ZM73.4693 13.9741C72.7164 13.9741 72.2662 13.3994 72.2662 12.4444H72.2661C72.2661 11.4971 72.7212 10.9185 73.4693 10.9185C74.2134 10.9185 74.6812 11.5098 74.6812 12.4483C74.6812 13.3911 74.2183 13.9741 73.4693 13.9741ZM79.23 12.4444C79.2017 12.1484 79.2355 11.8499 79.3294 11.5678C79.4232 11.2857 79.575 11.0264 79.7749 10.8064C79.9749 10.5864 80.2186 10.4107 80.4904 10.2904C80.7623 10.1701 81.0563 10.108 81.3535 10.108C81.6508 10.108 81.9448 10.1701 82.2166 10.2904C82.4885 10.4107 82.7322 10.5864 82.9321 10.8064C83.1321 11.0264 83.2838 11.2857 83.3777 11.5678C83.4715 11.8499 83.5054 12.1484 83.4771 12.4444C83.5059 12.7406 83.4725 13.0396 83.3789 13.3221C83.2853 13.6046 83.1336 13.8644 82.9336 14.0848C82.7336 14.3053 82.4897 14.4814 82.2176 14.6019C81.9455 14.7225 81.6512 14.7847 81.3535 14.7847C81.0559 14.7847 80.7616 14.7225 80.4895 14.6019C80.2173 14.4814 79.9734 14.3053 79.7734 14.0848C79.5734 13.8644 79.4218 13.6046 79.3282 13.3221C79.2346 13.0396 79.2012 12.7406 79.23 12.4444ZM82.563 12.4444C82.563 11.4683 82.1245 10.8975 81.355 10.8975C80.5825 10.8975 80.148 11.4683 80.148 12.4444C80.148 13.4283 80.5826 13.9947 81.355 13.9947C82.1245 13.9946 82.563 13.4243 82.563 12.4444ZM85.5249 10.1948H84.6694V14.6978H85.5581V12.0635C85.5424 11.9154 85.5588 11.7657 85.6063 11.6245C85.6539 11.4834 85.7314 11.3542 85.8335 11.2458C85.9356 11.1375 86.06 11.0524 86.198 10.9966C86.3361 10.9408 86.4846 10.9154 86.6333 10.9224C87.2906 10.9224 87.605 11.2822 87.605 12.0059V14.6977H88.4937V11.7827C88.5258 11.5654 88.5087 11.3436 88.4435 11.1337C88.3783 10.9239 88.2667 10.7315 88.117 10.5706C87.9673 10.4098 87.7834 10.2847 87.5788 10.2046C87.3742 10.1245 87.1542 10.0914 86.9351 10.1079C86.6555 10.0852 86.3757 10.1503 86.1349 10.2941C85.894 10.4379 85.704 10.6532 85.5913 10.9102H85.5249V10.1948ZM93.5152 9.07375V10.2153H94.4908V10.9639H93.5152V13.2793C93.5152 13.751 93.7095 13.9575 94.1519 13.9575C94.2651 13.9572 94.3783 13.9503 94.4908 13.937V14.6773C94.3312 14.7058 94.1695 14.721 94.0073 14.7227C93.0191 14.7227 92.6255 14.375 92.6255 13.5068V10.9638H91.9107V10.2153H92.6255V9.07375H93.5152ZM96.5855 8.43701H95.7046L95.7047 14.6977H96.5933V12.0679C96.5797 11.9152 96.5997 11.7614 96.6518 11.6173C96.7038 11.4732 96.7868 11.3421 96.8947 11.2334C97.0027 11.1247 97.1332 11.0408 97.277 10.9878C97.4207 10.9347 97.5744 10.9137 97.7271 10.9263C98.355 10.9263 98.69 11.2905 98.69 12.0098V14.6978H99.5796V11.7905C99.6086 11.5742 99.5896 11.3541 99.5238 11.146C99.458 10.9378 99.3471 10.7468 99.199 10.5864C99.0509 10.4261 98.8692 10.3004 98.6669 10.2184C98.4646 10.1364 98.2467 10.1 98.0288 10.1118C97.7448 10.0888 97.4605 10.1539 97.2148 10.2982C96.9691 10.4425 96.7739 10.6591 96.6558 10.9185H96.5855V8.43701ZM104.761 13.4819C104.641 13.8935 104.379 14.2495 104.022 14.4876C103.666 14.7258 103.236 14.8309 102.81 14.7847C102.513 14.7925 102.219 14.7357 101.946 14.6182C101.674 14.5006 101.43 14.3252 101.232 14.1041C101.034 13.8829 100.887 13.6214 100.8 13.3376C100.713 13.0537 100.689 12.7544 100.73 12.4605C100.69 12.1656 100.715 11.8656 100.801 11.581C100.888 11.2963 101.034 11.0335 101.231 10.8105C101.428 10.5874 101.671 10.4092 101.942 10.288C102.214 10.1668 102.509 10.1054 102.806 10.1079C104.059 10.1079 104.815 10.9639 104.815 12.3779V12.688H101.635V12.7378C101.621 12.9031 101.642 13.0694 101.696 13.2261C101.75 13.3829 101.837 13.5266 101.95 13.6481C102.062 13.7695 102.2 13.866 102.352 13.9314C102.504 13.9968 102.669 14.0297 102.834 14.0278C103.047 14.0533 103.262 14.0151 103.453 13.9178C103.644 13.8206 103.801 13.6689 103.906 13.4819L104.761 13.4819ZM101.635 12.0308H103.91C103.921 11.8796 103.9 11.7278 103.849 11.5851C103.798 11.4424 103.718 11.3119 103.614 11.2021C103.509 11.0922 103.383 11.0054 103.243 10.9472C103.103 10.8891 102.953 10.8608 102.801 10.8643C102.648 10.8623 102.495 10.8912 102.353 10.9491C102.21 11.0071 102.081 11.0929 101.972 11.2017C101.864 11.3104 101.778 11.4397 101.72 11.5821C101.662 11.7245 101.633 11.8771 101.635 12.0308ZM22.0372 12.2109C22.8488 11.2367 23.2486 9.98452 23.1518 8.72028C21.9119 8.8505 20.7667 9.44306 19.9442 10.3799C19.542 10.8376 19.234 11.37 19.0378 11.9468C18.8415 12.5235 18.7609 13.1333 18.8005 13.7413C19.4206 13.7477 20.0341 13.6133 20.5948 13.3482C21.1554 13.0831 21.6486 12.6942 22.0372 12.2109ZM24.7689 20.3007C24.7796 19.466 25.0013 18.6477 25.4134 17.9217C25.8254 17.1957 26.4143 16.5858 27.1254 16.1486C26.6737 15.5035 26.0777 14.9725 25.3849 14.598C24.6921 14.2234 23.9215 14.0156 23.1343 13.991C22.1071 13.8831 21.0991 14.2832 20.2753 14.6101C19.7524 14.8177 19.3037 14.9958 18.9714 14.9958C18.5934 14.9958 18.1318 14.8104 17.6145 14.6026C16.9382 14.331 16.1668 14.0211 15.3629 14.0376C14.4452 14.0673 13.5509 14.3341 12.767 14.8122C11.9831 15.2903 11.3364 15.9632 10.89 16.7655C8.95595 20.1139 10.3985 25.035 12.2511 27.7416C13.178 29.0669 14.2613 30.5474 15.6788 30.4949C16.3218 30.4682 16.778 30.2762 17.2493 30.0779C17.7946 29.8484 18.36 29.6104 19.2582 29.6104C20.105 29.6104 20.6462 29.841 21.1656 30.0622C21.6635 30.2743 22.1413 30.4779 22.8492 30.4615C24.3376 30.4374 25.2753 29.1303 26.1697 27.7924C26.8357 26.848 27.3481 25.8043 27.6881 24.6999C26.8234 24.3341 26.0855 23.722 25.5664 22.9397C25.0472 22.1574 24.7699 21.2396 24.7689 20.3007Z" fill="white"/>
</svg>
