<svg width="135" height="40" viewBox="0 0 135 40" fill="none" xmlns="http://www.w3.org/2000/svg">
<rect x="0.5" y="0.5" width="134" height="39" rx="4.5" fill="black" stroke="#A6A6A6"/>
<path d="M68.136 21.7519C65.784 21.7519 63.867 23.5399 63.867 26.0049C63.867 28.4539 65.784 30.2579 68.136 30.2579C70.488 30.2579 72.405 28.4539 72.405 26.0049C72.405 23.5399 70.488 21.7519 68.136 21.7519ZM68.136 28.5829C66.847 28.5829 65.735 27.5199 65.735 26.0049C65.735 24.4739 66.847 23.4269 68.136 23.4269C69.425 23.4269 70.536 24.4739 70.536 26.0049C70.536 27.5189 69.425 28.5829 68.136 28.5829ZM58.822 21.7519C56.47 21.7519 54.553 23.5399 54.553 26.0049C54.553 28.4539 56.47 30.2579 58.822 30.2579C61.174 30.2579 63.091 28.4539 63.091 26.0049C63.092 23.5399 61.174 21.7519 58.822 21.7519ZM58.822 28.5829C57.533 28.5829 56.422 27.5199 56.422 26.0049C56.422 24.4739 57.534 23.4269 58.822 23.4269C60.111 23.4269 61.222 24.4739 61.222 26.0049C61.223 27.5189 60.111 28.5829 58.822 28.5829ZM47.744 23.0569V24.8609H52.062C51.933 25.8759 51.595 26.6169 51.079 27.1329C50.451 27.7609 49.468 28.4539 47.744 28.4539C45.086 28.4539 43.008 26.3109 43.008 23.6529C43.008 20.9949 45.086 18.8519 47.744 18.8519C49.178 18.8519 50.225 19.4159 50.998 20.1409L52.271 18.8679C51.192 17.8369 49.758 17.0469 47.744 17.0469C44.103 17.0469 41.042 20.0109 41.042 23.6519C41.042 27.2929 44.103 30.2569 47.744 30.2569C49.709 30.2569 51.192 29.6129 52.352 28.4039C53.544 27.2119 53.915 25.5359 53.915 24.1829C53.915 23.7639 53.883 23.3769 53.818 23.0549H47.744V23.0569ZM93.052 24.4579C92.698 23.5069 91.618 21.7509 89.411 21.7509C87.22 21.7509 85.4 23.4749 85.4 26.0039C85.4 28.3879 87.204 30.2569 89.621 30.2569C91.57 30.2569 92.698 29.0649 93.165 28.3719L91.715 27.4049C91.232 28.1139 90.571 28.5809 89.621 28.5809C88.67 28.5809 87.994 28.1459 87.559 27.2919L93.246 24.9399L93.052 24.4579ZM87.252 25.8759C87.204 24.2329 88.525 23.3949 89.475 23.3949C90.216 23.3949 90.844 23.7649 91.054 24.2969L87.252 25.8759ZM82.628 29.9999H84.497V17.4989H82.628V29.9999ZM79.567 22.7019H79.503C79.084 22.2029 78.279 21.7509 77.264 21.7509C75.137 21.7509 73.188 23.6199 73.188 26.0199C73.188 28.4039 75.137 30.2569 77.264 30.2569C78.279 30.2569 79.084 29.8059 79.503 29.2899H79.567V29.9019C79.567 31.5289 78.697 32.3989 77.295 32.3989C76.151 32.3989 75.442 31.5769 75.152 30.8849L73.525 31.5619C73.992 32.6899 75.233 34.0749 77.295 34.0749C79.486 34.0749 81.339 32.7859 81.339 29.6449V22.0089H79.567V22.7019ZM77.425 28.5829C76.136 28.5829 75.057 27.5039 75.057 26.0209C75.057 24.5229 76.136 23.4269 77.425 23.4269C78.698 23.4269 79.696 24.5219 79.696 26.0209C79.696 27.5029 78.698 28.5829 77.425 28.5829ZM101.806 17.4989H97.335V29.9999H99.2V25.2639H101.805C103.873 25.2639 105.906 23.7669 105.906 21.3819C105.906 18.9969 103.874 17.4989 101.806 17.4989ZM101.854 23.5239H99.2V19.2389H101.854C103.249 19.2389 104.041 20.3939 104.041 21.3819C104.041 22.3499 103.249 23.5239 101.854 23.5239ZM113.386 21.7289C112.035 21.7289 110.636 22.3239 110.057 23.6429L111.714 24.3349C112.068 23.6429 112.727 23.4179 113.419 23.4179C114.384 23.4179 115.365 23.9969 115.381 25.0259V25.1549C115.043 24.9619 114.319 24.6719 113.435 24.6719C111.65 24.6719 109.832 25.6529 109.832 27.4869C109.832 29.1599 111.296 30.2369 112.936 30.2369C114.191 30.2369 114.882 29.6739 115.316 29.0149H115.38V29.9799H117.181V25.1869C117.181 22.9669 115.525 21.7289 113.386 21.7289ZM113.16 28.5799C112.549 28.5799 111.696 28.2739 111.696 27.5189C111.696 26.5539 112.758 26.1839 113.674 26.1839C114.494 26.1839 114.88 26.3609 115.379 26.6019C115.235 27.7599 114.238 28.5799 113.16 28.5799ZM123.743 22.0019L121.604 27.4219H121.54L119.321 22.0019H117.311L120.64 29.5769L118.742 33.7909H120.688L125.819 22.0019H123.743ZM106.936 29.9999H108.802V17.4989H106.936V29.9999Z" fill="white"/>
<path d="M10.4349 7.53784C10.1439 7.84584 9.97192 8.32384 9.97192 8.94284V31.0588C9.97192 31.6788 10.1439 32.1558 10.4349 32.4638L10.5089 32.5358L22.8979 20.1468V20.0008V19.8548L10.5089 7.46484L10.4349 7.53784Z" fill="url(#paint0_linear)"/>
<path d="M27.0279 24.2786L22.8989 20.1476V20.0016V19.8556L27.0289 15.7256L27.1219 15.7786L32.0149 18.5586C33.4129 19.3526 33.4129 20.6516 32.0149 21.4466L27.1219 24.2266L27.0279 24.2786Z" fill="url(#paint1_linear)"/>
<path d="M27.1219 24.225L22.8989 20.001L10.4349 32.464C10.8959 32.952 11.6559 33.012 12.5129 32.525L27.1219 24.225Z" fill="url(#paint2_linear)"/>
<path d="M27.1219 15.7768L12.5139 7.4768C11.6569 6.9898 10.8969 7.0508 10.4359 7.5378L22.8989 20.0008L27.1219 15.7768Z" fill="url(#paint3_linear)"/>
<path opacity="0.2" d="M27.0289 24.1318L12.5139 32.3788C11.7019 32.8398 10.9759 32.8098 10.5099 32.3898L10.4349 32.4648L10.5089 32.5368C10.9749 32.9568 11.7009 32.9878 12.5129 32.5258L27.1209 24.2258L27.0289 24.1318Z" fill="black"/>
<path opacity="0.12" d="M10.4349 32.3176C10.1439 32.0096 9.97192 31.5316 9.97192 30.9126V31.0586C9.97192 31.6776 10.1439 32.1556 10.4349 32.4636L10.5099 32.3886L10.4349 32.3176Z" fill="black"/>
<path opacity="0.12" d="M32.0149 21.299L27.0289 24.132L27.1219 24.225L32.0149 21.445C32.7139 21.048 33.0629 20.525 33.0629 20.002C33.0039 20.475 32.6479 20.939 32.0149 21.299Z" fill="black"/>
<path opacity="0.25" d="M12.5129 7.62281L32.0139 18.7028C32.6479 19.0628 33.0029 19.5268 33.0619 20.0008C33.0619 19.4778 32.7129 18.9538 32.0139 18.5568L12.5129 7.47681C11.1149 6.68281 9.97192 7.34181 9.97192 8.94281V9.08981C9.97192 7.48881 11.1159 6.82881 12.5129 7.62281Z" fill="white"/>
<path fill-rule="evenodd" clip-rule="evenodd" d="M73.6091 12.2238C73.0191 12.8308 72.2861 13.1328 71.409 13.1328C70.532 13.1328 69.7991 12.8298 69.2101 12.2238C68.6201 11.6178 68.326 10.8758 68.326 9.99877C68.326 9.12177 68.6201 8.37977 69.2101 7.77377C69.7991 7.16677 70.532 6.86377 71.409 6.86377C72.281 6.86377 73.0131 7.16877 73.6051 7.77777C74.1971 8.38677 74.493 9.12677 74.493 9.99877C74.493 10.8768 74.1981 11.6188 73.6091 12.2238ZM69.7791 11.7218C70.2231 12.1718 70.7661 12.3958 71.409 12.3958C72.052 12.3958 72.5951 12.1708 73.0391 11.7218C73.4831 11.2718 73.7061 10.6978 73.7061 9.99977C73.7061 9.30177 73.4831 8.72677 73.0391 8.27777C72.5961 7.82777 72.052 7.60377 71.409 7.60377C70.7661 7.60377 70.2231 7.82877 69.7791 8.27777C69.3361 8.72777 69.1131 9.30177 69.1131 9.99977C69.1131 10.6978 69.3361 11.2718 69.7791 11.7218ZM47.418 10.2428C47.418 11.0808 47.1701 11.7478 46.673 12.2458C46.109 12.8378 45.3731 13.1338 44.4691 13.1338C43.6031 13.1338 42.8661 12.8338 42.2611 12.2338C41.6551 11.6328 41.3521 10.8888 41.3521 10.0008C41.3521 9.11177 41.6551 8.36777 42.2611 7.76777C42.8661 7.16677 43.6031 6.86677 44.4691 6.86677C44.8991 6.86677 45.3101 6.95077 45.7001 7.11777C46.0911 7.28577 46.404 7.50877 46.6381 7.78777L46.111 8.31577C45.714 7.84077 45.167 7.60377 44.468 7.60377C43.836 7.60377 43.29 7.82577 42.829 8.26977C42.369 8.71377 42.139 9.28977 42.139 9.99977C42.139 10.7098 42.3691 11.2858 42.8301 11.7308C43.2911 12.1748 43.8371 12.3968 44.4691 12.3968C45.1391 12.3968 45.6981 12.1738 46.1451 11.7268C46.4351 11.4358 46.603 11.0308 46.648 10.5118H44.4691V9.78977H47.376C47.405 9.94677 47.418 10.0978 47.418 10.2428ZM52.0281 7.73677H49.2961V9.63877H51.7601V10.3598H49.2961V12.2618H52.0281V12.9998H48.5251V6.99977H52.0281V7.73677ZM54.5071 12.9998H55.2781V7.73677H56.9541V6.99977H52.8311V7.73677H54.5071V12.9998ZM59.938 12.9998V6.99977H60.709V12.9998H59.938ZM63.3561 12.9998H64.1271V7.73677H65.8031V6.99977H61.6801V7.73677H63.3561V12.9998ZM75.575 6.99977V12.9998H76.344V9.26177L76.311 8.10577H76.344L79.395 12.9998H80.2V6.99977H79.429V10.5118L79.462 11.6678H79.429L76.513 6.99977H75.575Z" fill="white"/>
<path d="M73.6091 12.2238L73.5374 12.154L73.5373 12.1541L73.6091 12.2238ZM69.2101 12.2238L69.2818 12.1541L69.2817 12.154L69.2101 12.2238ZM69.2101 7.77377L69.2817 7.84353L69.2818 7.84341L69.2101 7.77377ZM73.6051 7.77777L73.5334 7.84747L73.6051 7.77777ZM69.7791 11.7218L69.7078 11.7919L69.7079 11.792L69.7791 11.7218ZM73.0391 11.7218L73.1102 11.7921L73.1102 11.792L73.0391 11.7218ZM73.0391 8.27777L72.9678 8.34792L72.9679 8.34808L73.0391 8.27777ZM69.7791 8.27777L69.7079 8.20746L69.7078 8.20762L69.7791 8.27777ZM46.673 12.2458L46.6022 12.1751L46.6006 12.1768L46.673 12.2458ZM42.2611 12.2338L42.1906 12.3048L42.1906 12.3048L42.2611 12.2338ZM42.2611 7.76777L42.3314 7.83883L42.3315 7.83871L42.2611 7.76777ZM45.7001 7.11777L45.7395 7.02589L45.7394 7.02584L45.7001 7.11777ZM46.6381 7.78777L46.7088 7.85841L46.7735 7.79363L46.7147 7.72351L46.6381 7.78777ZM46.111 8.31577L46.0343 8.3799L46.1045 8.46388L46.1818 8.38641L46.111 8.31577ZM42.829 8.26977L42.7597 8.19774L42.7596 8.19782L42.829 8.26977ZM42.8301 11.7308L42.7606 11.8027L42.7607 11.8028L42.8301 11.7308ZM46.1451 11.7268L46.2158 11.7975L46.2159 11.7974L46.1451 11.7268ZM46.648 10.5118L46.7477 10.5204L46.7571 10.4118H46.648V10.5118ZM44.4691 10.5118H44.3691V10.6118H44.4691V10.5118ZM44.4691 9.78977V9.68977H44.3691V9.78977H44.4691ZM47.376 9.78977L47.4744 9.7716L47.4593 9.68977H47.376V9.78977ZM49.2961 7.73677V7.63677H49.1961V7.73677H49.2961ZM52.0281 7.73677V7.83677H52.1281V7.73677H52.0281ZM49.2961 9.63877H49.1961V9.73877H49.2961V9.63877ZM51.7601 9.63877H51.8601V9.53877H51.7601V9.63877ZM51.7601 10.3598V10.4598H51.8601V10.3598H51.7601ZM49.2961 10.3598V10.2598H49.1961V10.3598H49.2961ZM49.2961 12.2618H49.1961V12.3618H49.2961V12.2618ZM52.0281 12.2618H52.1281V12.1618H52.0281V12.2618ZM52.0281 12.9998V13.0998H52.1281V12.9998H52.0281ZM48.5251 12.9998H48.4251V13.0998H48.5251V12.9998ZM48.5251 6.99977V6.89977H48.4251V6.99977H48.5251ZM52.0281 6.99977H52.1281V6.89977H52.0281V6.99977ZM55.2781 12.9998V13.0998H55.3781V12.9998H55.2781ZM54.5071 12.9998H54.4071V13.0998H54.5071V12.9998ZM55.2781 7.73677V7.63677H55.1781V7.73677H55.2781ZM56.9541 7.73677V7.83677H57.0541V7.73677H56.9541ZM56.9541 6.99977H57.0541V6.89977H56.9541V6.99977ZM52.8311 6.99977V6.89977H52.7311V6.99977H52.8311ZM52.8311 7.73677H52.7311V7.83677H52.8311V7.73677ZM54.5071 7.73677H54.6071V7.63677H54.5071V7.73677ZM59.938 6.99977V6.89977H59.838V6.99977H59.938ZM59.938 12.9998H59.838V13.0998H59.938V12.9998ZM60.709 6.99977H60.809V6.89977H60.709V6.99977ZM60.709 12.9998V13.0998H60.809V12.9998H60.709ZM64.1271 12.9998V13.0998H64.2271V12.9998H64.1271ZM63.3561 12.9998H63.2561V13.0998H63.3561V12.9998ZM64.1271 7.73677V7.63677H64.0271V7.73677H64.1271ZM65.8031 7.73677V7.83677H65.9031V7.73677H65.8031ZM65.8031 6.99977H65.9031V6.89977H65.8031V6.99977ZM61.6801 6.99977V6.89977H61.5801V6.99977H61.6801ZM61.6801 7.73677H61.5801V7.83677H61.6801V7.73677ZM63.3561 7.73677H63.4561V7.63677H63.3561V7.73677ZM75.575 12.9998H75.475V13.0998H75.575V12.9998ZM75.575 6.99977V6.89977H75.475V6.99977H75.575ZM76.344 12.9998V13.0998H76.444V12.9998H76.344ZM76.344 9.26177H76.4441L76.444 9.25892L76.344 9.26177ZM76.311 8.10577V8.00577H76.2081L76.2111 8.10862L76.311 8.10577ZM76.344 8.10577L76.4289 8.05287L76.3995 8.00577H76.344V8.10577ZM79.395 12.9998L79.3102 13.0527L79.3395 13.0998H79.395V12.9998ZM80.2 12.9998V13.0998H80.3V12.9998H80.2ZM80.2 6.99977H80.3V6.89977H80.2V6.99977ZM79.429 6.99977V6.89977H79.329V6.99977H79.429ZM79.429 10.5118H79.329L79.3291 10.5146L79.429 10.5118ZM79.462 11.6678V11.7678H79.5649L79.562 11.6649L79.462 11.6678ZM79.429 11.6678L79.3442 11.7208L79.3736 11.7678H79.429V11.6678ZM76.513 6.99977L76.5979 6.94679L76.5685 6.89977H76.513V6.99977ZM71.409 13.2328C72.3119 13.2328 73.0711 12.9207 73.6808 12.2935L73.5373 12.1541C72.967 12.7409 72.2602 13.0328 71.409 13.0328V13.2328ZM69.1383 12.2935C69.747 12.9196 70.5062 13.2328 71.409 13.2328V13.0328C70.5579 13.0328 69.8512 12.7399 69.2818 12.1541L69.1383 12.2935ZM68.226 9.99877C68.226 10.9007 68.5294 11.668 69.1384 12.2935L69.2817 12.154C68.7107 11.5675 68.4261 10.8509 68.4261 9.99877H68.226ZM69.1384 7.70401C68.5294 8.32951 68.226 9.09688 68.226 9.99877H68.4261C68.4261 9.14666 68.7107 8.43003 69.2817 7.84353L69.1384 7.70401ZM71.409 6.76377C70.5062 6.76377 69.7469 7.0769 69.1383 7.70413L69.2818 7.84341C69.8512 7.25664 70.5579 6.96377 71.409 6.96377V6.76377ZM73.6768 7.70807C73.0654 7.07915 72.3073 6.76377 71.409 6.76377V6.96377C72.2548 6.96377 72.9607 7.25839 73.5334 7.84747L73.6768 7.70807ZM74.593 9.99877C74.593 9.1015 74.2874 8.33627 73.6768 7.70807L73.5334 7.84747C74.1067 8.43727 74.3931 9.15204 74.3931 9.99877H74.593ZM73.6807 12.2935C74.2887 11.6691 74.593 10.9017 74.593 9.99877H74.3931C74.3931 10.8518 74.1075 11.5685 73.5374 12.154L73.6807 12.2935ZM71.409 12.2958C70.7922 12.2958 70.275 12.0821 69.8502 11.6515L69.7079 11.792C70.1711 12.2615 70.7399 12.4958 71.409 12.4958V12.2958ZM72.9679 11.6515C72.5431 12.0811 72.0258 12.2958 71.409 12.2958V12.4958C72.0783 12.4958 72.647 12.2604 73.1102 11.7921L72.9679 11.6515ZM73.6061 9.99977C73.6061 10.6744 73.3915 11.2222 72.9679 11.6515L73.1102 11.792C73.5746 11.3213 73.8061 10.7212 73.8061 9.99977H73.6061ZM72.9679 8.34808C73.3914 8.77634 73.6061 9.32511 73.6061 9.99977H73.8061C73.8061 9.27843 73.5747 8.6772 73.1102 8.20746L72.9679 8.34808ZM71.409 7.70377C72.026 7.70377 72.5441 7.91752 72.9678 8.34792L73.1103 8.20762C72.648 7.73802 72.0781 7.50377 71.409 7.50377V7.70377ZM69.8502 8.34808C70.275 7.91841 70.7923 7.70377 71.409 7.70377V7.50377C70.7398 7.50377 70.1711 7.73913 69.7079 8.20746L69.8502 8.34808ZM69.2131 9.99977C69.2131 9.32516 69.4276 8.77728 69.8503 8.34792L69.7078 8.20762C69.2445 8.67826 69.0131 9.27837 69.0131 9.99977H69.2131ZM69.8503 11.6516C69.4276 11.2223 69.2131 10.6744 69.2131 9.99977H69.0131C69.0131 10.7212 69.2445 11.3213 69.7078 11.7919L69.8503 11.6516ZM46.7438 12.3164C47.2631 11.7961 47.518 11.1018 47.518 10.2428H47.318C47.318 11.0597 47.077 11.6994 46.6023 12.1751L46.7438 12.3164ZM44.4691 13.2338C45.3971 13.2338 46.1604 12.9288 46.7455 12.3147L46.6006 12.1768C46.0577 12.7467 45.349 13.0338 44.4691 13.0338V13.2338ZM42.1906 12.3048C42.8147 12.9237 43.5772 13.2338 44.4691 13.2338V13.0338C43.6289 13.0338 42.9174 12.7438 42.3315 12.1628L42.1906 12.3048ZM41.2521 10.0008C41.2521 10.9142 41.5649 11.6842 42.1906 12.3048L42.3315 12.1628C41.7452 11.5814 41.4521 10.8633 41.4521 10.0008H41.2521ZM42.1907 7.69671C41.5649 8.31635 41.2521 9.08632 41.2521 10.0008H41.4521C41.4521 9.13721 41.7452 8.41919 42.3314 7.83883L42.1907 7.69671ZM44.4691 6.76677C43.5772 6.76677 42.8147 7.07683 42.1906 7.69682L42.3315 7.83871C42.9174 7.25671 43.6289 6.96677 44.4691 6.96677V6.76677ZM45.7394 7.02584C45.3368 6.85346 44.9124 6.76677 44.4691 6.76677V6.96677C44.8857 6.96677 45.2833 7.04808 45.6607 7.20969L45.7394 7.02584ZM46.7147 7.72351C46.469 7.43057 46.1424 7.19897 45.7395 7.02589L45.6606 7.20965C46.0397 7.37256 46.3391 7.58697 46.5614 7.85203L46.7147 7.72351ZM46.1818 8.38641L46.7088 7.85841L46.5673 7.71712L46.0403 8.24512L46.1818 8.38641ZM44.468 7.70377C45.1417 7.70377 45.6589 7.93074 46.0343 8.3799L46.1878 8.25164C45.7692 7.7508 45.1924 7.50377 44.468 7.50377V7.70377ZM42.8984 8.34179C43.3411 7.91547 43.8623 7.70377 44.468 7.70377V7.50377C43.8098 7.50377 43.239 7.73607 42.7597 8.19774L42.8984 8.34179ZM42.239 9.99977C42.239 9.31364 42.4602 8.76472 42.8985 8.34172L42.7596 8.19782C42.2778 8.66281 42.039 9.26589 42.039 9.99977H42.239ZM42.8995 11.6588C42.4602 11.2348 42.239 10.6859 42.239 9.99977H42.039C42.039 10.7337 42.2779 11.3367 42.7606 11.8027L42.8995 11.6588ZM44.4691 12.2968C43.8633 12.2968 43.3421 12.0851 42.8994 11.6587L42.7607 11.8028C43.24 12.2645 43.8108 12.4968 44.4691 12.4968V12.2968ZM46.0743 11.6561C45.6474 12.083 45.1144 12.2968 44.4691 12.2968V12.4968C45.1637 12.4968 45.7487 12.2645 46.2158 11.7975L46.0743 11.6561ZM46.5484 10.5031C46.5049 11.0051 46.3436 11.3858 46.0742 11.6562L46.2159 11.7974C46.5265 11.4857 46.7012 11.0565 46.7477 10.5204L46.5484 10.5031ZM44.4691 10.6118H46.648V10.4118H44.4691V10.6118ZM44.3691 9.78977V10.5118H44.5691V9.78977H44.3691ZM47.376 9.68977H44.4691V9.88977H47.376V9.68977ZM47.518 10.2428C47.518 10.0917 47.5045 9.93466 47.4744 9.7716L47.2777 9.80793C47.3056 9.95887 47.318 10.1038 47.318 10.2428H47.518ZM49.2961 7.83677H52.0281V7.63677H49.2961V7.83677ZM49.3961 9.63877V7.73677H49.1961V9.63877H49.3961ZM51.7601 9.53877H49.2961V9.73877H51.7601V9.53877ZM51.8601 10.3598V9.63877H51.6601V10.3598H51.8601ZM49.2961 10.4598H51.7601V10.2598H49.2961V10.4598ZM49.3961 12.2618V10.3598H49.1961V12.2618H49.3961ZM52.0281 12.1618H49.2961V12.3618H52.0281V12.1618ZM52.1281 12.9998V12.2618H51.9281V12.9998H52.1281ZM48.5251 13.0998H52.0281V12.8998H48.5251V13.0998ZM48.4251 6.99977V12.9998H48.6251V6.99977H48.4251ZM52.0281 6.89977H48.5251V7.09977H52.0281V6.89977ZM52.1281 7.73677V6.99977H51.9281V7.73677H52.1281ZM55.2781 12.8998H54.5071V13.0998H55.2781V12.8998ZM55.1781 7.73677V12.9998H55.3781V7.73677H55.1781ZM56.9541 7.63677H55.2781V7.83677H56.9541V7.63677ZM56.8541 6.99977V7.73677H57.0541V6.99977H56.8541ZM52.8311 7.09977H56.9541V6.89977H52.8311V7.09977ZM52.9311 7.73677V6.99977H52.7311V7.73677H52.9311ZM54.5071 7.63677H52.8311V7.83677H54.5071V7.63677ZM54.6071 12.9998V7.73677H54.4071V12.9998H54.6071ZM59.838 6.99977V12.9998H60.038V6.99977H59.838ZM60.709 6.89977H59.938V7.09977H60.709V6.89977ZM60.809 12.9998V6.99977H60.609V12.9998H60.809ZM59.938 13.0998H60.709V12.8998H59.938V13.0998ZM64.1271 12.8998H63.3561V13.0998H64.1271V12.8998ZM64.0271 7.73677V12.9998H64.2271V7.73677H64.0271ZM65.8031 7.63677H64.1271V7.83677H65.8031V7.63677ZM65.7031 6.99977V7.73677H65.9031V6.99977H65.7031ZM61.6801 7.09977H65.8031V6.89977H61.6801V7.09977ZM61.7801 7.73677V6.99977H61.5801V7.73677H61.7801ZM63.3561 7.63677H61.6801V7.83677H63.3561V7.63677ZM63.4561 12.9998V7.73677H63.2561V12.9998H63.4561ZM75.675 12.9998V6.99977H75.475V12.9998H75.675ZM76.344 12.8998H75.575V13.0998H76.344V12.8998ZM76.244 9.26177V12.9998H76.444V9.26177H76.244ZM76.2111 8.10862L76.2441 9.26463L76.444 9.25892L76.411 8.10292L76.2111 8.10862ZM76.344 8.00577H76.311V8.20577H76.344V8.00577ZM79.4799 12.9469L76.4289 8.05287L76.2592 8.15867L79.3102 13.0527L79.4799 12.9469ZM80.2 12.8998H79.395V13.0998H80.2V12.8998ZM80.1 6.99977V12.9998H80.3V6.99977H80.1ZM79.429 7.09977H80.2V6.89977H79.429V7.09977ZM79.529 10.5118V6.99977H79.329V10.5118H79.529ZM79.562 11.6649L79.529 10.5089L79.3291 10.5146L79.3621 11.6706L79.562 11.6649ZM79.429 11.7678H79.462V11.5678H79.429V11.7678ZM76.4282 7.05275L79.3442 11.7208L79.5139 11.6148L76.5979 6.94679L76.4282 7.05275ZM75.575 7.09977H76.513V6.89977H75.575V7.09977Z" fill="white"/>
<defs>
<linearGradient id="paint0_linear" x1="21.7995" y1="8.70964" x2="5.01713" y2="25.492" gradientUnits="userSpaceOnUse">
<stop stop-color="#00A0FF"/>
<stop offset="0.0066" stop-color="#00A1FF"/>
<stop offset="0.2601" stop-color="#00BEFF"/>
<stop offset="0.5122" stop-color="#00D2FF"/>
<stop offset="0.7604" stop-color="#00DFFF"/>
<stop offset="1" stop-color="#00E3FF"/>
</linearGradient>
<linearGradient id="paint1_linear" x1="33.8342" y1="20.0011" x2="9.63733" y2="20.0011" gradientUnits="userSpaceOnUse">
<stop stop-color="#FFE000"/>
<stop offset="0.4087" stop-color="#FFBD00"/>
<stop offset="0.7754" stop-color="#FFA500"/>
<stop offset="1" stop-color="#FF9C00"/>
</linearGradient>
<linearGradient id="paint2_linear" x1="24.8268" y1="22.2962" x2="2.06853" y2="45.0545" gradientUnits="userSpaceOnUse">
<stop stop-color="#FF3A44"/>
<stop offset="1" stop-color="#C31162"/>
</linearGradient>
<linearGradient id="paint3_linear" x1="7.29711" y1="0.176104" x2="17.4597" y2="10.3386" gradientUnits="userSpaceOnUse">
<stop stop-color="#32A071"/>
<stop offset="0.0685" stop-color="#2DA771"/>
<stop offset="0.4762" stop-color="#15CF74"/>
<stop offset="0.8009" stop-color="#06E775"/>
<stop offset="1" stop-color="#00F076"/>
</linearGradient>
</defs>
</svg>
