<svg width="40" height="40" viewBox="0 0 40 40" fill="none" xmlns="http://www.w3.org/2000/svg">
<path d="M19.9793 2.64842C19.6261 2.65394 19.2896 2.79935 19.0435 3.05274C18.7974 3.30613 18.6619 3.6468 18.6668 3.99998V5.33331H2.66678C2.49009 5.33081 2.31468 5.36346 2.15072 5.42934C1.98676 5.49523 1.83753 5.59304 1.71171 5.7171C1.58588 5.84116 1.48597 5.98899 1.41777 6.152C1.34957 6.31501 1.31445 6.48995 1.31445 6.66665C1.31445 6.84335 1.34957 7.01828 1.41777 7.18129C1.48597 7.3443 1.58588 7.49213 1.71171 7.61619C1.83753 7.74025 1.98676 7.83807 2.15072 7.90395C2.31468 7.96984 2.49009 8.00248 2.66678 7.99998V28C2.66678 29.4733 3.86011 30.6666 5.33344 30.6666H15.7163L13.5314 34.7239C13.0952 34.8291 12.7071 35.0778 12.4294 35.4302C12.1517 35.7825 12.0005 36.218 12.0001 36.6666C12.0001 37.1971 12.2108 37.7058 12.5859 38.0809C12.961 38.4559 13.4697 38.6666 14.0001 38.6666C14.5305 38.6666 15.0392 38.4559 15.4143 38.0809C15.7894 37.7058 16.0001 37.1971 16.0001 36.6666C15.9996 36.4357 15.959 36.2066 15.8803 35.9896L18.7449 30.6666H21.2553L24.1199 35.9896C24.0412 36.2066 24.0007 36.4357 24.0001 36.6666C24.0001 37.1971 24.2108 37.7058 24.5859 38.0809C24.961 38.4559 25.4697 38.6666 26.0001 38.6666C26.5305 38.6666 27.0392 38.4559 27.4143 38.0809C27.7894 37.7058 28.0001 37.1971 28.0001 36.6666C27.9998 36.218 27.8486 35.7825 27.5708 35.4302C27.2931 35.0778 26.905 34.8291 26.4689 34.7239L24.284 30.6666H34.6668C36.1401 30.6666 37.3334 29.4733 37.3334 28V7.99998C37.5101 8.00248 37.6855 7.96984 37.8495 7.90395C38.0135 7.83807 38.1627 7.74025 38.2885 7.61619C38.4143 7.49213 38.5143 7.3443 38.5824 7.18129C38.6506 7.01828 38.6858 6.84335 38.6858 6.66665C38.6858 6.48995 38.6506 6.31501 38.5824 6.152C38.5143 5.98899 38.4143 5.84116 38.2885 5.7171C38.1627 5.59304 38.0135 5.49523 37.8495 5.42934C37.6855 5.36346 37.5101 5.33081 37.3334 5.33331H21.3334V3.99998C21.3359 3.82159 21.3025 3.64453 21.2353 3.47928C21.1681 3.31402 21.0684 3.16394 20.9421 3.03791C20.8158 2.91188 20.6655 2.81247 20.5002 2.74557C20.3348 2.67867 20.1577 2.64563 19.9793 2.64842ZM30.6668 12C31.0078 12 31.3488 12.1299 31.6095 12.3906C32.1308 12.9119 32.1308 13.7547 31.6095 14.276L23.6095 22.276C23.0882 22.7974 22.2454 22.7974 21.7241 22.276L18.6668 19.2187L14.2762 23.6094C14.0162 23.8694 13.6748 24 13.3334 24C12.9921 24 12.6507 23.8694 12.3907 23.6094L9.72407 20.9427C9.20273 20.4214 9.20273 19.5786 9.72407 19.0573C10.2454 18.5359 11.0882 18.5359 11.6095 19.0573L13.3334 20.7812L17.7241 16.3906C18.2454 15.8693 19.0882 15.8693 19.6095 16.3906L22.6668 19.4479L29.7241 12.3906C29.9847 12.1299 30.3258 12 30.6668 12Z" fill="white"/>
</svg>
