<svg width="40" height="40" viewBox="0 0 40 40" fill="none" xmlns="http://www.w3.org/2000/svg">
<path d="M20 4.00262C14.344 4.00262 12 7.63062 12 12.0026C12 13.4746 12.7031 14.9531 12.7031 14.9531C12.4205 15.1158 11.9556 15.6322 12.0729 16.5495C12.2916 18.2602 13.0332 18.6958 13.5052 18.7318C13.6852 20.3278 15.4 22.3694 16 22.6667V25.3334C15.9971 25.3421 15.99 25.3481 15.987 25.3568C15.546 25.4115 15.1527 25.6717 14.9531 26.0755L14.5365 26.9141C11.2457 28.7592 4 28.3018 4 36H17.7396L19.3333 30.7787L17.8151 28H19.9635H22.1849L20.6667 30.7787L22.2604 36H26.6667V34.6667C26.6667 33.9307 27.264 33.3333 28 33.3333H30.6667C31.4027 33.3333 32 33.9307 32 34.6667V36H36C36 28.3018 28.7543 28.7592 25.4635 26.9141L25.0469 26.0755C24.8473 25.6717 24.4539 25.4115 24.013 25.3568C24.01 25.3481 24.0029 25.3421 24 25.3334V22.6667C24.6 22.3694 26.3148 20.3278 26.4948 18.7318C26.9668 18.6958 27.7084 18.2602 27.9271 16.5495C28.0444 15.6308 27.5795 15.1158 27.2969 14.9531C27.2969 14.9531 28 13.6173 28 12.0026C28 8.76529 26.7293 6.00262 24 6.00262C24 6.00262 23.052 4.00262 20 4.00262Z" fill="white"/>
</svg>
