<svg width="40" height="40" viewBox="0 0 40 40" fill="none" xmlns="http://www.w3.org/2000/svg">
<path d="M2.66602 6.66669L2.68685 22.6667H4.80664L16.5254 34.9193C16.773 35.2541 17.0956 35.5262 17.4674 35.7138C17.8391 35.9015 18.2496 35.9995 18.666 36C19.3733 36 20.0515 35.7191 20.5516 35.219C21.0517 34.7189 21.3327 34.0406 21.3327 33.3333C21.3312 33.2069 21.3208 33.0807 21.3014 32.9557C21.714 33.2023 22.1854 33.3327 22.666 33.3333C23.3733 33.3333 24.0515 33.0524 24.5516 32.5523C25.0517 32.0522 25.3327 31.3739 25.3327 30.6667C25.3312 30.5402 25.3208 30.414 25.3014 30.2891C25.714 30.5356 26.1854 30.6661 26.666 30.6667C27.3733 30.6667 28.0515 30.3857 28.5516 29.8856C29.0517 29.3855 29.3327 28.7073 29.3327 28C29.3312 27.8736 29.3208 27.7474 29.3014 27.6224C29.714 27.8689 30.1854 27.9994 30.666 28C31.3733 28 32.0515 27.7191 32.5516 27.219C33.0517 26.7189 33.3327 26.0406 33.3327 25.3334C33.3326 24.6325 33.0566 23.9599 32.5644 23.461L32.5306 23.4297C32.474 23.3741 32.4149 23.3211 32.3535 23.2709L24.4759 16.1641C24.4759 16.1641 19.5939 16.9384 17.7259 17.2344C15.8579 17.5304 10.666 16.9094 10.666 10.6667C10.666 8.72269 12.0991 8.29169 13.0098 7.95835C13.9191 7.62369 16.666 6.66669 16.666 6.66669H2.66602ZM25.3327 6.66669C25.0988 6.66656 24.8659 6.6972 24.64 6.75783C24.6391 6.75783 24.6382 6.75783 24.6374 6.75783L24.6269 6.76044C24.6243 6.7613 24.6217 6.76217 24.6191 6.76304C24.5245 6.79 24.4315 6.82216 24.3405 6.8594L13.3327 10.6667V11.3334C13.3327 13.1747 14.8247 14.6667 16.666 14.6667C16.7776 14.6667 16.8828 14.6435 16.9915 14.6328L17.0046 14.6485L17.2806 14.6042C17.3066 14.5993 17.3329 14.5966 17.3587 14.5912L25.3327 13.3281C25.3327 13.3281 32.334 19.5925 33.5566 20.8151C34.73 21.9885 35.8891 22.8734 35.9811 25.3334H38.666V9.33335L33.3327 10.6667L26.679 7.03387C26.6321 7.00638 26.5843 6.98032 26.5358 6.95575L26.4733 6.9219H26.4629C26.1094 6.75502 25.7236 6.66789 25.3327 6.66669Z" fill="white"/>
</svg>
