<svg width="146" height="48" viewBox="0 0 146 48" fill="none" xmlns="http://www.w3.org/2000/svg">
<path d="M9.18402 0.517735L9.18202 0.517766C8.38805 0.526952 7.59595 0.59563 6.81262 0.723195C6.05494 0.849584 5.32118 1.08766 4.63613 1.42924C3.95331 1.77324 3.32972 2.21997 2.78785 2.75307L2.78642 2.75448L2.78642 2.75448C2.24255 3.28525 1.78949 3.89845 1.44446 4.57035L1.44402 4.57121C1.09674 5.24428 0.856047 5.9653 0.730112 6.70937L0.729964 6.71025C0.598544 7.47843 0.527829 8.25546 0.518448 9.03435L0.518335 9.04372L0.518248 9.04371C0.510698 9.28905 0.507781 9.53158 0.504803 9.77927C0.503385 9.89719 0.501953 10.0163 0.5 10.1374V37.8665C0.501926 37.9874 0.503347 38.1052 0.504748 38.2214C0.507746 38.47 0.510658 38.7115 0.518254 38.9616L0.518532 38.9707H0.518448C0.527832 39.7496 0.598547 40.5266 0.729963 41.2947L0.730159 41.2959C0.855727 42.0403 1.0964 42.7616 1.44396 43.4348L1.4442 43.4353C1.78888 44.1046 2.24173 44.715 2.78539 45.2425L2.78934 45.2464L2.78932 45.2464C3.32839 45.7811 3.95156 46.2275 4.63518 46.5683L4.63574 46.5686C5.32094 46.9113 6.05479 47.1509 6.81273 47.2794C7.5964 47.406 8.3886 47.4747 9.18271 47.485L9.18706 47.485C9.56121 47.4931 9.9281 47.4978 10.2974 47.4978H10.3001C10.7441 47.5002 11.1841 47.5002 11.631 47.5002H11.6331H134.373C134.812 47.5002 135.256 47.5002 135.693 47.4978L135.696 47.4977C136.064 47.4978 136.441 47.4931 136.81 47.485L136.815 47.4849C137.607 47.4752 138.397 47.4066 139.179 47.2795C139.94 47.1501 140.677 46.9104 141.366 46.5685C142.049 46.2274 142.671 45.781 143.21 45.2465L143.213 45.2436C143.756 44.7136 144.21 44.1032 144.56 43.435C144.904 42.7616 145.142 42.0406 145.266 41.297L145.266 41.2946C145.398 40.5254 145.472 39.7476 145.486 38.9676C145.49 38.5996 145.49 38.2426 145.49 37.8705V37.8596L145.491 37.8596C145.5 37.43 145.5 37.0019 145.5 36.5579V11.4435C145.5 11.0031 145.5 10.5727 145.491 10.1443L145.49 10.1334C145.49 9.76575 145.49 9.40072 145.486 9.03741C145.472 8.25745 145.398 7.4796 145.266 6.71031L145.266 6.70819C145.142 5.96504 144.904 5.24453 144.56 4.57135C143.856 3.22285 142.739 2.12358 141.365 1.42924C140.677 1.08843 139.94 0.85036 139.179 0.72302C138.398 0.594936 137.608 0.526256 136.815 0.517598L136.813 0.517572C136.744 0.516481 136.675 0.515359 136.606 0.514236L9.18402 0.517735ZM9.18402 0.517735C9.26308 0.516505 9.34159 0.515231 9.41971 0.513964C9.7163 0.509152 10.0072 0.504433 10.3004 0.502547L9.18402 0.517735ZM134.873 0.500156V0.50013L11.6331 0.500156H134.373H134.873ZM135.696 47.9978C136.068 47.9978 136.449 47.9931 136.821 47.9849L135.696 47.9978Z" stroke="white"/>
<path d="M30.4978 23.8673C30.5115 22.8258 30.7928 21.8045 31.3155 20.8986C31.8383 19.9927 32.5855 19.2316 33.4877 18.6861C32.9146 17.881 32.1585 17.2185 31.2795 16.7511C30.4004 16.2837 29.4227 16.0243 28.4239 15.9936C26.2934 15.7736 24.2279 17.2475 23.1422 17.2475C22.0355 17.2475 20.3639 16.0154 18.5639 16.0518C17.3996 16.0888 16.2649 16.4218 15.2703 17.0184C14.2758 17.6149 13.4553 18.4547 12.8888 19.4559C10.4351 23.6343 12.2654 29.7751 14.6159 33.1527C15.7919 34.8065 17.1663 36.654 18.9647 36.5884C20.7245 36.5167 21.3818 35.4847 23.5061 35.4847C25.6107 35.4847 26.2273 36.5884 28.0622 36.5468C29.9506 36.5167 31.1404 34.8856 32.2751 33.216C33.1201 32.0376 33.7703 30.7352 34.2017 29.357C33.1045 28.9006 32.1683 28.1367 31.5097 27.1604C30.851 26.1842 30.4991 25.0389 30.4978 23.8673Z" fill="white"/>
<path d="M27.0322 13.7724C28.0618 12.5567 28.5691 10.9941 28.4462 9.4165C26.8732 9.579 25.4201 10.3184 24.3766 11.4875C23.8664 12.0586 23.4756 12.723 23.2266 13.4427C22.9776 14.1625 22.8753 14.9234 22.9255 15.6821C23.7123 15.6901 24.4907 15.5223 25.202 15.1915C25.9134 14.8607 26.5391 14.3755 27.0322 13.7724Z" fill="white"/>
<path d="M51.6116 32.5677H45.8364L44.4495 36.5954H42.0034L47.4735 21.6938H50.015L55.4851 36.5954H52.9973L51.6116 32.5677ZM46.4346 30.7091H51.0123L48.7556 24.1724H48.6924L46.4346 30.7091Z" fill="white"/>
<path d="M67.2988 31.1637C67.2988 34.5399 65.4616 36.709 62.689 36.709C61.9866 36.7452 61.2881 36.586 60.6735 36.2499C60.0588 35.9137 59.5528 35.4141 59.2134 34.8082H59.161V40.1895H56.8936V25.7309H59.0883V27.5379H59.13C59.485 26.935 59.9995 26.438 60.6189 26.0997C61.2382 25.7615 61.9392 25.5948 62.6472 25.6172C65.4508 25.6172 67.2988 27.7969 67.2988 31.1637ZM64.9683 31.1637C64.9683 28.9641 63.8125 27.518 62.0491 27.518C60.3167 27.518 59.1515 28.9946 59.1515 31.1637C59.1515 33.3528 60.3167 34.8188 62.0491 34.8188C63.8126 34.8188 64.9682 33.3833 64.9682 31.1637H64.9683Z" fill="white"/>
<path d="M79.4571 31.1637C79.4571 34.5399 77.6193 36.709 74.8467 36.709C74.1443 36.7452 73.4458 36.586 72.8312 36.2499C72.2165 35.9137 71.7105 35.4141 71.3711 34.8082H71.3187V40.1895H69.0513V25.7309H71.246V27.5379H71.2877C71.6427 26.935 72.1572 26.438 72.7766 26.0997C73.3959 25.7615 74.0969 25.5948 74.8049 25.6172C77.6086 25.6172 79.4571 27.7969 79.4571 31.1637ZM77.126 31.1637C77.126 28.9641 75.9703 27.518 74.2069 27.518C72.4744 27.518 71.3092 28.9946 71.3092 31.1637C71.3092 33.3528 72.4744 34.8188 74.2069 34.8188C75.9703 34.8188 77.126 33.3833 77.126 31.1637Z" fill="white"/>
<path d="M87.4915 32.4434C87.6595 33.9212 89.1191 34.8914 91.1136 34.8914C93.0247 34.8914 94.3997 33.9211 94.3997 32.5887C94.3997 31.432 93.5704 30.7395 91.6069 30.2649L89.6433 29.7996C86.8612 29.1387 85.5696 27.859 85.5696 25.7824C85.5696 23.2113 87.8477 21.4453 91.0814 21.4453C94.2842 21.4453 96.4789 23.2113 96.5528 25.7824H94.2639C94.1269 24.2953 92.877 23.3977 91.0504 23.3977C89.2239 23.3977 87.974 24.3059 87.974 25.6277C87.974 26.6813 88.7723 27.3012 90.7252 27.7757L92.3944 28.1789C95.503 28.9019 96.7934 30.1301 96.7934 32.3097C96.7934 35.0976 94.5367 36.8437 90.9455 36.8437C87.5855 36.8437 85.317 35.1386 85.1704 32.4433L87.4915 32.4434Z" fill="white"/>
<path d="M101.689 23.1597V25.7308H103.79V27.4968H101.689V33.4862C101.689 34.4167 102.11 34.8503 103.033 34.8503C103.282 34.846 103.531 34.8288 103.779 34.7987V36.5542C103.364 36.6305 102.942 36.665 102.519 36.6573C100.283 36.6573 99.4108 35.8311 99.4108 33.7241V27.4968H97.8047V25.7308H99.4108V23.1597H101.689Z" fill="white"/>
<path d="M105.005 31.1636C105.005 27.7452 107.052 25.5972 110.244 25.5972C113.447 25.5972 115.484 27.7452 115.484 31.1636C115.484 34.5913 113.457 36.73 110.244 36.73C107.032 36.73 105.005 34.5913 105.005 31.1636ZM113.174 31.1636C113.174 28.8187 112.081 27.4347 110.244 27.4347C108.407 27.4347 107.314 28.8292 107.314 31.1636C107.314 33.5179 108.407 34.8913 110.244 34.8913C112.081 34.8913 113.174 33.5179 113.174 31.1636H113.174Z" fill="white"/>
<path d="M117.354 25.7308H119.516V27.58H119.569C119.715 27.0025 120.059 26.4921 120.543 26.1346C121.027 25.7771 121.621 25.5944 122.226 25.6171C122.487 25.6162 122.747 25.6441 123.002 25.7003V27.7863C122.673 27.6871 122.328 27.6416 121.984 27.6515C121.654 27.6384 121.326 27.6955 121.021 27.8189C120.716 27.9424 120.442 28.1293 120.218 28.3668C119.993 28.6042 119.824 28.8867 119.721 29.1947C119.618 29.5027 119.584 29.829 119.621 30.1511V36.5953H117.354L117.354 25.7308Z" fill="white"/>
<path d="M133.457 33.4042C133.152 35.3765 131.199 36.73 128.7 36.73C125.487 36.73 123.492 34.6124 123.492 31.2151C123.492 27.8073 125.497 25.5972 128.605 25.5972C131.661 25.5972 133.583 27.662 133.583 30.9562V31.7202H125.781V31.855C125.745 32.2548 125.796 32.6576 125.93 33.0366C126.065 33.4156 126.28 33.7622 126.561 34.0532C126.842 34.3443 127.183 34.5732 127.56 34.7248C127.938 34.8763 128.345 34.9471 128.753 34.9323C129.288 34.9817 129.826 34.8596 130.286 34.5843C130.745 34.309 131.102 33.8951 131.304 33.4042L133.457 33.4042ZM125.792 30.1616H131.314C131.335 29.8021 131.279 29.4423 131.152 29.1049C131.024 28.7674 130.827 28.4596 130.572 28.2007C130.318 27.9417 130.012 27.7373 129.673 27.6003C129.335 27.4632 128.971 27.3965 128.605 27.4042C128.236 27.402 127.87 27.4718 127.528 27.6095C127.186 27.7472 126.876 27.9501 126.614 28.2064C126.353 28.4628 126.145 28.7676 126.004 29.1031C125.863 29.4387 125.791 29.7985 125.792 30.1616V30.1616Z" fill="white"/>
<path d="M44.8239 13.5039H45.7973C45.9649 13.5244 46.135 13.5106 46.2969 13.4632C46.4587 13.4159 46.6089 13.3361 46.7378 13.2289C46.8668 13.1216 46.9717 12.9893 47.0461 12.8402C47.1205 12.6911 47.1626 12.5284 47.1699 12.3625C47.1699 11.7021 46.6647 11.2756 45.8081 11.2756C45.6364 11.252 45.4616 11.2624 45.2941 11.3064C45.1266 11.3503 44.9698 11.4268 44.8328 11.5313C44.6959 11.6359 44.5816 11.7663 44.4968 11.915C44.412 12.0637 44.3583 12.2276 44.339 12.397H43.2702C43.2886 12.0895 43.3711 11.7889 43.5127 11.5141C43.6543 11.2393 43.852 10.9961 44.0933 10.7997C44.3346 10.6032 44.6144 10.4577 44.9154 10.3723C45.2163 10.2868 45.532 10.2632 45.8426 10.3029C47.2759 10.3029 48.2852 11.0921 48.2852 12.2283C48.2886 12.6089 48.1591 12.9791 47.9184 13.2772C47.6777 13.5752 47.3403 13.7831 46.9626 13.866V13.9504C47.4104 13.9699 47.8321 14.163 48.1355 14.4874C48.4389 14.8119 48.5994 15.2413 48.5819 15.6818C48.5487 15.9985 48.4516 16.3054 48.2963 16.5847C48.141 16.864 47.9305 17.11 47.6773 17.3083C47.4241 17.5065 47.1331 17.6531 46.8216 17.7393C46.51 17.8256 46.1841 17.8498 45.8629 17.8105C45.541 17.8537 45.2136 17.8327 44.9002 17.7487C44.5867 17.6648 44.2937 17.5196 44.0385 17.3219C43.7833 17.1242 43.5712 16.8779 43.4149 16.5979C43.2585 16.3178 43.1611 16.0097 43.1284 15.6918H44.2139C44.2794 16.3767 44.9192 16.8186 45.8629 16.8186C46.8065 16.8186 47.4225 16.3223 47.4225 15.6227C47.4225 14.9131 46.8423 14.476 45.8283 14.476H44.8239V13.5039Z" fill="white"/>
<path d="M49.8149 16.1091C49.8149 15.1364 50.5525 14.5757 51.8583 14.496L53.3465 14.4116V13.9452C53.3465 13.3745 52.964 13.0522 52.2217 13.0522C51.6165 13.0522 51.1983 13.2708 51.0767 13.6528H50.027C50.1378 12.7247 51.0267 12.1294 52.273 12.1294C53.6503 12.1294 54.4272 12.8038 54.4272 13.9452V17.6372H53.3823V16.8778H53.2965C53.1223 17.1502 52.8778 17.3723 52.5879 17.5213C52.298 17.6704 51.9731 17.7411 51.6463 17.7262C51.4156 17.7498 51.1825 17.7256 50.962 17.6552C50.7414 17.5847 50.5383 17.4696 50.3658 17.3173C50.1933 17.1649 50.0551 16.9787 49.9602 16.7706C49.8653 16.5625 49.8159 16.3371 49.8149 16.1091ZM53.3465 15.6473V15.1956L52.0048 15.28C51.2482 15.3298 50.9051 15.5829 50.9051 16.0593C50.9051 16.5456 51.334 16.8286 51.9239 16.8286C52.0967 16.8458 52.2713 16.8286 52.4372 16.7781C52.6032 16.7276 52.7571 16.6448 52.8898 16.5346C53.0225 16.4244 53.1314 16.2891 53.2098 16.1366C53.2883 15.9842 53.3348 15.8178 53.3465 15.6473Z" fill="white"/>
<path d="M57.305 13.1315V17.6374H56.2207V12.2339H59.8381V13.1315L57.305 13.1315Z" fill="white"/>
<path d="M66.4089 14.9332C66.4089 16.6499 65.526 17.7263 64.1391 17.7263C63.7986 17.7492 63.4586 17.6759 63.1591 17.5151C62.8596 17.3543 62.613 17.1127 62.4484 16.8187H62.3626V19.4337H61.2783V12.2337H62.3221V13.1267H62.4031C62.5707 12.8225 62.8205 12.5697 63.1249 12.3963C63.4294 12.2229 63.7766 12.1356 64.1284 12.1441C65.526 12.1441 66.4089 13.2158 66.4089 14.9332ZM65.2936 14.9332C65.2936 13.7917 64.7444 13.1021 63.8257 13.1021C62.9131 13.1021 62.3423 13.8064 62.3423 14.9378C62.3423 16.064 62.9131 16.7689 63.821 16.7689C64.7444 16.7689 65.2936 16.0792 65.2936 14.9332Z" fill="white"/>
<path d="M67.853 19.5728V18.6546C67.9703 18.6693 68.0886 18.6759 68.2068 18.6745C68.4378 18.6913 68.667 18.6237 68.8504 18.4845C69.0338 18.3453 69.1585 18.1445 69.2005 17.9204L69.2816 17.6573L67.293 12.2339H68.4737L69.8511 16.5259H69.9369L71.3095 12.2339H72.4593L70.4111 17.8607C69.9417 19.1755 69.4222 19.5974 68.3022 19.5974C68.2117 19.5974 67.9543 19.5874 67.853 19.5728Z" fill="white"/>
<path d="M73.3037 16.1039H74.3832C74.4892 16.5803 74.9432 16.8287 75.5783 16.8287C76.3003 16.8287 76.7435 16.5158 76.7435 16.0295C76.7435 15.5086 76.3456 15.2602 75.5783 15.2602H74.7561V14.4317H75.564C76.2193 14.4317 76.5529 14.1838 76.5529 13.7321C76.5529 13.3354 76.23 13.0325 75.564 13.0325C74.9575 13.0325 74.5143 13.2856 74.4439 13.7122H73.399C73.4772 13.222 73.7477 12.7816 74.1526 12.4856C74.5575 12.1897 75.0642 12.0618 75.564 12.1296C76.8698 12.1296 77.6169 12.7102 77.6169 13.6231C77.623 13.8773 77.5402 14.1259 77.3823 14.3273C77.2244 14.5286 77.001 14.6706 76.7495 14.7294V14.8137C77.0489 14.8517 77.3238 14.9965 77.5219 15.2206C77.72 15.4448 77.8276 15.7326 77.8242 16.0296C77.8242 17.0568 76.9354 17.7364 75.5783 17.7364C74.3784 17.7364 73.4038 17.1955 73.3037 16.1039Z" fill="white"/>
<path d="M79.3857 17.6374V12.2339H80.4605V15.9505H80.5462L83.0782 12.2339H84.1529V17.6374H83.0782V13.9009H82.9971L80.4605 17.6374L79.3857 17.6374Z" fill="white"/>
<path d="M90.0734 13.1315H88.3434V17.6373H87.2579V13.1315H85.5278V12.2339H90.0734V13.1315Z" fill="white"/>
<path d="M95.9143 16.1783C95.7665 16.6721 95.4471 17.0992 95.0117 17.385C94.5764 17.6707 94.0528 17.7969 93.5325 17.7416C93.1705 17.751 92.8108 17.6828 92.4784 17.5418C92.1459 17.4007 91.8486 17.1902 91.6071 16.9249C91.3657 16.6595 91.1858 16.3456 91.08 16.005C90.9743 15.6645 90.9451 15.3053 90.9946 14.9525C90.9464 14.5987 90.9761 14.2388 91.0816 13.8971C91.1871 13.5555 91.366 13.2402 91.6062 12.9725C91.8464 12.7048 92.1423 12.491 92.4738 12.3456C92.8053 12.2001 93.1647 12.1264 93.5277 12.1295C95.0564 12.1295 95.9798 13.1567 95.9798 14.8535V15.2256H92.1003V15.2854C92.0831 15.4837 92.1084 15.6834 92.1743 15.8716C92.2403 16.0598 92.3455 16.2323 92.4833 16.3781C92.6211 16.5239 92.7884 16.6397 92.9744 16.7181C93.1605 16.7965 93.3611 16.8358 93.5635 16.8334C93.8227 16.8638 94.0852 16.8178 94.3177 16.7012C94.5502 16.5845 94.7423 16.4025 94.8693 16.1783L95.9143 16.1783ZM92.1003 14.4369H94.8741C94.8878 14.2557 94.8628 14.0736 94.8007 13.9024C94.7386 13.7312 94.6408 13.5747 94.5136 13.4428C94.3863 13.311 94.2325 13.2068 94.0619 13.137C93.8913 13.0671 93.7077 13.0331 93.5229 13.0371C93.3354 13.0346 93.1492 13.0691 92.9754 13.1386C92.8016 13.208 92.6437 13.3111 92.5111 13.4416C92.3785 13.572 92.2738 13.7274 92.2032 13.8983C92.1327 14.0693 92.0977 14.2524 92.1003 14.4369H92.1003Z" fill="white"/>
<path d="M100.511 12.2339H102.988C104.063 12.2339 104.693 12.7694 104.693 13.6079C104.695 13.8739 104.603 14.1325 104.434 14.3403C104.265 14.548 104.029 14.6924 103.765 14.7493V14.8337C104.086 14.8536 104.386 14.994 104.605 15.2258C104.824 15.4576 104.943 15.7632 104.939 16.0794C104.939 17.0221 104.219 17.6374 103.013 17.6374H100.511V12.2339ZM101.585 13.0524V14.4516H102.66C103.316 14.4516 103.629 14.2038 103.629 13.7468C103.629 13.3255 103.356 13.0524 102.781 13.0524L101.585 13.0524ZM101.585 15.2357V16.8189H102.871C103.512 16.8189 103.855 16.5405 103.855 16.0296C103.855 15.4888 103.467 15.2357 102.735 15.2357L101.585 15.2357Z" fill="white"/>
</svg>
