<svg id="Слой_1" data-name="Слой 1" xmlns="http://www.w3.org/2000/svg" viewBox="0 0 145.96 48.52"><defs><style>.cls-1{fill:none;stroke:#fff;}.cls-2{fill:#fff;}.cls-3{isolation:isolate;}</style></defs><title>appstore_cn</title><path class="cls-1" d="M9.18.52h0a17.09,17.09,0,0,0-2.37.2,7.89,7.89,0,0,0-2.17.71A7.1,7.1,0,0,0,2.79,2.75h0A7.3,7.3,0,0,0,1.44,4.57h0A7.7,7.7,0,0,0,.73,6.71h0A14.66,14.66,0,0,0,.52,9h0V39h0a15,15,0,0,0,.21,2.32h0a7.63,7.63,0,0,0,.71,2.13h0a7,7,0,0,0,1.35,1.8h0a7.1,7.1,0,0,0,1.85,1.32h0a7.89,7.89,0,0,0,2.17.71,15.68,15.68,0,0,0,2.37.2H136.81a14.37,14.37,0,0,0,2.36-.2,8,8,0,0,0,2.19-.71,7.29,7.29,0,0,0,1.84-1.32h0a7.25,7.25,0,0,0,1.35-1.81,7.63,7.63,0,0,0,.71-2.13h0a16.41,16.41,0,0,0,.22-2.32v-1.1h0V10.14h0V9a16.55,16.55,0,0,0-.22-2.33h0a7.7,7.7,0,0,0-.71-2.14,7.28,7.28,0,0,0-3.19-3.14,8,8,0,0,0-2.19-.71,15.55,15.55,0,0,0-2.36-.2H9.18Zm0,0h0ZM135.7,48h0Z" transform="translate(-0.02 0.02)"/><path class="cls-2" d="M30.5,23.87a6,6,0,0,1,.82-3,6.13,6.13,0,0,1,2.17-2.21A6.46,6.46,0,0,0,28.42,16c-2.13-.22-4.19,1.26-5.28,1.26s-2.78-1.23-4.58-1.2a6.84,6.84,0,0,0-3.29,1,6.63,6.63,0,0,0-2.38,2.44c-2.45,4.17-.62,10.31,1.73,13.69,1.17,1.66,2.55,3.5,4.34,3.44s2.42-1.11,4.55-1.11,2.72,1.11,4.55,1.07,3.08-1.66,4.22-3.33A13.67,13.67,0,0,0,34.2,29.4a6,6,0,0,1-2.69-2.2A5.88,5.88,0,0,1,30.5,23.87Z" transform="translate(-0.02 0.02)"/><path class="cls-2" d="M27,13.77a6,6,0,0,0,1.42-4.35,6.24,6.24,0,0,0-4.07,2.07,5.75,5.75,0,0,0-1.15,1.95,5.68,5.68,0,0,0-.3,2.24,5.24,5.24,0,0,0,2.27-.49A5.09,5.09,0,0,0,27,13.77Z" transform="translate(-0.02 0.02)"/><path class="cls-2" d="M51.61,32.57H45.84l-1.39,4H42l5.47-14.91H50L55.49,36.6H53Zm-5.18-1.86H51l-2.25-6.54h-.07Z" transform="translate(-0.02 0.02)"/><path class="cls-2" d="M67.3,31.16c0,3.38-1.84,5.55-4.61,5.55a3.67,3.67,0,0,1-2-.46,3.88,3.88,0,0,1-1.46-1.44h0v5.38H56.89V25.73h2.2v1.81h0a3.92,3.92,0,0,1,3.52-1.92C65.45,25.62,67.3,27.8,67.3,31.16Zm-2.33,0c0-2.2-1.16-3.64-2.92-3.64s-2.9,1.47-2.9,3.64,1.17,3.66,2.9,3.66,3-1.44,3-3.66Z" transform="translate(-0.02 0.02)"/><path class="cls-2" d="M79.46,31.16c0,3.38-1.84,5.55-4.61,5.55a3.67,3.67,0,0,1-2-.46,3.88,3.88,0,0,1-1.46-1.44h0v5.38H69.05V25.73h2.2v1.81h0a3.75,3.75,0,0,1,1.49-1.44,3.87,3.87,0,0,1,2-.48C77.61,25.62,79.46,27.8,79.46,31.16Zm-2.33,0c0-2.2-1.16-3.64-2.92-3.64s-2.9,1.47-2.9,3.64,1.16,3.66,2.9,3.66S77.13,33.38,77.13,31.16Z" transform="translate(-0.02 0.02)"/><path class="cls-2" d="M87.49,32.44c.17,1.48,1.63,2.45,3.62,2.45s3.29-1,3.29-2.3-.83-1.85-2.79-2.33l-2-.46c-2.78-.66-4.07-1.94-4.07-4,0-2.57,2.28-4.33,5.51-4.33s5.4,1.76,5.47,4.33H94.26c-.13-1.48-1.38-2.38-3.21-2.38s-3,.89-3,2.21c0,1.05.8,1.67,2.76,2.15l1.66.4c3.11.72,4.4,1.95,4.4,4.13,0,2.79-2.25,4.53-5.84,4.53-3.36,0-5.63-1.7-5.78-4.4Z" transform="translate(-0.02 0.02)"/><path class="cls-2" d="M101.69,23.16v2.57h2.1V27.5h-2.1v6c0,.93.42,1.36,1.34,1.36a6.3,6.3,0,0,0,.75,0v1.75a6.71,6.71,0,0,1-1.26.11c-2.24,0-3.11-.83-3.11-2.94V27.5H97.8V25.73h1.61V23.16Z" transform="translate(-0.02 0.02)"/><path class="cls-2" d="M105,31.16c0-3.41,2-5.56,5.24-5.56s5.24,2.15,5.24,5.56-2,5.57-5.24,5.57S105,34.59,105,31.16Zm8.17,0c0-2.34-1.09-3.73-2.93-3.73s-2.93,1.4-2.93,3.73,1.1,3.73,2.93,3.73S113.17,33.52,113.17,31.16Z" transform="translate(-0.02 0.02)"/><path class="cls-2" d="M117.35,25.73h2.17v1.85h0a2.56,2.56,0,0,1,1-1.45,2.64,2.64,0,0,1,1.69-.51,3.3,3.3,0,0,1,.77.08v2.09a3.06,3.06,0,0,0-1-.14,2.45,2.45,0,0,0-1,.17,2.21,2.21,0,0,0-.8.55,2,2,0,0,0-.5.82,2.25,2.25,0,0,0-.1,1V36.6h-2.27Z" transform="translate(-0.02 0.02)"/><path class="cls-2" d="M133.46,33.4c-.31,2-2.26,3.33-4.76,3.33-3.21,0-5.21-2.12-5.21-5.52s2-5.61,5.11-5.61,5,2.06,5,5.36v.76h-7.8v.13A3,3,0,0,0,126,33a2.92,2.92,0,0,0,.63,1,2.84,2.84,0,0,0,1,.67,2.7,2.7,0,0,0,1.19.21,2.47,2.47,0,0,0,2.54-1.53Zm-7.67-3.24h5.52a2.41,2.41,0,0,0-.16-1.06,2.69,2.69,0,0,0-2.55-1.7,2.8,2.8,0,0,0-1.07.21,2.92,2.92,0,0,0-.92.6,2.72,2.72,0,0,0-.61.89A2.78,2.78,0,0,0,125.79,30.16Z" transform="translate(-0.02 0.02)"/><g class="cls-3"><path class="cls-2" d="M42.62,11c-.15,0-.24,0-.29-.11a.51.51,0,0,1,0-.55c.05-.07.14-.1.29-.1h8.75a.35.35,0,0,1,.3.1.5.5,0,0,1,.07.28.51.51,0,0,1-.07.27c-.05.08-.15.11-.3.11H47.13v1.5c.27.17.56.36.86.58l.9.64.88.66c.29.21.55.42.79.62a.93.93,0,0,1,.35.43.39.39,0,0,1-.14.36.31.31,0,0,1-.31.11,1.45,1.45,0,0,1-.47-.31L49.35,15c-.23-.19-.47-.37-.73-.56s-.5-.37-.75-.56l-.74-.51v5.24a.35.35,0,0,1-.11.3.58.58,0,0,1-.28.06.64.64,0,0,1-.3-.06.38.38,0,0,1-.1-.3V11Z" transform="translate(-0.02 0.02)"/><path class="cls-2" d="M55,10.38V9.91a.58.58,0,0,1,.09-.33.41.41,0,0,1,.58,0,.67.67,0,0,1,.08.33v.47h1.75a.64.64,0,0,1,.33.08.3.3,0,0,1,.14.3.28.28,0,0,1-.14.28.64.64,0,0,1-.33.08H55.77v.73h2.62c0-.33,0-.65,0-1s0-.62,0-.89.12-.52.37-.52a.35.35,0,0,1,.3.12.74.74,0,0,1,.08.36c0,.26,0,.56,0,.89s0,.68.06,1h2.12a.74.74,0,0,1,.34.08.33.33,0,0,1,.13.31.32.32,0,0,1-.13.29.64.64,0,0,1-.34.09H59.2a.25.25,0,0,0,0,.1c0,.24,0,.47.07.69l.09.64c0,.21.07.41.11.62s.09.43.15.65a9.32,9.32,0,0,0,.45-.83c.13-.29.26-.61.39-1a.65.65,0,0,1,.2-.29.28.28,0,0,1,.32,0,.42.42,0,0,1,.26.24.57.57,0,0,1,0,.41c-.19.45-.38.86-.58,1.26a9.56,9.56,0,0,1-.71,1.12,4.25,4.25,0,0,0,.4.83,6.19,6.19,0,0,0,.46.68c0,.05.08,0,.1,0s.08-.36.11-.53.06-.39.09-.62a.59.59,0,0,1,.1-.3.29.29,0,0,1,.26-.09.37.37,0,0,1,.28.12.48.48,0,0,1,.08.35c0,.14,0,.3,0,.46s-.06.35-.1.52a4.37,4.37,0,0,1-.12.52q-.08.25-.15.45a.43.43,0,0,1-.43.29.63.63,0,0,1-.28-.08.86.86,0,0,1-.25-.22,7.4,7.4,0,0,1-.57-.81,9.46,9.46,0,0,1-.46-.9c-.21.23-.45.47-.7.7s-.52.48-.83.73a1,1,0,0,1-.42.21.33.33,0,0,1-.28-.17.31.31,0,0,1-.08-.32.58.58,0,0,1,.23-.3,10.57,10.57,0,0,0,1-.81,8,8,0,0,0,.8-.85c-.09-.29-.17-.56-.24-.82s-.12-.52-.17-.78-.09-.53-.12-.81-.07-.58-.1-.91a.13.13,0,0,1,0-.06.22.22,0,0,0,0-.08h-5.6a.58.58,0,0,1-.33-.09.32.32,0,0,1-.13-.29.33.33,0,0,1,.13-.31.67.67,0,0,1,.33-.08H55v-.73H53.38A.71.71,0,0,1,53,11a.29.29,0,0,1-.13-.28.32.32,0,0,1,.13-.3.71.71,0,0,1,.34-.08Zm-2.09,7.25a.68.68,0,0,1-.43-.07.3.3,0,0,1-.11-.25A.32.32,0,0,1,52.5,17a.81.81,0,0,1,.42-.1l1.14-.05,1.11-.09v-.85H54.06a1.54,1.54,0,0,1-.82-.17.48.48,0,0,1-.25-.42.59.59,0,0,1,0-.22,1.14,1.14,0,0,1,.15-.23l.37-.43.31-.41h-.72a.56.56,0,0,1-.3-.07.29.29,0,0,1-.11-.26.35.35,0,0,1,.11-.28.49.49,0,0,1,.3-.09h1.19a1,1,0,0,0,.08-.14l.09-.14a.93.93,0,0,1,.28-.36.34.34,0,0,1,.35,0c.23.13.25.34.07.62h2c.31,0,.47.12.47.37a.29.29,0,0,1-.11.26.65.65,0,0,1-.36.07H54.77c-.13.19-.25.37-.37.53s-.25.33-.4.51-.08.11-.06.12,0,0,.09,0h1.14v-.56a.45.45,0,0,1,.1-.31.36.36,0,0,1,.54,0,.45.45,0,0,1,.1.31v.56h1.24c.27,0,.4.11.4.34a.33.33,0,0,1-.11.26.48.48,0,0,1-.29.09H55.91v.78l.65-.07.66-.07a1.67,1.67,0,0,1,.38,0c.11,0,.18.09.23.23s0,.27-.08.34a.83.83,0,0,1-.42.13l-.72.08-.7.08v1.17a.4.4,0,0,1-.1.3.39.39,0,0,1-.54,0,.4.4,0,0,1-.1-.3v-1.1l-1.07.08Zm8.25-6.06a.41.41,0,0,1-.32.09.83.83,0,0,1-.34-.27c-.12-.15-.25-.31-.39-.46l-.43-.43a.74.74,0,0,1-.22-.35.38.38,0,0,1,.14-.29.32.32,0,0,1,.26-.11.62.62,0,0,1,.34.18l.26.25.23.24c.07.08.15.16.22.25l.24.27a.56.56,0,0,1,.15.35A.35.35,0,0,1,61.18,11.57Z" transform="translate(-0.02 0.02)"/><path class="cls-2" d="M71.29,10.34a.45.45,0,0,1,.32.09.42.42,0,0,1,.09.29.36.36,0,0,1-.09.28.45.45,0,0,1-.32.09H64a.22.22,0,0,0-.14,0,.16.16,0,0,0,0,.11v3c0,.54,0,1,0,1.44a10.45,10.45,0,0,1-.14,1.14,7.83,7.83,0,0,1-.21.89c-.09.26-.18.5-.28.72a.84.84,0,0,1-.28.37.39.39,0,0,1-.33,0c-.13-.06-.2-.14-.2-.25a.71.71,0,0,1,.12-.42,4.59,4.59,0,0,0,.28-.64,4.27,4.27,0,0,0,.19-.8A9.4,9.4,0,0,0,63,15.59q0-.6,0-1.41v-3a.85.85,0,0,1,.18-.63.83.83,0,0,1,.59-.17h3.09a4.49,4.49,0,0,0-.24-.42.38.38,0,0,1-.08-.3.41.41,0,0,1,.21-.25c.24-.15.45-.06.62.25a3.68,3.68,0,0,1,.16.34c.06.12.12.25.17.38Zm.48,7.84a.39.39,0,0,1-.08.25.37.37,0,0,1-.29.11H63.84a.31.31,0,0,1-.27-.11.39.39,0,0,1-.08-.25.51.51,0,0,1,.07-.27.32.32,0,0,1,.28-.11H71.4c.15,0,.25,0,.29.11A.38.38,0,0,1,71.77,18.18Zm-5.4-1.52a1.12,1.12,0,0,1,0,.54.36.36,0,0,1-.28.19.33.33,0,0,1-.3,0,.79.79,0,0,1-.18-.44c-.06-.33-.14-.69-.23-1.09s-.21-.8-.32-1.2-.21-.76-.32-1.11-.2-.62-.29-.83a.86.86,0,0,1-.09-.44.35.35,0,0,1,.21-.22c.26-.11.45,0,.56.32s.22.6.33,1,.23.74.35,1.13.21.78.3,1.16S66.31,16.33,66.37,16.66Zm2-.59a1.2,1.2,0,0,1,0,.51.3.3,0,0,1-.29.17.36.36,0,0,1-.32-.1.81.81,0,0,1-.12-.47c0-.34,0-.71-.09-1.1s-.1-.78-.16-1.17-.14-.75-.21-1.1a7.62,7.62,0,0,0-.23-.87.6.6,0,0,1,0-.36.36.36,0,0,1,.25-.21.34.34,0,0,1,.3,0,.62.62,0,0,1,.19.33,9,9,0,0,1,.24,1c.08.34.15.71.22,1.09s.12.77.18,1.16S68.31,15.7,68.34,16.07Zm2.54-3.82c-.17,1-.35,1.88-.55,2.73s-.43,1.6-.66,2.27c-.07.22-.15.35-.25.39a.46.46,0,0,1-.34,0,.27.27,0,0,1-.2-.23A1.14,1.14,0,0,1,69,17q.17-.43.33-1c.11-.37.21-.76.31-1.18s.19-.86.28-1.32.16-.92.23-1.39a.73.73,0,0,1,.14-.37c.08-.08.19-.09.36-.06a.3.3,0,0,1,.25.18A.87.87,0,0,1,70.88,12.25Z" transform="translate(-0.02 0.02)"/><path class="cls-2" d="M73.36,18.61a.47.47,0,0,1-.23.28.44.44,0,0,1-.39,0l-.15-.09a.17.17,0,0,1-.07-.12.26.26,0,0,1,0-.19,2.24,2.24,0,0,1,.11-.28,6.51,6.51,0,0,0,.35-.78,4.63,4.63,0,0,0,.24-.84,9.15,9.15,0,0,0,.13-1.08c0-.41,0-.91,0-1.5V10.8a1,1,0,0,1,.16-.64.78.78,0,0,1,.62-.19h6.08a1,1,0,0,1,.67.19.84.84,0,0,1,.21.64v7a1.1,1.1,0,0,1-.27.81,1.16,1.16,0,0,1-.85.27,5,5,0,0,1-1.37-.25.4.4,0,0,1-.28-.21.45.45,0,0,1,0-.29.35.35,0,0,1,.19-.26.63.63,0,0,1,.46,0,5.23,5.23,0,0,0,.6.15,1.68,1.68,0,0,0,.41.05.35.35,0,0,0,.29-.1.47.47,0,0,0,.07-.28V15.9H77.59v2.62c0,.15,0,.24-.11.28a.64.64,0,0,1-.58,0c-.07,0-.1-.13-.1-.28V15.9H74.12c0,.28-.06.54-.1.77a6.56,6.56,0,0,1-.17.67,5.25,5.25,0,0,1-.22.63C73.55,18.18,73.46,18.39,73.36,18.61ZM74.2,14v.61c0,.19,0,.38,0,.55H76.8V13.3H74.2Zm0-1.43h2.6v-1.8H74.33a.14.14,0,0,0-.1,0,.28.28,0,0,0,0,.13Zm3.39-1.8v1.8h2.76V10.92a.19.19,0,0,0,0-.13.16.16,0,0,0-.1,0Zm0,4.39h2.76V13.3H77.59Z" transform="translate(-0.02 0.02)"/><path class="cls-2" d="M85.52,12.2a.37.37,0,0,1,0,.73h-.81c.25.3.44.54.58.74a5.49,5.49,0,0,1,.39.53,1.36,1.36,0,0,1,.19.42.32.32,0,0,1-.17.29.33.33,0,0,1-.3.08.6.6,0,0,1-.25-.27c-.1-.17-.19-.33-.28-.47a3.19,3.19,0,0,0-.3-.42v4.79c0,.25-.12.38-.35.38a.36.36,0,0,1-.28-.09.46.46,0,0,1-.08-.29v-4A18.53,18.53,0,0,1,83,16.34a.6.6,0,0,1-.28.29.38.38,0,0,1-.32-.06.35.35,0,0,1-.18-.25.63.63,0,0,1,.14-.37,11.08,11.08,0,0,0,.75-1.32,14.66,14.66,0,0,0,.68-1.7H82.69a.37.37,0,0,1-.29-.09.43.43,0,0,1-.08-.28.41.41,0,0,1,.08-.27.37.37,0,0,1,.29-.09h1.17V11l-.41.1-.44.1a.76.76,0,0,1-.43,0c-.1,0-.15-.13-.16-.28a.33.33,0,0,1,.08-.29,1.11,1.11,0,0,1,.39-.14,10.67,10.67,0,0,0,1.19-.31,7.1,7.1,0,0,0,1-.37c.33-.15.54-.13.64.06a.4.4,0,0,1,0,.34.78.78,0,0,1-.38.27c-.26.11-.53.22-.8.31V12.2Zm5.85,5.5a.41.41,0,0,1,.3.1.45.45,0,0,1,.09.28.36.36,0,0,1-.09.26.35.35,0,0,1-.3.11H85.81a.34.34,0,0,1-.29-.11.36.36,0,0,1-.09-.26.45.45,0,0,1,.09-.28.4.4,0,0,1,.29-.1H88.2V16.13H86.29A.4.4,0,0,1,86,16a.4.4,0,0,1-.09-.27.33.33,0,0,1,.38-.37H88.2V14.15h-2a.38.38,0,0,1-.3-.1.36.36,0,0,1-.09-.26.38.38,0,0,1,.09-.28.41.41,0,0,1,.3-.09H91.1a.37.37,0,0,1,.29.09.38.38,0,0,1,.09.28.36.36,0,0,1-.09.26.34.34,0,0,1-.29.1H89v1.24h2a.33.33,0,0,1,.38.37.4.4,0,0,1-.09.27.4.4,0,0,1-.29.1H89V17.7Zm-.32-5.86a1.05,1.05,0,0,1-.2.72,1,1,0,0,1-.72.21H87a1,1,0,0,1-.72-.21,1,1,0,0,1-.2-.72V10.73a1,1,0,0,1,.2-.71A1,1,0,0,1,87,9.81h3.13a1,1,0,0,1,.73.21,1.1,1.1,0,0,1,.19.71Zm-.77-1.09a.28.28,0,0,0,0-.15s0,0-.1,0H87s-.09,0-.1,0a.49.49,0,0,0,0,.15v1.08a.4.4,0,0,0,0,.15s0,0,.1,0h3.18s.09,0,.1,0a.24.24,0,0,0,0-.15Z" transform="translate(-0.02 0.02)"/><path class="cls-2" d="M101.28,10.12a.38.38,0,0,1,.3.09.6.6,0,0,1,.07.3.38.38,0,0,1-.09.28.33.33,0,0,1-.28.1H93.72s-.08,0-.08.13v3.83a7.91,7.91,0,0,1-.06.94,6.33,6.33,0,0,1-.16,1,6.39,6.39,0,0,1-.25.91,5.13,5.13,0,0,1-.31.77.57.57,0,0,1-.24.32.34.34,0,0,1-.33,0,.31.31,0,0,1-.17-.25,1.24,1.24,0,0,1,.12-.36,6.17,6.17,0,0,0,.47-1.47,9,9,0,0,0,.16-1.83V11a1,1,0,0,1,.19-.69.85.85,0,0,1,.67-.23h3s0-.07,0-.11l0-.1q-.17-.46.24-.54c.27-.07.44,0,.53.32,0,.07.05.14.08.22s0,.14.06.21Zm-2.77,3.43a2.07,2.07,0,0,1,.61.28.28.28,0,0,1,0,.34.08.08,0,0,0,0,0l0,0h1.42a1.2,1.2,0,0,1,.71.18.65.65,0,0,1,.26.54,1.42,1.42,0,0,1-.2.66c-.07.13-.14.25-.2.34l-.18.27-.19.26-.24.27a.43.43,0,0,1-.64.07c-.2-.17-.15-.4.16-.69a2.13,2.13,0,0,0,.27-.3c.1-.13.21-.3.34-.51s.09-.21,0-.26a.3.3,0,0,0-.24-.07H98.23v2.55a1.73,1.73,0,0,1-.06.47.79.79,0,0,1-.2.37,1,1,0,0,1-.43.26,2.6,2.6,0,0,1-.72.11,5.39,5.39,0,0,1-.77,0,5.26,5.26,0,0,1-.88-.17.84.84,0,0,1-.34-.19.3.3,0,0,1-.06-.32.32.32,0,0,1,.2-.22.86.86,0,0,1,.46.07l.28.08.34.05a2.23,2.23,0,0,0,.34,0l.3,0a.87.87,0,0,0,.6-.15.53.53,0,0,0,.16-.41V15H94.17a.58.58,0,0,1-.34-.08.37.37,0,0,1-.1-.31.4.4,0,0,1,.1-.29.61.61,0,0,1,.34-.08h4.21c-.47-.16-.94-.3-1.42-.42s-.9-.21-1.27-.28a.64.64,0,0,1-.37-.16.33.33,0,0,1-.09-.26c0-.25.24-.34.58-.27l.83.19.86.21c.25-.09.46-.18.64-.26l.51-.21.46-.22.47-.25s.07-.06.06-.07a.14.14,0,0,0-.09,0H94.61a.51.51,0,0,1-.34-.09.34.34,0,0,1-.1-.28.33.33,0,0,1,.11-.28.5.5,0,0,1,.33-.09h5.16a1.14,1.14,0,0,1,.68.17.48.48,0,0,1,.24.42.51.51,0,0,1-.09.28,1,1,0,0,1-.31.27l-.5.29-.42.24-.42.19-.49.19h.05Z" transform="translate(-0.02 0.02)"/></g></svg>