<svg width="146" height="48" viewBox="0 0 146 48" fill="none" xmlns="http://www.w3.org/2000/svg">
<path d="M9.18402 0.517735L9.18202 0.517766C8.38805 0.526952 7.59595 0.59563 6.81262 0.723195C6.05494 0.849584 5.32118 1.08766 4.63613 1.42924C3.95331 1.77324 3.32972 2.21997 2.78785 2.75307L2.78642 2.75448L2.78642 2.75448C2.24255 3.28525 1.78949 3.89845 1.44446 4.57035L1.44402 4.57121C1.09674 5.24428 0.856047 5.9653 0.730112 6.70937L0.729964 6.71025C0.598544 7.47843 0.527829 8.25546 0.518448 9.03435L0.518335 9.04371L0.518248 9.04371C0.510698 9.28905 0.507781 9.53158 0.504803 9.77927C0.503385 9.89719 0.501953 10.0163 0.5 10.1374V37.8665C0.501926 37.9874 0.503347 38.1052 0.504748 38.2214C0.507746 38.47 0.510658 38.7115 0.518254 38.9616L0.518532 38.9707L0.518448 38.9707C0.527832 39.7496 0.598547 40.5266 0.729963 41.2947L0.730159 41.2959C0.855727 42.0403 1.0964 42.7616 1.44396 43.4348L1.4442 43.4353C1.78888 44.1046 2.24173 44.715 2.78539 45.2425L2.78934 45.2464L2.78932 45.2464C3.32839 45.7811 3.95156 46.2275 4.63518 46.5683L4.63574 46.5686C5.32094 46.9113 6.05479 47.1509 6.81273 47.2794C7.59639 47.406 8.3886 47.4747 9.18272 47.485L9.18705 47.485C9.56121 47.4931 9.9281 47.4978 10.2974 47.4978H10.3001C10.7448 47.5002 11.1855 47.5002 11.6331 47.5002H134.373C134.812 47.5002 135.256 47.5002 135.693 47.4978L135.696 47.4978C136.064 47.4978 136.441 47.4931 136.81 47.485L136.815 47.4849C137.607 47.4752 138.398 47.4065 139.179 47.2795C139.94 47.15 140.677 46.9104 141.366 46.5685C142.049 46.2274 142.671 45.781 143.21 45.2465L143.213 45.2436C143.756 44.7135 144.21 44.103 144.56 43.4347C144.904 42.7613 145.142 42.0405 145.266 41.297L145.266 41.2946C145.398 40.5254 145.472 39.7476 145.486 38.9676C145.49 38.5996 145.49 38.2426 145.49 37.8705V37.8596L145.491 37.8596C145.5 37.43 145.5 37.0019 145.5 36.5579V11.4435C145.5 11.0031 145.5 10.5727 145.491 10.1443L145.49 10.1334C145.49 9.76576 145.49 9.40073 145.486 9.03741C145.472 8.25745 145.398 7.4796 145.266 6.71032L145.266 6.70818C145.142 5.96499 144.904 5.24445 144.56 4.57123C143.856 3.22275 142.739 2.12351 141.365 1.42919C140.676 1.0884 139.94 0.85035 139.179 0.723018C138.398 0.594935 137.608 0.526256 136.815 0.517598L136.813 0.517572C136.744 0.516481 136.675 0.515359 136.606 0.514236L9.18402 0.517735ZM9.18402 0.517735C9.26308 0.516505 9.34159 0.515231 9.41971 0.513964M9.18402 0.517735L9.41971 0.513964M9.41971 0.513964C9.7163 0.509152 10.0072 0.504433 10.3004 0.502547L9.41971 0.513964ZM134.873 0.500156V0.50013L11.6331 0.500156H134.373H134.873Z" stroke="white"/>
<path d="M30.4978 23.8673C30.5115 22.8258 30.7928 21.8045 31.3155 20.8986C31.8383 19.9927 32.5855 19.2316 33.4877 18.6861C32.9146 17.881 32.1585 17.2185 31.2795 16.7511C30.4004 16.2837 29.4227 16.0243 28.4239 15.9936C26.2934 15.7736 24.2279 17.2475 23.1422 17.2475C22.0355 17.2475 20.3639 16.0154 18.5639 16.0518C17.3996 16.0888 16.2649 16.4218 15.2703 17.0184C14.2758 17.6149 13.4553 18.4547 12.8888 19.4559C10.4351 23.6343 12.2654 29.7751 14.6159 33.1527C15.7919 34.8065 17.1663 36.654 18.9647 36.5884C20.7245 36.5167 21.3818 35.4847 23.5061 35.4847C25.6107 35.4847 26.2273 36.5884 28.0622 36.5468C29.9506 36.5167 31.1404 34.8856 32.2751 33.216C33.1201 32.0376 33.7703 30.7352 34.2017 29.357C33.1045 28.9006 32.1683 28.1367 31.5097 27.1605C30.851 26.1842 30.4991 25.0389 30.4978 23.8673Z" fill="white"/>
<path d="M27.0322 13.7724C28.0618 12.5567 28.5691 10.9941 28.4462 9.4165C26.8732 9.579 25.4201 10.3184 24.3766 11.4875C23.8664 12.0586 23.4756 12.723 23.2266 13.4427C22.9776 14.1625 22.8753 14.9234 22.9255 15.6821C23.7123 15.6901 24.4907 15.5223 25.202 15.1915C25.9134 14.8607 26.5391 14.3755 27.0322 13.7724V13.7724Z" fill="white"/>
<path d="M51.6116 32.5677H45.8364L44.4495 36.5954H42.0034L47.4735 21.6938H50.015L55.4851 36.5954H52.9973L51.6116 32.5677ZM46.4346 30.7091H51.0123L48.7556 24.1724H48.6924L46.4346 30.7091Z" fill="white"/>
<path d="M67.2988 31.1637C67.2988 34.5399 65.4616 36.709 62.689 36.709C61.9866 36.7452 61.2881 36.586 60.6735 36.2499C60.0588 35.9137 59.5528 35.4141 59.2134 34.8082H59.161V40.1895H56.8936V25.7309H59.0883V27.5379H59.13C59.485 26.935 59.9995 26.438 60.6189 26.0997C61.2382 25.7615 61.9392 25.5948 62.6472 25.6172C65.4508 25.6172 67.2988 27.7969 67.2988 31.1637ZM64.9683 31.1637C64.9683 28.9641 63.8125 27.518 62.0491 27.518C60.3167 27.518 59.1515 28.9946 59.1515 31.1637C59.1515 33.3528 60.3167 34.8188 62.0491 34.8188C63.8126 34.8188 64.9682 33.3833 64.9682 31.1637H64.9683Z" fill="white"/>
<path d="M79.4571 31.1637C79.4571 34.5399 77.6193 36.709 74.8467 36.709C74.1443 36.7452 73.4458 36.586 72.8312 36.2499C72.2165 35.9137 71.7105 35.4141 71.3711 34.8082H71.3187V40.1895H69.0513V25.7309H71.246V27.5379H71.2877C71.6427 26.935 72.1572 26.438 72.7766 26.0997C73.3959 25.7615 74.0969 25.5948 74.8049 25.6172C77.6086 25.6172 79.4571 27.7969 79.4571 31.1637ZM77.126 31.1637C77.126 28.9641 75.9703 27.518 74.2069 27.518C72.4744 27.518 71.3092 28.9946 71.3092 31.1637C71.3092 33.3528 72.4744 34.8188 74.2069 34.8188C75.9703 34.8188 77.126 33.3833 77.126 31.1637V31.1637Z" fill="white"/>
<path d="M87.4915 32.4434C87.6595 33.9212 89.1191 34.8914 91.1136 34.8914C93.0247 34.8914 94.3997 33.9211 94.3997 32.5887C94.3997 31.432 93.5704 30.7395 91.6069 30.2649L89.6433 29.7996C86.8612 29.1387 85.5696 27.859 85.5696 25.7824C85.5696 23.2113 87.8477 21.4453 91.0814 21.4453C94.2842 21.4453 96.4789 23.2113 96.5528 25.7824H94.2639C94.1269 24.2953 92.877 23.3977 91.0504 23.3977C89.2239 23.3977 87.974 24.3059 87.974 25.6277C87.974 26.6813 88.7723 27.3012 90.7252 27.7757L92.3944 28.1789C95.503 28.9019 96.7934 30.1301 96.7934 32.3097C96.7934 35.0976 94.5367 36.8437 90.9455 36.8437C87.5855 36.8437 85.317 35.1386 85.1704 32.4433L87.4915 32.4434Z" fill="white"/>
<path d="M101.689 23.1597V25.7308H103.79V27.4968H101.689V33.4862C101.689 34.4167 102.11 34.8503 103.033 34.8503C103.282 34.846 103.531 34.8288 103.779 34.7987V36.5542C103.364 36.6305 102.942 36.665 102.519 36.6573C100.283 36.6573 99.4108 35.8311 99.4108 33.7241V27.4968H97.8047V25.7308H99.4108V23.1597H101.689Z" fill="white"/>
<path d="M105.005 31.1636C105.005 27.7452 107.052 25.5972 110.244 25.5972C113.447 25.5972 115.484 27.7452 115.484 31.1636C115.484 34.5913 113.457 36.73 110.244 36.73C107.032 36.73 105.005 34.5913 105.005 31.1636ZM113.174 31.1636C113.174 28.8187 112.081 27.4347 110.244 27.4347C108.407 27.4347 107.314 28.8292 107.314 31.1636C107.314 33.5179 108.407 34.8913 110.244 34.8913C112.081 34.8913 113.174 33.5179 113.174 31.1636H113.174Z" fill="white"/>
<path d="M117.354 25.7308H119.516V27.58H119.569C119.715 27.0025 120.059 26.4921 120.543 26.1346C121.027 25.7771 121.621 25.5944 122.226 25.6171C122.487 25.6162 122.747 25.6441 123.002 25.7003V27.7863C122.673 27.6871 122.328 27.6416 121.984 27.6515C121.654 27.6384 121.326 27.6955 121.021 27.8189C120.716 27.9424 120.442 28.1293 120.218 28.3668C119.993 28.6042 119.824 28.8867 119.721 29.1947C119.618 29.5027 119.584 29.829 119.621 30.1511V36.5953H117.354L117.354 25.7308Z" fill="white"/>
<path d="M133.457 33.4042C133.152 35.3765 131.199 36.73 128.7 36.73C125.487 36.73 123.492 34.6124 123.492 31.2151C123.492 27.8073 125.497 25.5972 128.605 25.5972C131.661 25.5972 133.583 27.662 133.583 30.9562V31.7202H125.781V31.855C125.745 32.2548 125.796 32.6576 125.93 33.0366C126.065 33.4156 126.28 33.7622 126.561 34.0532C126.842 34.3443 127.183 34.5732 127.56 34.7248C127.938 34.8763 128.345 34.9471 128.753 34.9323C129.288 34.9817 129.826 34.8596 130.286 34.5843C130.745 34.309 131.102 33.8951 131.304 33.4042L133.457 33.4042ZM125.792 30.1616H131.314C131.335 29.8021 131.279 29.4423 131.152 29.1049C131.024 28.7674 130.827 28.4596 130.572 28.2007C130.318 27.9417 130.012 27.7373 129.673 27.6003C129.335 27.4632 128.971 27.3965 128.605 27.4042C128.236 27.402 127.87 27.4718 127.528 27.6095C127.186 27.7472 126.876 27.9501 126.614 28.2064C126.353 28.4628 126.145 28.7676 126.004 29.1031C125.863 29.4387 125.791 29.7985 125.792 30.1616V30.1616Z" fill="white"/>
<path d="M46.959 15.425H43.611L42.918 17H41.991L44.844 10.7H45.735L48.597 17H47.652L46.959 15.425ZM46.644 14.705L45.285 11.618L43.926 14.705H46.644ZM53.3857 12.23L51.2977 17H50.4157L48.3277 12.23H49.2277L50.8657 16.055L52.5397 12.23H53.3857ZM55.7796 12.185C56.4396 12.185 56.9436 12.347 57.2916 12.671C57.6456 12.995 57.8226 13.478 57.8226 14.12V17H57.0036V16.37C56.8596 16.592 56.6526 16.763 56.3826 16.883C56.1186 16.997 55.8036 17.054 55.4376 17.054C54.9036 17.054 54.4746 16.925 54.1506 16.667C53.8326 16.409 53.6736 16.07 53.6736 15.65C53.6736 15.23 53.8266 14.894 54.1326 14.642C54.4386 14.384 54.9246 14.255 55.5906 14.255H56.9586V14.084C56.9586 13.712 56.8506 13.427 56.6346 13.229C56.4186 13.031 56.1006 12.932 55.6806 12.932C55.3986 12.932 55.1226 12.98 54.8526 13.076C54.5826 13.166 54.3546 13.289 54.1686 13.445L53.8086 12.797C54.0546 12.599 54.3486 12.449 54.6906 12.347C55.0326 12.239 55.3956 12.185 55.7796 12.185ZM55.5816 16.388C55.9116 16.388 56.1966 16.316 56.4366 16.172C56.6766 16.022 56.8506 15.812 56.9586 15.542V14.876H55.6266C54.8946 14.876 54.5286 15.122 54.5286 15.614C54.5286 15.854 54.6216 16.043 54.8076 16.181C54.9936 16.319 55.2516 16.388 55.5816 16.388ZM59.4215 12.23H60.2855V17H59.4215V12.23ZM59.8535 11.312C59.6855 11.312 59.5445 11.258 59.4305 11.15C59.3225 11.042 59.2685 10.91 59.2685 10.754C59.2685 10.598 59.3225 10.466 59.4305 10.358C59.5445 10.244 59.6855 10.187 59.8535 10.187C60.0215 10.187 60.1595 10.241 60.2675 10.349C60.3815 10.451 60.4385 10.58 60.4385 10.736C60.4385 10.898 60.3815 11.036 60.2675 11.15C60.1595 11.258 60.0215 11.312 59.8535 11.312ZM61.9352 10.322H62.7992V17H61.9352V10.322ZM66.1859 12.185C66.8459 12.185 67.3499 12.347 67.6979 12.671C68.0519 12.995 68.2289 13.478 68.2289 14.12V17H67.4099V16.37C67.2659 16.592 67.0589 16.763 66.7889 16.883C66.5249 16.997 66.2099 17.054 65.8439 17.054C65.3099 17.054 64.8809 16.925 64.5569 16.667C64.2389 16.409 64.0799 16.07 64.0799 15.65C64.0799 15.23 64.2329 14.894 64.5389 14.642C64.8449 14.384 65.3309 14.255 65.9969 14.255H67.3649V14.084C67.3649 13.712 67.2569 13.427 67.0409 13.229C66.8249 13.031 66.5069 12.932 66.0869 12.932C65.8049 12.932 65.5289 12.98 65.2589 13.076C64.9889 13.166 64.7609 13.289 64.5749 13.445L64.2149 12.797C64.4609 12.599 64.7549 12.449 65.0969 12.347C65.4389 12.239 65.8019 12.185 66.1859 12.185ZM65.9879 16.388C66.3179 16.388 66.6029 16.316 66.8429 16.172C67.0829 16.022 67.2569 15.812 67.3649 15.542V14.876H66.0329C65.3009 14.876 64.9349 15.122 64.9349 15.614C64.9349 15.854 65.0279 16.043 65.2139 16.181C65.3999 16.319 65.6579 16.388 65.9879 16.388ZM72.3568 12.185C72.8188 12.185 73.2328 12.287 73.5988 12.491C73.9648 12.695 74.2498 12.98 74.4538 13.346C74.6638 13.712 74.7688 14.135 74.7688 14.615C74.7688 15.095 74.6638 15.521 74.4538 15.893C74.2498 16.259 73.9648 16.544 73.5988 16.748C73.2328 16.952 72.8188 17.054 72.3568 17.054C72.0028 17.054 71.6788 16.985 71.3848 16.847C71.0908 16.709 70.8478 16.508 70.6558 16.244V17H69.8278V10.322H70.6918V12.95C70.8838 12.698 71.1238 12.509 71.4118 12.383C71.6998 12.251 72.0148 12.185 72.3568 12.185ZM72.2848 16.298C72.5908 16.298 72.8638 16.229 73.1038 16.091C73.3498 15.947 73.5418 15.749 73.6798 15.497C73.8238 15.239 73.8958 14.945 73.8958 14.615C73.8958 14.285 73.8238 13.994 73.6798 13.742C73.5418 13.484 73.3498 13.286 73.1038 13.148C72.8638 13.01 72.5908 12.941 72.2848 12.941C71.9848 12.941 71.7118 13.01 71.4658 13.148C71.2198 13.286 71.0278 13.484 70.8898 13.742C70.7518 13.994 70.6828 14.285 70.6828 14.615C70.6828 14.945 70.7518 15.239 70.8898 15.497C71.0278 15.749 71.2198 15.947 71.4658 16.091C71.7118 16.229 71.9848 16.298 72.2848 16.298ZM75.9626 10.322H76.8266V17H75.9626V10.322ZM82.7872 14.642C82.7872 14.708 82.7812 14.795 82.7692 14.903H78.8992C78.9532 15.323 79.1362 15.662 79.4482 15.92C79.7662 16.172 80.1592 16.298 80.6272 16.298C81.1972 16.298 81.6562 16.106 82.0042 15.722L82.4812 16.28C82.2652 16.532 81.9952 16.724 81.6712 16.856C81.3532 16.988 80.9962 17.054 80.6002 17.054C80.0962 17.054 79.6492 16.952 79.2592 16.748C78.8692 16.538 78.5662 16.247 78.3502 15.875C78.1402 15.503 78.0352 15.083 78.0352 14.615C78.0352 14.153 78.1372 13.736 78.3412 13.364C78.5512 12.992 78.8362 12.704 79.1962 12.5C79.5622 12.29 79.9732 12.185 80.4292 12.185C80.8852 12.185 81.2902 12.29 81.6442 12.5C82.0042 12.704 82.2832 12.992 82.4812 13.364C82.6852 13.736 82.7872 14.162 82.7872 14.642ZM80.4292 12.914C80.0152 12.914 79.6672 13.04 79.3852 13.292C79.1092 13.544 78.9472 13.874 78.8992 14.282H81.9592C81.9112 13.88 81.7462 13.553 81.4642 13.301C81.1882 13.043 80.8432 12.914 80.4292 12.914ZM86.404 12.23H87.268V17H86.404V12.23ZM86.836 11.312C86.668 11.312 86.527 11.258 86.413 11.15C86.305 11.042 86.251 10.91 86.251 10.754C86.251 10.598 86.305 10.466 86.413 10.358C86.527 10.244 86.668 10.187 86.836 10.187C87.004 10.187 87.142 10.241 87.25 10.349C87.364 10.451 87.421 10.58 87.421 10.736C87.421 10.898 87.364 11.036 87.25 11.15C87.142 11.258 87.004 11.312 86.836 11.312ZM91.4646 12.185C92.0706 12.185 92.5506 12.362 92.9046 12.716C93.2646 13.064 93.4446 13.577 93.4446 14.255V17H92.5806V14.354C92.5806 13.892 92.4696 13.544 92.2476 13.31C92.0256 13.076 91.7076 12.959 91.2936 12.959C90.8256 12.959 90.4566 13.097 90.1866 13.373C89.9166 13.643 89.7816 14.033 89.7816 14.543V17H88.9176V12.23H89.7456V12.95C89.9196 12.704 90.1536 12.515 90.4476 12.383C90.7476 12.251 91.0866 12.185 91.4646 12.185Z" fill="white"/>
</svg>
