<svg width="32" height="32" viewBox="0 0 32 32" fill="none" xmlns="http://www.w3.org/2000/svg">
<path d="M16 3.19995C8.93115 3.19995 3.19995 8.93115 3.19995 16C3.19995 23.0688 8.93115 28.8 16 28.8C23.0688 28.8 28.7999 23.0688 28.7999 16C28.7999 15.6384 28.7757 15.2812 28.7458 14.927C27.293 14.9025 26.0855 13.9085 25.7229 12.5645C25.3538 12.7128 24.9546 12.8 24.5333 12.8C22.7658 12.8 21.3333 11.3674 21.3333 9.59995C19.5658 9.59995 18.1333 8.16742 18.1333 6.39995C18.1333 6.14075 18.1725 5.89102 18.2312 5.64995C17.5389 5.07395 17.0889 4.22052 17.0729 3.25412C16.7177 3.22425 16.3616 3.19995 16 3.19995ZM26.6666 4.26662C26.3837 4.26662 26.1124 4.379 25.9124 4.57904C25.7123 4.77908 25.5999 5.05039 25.5999 5.33328C25.5999 5.61618 25.7123 5.88749 25.9124 6.08753C26.1124 6.28757 26.3837 6.39995 26.6666 6.39995C26.9495 6.39995 27.2208 6.28757 27.4209 6.08753C27.6209 5.88749 27.7333 5.61618 27.7333 5.33328C27.7333 5.05039 27.6209 4.77908 27.4209 4.57904C27.2208 4.379 26.9495 4.26662 26.6666 4.26662ZM21.3333 5.33328C21.0504 5.33328 20.7791 5.44567 20.579 5.6457C20.379 5.84574 20.2666 6.11705 20.2666 6.39995C20.2666 6.68285 20.379 6.95416 20.579 7.1542C20.7791 7.35424 21.0504 7.46662 21.3333 7.46662C21.6162 7.46662 21.8875 7.35424 22.0875 7.1542C22.2876 6.95416 22.4 6.68285 22.4 6.39995C22.4 6.11705 22.2876 5.84574 22.0875 5.6457C21.8875 5.44567 21.6162 5.33328 21.3333 5.33328ZM11.7333 7.46662C12.3221 7.46662 12.8 7.94448 12.8 8.53328C12.8 9.12208 12.3221 9.59995 11.7333 9.59995C11.1445 9.59995 10.6666 9.12208 10.6666 8.53328C10.6666 7.94448 11.1445 7.46662 11.7333 7.46662ZM28.7999 9.59995C28.5171 9.59995 28.2457 9.71233 28.0457 9.91237C27.8457 10.1124 27.7333 10.3837 27.7333 10.6666C27.7333 10.9495 27.8457 11.2208 28.0457 11.4209C28.2457 11.6209 28.5171 11.7333 28.7999 11.7333C29.0828 11.7333 29.3542 11.6209 29.5542 11.4209C29.7542 11.2208 29.8666 10.9495 29.8666 10.6666C29.8666 10.3837 29.7542 10.1124 29.5542 9.91237C29.3542 9.71233 29.0828 9.59995 28.7999 9.59995ZM19.2 11.7333C19.7887 11.7333 20.2666 12.2112 20.2666 12.8C20.2666 13.3888 19.7887 13.8666 19.2 13.8666C18.6112 13.8666 18.1333 13.3888 18.1333 12.8C18.1333 12.2112 18.6112 11.7333 19.2 11.7333ZM14.9333 13.8666C15.5221 13.8666 16 14.3445 16 14.9333C16 15.5221 15.5221 16 14.9333 16C14.3445 16 13.8666 15.5221 13.8666 14.9333C13.8666 14.3445 14.3445 13.8666 14.9333 13.8666ZM9.59995 16C10.7786 16 11.7333 16.9546 11.7333 18.1333C11.7333 19.312 10.7786 20.2666 9.59995 20.2666C8.42128 20.2666 7.46662 19.312 7.46662 18.1333C7.46662 16.9546 8.42128 16 9.59995 16ZM23.4666 16C24.0554 16 24.5333 16.4778 24.5333 17.0666C24.5333 17.6554 24.0554 18.1333 23.4666 18.1333C22.8778 18.1333 22.4 17.6554 22.4 17.0666C22.4 16.4778 22.8778 16 23.4666 16ZM18.1333 20.2666C18.7221 20.2666 19.2 20.7445 19.2 21.3333C19.2 21.9221 18.7221 22.4 18.1333 22.4C17.5445 22.4 17.0666 21.9221 17.0666 21.3333C17.0666 20.7445 17.5445 20.2666 18.1333 20.2666ZM13.8666 23.4666C14.4554 23.4666 14.9333 23.9445 14.9333 24.5333C14.9333 25.1221 14.4554 25.6 13.8666 25.6C13.2778 25.6 12.8 25.1221 12.8 24.5333C12.8 23.9445 13.2778 23.4666 13.8666 23.4666Z" fill="white"/>
</svg>
