<svg id="Слой_1" data-name="Слой 1" xmlns="http://www.w3.org/2000/svg" viewBox="0 0 146 48"><defs><style>.cls-1{fill:none;stroke:#fff;}.cls-2{fill:#fff;}</style></defs><title>googleplay_cn</title><path class="cls-1" d="M9.18.52h0a17.22,17.22,0,0,0-2.37.2,7.78,7.78,0,0,0-2.17.71A7.17,7.17,0,0,0,2.79,2.75h0A7.23,7.23,0,0,0,1.44,4.57h0A7.7,7.7,0,0,0,.73,6.71h0A15.16,15.16,0,0,0,.52,9h0c0,.25,0,.49,0,.74V38.22c0,.25,0,.49,0,.74h0a14.93,14.93,0,0,0,.21,2.32h0a7.63,7.63,0,0,0,.71,2.13h0a7.13,7.13,0,0,0,1.35,1.8h0a7.17,7.17,0,0,0,1.85,1.32h0a7.78,7.78,0,0,0,2.17.71,15.79,15.79,0,0,0,2.37.2h0l1.11,0H135.7l1.11,0h0a14.37,14.37,0,0,0,2.36-.2,8,8,0,0,0,2.19-.71,7.29,7.29,0,0,0,1.84-1.32h0a7,7,0,0,0,1.35-1.81,7.63,7.63,0,0,0,.71-2.13h0a16.27,16.27,0,0,0,.22-2.32v-1.1h0c0-.43,0-.86,0-1.3V11.44c0-.44,0-.87,0-1.3h0V9a16.55,16.55,0,0,0-.22-2.33h0a7.59,7.59,0,0,0-.71-2.14,7.28,7.28,0,0,0-3.19-3.14,8,8,0,0,0-2.19-.71,15.55,15.55,0,0,0-2.36-.2H9.18Zm0,0h.24m-.24,0h.24m0,0h0ZM134.87.5Z"/><path class="cls-2" d="M73.69,25.52a4.61,4.61,0,0,0-3.24,7.87,4.6,4.6,0,0,0,5,1,4.56,4.56,0,0,0,2.06-1.7,4.66,4.66,0,0,0,.77-2.56A4.54,4.54,0,0,0,78,28.34a4.51,4.51,0,0,0-2.51-2.49,4.54,4.54,0,0,0-1.78-.33Zm0,7.39a2.81,2.81,0,0,1-1.6-.37A2.88,2.88,0,0,1,71,31.33a2.77,2.77,0,0,1-.24-1.63,2.71,2.71,0,0,1,.71-1.47,2.89,2.89,0,0,1,1.43-.83,2.8,2.8,0,0,1,2.92,1.15,2.75,2.75,0,0,1,.49,1.57,2.83,2.83,0,0,1-.16,1,2.6,2.6,0,0,1-.55.9,2.63,2.63,0,0,1-1.89.85ZM63.61,25.52a4.61,4.61,0,0,0-3.24,7.87,4.61,4.61,0,0,0,5,1,4.56,4.56,0,0,0,2.06-1.7,4.66,4.66,0,0,0,.77-2.56,4.54,4.54,0,0,0-.33-1.78,4.59,4.59,0,0,0-1-1.5,4.45,4.45,0,0,0-1.51-1,4.54,4.54,0,0,0-1.78-.33Zm0,7.39a2.81,2.81,0,0,1-1.6-.37,2.8,2.8,0,0,1-1.35-2.84,2.71,2.71,0,0,1,.71-1.47,2.89,2.89,0,0,1,1.43-.83,2.8,2.8,0,0,1,2.92,1.15,2.75,2.75,0,0,1,.49,1.57,2.64,2.64,0,0,1-.16,1,2.6,2.6,0,0,1-.55.9,2.67,2.67,0,0,1-.86.62A2.76,2.76,0,0,1,63.61,32.91Zm-12-6v1.95H56.3a4,4,0,0,1-1.08,2.45,4.83,4.83,0,0,1-1.65,1.1,4.88,4.88,0,0,1-2,.33,5.19,5.19,0,1,1,0-10.38,5,5,0,0,1,3.55,1.39l1.37-1.37a6.8,6.8,0,0,0-4.9-2,7.15,7.15,0,0,0-2.82.46,7,7,0,0,0-2.41,1.53,7.2,7.2,0,0,0-1.63,2.35,7.16,7.16,0,0,0,0,5.6,7.21,7.21,0,0,0,4,3.88,7.15,7.15,0,0,0,2.82.47,6.6,6.6,0,0,0,5-2,6.49,6.49,0,0,0,1.68-4.58,7,7,0,0,0-.09-1.21Zm49,1.51A4.15,4.15,0,0,0,95,25.88a4.3,4.3,0,0,0-2.35,2.5,4.3,4.3,0,0,0-.25,1.74,4.57,4.57,0,0,0,8.39,2.56L99.19,31.6a2.52,2.52,0,0,1-1,.93,2.58,2.58,0,0,1-1.3.34,2.4,2.4,0,0,1-1.33-.36,2.31,2.31,0,0,1-.89-1l6.15-2.54ZM94.36,30a2.55,2.55,0,0,1,.13-1,2.42,2.42,0,0,1,.51-.86,2.48,2.48,0,0,1,.8-.6,2.31,2.31,0,0,1,1-.24,1.74,1.74,0,0,1,1,.23,1.87,1.87,0,0,1,.7.75Zm-5,4.45h2V20.93h-2Zm-3.31-7.89H86a3.28,3.28,0,0,0-1.1-.81,3.15,3.15,0,0,0-1.32-.27,4.6,4.6,0,0,0,0,9.2,3.08,3.08,0,0,0,1.33-.27A3.11,3.11,0,0,0,86,33.59h.07v.66c0,1.76-.94,2.7-2.45,2.7a2.52,2.52,0,0,1-1.41-.46,2.58,2.58,0,0,1-.92-1.17l-1.75.73a4.38,4.38,0,0,0,1.62,2,4.28,4.28,0,0,0,2.46.73c2.37,0,4.32-1.39,4.32-4.79V25.79H86.05Zm-2.32,6.36A2.8,2.8,0,0,1,81.87,32a2.79,2.79,0,0,1,1.86-4.69,2.54,2.54,0,0,1,1,.25,2.62,2.62,0,0,1,.82.62,2.58,2.58,0,0,1,.52.89,2.51,2.51,0,0,1,.12,1,2.58,2.58,0,0,1-.12,1,2.54,2.54,0,0,1-1.34,1.51,2.46,2.46,0,0,1-1,.25Zm26.38-12h-4.85V34.44h2V29.32h2.83a4.3,4.3,0,0,0,1.7-.23,4.21,4.21,0,0,0,2.45-5.65,4.16,4.16,0,0,0-1-1.4,4.38,4.38,0,0,0-1.46-.89,4.12,4.12,0,0,0-1.7-.22Zm0,6.48h-2.83v-4.6h2.87A2.42,2.42,0,0,1,111,23a2.31,2.31,0,0,1,.76.51,2.28,2.28,0,0,1,.67,1.63,2.43,2.43,0,0,1-.17.89,2.52,2.52,0,0,1-.5.75,2.45,2.45,0,0,1-.76.5,2.23,2.23,0,0,1-.88.18Zm12.48-1.93a3.79,3.79,0,0,0-2.11.49,3.84,3.84,0,0,0-1.5,1.57l1.79.75a1.9,1.9,0,0,1,.78-.76,1.82,1.82,0,0,1,1.07-.22,1.93,1.93,0,0,1,.76.06,2,2,0,0,1,.69.35,2.3,2.3,0,0,1,.49.59,1.92,1.92,0,0,1,.22.74v.13a4.54,4.54,0,0,0-2.11-.52c-1.92,0-3.89,1.08-3.89,3.05a3.08,3.08,0,0,0,.3,1.2,3.21,3.21,0,0,0,.75,1,3,3,0,0,0,1.08.62,3.2,3.2,0,0,0,1.23.15,2.87,2.87,0,0,0,1.47-.31,2.91,2.91,0,0,0,1.11-1h.06v1.08h2v-5.2c0-2.37-1.8-3.74-4.1-3.74Zm-.25,7.41c-.66,0-1.58-.34-1.58-1.15,0-1.08,1.14-1.45,2.16-1.45a3.6,3.6,0,0,1,1.84.46,2.45,2.45,0,0,1-2.38,2.16Zm11.48-7.1-2.31,5.86h-.07L129,25.79h-2.16l3.6,8.2-2,4.55h2.11l5.53-12.75Zm-18.17,8.65h2V20.93h-2Z"/><path class="cls-2" d="M12.27,10.2l13,12.9,3.56-3.56-15.75-9.1A1.76,1.76,0,0,0,12.27,10.2Zm-1.08.6a1.44,1.44,0,0,0-.19.73V36.6a1.33,1.33,0,0,0,.11.54l13.3-13.2Zm18.73,9.36-3.81,3.78,3.81,3.77,4.65-2.66a1.18,1.18,0,0,0,0-2.19C34.19,22.64,31.25,20.93,29.92,20.16Zm-4.65,4.63-13.11,13a1.46,1.46,0,0,0,.68-.19l10.89-6.3,5.12-2.94Z"/><path class="cls-2" d="M44.82,9.56a.34.34,0,0,1-.29-.11.46.46,0,0,1-.08-.27.48.48,0,0,1,.08-.29.37.37,0,0,1,.29-.09h8.75a.38.38,0,0,1,.3.09.48.48,0,0,1,.07.29.45.45,0,0,1-.07.27.35.35,0,0,1-.3.11H49.33v1.5c.28.17.56.36.86.57l.9.65.88.65c.29.22.55.43.79.63s.33.31.35.42a.41.41,0,0,1-.14.37.31.31,0,0,1-.31.11,1.56,1.56,0,0,1-.47-.31l-.64-.53c-.23-.19-.47-.37-.72-.56l-.76-.56L49.33,12v5.24c0,.15,0,.25-.11.29a.47.47,0,0,1-.28.07.5.5,0,0,1-.29-.07c-.07,0-.11-.14-.11-.29V9.56Z"/><path class="cls-2" d="M57.22,9V8.52a.58.58,0,0,1,.09-.33.34.34,0,0,1,.29-.12.33.33,0,0,1,.29.12.67.67,0,0,1,.08.33V9h1.75a.69.69,0,0,1,.34.07.33.33,0,0,1,.13.31.29.29,0,0,1-.13.28.68.68,0,0,1-.34.08H58v.73h2.62c0-.33,0-.65-.05-1s0-.62,0-.89.12-.52.37-.52a.35.35,0,0,1,.3.12.74.74,0,0,1,.08.36c0,.26,0,.56,0,.89l.06,1h2.12a.68.68,0,0,1,.34.08.33.33,0,0,1,.13.31.32.32,0,0,1-.13.29.59.59,0,0,1-.34.09H61.4s0,.08,0,.1c0,.24.05.47.07.69l.09.64c0,.21.07.41.11.62s.09.43.15.65a9.32,9.32,0,0,0,.45-.83c.13-.29.27-.61.39-.95a.77.77,0,0,1,.21-.3.28.28,0,0,1,.31,0,.4.4,0,0,1,.26.23.54.54,0,0,1-.05.42c-.18.45-.38.86-.58,1.25a8.9,8.9,0,0,1-.71,1.13,5.81,5.81,0,0,0,.4.83,6.19,6.19,0,0,0,.46.68c.05.05.08,0,.1,0a3.45,3.45,0,0,0,.11-.54c0-.17.06-.38.09-.61a.59.59,0,0,1,.11-.3.26.26,0,0,1,.25-.09.39.39,0,0,1,.29.12.54.54,0,0,1,.07.35,4.09,4.09,0,0,1,0,.46l-.09.52c0,.18-.08.35-.13.52a2.37,2.37,0,0,1-.15.45.43.43,0,0,1-.43.29.59.59,0,0,1-.27-.08.9.9,0,0,1-.26-.22,9,9,0,0,1-.56-.81,7.62,7.62,0,0,1-.47-.9c-.21.23-.44.47-.69.7s-.53.48-.84.73a.78.78,0,0,1-.42.2.31.31,0,0,1-.28-.16.33.33,0,0,1-.08-.33.6.6,0,0,1,.23-.29,10.76,10.76,0,0,0,1-.81,7.88,7.88,0,0,0,.79-.85c-.09-.29-.17-.56-.24-.82s-.12-.52-.17-.78-.09-.53-.12-.81-.07-.58-.1-.91c0,0,0,0,0-.07a.2.2,0,0,0,0-.07H55a.58.58,0,0,1-.33-.09.41.41,0,0,1,0-.6.67.67,0,0,1,.33-.08h2.18V9.73H55.58a.67.67,0,0,1-.33-.08.29.29,0,0,1-.14-.28.33.33,0,0,1,.14-.31A.67.67,0,0,1,55.58,9Zm-2.09,7.25a.69.69,0,0,1-.43-.07.3.3,0,0,1-.11-.25.34.34,0,0,1,.11-.29.84.84,0,0,1,.42-.1q.59,0,1.14-.06l1.11-.08v-.85H56.26a1.54,1.54,0,0,1-.82-.17.5.5,0,0,1-.25-.42.53.53,0,0,1,.06-.23.9.9,0,0,1,.14-.22c.14-.15.26-.3.37-.44s.21-.27.31-.4h-.72a.5.5,0,0,1-.29-.07.28.28,0,0,1-.12-.26.32.32,0,0,1,.12-.28.44.44,0,0,1,.29-.09h1.19a1.1,1.1,0,0,0,.09-.14l.08-.14a.94.94,0,0,1,.29-.36.32.32,0,0,1,.34,0c.23.13.25.34.07.62h2c.32,0,.47.12.47.37a.27.27,0,0,1-.11.26.65.65,0,0,1-.36.07H57c-.12.19-.25.37-.36.53s-.25.33-.41.51-.07.11-.06.12,0,0,.09,0h1.14v-.56a.5.5,0,0,1,.1-.31.34.34,0,0,1,.27-.12A.32.32,0,0,1,58,13a.45.45,0,0,1,.1.31v.56h1.24c.27,0,.4.11.4.34a.33.33,0,0,1-.11.26.46.46,0,0,1-.29.09H58.11v.78l.66-.07.65-.07a1.76,1.76,0,0,1,.39,0c.1,0,.18.09.22.23a.3.3,0,0,1-.08.34.77.77,0,0,1-.42.13l-.72.08-.7.08V17.2a.4.4,0,0,1-.1.3.34.34,0,0,1-.27.11.37.37,0,0,1-.27-.11.45.45,0,0,1-.1-.3V16.1l-1.06.08Zm8.25-6.06a.37.37,0,0,1-.32.08.71.71,0,0,1-.34-.26c-.12-.15-.25-.31-.39-.46l-.43-.43a.64.64,0,0,1-.21-.35.34.34,0,0,1,.13-.29.37.37,0,0,1,.26-.12.7.7,0,0,1,.34.19l.27.25.22.24.22.24.24.28a.56.56,0,0,1,.15.35A.32.32,0,0,1,63.38,10.18Z"/><path class="cls-2" d="M73.49,9a.44.44,0,0,1,.32.09.42.42,0,0,1,.09.29.36.36,0,0,1-.09.28.44.44,0,0,1-.32.09h-7.3a.22.22,0,0,0-.14,0,.16.16,0,0,0,0,.11v3c0,.54,0,1,0,1.44a10.45,10.45,0,0,1-.14,1.14,7.83,7.83,0,0,1-.21.89c-.09.26-.18.5-.28.72a.74.74,0,0,1-.28.36.35.35,0,0,1-.33,0,.31.31,0,0,1-.2-.25.8.8,0,0,1,.12-.42,4.24,4.24,0,0,0,.28-.65,4.66,4.66,0,0,0,.2-.8c.05-.3.08-.65.11-1.06s0-.87,0-1.41v-3a.85.85,0,0,1,.18-.63A.83.83,0,0,1,66,9h3.09a4.49,4.49,0,0,0-.24-.42.38.38,0,0,1-.08-.3A.41.41,0,0,1,69,8c.24-.15.45-.06.62.25.06.1.11.21.17.33L70,9ZM74,16.79a.41.41,0,0,1-.08.25.35.35,0,0,1-.29.11H66a.34.34,0,0,1-.27-.11.41.41,0,0,1-.08-.25.49.49,0,0,1,.08-.28.31.31,0,0,1,.27-.1H73.6a.35.35,0,0,1,.3.1A.49.49,0,0,1,74,16.79Zm-5.4-1.52a1,1,0,0,1,0,.53.35.35,0,0,1-.28.2.33.33,0,0,1-.3,0,.88.88,0,0,1-.18-.44c-.06-.33-.14-.69-.23-1.09s-.2-.8-.31-1.2-.22-.76-.33-1.11a7.62,7.62,0,0,0-.29-.83.76.76,0,0,1-.08-.45.32.32,0,0,1,.2-.21c.26-.11.45,0,.56.32s.22.6.34,1,.23.74.34,1.13.21.78.31,1.16S68.51,14.94,68.57,15.27Zm2-.59a1.2,1.2,0,0,1,0,.51.29.29,0,0,1-.29.17.37.37,0,0,1-.32-.1,1,1,0,0,1-.12-.47c0-.34,0-.71-.09-1.1s-.1-.78-.16-1.17-.13-.75-.21-1.1a7.62,7.62,0,0,0-.23-.87.73.73,0,0,1,0-.37c0-.09.11-.15.25-.2a.34.34,0,0,1,.3,0,.56.56,0,0,1,.19.33c.09.29.17.6.25.95s.15.72.21,1.1.13.77.18,1.16S70.52,14.31,70.54,14.68Zm2.54-3.82c-.16,1-.35,1.88-.55,2.73a23.51,23.51,0,0,1-.66,2.27q-.11.33-.24.39a.48.48,0,0,1-.35,0,.29.29,0,0,1-.2-.23,1.37,1.37,0,0,1,.1-.44,8.19,8.19,0,0,0,.33-1c.11-.37.21-.76.31-1.18s.19-.86.28-1.32.16-.92.23-1.39a.71.71,0,0,1,.15-.38.39.39,0,0,1,.35-.05.31.31,0,0,1,.26.18A.9.9,0,0,1,73.08,10.86Z"/><path class="cls-2" d="M75.56,17.22a.47.47,0,0,1-.23.28.48.48,0,0,1-.39,0l-.15-.09a.21.21,0,0,1-.07-.13.3.3,0,0,1,0-.18,2.24,2.24,0,0,1,.11-.28c.14-.27.26-.54.36-.79a5.5,5.5,0,0,0,.23-.83,7.61,7.61,0,0,0,.13-1.08c0-.41,0-.91,0-1.5V9.41a1,1,0,0,1,.16-.64.79.79,0,0,1,.62-.19h6.08a1,1,0,0,1,.67.19.84.84,0,0,1,.21.64v7a1.1,1.1,0,0,1-.27.81,1.16,1.16,0,0,1-.85.27,5.06,5.06,0,0,1-1.37-.25.4.4,0,0,1-.28-.22.41.41,0,0,1,0-.28.41.41,0,0,1,.19-.26.63.63,0,0,1,.46,0,5.79,5.79,0,0,0,.6.15,2.38,2.38,0,0,0,.41.05.34.34,0,0,0,.29-.1.47.47,0,0,0,.07-.28V14.51H79.79v2.62c0,.15,0,.24-.11.28a.5.5,0,0,1-.29.07.47.47,0,0,1-.28-.07c-.07,0-.11-.13-.11-.28V14.51H76.32a7.64,7.64,0,0,1-.1.77c0,.23-.1.46-.16.67s-.14.42-.22.63Zm.84-4.64v.61c0,.19,0,.38,0,.55H79V11.91H76.4Zm0-1.43H79V9.35H76.53a.11.11,0,0,0-.09.05.2.2,0,0,0,0,.13Zm3.39-1.8v1.8h2.76V9.53a.15.15,0,0,0,0-.13.14.14,0,0,0-.1-.05Zm0,4.39h2.76V11.91H79.79Z"/><path class="cls-2" d="M87.72,10.81a.37.37,0,0,1,0,.73h-.81l.59.73c.14.19.27.37.38.54a1.15,1.15,0,0,1,.19.42c0,.1,0,.2-.17.29a.32.32,0,0,1-.29.08.56.56,0,0,1-.26-.27l-.28-.48a3.91,3.91,0,0,0-.3-.41v4.79c0,.25-.11.38-.35.38a.38.38,0,0,1-.28-.09.46.46,0,0,1-.08-.29v-4A14.63,14.63,0,0,1,85.19,15a.6.6,0,0,1-.28.29.39.39,0,0,1-.32-.06.35.35,0,0,1-.18-.25.71.71,0,0,1,.14-.37,9.85,9.85,0,0,0,.75-1.32,14.66,14.66,0,0,0,.68-1.7H84.89a.39.39,0,0,1-.29-.09.43.43,0,0,1-.08-.28.41.41,0,0,1,.08-.27.39.39,0,0,1,.29-.09h1.17V9.65l-.41.1-.44.1a.76.76,0,0,1-.43,0c-.09,0-.14-.13-.16-.28a.36.36,0,0,1,.08-.29,1.11,1.11,0,0,1,.39-.14,10.89,10.89,0,0,0,1.2-.31,8.5,8.5,0,0,0,1-.37c.33-.15.54-.13.64.06a.35.35,0,0,1,0,.33.68.68,0,0,1-.38.28c-.26.11-.52.22-.8.31v1.37Zm5.85,5.5a.38.38,0,0,1,.3.1.43.43,0,0,1,.09.28.37.37,0,0,1-.09.26.38.38,0,0,1-.3.11H88a.37.37,0,0,1-.29-.11.37.37,0,0,1-.09-.26.43.43,0,0,1,.09-.28.37.37,0,0,1,.29-.1H90.4V14.74H88.49a.37.37,0,0,1-.29-.11.37.37,0,0,1-.09-.26.33.33,0,0,1,.38-.37H90.4V12.76h-2a.38.38,0,0,1-.3-.1A.36.36,0,0,1,88,12.4a.38.38,0,0,1,.09-.28.41.41,0,0,1,.3-.09H93.3a.41.41,0,0,1,.3.09.43.43,0,0,1,.08.28.4.4,0,0,1-.08.26.38.38,0,0,1-.3.1H91.17V14h2c.26,0,.38.12.38.37a.37.37,0,0,1-.09.26.35.35,0,0,1-.29.11h-2v1.57Zm-.32-5.86a1.05,1.05,0,0,1-.2.72,1,1,0,0,1-.72.21H89.2a1,1,0,0,1-.72-.21,1.05,1.05,0,0,1-.2-.72V9.34a1,1,0,0,1,.2-.71,1,1,0,0,1,.72-.21h3.13a1,1,0,0,1,.73.21,1,1,0,0,1,.19.71Zm-.77-1.09a.49.49,0,0,0,0-.15.14.14,0,0,0-.11,0H89.17a.13.13,0,0,0-.1,0,.49.49,0,0,0,0,.15v1.08a.4.4,0,0,0,0,.15.13.13,0,0,0,.1,0h3.18a.14.14,0,0,0,.11,0,.4.4,0,0,0,0-.15Z"/><path class="cls-2" d="M103.48,8.73a.38.38,0,0,1,.3.09.51.51,0,0,1,.07.3.43.43,0,0,1-.08.28.35.35,0,0,1-.29.1H95.92s-.08,0-.08.13v3.83c0,.29,0,.6,0,.93s-.09.66-.16,1-.16.62-.25.91a5.11,5.11,0,0,1-.32.77.57.57,0,0,1-.24.32c-.08.05-.19,0-.33,0a.28.28,0,0,1-.16-.25.94.94,0,0,1,.11-.36,6.18,6.18,0,0,0,.48-1.47,9.8,9.8,0,0,0,.15-1.83V9.65A1.09,1.09,0,0,1,95.26,9a.85.85,0,0,1,.67-.23h3a.76.76,0,0,0,0-.11.42.42,0,0,0,0-.1q-.16-.46.24-.54a.39.39,0,0,1,.53.32l.08.21.06.22Zm-2.77,3.43a2.07,2.07,0,0,1,.61.28.28.28,0,0,1,0,.34.08.08,0,0,0,0,0s0,0,0,0h1.42a1.24,1.24,0,0,1,.72.18.64.64,0,0,1,.25.54,1.31,1.31,0,0,1-.2.66c-.07.13-.14.25-.2.34l-.18.27a2.35,2.35,0,0,1-.19.25,1.9,1.9,0,0,1-.24.28.43.43,0,0,1-.64.07c-.2-.17-.14-.4.16-.69a2.13,2.13,0,0,0,.27-.3,4.48,4.48,0,0,0,.34-.51c.08-.13.09-.21,0-.26a.3.3,0,0,0-.24-.07h-2.19v2.55a1.74,1.74,0,0,1-.05.47.91.91,0,0,1-.21.37,1,1,0,0,1-.42.25,2.36,2.36,0,0,1-.73.12,5.39,5.39,0,0,1-.77,0,5.26,5.26,0,0,1-.88-.17A.92.92,0,0,1,97,17a.3.3,0,0,1-.06-.32.31.31,0,0,1,.21-.22.83.83,0,0,1,.45.07,1.77,1.77,0,0,0,.29.07,1.86,1.86,0,0,0,.34.06l.34,0,.29,0a.92.92,0,0,0,.61-.15.56.56,0,0,0,.15-.41V13.62H96.37a.58.58,0,0,1-.34-.08.41.41,0,0,1-.1-.31.37.37,0,0,1,.11-.29.57.57,0,0,1,.33-.08h4.21c-.46-.16-.94-.3-1.41-.42s-.9-.21-1.28-.28a.67.67,0,0,1-.37-.16.33.33,0,0,1-.09-.26c0-.25.24-.34.58-.27l.83.19.86.21c.25-.09.47-.18.65-.26l.51-.22.45-.21.47-.25c.06,0,.08-.06.07-.07a.16.16,0,0,0-.1,0H96.81a.51.51,0,0,1-.34-.09.38.38,0,0,1-.1-.28.37.37,0,0,1,.11-.29.57.57,0,0,1,.33-.08H102a1.22,1.22,0,0,1,.68.16.5.5,0,0,1,.15.71,1,1,0,0,1-.31.27l-.5.29a4.36,4.36,0,0,1-.42.23l-.42.2-.49.19h0Z"/></svg>