<svg width="146" height="48" viewBox="0 0 146 48" fill="none" xmlns="http://www.w3.org/2000/svg">
<path d="M9.18402 0.517491L9.18202 0.517522C8.38805 0.526708 7.59595 0.595386 6.81262 0.722951C6.05494 0.849339 5.32118 1.08741 4.63613 1.429C3.95331 1.77299 3.32972 2.21973 2.78785 2.75282L2.78642 2.75424L2.78642 2.75423C2.24255 3.285 1.78949 3.8982 1.44446 4.57011L1.44402 4.57097C1.09674 5.24404 0.856047 5.96506 0.730112 6.70913L0.729964 6.71C0.598544 7.47819 0.527829 8.25521 0.518448 9.03411L0.518335 9.04347L0.518248 9.04347C0.510698 9.2888 0.507781 9.53134 0.504803 9.77903C0.503385 9.89695 0.501953 10.016 0.5 10.1372V37.8662C0.501926 37.9872 0.503347 38.1049 0.504748 38.2212C0.507746 38.4698 0.510658 38.7113 0.518254 38.9613L0.518532 38.9705L0.518448 38.9705C0.527832 39.7493 0.598547 40.5263 0.729963 41.2945L0.730159 41.2956C0.855727 42.04 1.0964 42.7614 1.44396 43.4346L1.4442 43.435C1.78888 44.1044 2.24173 44.7148 2.78539 45.2423L2.78934 45.2461L2.78932 45.2461C3.32839 45.7809 3.95156 46.2273 4.63518 46.5681L4.63574 46.5684C5.32094 46.911 6.05479 47.1507 6.81273 47.2792C7.59639 47.4057 8.3886 47.4744 9.18272 47.4847L9.18705 47.4848C9.56121 47.4929 9.9281 47.4975 10.2974 47.4975H10.3001C10.7448 47.4999 11.1855 47.4999 11.6331 47.4999H134.373C134.812 47.4999 135.256 47.4999 135.693 47.4975L135.696 47.4975C136.064 47.4975 136.441 47.4929 136.81 47.4848L136.815 47.4847C137.607 47.475 138.398 47.4063 139.179 47.2792C139.94 47.1498 140.677 46.9101 141.366 46.5682C142.049 46.2272 142.671 45.7808 143.21 45.2462L143.213 45.2434C143.756 44.7133 144.21 44.1028 144.56 43.4344C144.904 42.7611 145.142 42.0403 145.266 41.2968L145.266 41.2944C145.398 40.5251 145.472 39.7473 145.486 38.9674C145.49 38.5993 145.49 38.2424 145.49 37.8702V37.8593L145.491 37.8593C145.5 37.4297 145.5 37.0016 145.5 36.5577V11.4433C145.5 11.0029 145.5 10.5724 145.491 10.1441L145.49 10.1331C145.49 9.76551 145.49 9.40049 145.486 9.03716C145.472 8.2572 145.398 7.47935 145.266 6.71007L145.266 6.70794C145.142 5.96475 144.904 5.2442 144.56 4.57099C143.856 3.22251 142.739 2.12326 141.365 1.42895C140.676 1.08816 139.94 0.850106 139.179 0.722774C138.398 0.594691 137.608 0.526012 136.815 0.517354L136.813 0.517328C136.744 0.516237 136.675 0.515115 136.606 0.513992L9.18402 0.517491ZM9.18402 0.517491C9.26308 0.516261 9.34159 0.514987 9.41971 0.51372M9.18402 0.517491L9.41971 0.51372M9.41971 0.51372C9.7163 0.508908 10.0072 0.504189 10.3004 0.502303L9.41971 0.51372ZM134.873 0.499912V0.499886L11.6331 0.499912H134.373H134.873Z" stroke="white"/>
<path d="M73.6919 25.5222C72.7807 25.5244 71.8906 25.7966 71.1342 26.3047C70.3778 26.8127 69.7889 27.5336 69.4422 28.3762C69.0955 29.2189 69.0064 30.1454 69.1863 31.0387C69.3662 31.932 69.8069 32.7519 70.4527 33.3947C71.0985 34.0375 71.9205 34.4743 72.8146 34.65C73.7087 34.8257 74.6348 34.7322 75.4758 34.3816C76.3168 34.0309 77.035 33.4387 77.5394 32.6799C78.0439 31.9211 78.312 31.0297 78.3099 30.1185C78.3187 29.5106 78.2051 28.9072 77.9759 28.3442C77.7467 27.7811 77.4065 27.2699 76.9756 26.8411C76.5447 26.4122 76.032 26.0744 75.4678 25.8479C74.9037 25.6213 74.2998 25.5105 73.6919 25.5222V25.5222ZM73.6919 32.9087C73.1334 32.9478 72.5761 32.8179 72.0924 32.536C71.6087 32.2541 71.2209 31.8333 70.9796 31.3281C70.7383 30.8229 70.6545 30.2568 70.7391 29.7034C70.8238 29.15 71.073 28.6348 71.4543 28.2249C71.8356 27.8149 72.3315 27.5292 72.8773 27.4048C73.4232 27.2804 73.9939 27.3231 74.5151 27.5274C75.0364 27.7316 75.4842 28.0879 75.8003 28.55C76.1164 29.0121 76.2861 29.5586 76.2875 30.1185C76.3049 30.4732 76.2511 30.8279 76.1293 31.1615C76.0075 31.4951 75.8201 31.801 75.5782 32.061C75.3363 32.3211 75.0448 32.5301 74.7208 32.6757C74.3968 32.8212 74.047 32.9005 73.6919 32.9087ZM63.6125 25.5222C62.7013 25.5244 61.8112 25.7966 61.0548 26.3047C60.2983 26.8127 59.7095 27.5336 59.3628 28.3762C59.0161 29.2189 58.927 30.1454 59.1069 31.0387C59.2868 31.932 59.7275 32.7519 60.3733 33.3947C61.0191 34.0375 61.8411 34.4743 62.7352 34.65C63.6293 34.8257 64.5554 34.7322 65.3964 34.3816C66.2374 34.0309 66.9556 33.4387 67.46 32.6799C67.9645 31.9211 68.2326 31.0297 68.2305 30.1185C68.2393 29.5106 68.1257 28.9072 67.8965 28.3442C67.6672 27.7811 67.3271 27.2699 66.8962 26.8411C66.4653 26.4122 65.9525 26.0744 65.3884 25.8479C64.8243 25.6213 64.2203 25.5105 63.6125 25.5222V25.5222ZM63.6125 32.9087C63.054 32.9478 62.4967 32.8179 62.013 32.536C61.5293 32.2541 61.1415 31.8333 60.9002 31.3281C60.6589 30.8229 60.5751 30.2568 60.6597 29.7034C60.7444 29.15 60.9936 28.6348 61.3749 28.2249C61.7562 27.8149 62.2521 27.5292 62.7979 27.4048C63.3438 27.2804 63.9145 27.3231 64.4357 27.5274C64.957 27.7316 65.4048 28.0879 65.7209 28.55C66.037 29.0121 66.2067 29.5586 66.2081 30.1185C66.2255 30.4732 66.1717 30.8279 66.0499 31.1615C65.9281 31.4951 65.7407 31.801 65.4988 32.061C65.2569 32.3211 64.9654 32.5301 64.6414 32.6757C64.3174 32.8212 63.9676 32.9005 63.6125 32.9087ZM51.6297 26.939V28.8856H56.3017C56.2285 29.8025 55.8473 30.6677 55.2202 31.3406C54.7516 31.8181 54.1879 32.1919 53.5657 32.4378C52.9435 32.6837 52.2766 32.7962 51.6081 32.7681C50.2313 32.7681 48.9109 32.2212 47.9374 31.2477C46.9639 30.2742 46.417 28.9538 46.417 27.577C46.417 26.2003 46.9639 24.8799 47.9374 23.9064C48.9109 22.9328 50.2313 22.3859 51.6081 22.3859C52.928 22.3663 54.2024 22.8675 55.1553 23.781L56.5288 22.4075C55.8842 21.77 55.1189 21.2675 54.2777 20.9296C53.4364 20.5916 52.5362 20.4249 51.6297 20.4392C50.6683 20.4018 49.7092 20.5589 48.8099 20.901C47.9106 21.2431 47.0896 21.7633 46.3962 22.4303C45.7027 23.0973 45.151 23.8974 44.7742 24.7827C44.3974 25.668 44.2031 26.6203 44.2031 27.5824C44.2031 28.5446 44.3974 29.4969 44.7742 30.3822C45.151 31.2675 45.7027 32.0676 46.3962 32.7346C47.0896 33.4016 47.9106 33.9217 48.8099 34.2639C49.7092 34.606 50.6683 34.763 51.6297 34.7256C52.5548 34.7626 53.4773 34.6034 54.3366 34.2586C55.1958 33.9138 55.9724 33.3911 56.6153 32.7249C57.751 31.4773 58.3562 29.8364 58.3025 28.1502C58.3063 27.7444 58.2738 27.339 58.2051 26.939H51.6297ZM100.632 28.453C100.35 27.6232 99.8222 26.8987 99.1192 26.3753C98.4162 25.852 97.5709 25.5545 96.6951 25.5222C96.1035 25.5211 95.518 25.6412 94.9747 25.8753C94.4314 26.1095 93.9419 26.4525 93.5365 26.8833C93.131 27.3141 92.8182 27.8234 92.6174 28.3799C92.4167 28.9364 92.3322 29.5281 92.3691 30.1185C92.3599 31.1057 92.6703 32.0695 93.2539 32.8658C93.8376 33.662 94.6631 34.2481 95.6074 34.5365C96.5516 34.8249 97.5638 34.8001 98.4927 34.4657C99.4217 34.1314 100.218 33.5056 100.761 32.6816L99.1933 31.6001C98.9595 31.9898 98.6279 32.3115 98.2315 32.5335C97.835 32.7554 97.3873 32.8699 96.933 32.8655C96.4642 32.8848 96.0006 32.7619 95.603 32.5129C95.2054 32.2639 94.8924 31.9005 94.7051 31.4704L100.859 28.9289L100.632 28.453ZM94.3591 29.9887C94.3371 29.6528 94.3825 29.3159 94.4924 28.9977C94.6023 28.6795 94.7746 28.3864 94.9992 28.1356C95.2238 27.8849 95.4961 27.6814 95.8003 27.5372C96.1045 27.393 96.4345 27.3109 96.7708 27.2958C97.1192 27.2746 97.4662 27.3566 97.7682 27.5317C98.0703 27.7067 98.3139 27.967 98.4687 28.28L94.3591 29.9887ZM89.3626 34.4444H91.385V20.9259H89.3626V34.4444ZM86.0533 26.5496H85.9776C85.6755 26.2056 85.3026 25.9308 84.8845 25.7441C84.4664 25.5575 84.0129 25.4633 83.5551 25.4681C82.3732 25.5254 81.2587 26.0353 80.4425 26.892C79.6263 27.7487 79.1711 28.8866 79.1711 30.0698C79.1711 31.2531 79.6263 32.391 80.4425 33.2477C81.2587 34.1044 82.3732 34.6142 83.5551 34.6715C84.0136 34.6807 84.4684 34.5886 84.8872 34.4016C85.306 34.2147 85.6783 33.9376 85.9776 33.5901H86.0533V34.2498C86.0533 36.0126 85.1124 36.9535 83.5983 36.9535C83.0925 36.9424 82.6015 36.7812 82.1875 36.4904C81.7735 36.1997 81.4552 35.7924 81.2731 35.3204L79.5211 36.045C79.845 36.8586 80.4082 37.5547 81.1362 38.0413C81.8642 38.5279 82.7227 38.7821 83.5983 38.7704C85.9668 38.7704 87.9242 37.3752 87.9242 33.9794V25.7926H86.0533V26.5496ZM83.7281 32.9087C83.0195 32.8646 82.3544 32.5519 81.8683 32.0345C81.3821 31.5171 81.1115 30.8339 81.1115 30.1239C81.1115 29.414 81.3821 28.7307 81.8683 28.2133C82.3544 27.6959 83.0195 27.3833 83.7281 27.3391C84.0744 27.354 84.4142 27.4385 84.7272 27.5874C85.0403 27.7364 85.3201 27.9468 85.5502 28.2061C85.7802 28.4654 85.9558 28.7684 86.0663 29.0969C86.1769 29.4254 86.2203 29.7729 86.1939 30.1185C86.2234 30.4653 86.1822 30.8145 86.0729 31.145C85.9636 31.4755 85.7884 31.7803 85.5579 32.0411C85.3274 32.302 85.0464 32.5133 84.7319 32.6625C84.4174 32.8116 84.0759 32.8954 83.7281 32.9087V32.9087ZM110.105 20.9259H105.26V34.4444H107.283V29.3182H110.105C110.682 29.3596 111.261 29.2818 111.806 29.0897C112.351 28.8976 112.85 28.5953 113.273 28.2016C113.696 27.8079 114.033 27.3312 114.264 26.8014C114.495 26.2716 114.614 25.6999 114.614 25.1221C114.614 24.5442 114.495 23.9725 114.264 23.4427C114.033 22.9129 113.696 22.4363 113.273 22.0426C112.85 21.6489 112.351 21.3465 111.806 21.1544C111.261 20.9623 110.682 20.8845 110.105 20.9259V20.9259ZM110.105 27.4148H107.283V22.8077H110.149C110.453 22.8077 110.754 22.8676 111.034 22.9839C111.315 23.1002 111.57 23.2706 111.785 23.4856C112 23.7005 112.171 23.9556 112.287 24.2364C112.403 24.5172 112.463 24.8181 112.463 25.1221C112.463 25.426 112.403 25.7269 112.287 26.0077C112.171 26.2885 112 26.5437 111.785 26.7586C111.57 26.9735 111.315 27.144 111.034 27.2603C110.754 27.3766 110.453 27.4364 110.149 27.4364L110.105 27.4148ZM122.586 25.4789C121.849 25.4335 121.116 25.605 120.476 25.9721C119.835 26.3392 119.317 26.8859 118.984 27.5446L120.769 28.2908C120.949 27.9657 121.22 27.6998 121.548 27.5251C121.876 27.3505 122.248 27.2746 122.618 27.3067C122.875 27.2767 123.135 27.2981 123.383 27.3697C123.632 27.4413 123.863 27.5617 124.065 27.7238C124.266 27.8859 124.433 28.0864 124.556 28.3138C124.679 28.5411 124.756 28.7906 124.781 29.0478V29.1776C124.131 28.8358 123.407 28.6576 122.672 28.6585C120.747 28.6585 118.779 29.74 118.779 31.7083C118.798 32.1266 118.901 32.5369 119.082 32.9147C119.262 33.2925 119.517 33.6302 119.831 33.9076C120.145 34.185 120.511 34.3966 120.908 34.5296C121.305 34.6627 121.725 34.7147 122.142 34.6824C122.65 34.7104 123.156 34.603 123.608 34.3712C124.06 34.1393 124.443 33.7914 124.716 33.3629H124.781V34.4444H126.728V29.2425C126.728 26.8741 124.933 25.5006 122.629 25.5006L122.586 25.4789ZM122.337 32.8871C121.677 32.8871 120.758 32.5518 120.758 31.7407C120.758 30.6592 121.904 30.2915 122.921 30.2915C123.563 30.2757 124.198 30.4326 124.76 30.7458C124.692 31.3331 124.413 31.8759 123.976 32.2736C123.538 32.6713 122.971 32.8969 122.38 32.9087L122.337 32.8871ZM133.822 25.7926L131.508 31.6542H131.443L129.042 25.7926H126.879L130.481 33.9902L128.426 38.5432H130.535L136.072 25.7926H133.822ZM115.653 34.4444H117.665V20.9259H115.653V34.4444Z" fill="white"/>
<path d="M12.275 10.2L25.2688 23.1L28.8313 19.5375L13.0813 10.4437C12.8188 10.2914 12.5375 10.207 12.275 10.2ZM11.1875 10.8C11.0703 11.0086 11 11.2547 11 11.5312V36.6C11 36.8015 11.0422 36.982 11.1125 37.1437L24.4063 23.9437L11.1875 10.8ZM29.9188 20.1562L26.1125 23.9437L29.9188 27.7125L34.5688 25.05C35.2297 24.668 35.3234 24.1828 35.3188 23.925C35.3117 23.4984 35.0422 23.1 34.5875 22.8562C34.1914 22.643 31.25 20.9297 29.9188 20.1562ZM25.2688 24.7875L12.1625 37.7812C12.3805 37.7695 12.6172 37.7226 12.8375 37.5937C13.3508 37.2961 23.7313 31.2937 23.7313 31.2937L28.85 28.35L25.2688 24.7875Z" fill="white"/>
<path d="M45.5414 17.4327H44.752V15.2697H45.4225C45.7242 14.9422 45.951 14.553 46.0873 14.1291C46.2237 13.7052 46.2662 13.2567 46.212 12.8148V9.57031H50.5379V15.2589H51.2625V17.4219H50.4622V16.0592H45.5414V17.4327ZM47.0447 12.8148C47.0929 13.6835 46.8781 14.5466 46.4282 15.2914H49.6727V10.3706H47.0447V12.8148Z" fill="white" stroke="white" stroke-width="0.2" stroke-miterlimit="10"/>
<path d="M57.7621 15.2159C57.4506 15.5282 57.0807 15.7759 56.6733 15.945C56.266 16.114 55.8293 16.2011 55.3882 16.2011C54.9472 16.2011 54.5105 16.114 54.1031 15.945C53.6958 15.7759 53.3258 15.5282 53.0144 15.2159C52.3957 14.5697 52.0503 13.7096 52.0503 12.815C52.0503 11.9204 52.3957 11.0603 53.0144 10.4141C53.3258 10.1018 53.6958 9.85408 54.1031 9.68503C54.5105 9.51597 54.9472 9.42896 55.3882 9.42896C55.8293 9.42896 56.266 9.51597 56.6733 9.68503C57.0807 9.85408 57.4506 10.1018 57.7621 10.4141C58.0745 10.7299 58.3206 11.105 58.4859 11.5173C58.6512 11.9296 58.7324 12.3709 58.7246 12.815C58.7374 13.2598 58.6585 13.7025 58.4929 14.1155C58.3274 14.5286 58.0786 14.9031 57.7621 15.2159V15.2159ZM53.62 14.6752C53.8479 14.9118 54.1219 15.0992 54.4251 15.2257C54.7283 15.3522 55.0543 15.4151 55.3828 15.4106C55.7116 15.4171 56.0381 15.3551 56.3416 15.2284C56.6451 15.1018 56.919 14.9134 57.1456 14.6752C57.6123 14.1681 57.8713 13.5041 57.8713 12.815C57.8713 12.1259 57.6123 11.4619 57.1456 10.9549C56.919 10.7166 56.6451 10.5282 56.3416 10.4016C56.0381 10.275 55.7116 10.2129 55.3828 10.2195C55.0543 10.2149 54.7283 10.2778 54.4251 10.4043C54.1219 10.5308 53.8479 10.7182 53.62 10.9549C53.1602 11.4653 52.9058 12.128 52.9058 12.815C52.9058 13.502 53.1602 14.1647 53.62 14.6752Z" fill="white" stroke="white" stroke-width="0.2" stroke-miterlimit="10"/>
<path d="M62.9208 16.1996C62.4832 16.2065 62.0487 16.1248 61.6436 15.9594C61.2384 15.7939 60.8709 15.5483 60.5631 15.2371C59.9391 14.585 59.5908 13.7172 59.5908 12.8146C59.5908 11.912 59.9391 11.0442 60.5631 10.3921C60.8759 10.0756 61.2505 9.8268 61.6635 9.66121C62.0765 9.49563 62.5192 9.41678 62.964 9.42956C63.4168 9.41675 63.8665 9.50752 64.2788 9.69495C64.6912 9.88237 65.0552 10.1615 65.3433 10.511L64.7701 11.0734C64.5576 10.8002 64.2827 10.5821 63.9685 10.4372C63.6542 10.2923 63.3097 10.2249 62.964 10.2407C62.6311 10.2322 62.3 10.2921 61.9912 10.4167C61.6824 10.5414 61.4025 10.7281 61.1688 10.9653C60.7029 11.477 60.4447 12.1442 60.4447 12.8362C60.4447 13.5283 60.7029 14.1954 61.1688 14.7072C61.4025 14.9444 61.6824 15.1311 61.9912 15.2557C62.3 15.3803 62.6311 15.4403 62.964 15.4318C63.3356 15.4212 63.7005 15.3296 64.033 15.1634C64.3655 14.9971 64.6577 14.7602 64.8891 14.4693L65.4731 15.0424C65.1768 15.3975 64.8081 15.6851 64.3916 15.886C63.9315 16.1009 63.4285 16.2082 62.9208 16.1996Z" fill="white" stroke="white" stroke-width="0.2" stroke-miterlimit="10"/>
<path d="M68.8689 16.0592H68.0361V10.3706H66.2192V9.57031H70.6749V10.3706H68.8689V16.0592Z" fill="white" stroke="white" stroke-width="0.2" stroke-miterlimit="10"/>
<path d="M76.4066 9.57031L73.9517 15.0426C73.8921 15.262 73.7856 15.4659 73.6395 15.64C73.4933 15.8141 73.311 15.9544 73.1053 16.0511C72.8996 16.1478 72.6752 16.1986 72.4479 16.2C72.2206 16.2014 71.9956 16.1534 71.7887 16.0592L72.005 15.2914C72.1373 15.3657 72.2859 15.4066 72.4376 15.4103C72.5976 15.4183 72.7563 15.3768 72.8918 15.2914C73.0232 15.182 73.1238 15.0404 73.1838 14.8804L73.4218 14.3613L71.2588 9.57031H72.2429L73.8435 13.2906L75.4225 9.57031H76.4066Z" fill="white" stroke="white" stroke-width="0.2" stroke-miterlimit="10"/>
<path d="M77.3477 16.0592V9.57031H82.0413V16.0592H81.2085V10.3706H78.1804V16.0592H77.3477Z" fill="white" stroke="white" stroke-width="0.2" stroke-miterlimit="10"/>
<path d="M83.5229 16.0592V9.57031H84.3557V12.3497H87.6001V9.57031H88.4437V16.0592H87.6001V13.1284H84.3557V16.0592H83.5229Z" fill="white" stroke="white" stroke-width="0.2" stroke-miterlimit="10"/>
<path d="M95.2353 15.2159C94.9229 15.5285 94.552 15.7765 94.1438 15.9457C93.7355 16.1149 93.298 16.202 92.856 16.202C92.4141 16.202 91.9765 16.1149 91.5683 15.9457C91.16 15.7765 90.7891 15.5285 90.4768 15.2159C89.8581 14.5697 89.5127 13.7096 89.5127 12.815C89.5127 11.9204 89.8581 11.0603 90.4768 10.4141C90.7882 10.1018 91.1582 9.85408 91.5655 9.68503C91.9729 9.51597 92.4096 9.42896 92.8506 9.42896C93.2917 9.42896 93.7284 9.51597 94.1357 9.68503C94.5431 9.85408 94.913 10.1018 95.2245 10.4141C95.8383 11.0628 96.1803 11.922 96.1803 12.815C96.1803 13.7081 95.8383 14.5672 95.2245 15.2159H95.2353ZM91.0932 14.6752C91.3199 14.9134 91.5937 15.1018 91.8972 15.2284C92.2007 15.3551 92.5272 15.4171 92.856 15.4106C93.1846 15.4151 93.5105 15.3522 93.8137 15.2257C94.1169 15.0992 94.391 14.9118 94.6188 14.6752C95.0786 14.1647 95.3331 13.502 95.3331 12.815C95.3331 12.128 95.0786 11.4653 94.6188 10.9549C94.391 10.7182 94.1169 10.5308 93.8137 10.4043C93.5105 10.2778 93.1846 10.2149 92.856 10.2195C92.5272 10.2129 92.2007 10.275 91.8972 10.4016C91.5937 10.5282 91.3199 10.7166 91.0932 10.9549C90.6266 11.4619 90.3676 12.1259 90.3676 12.815C90.3676 13.5041 90.6266 14.1681 91.0932 14.6752V14.6752Z" fill="white" stroke="white" stroke-width="0.2" stroke-miterlimit="10"/>
<path d="M99.5938 16.0593V9.57041H101.941C102.427 9.56553 102.898 9.74301 103.26 10.0679C103.441 10.2247 103.585 10.4193 103.682 10.638C103.779 10.8567 103.827 11.094 103.822 11.3332C103.825 11.6245 103.742 11.9103 103.584 12.1552C103.425 12.3874 103.204 12.5708 102.946 12.6851V12.6851C103.259 12.7918 103.533 12.9873 103.736 13.2474C103.935 13.5125 104.041 13.8354 104.039 14.1667C104.044 14.416 103.995 14.6635 103.894 14.8915C103.793 15.1196 103.643 15.3226 103.455 15.4861C103.079 15.8354 102.583 16.0254 102.07 16.016L99.5938 16.0593ZM100.426 12.3498H101.941C102.082 12.358 102.224 12.3341 102.355 12.2797C102.486 12.2254 102.603 12.1422 102.698 12.0362C102.881 11.8565 102.986 11.6116 102.99 11.3549C103 11.0973 102.911 10.8457 102.741 10.6519C102.65 10.551 102.538 10.4716 102.413 10.4192C102.287 10.3669 102.152 10.3429 102.016 10.3491H100.459L100.426 12.3498ZM100.426 15.259H102.114C102.26 15.2639 102.406 15.2364 102.54 15.1785C102.675 15.1205 102.795 15.0335 102.892 14.9237C103.079 14.7243 103.183 14.4616 103.184 14.1883C103.178 13.9174 103.07 13.6588 102.881 13.4637C102.777 13.3543 102.651 13.2679 102.511 13.2101C102.372 13.1524 102.221 13.1246 102.07 13.1285H100.426V15.259Z" fill="white" stroke="white" stroke-width="0.2" stroke-miterlimit="10"/>
</svg>
