<svg width="58" height="58" viewBox="0 0 58 58" fill="none" xmlns="http://www.w3.org/2000/svg">
<rect width="58" height="58" rx="20" fill="#44A1A4"/>
<path d="M37.0426 27.8114C37.0426 25.4991 38.1277 23.8117 40.234 22.4993C39.0213 20.8119 37.234 19.937 34.8723 19.7495C32.5745 19.562 30.0851 20.9994 29.1915 20.9994C28.234 20.9994 26.0638 19.812 24.3404 19.812C20.766 19.8745 17 22.5618 17 28.1239C17 29.7488 17.2553 31.4362 17.8936 33.186C18.7234 35.4984 21.6596 41.1229 24.7234 40.998C26.3191 40.998 27.4681 39.873 29.5745 39.873C31.617 39.873 32.6383 40.998 34.4255 40.998C37.5532 40.998 40.234 35.8733 41 33.561C36.8511 31.6236 37.0426 27.9364 37.0426 27.8114ZM33.4681 17.5622C35.1915 15.5623 35 13.6874 35 13C33.4681 13.125 31.6809 14.0624 30.6596 15.1873C29.5106 16.4372 28.8723 17.9996 29 19.687C30.6596 19.812 32.1915 18.9996 33.4681 17.5622Z" fill="white"/>
</svg>
