<svg width="58" height="58" viewBox="0 0 58 58" fill="none" xmlns="http://www.w3.org/2000/svg">
<rect width="58" height="58" rx="20" fill="#44A1A4"/>
<path d="M29 15C36.732 15 43 21.268 43 29C43 36.732 36.732 43 29 43C21.268 43 15 36.732 15 29C15 21.268 21.268 15 29 15ZM29 17.3333C22.5567 17.3333 17.3333 22.5567 17.3333 29C17.3333 35.4433 22.5567 40.6667 29 40.6667C35.4433 40.6667 40.6667 35.4433 40.6667 29C40.6667 22.5567 35.4433 17.3333 29 17.3333ZM29.0859 26.6667C29.3631 26.6667 29.5371 26.71 29.6892 26.7913C29.8413 26.8727 29.9607 26.992 30.042 27.1441C30.1233 27.2962 30.1667 27.4702 30.1667 27.7474V34.9192C30.1667 35.1964 30.1233 35.3704 30.042 35.5225C29.9607 35.6746 29.8413 35.794 29.6892 35.8753C29.5371 35.9567 29.3631 36 29.0859 36H28.9141C28.6369 36 28.4629 35.9567 28.3108 35.8753C28.1587 35.794 28.0393 35.6746 27.958 35.5225C27.8767 35.3704 27.8333 35.1964 27.8333 34.9192V27.7474C27.8333 27.4702 27.8767 27.2962 27.958 27.1441C28.0393 26.992 28.1587 26.8727 28.3108 26.7913C28.4629 26.71 28.6369 26.6667 28.9141 26.6667H29.0859ZM29 21.5333C29.9021 21.5333 30.6333 22.2646 30.6333 23.1667C30.6333 24.0687 29.9021 24.8 29 24.8C28.0979 24.8 27.3667 24.0687 27.3667 23.1667C27.3667 22.2646 28.0979 21.5333 29 21.5333Z" fill="white"/>
</svg>
