<svg width="58" height="58" viewBox="0 0 58 58" fill="none" xmlns="http://www.w3.org/2000/svg">
<rect width="58" height="58" rx="20" fill="#44A1A4"/>
<path d="M27.9464 23.6964C27.9464 21.6934 26.3245 20.0714 24.3214 20.0714C22.3184 20.0714 20.6964 21.6934 20.6964 23.6964C20.6964 25.6995 22.3184 27.3214 24.3214 27.3214C26.3245 27.3214 27.9464 25.6995 27.9464 23.6964ZM30.0179 23.6964C30.0179 26.8435 27.4685 29.3929 24.3214 29.3929C21.1744 29.3929 18.625 26.8435 18.625 23.6964C18.625 20.5494 21.1744 18 24.3214 18C27.4685 18 30.0179 20.5494 30.0179 23.6964ZM17.0714 36.273C17.0714 37.25 16.9884 37.1607 17.5436 37.1607H31.6171C32.1723 37.1607 32.0893 37.25 32.0893 36.273C32.0893 33.9031 28.6673 32.5 24.5804 32.5C20.4935 32.5 17.0714 33.9031 17.0714 36.273ZM15 36.273C15 32.2542 19.4525 30.4286 24.5804 30.4286C29.7083 30.4286 34.1607 32.2542 34.1607 36.273C34.1607 38.3614 33.3517 39.2321 31.6171 39.2321H17.5436C15.809 39.2321 15 38.3614 15 36.273Z" fill="white"/>
<path d="M37.9585 24.5597C37.9585 23.8923 38.4995 23.3513 39.1668 23.3513C39.8342 23.3513 40.3752 23.8923 40.3752 24.5597V31.8097C40.3752 32.477 39.8342 33.018 39.1668 33.018C38.4995 33.018 37.9585 32.477 37.9585 31.8097V24.5597Z" fill="white"/>
<path d="M42.7918 26.9763C43.4592 26.9763 44.0002 27.5173 44.0002 28.1847C44.0002 28.852 43.4592 29.393 42.7918 29.393H35.5418C34.8745 29.393 34.3335 28.852 34.3335 28.1847C34.3335 27.5173 34.8745 26.9763 35.5418 26.9763L42.7918 26.9763Z" fill="white"/>
</svg>
