<svg width="58" height="58" viewBox="0 0 58 58" fill="none" xmlns="http://www.w3.org/2000/svg">
<rect width="58" height="58" rx="20" fill="#44A1A4"/>
<path d="M33.082 22.7073C33.082 20.3488 31.1925 18.439 28.8591 18.439C26.5256 18.439 24.6361 20.3488 24.6361 22.7073C24.6361 25.0658 26.5256 26.9756 28.8591 26.9756C31.1925 26.9756 33.082 25.0658 33.082 22.7073ZM35.4952 22.7073C35.4952 26.4128 32.5253 29.4146 28.8591 29.4146C25.1929 29.4146 22.223 26.4128 22.223 22.7073C22.223 19.0018 25.1929 16 28.8591 16C32.5253 16 35.4952 19.0018 35.4952 22.7073ZM20.4131 37.5157C20.4131 38.6661 20.3164 38.561 20.9632 38.561H37.3582C38.005 38.561 37.9083 38.6661 37.9083 37.5157C37.9083 34.7253 33.9218 33.0732 29.1607 33.0732C24.3996 33.0732 20.4131 34.7253 20.4131 37.5157ZM18 37.5157C18 32.7837 23.1869 30.6341 29.1607 30.6341C35.1345 30.6341 40.3214 32.7837 40.3214 37.5157C40.3214 39.9747 39.379 41 37.3582 41H20.9632C18.9425 41 18 39.9747 18 37.5157Z" fill="white"/>
</svg>
