<svg width="58" height="58" viewBox="0 0 58 58" fill="none" xmlns="http://www.w3.org/2000/svg">
<rect width="58" height="58" rx="20" fill="#44A1A4"/>
<path d="M33.5695 15C36.3478 15 37.6839 15.258 39.072 16.0004C40.3308 16.6736 41.3264 17.6692 41.9996 18.928C42.742 20.3161 43 21.6522 43 24.4305V33.5695C43 36.3478 42.742 37.6839 41.9996 39.072C41.3264 40.3308 40.3308 41.3264 39.072 41.9996C37.6839 42.742 36.3478 43 33.5695 43H24.4305C21.6522 43 20.3161 42.742 18.928 41.9996C17.6692 41.3264 16.6736 40.3308 16.0004 39.072C15.258 37.6839 15 36.3478 15 33.5695V24.4305C15 21.6522 15.258 20.3161 16.0004 18.928C16.6736 17.6692 17.6692 16.6736 18.928 16.0004C20.3161 15.258 21.6522 15 24.4305 15H33.5695ZM33.5695 17.5455H24.4305C22.0364 17.5455 21.0974 17.7268 20.1284 18.245C19.3132 18.681 18.681 19.3132 18.245 20.1284C17.7268 21.0974 17.5455 22.0364 17.5455 24.4305V33.5695C17.5455 35.9636 17.7268 36.9026 18.245 37.8716C18.681 38.6868 19.3132 39.319 20.1284 39.755C21.0974 40.2732 22.0364 40.4545 24.4305 40.4545H33.5695C35.9636 40.4545 36.9026 40.2732 37.8716 39.755C38.6868 39.319 39.319 38.6868 39.755 37.8716C40.2732 36.9026 40.4545 35.9636 40.4545 33.5695V24.4305C40.4545 22.0364 40.2732 21.0974 39.755 20.1284C39.319 19.3132 38.6868 18.681 37.8716 18.245C36.9026 17.7268 35.9636 17.5455 33.5695 17.5455ZM27.7273 33.4545C28.4302 33.4545 29 34.0244 29 34.7273C29 35.4302 28.4302 36 27.7273 36H22.6364C21.9335 36 21.3636 35.4302 21.3636 34.7273C21.3636 34.0244 21.9335 33.4545 22.6364 33.4545H27.7273ZM35.3636 27.7273C36.0665 27.7273 36.6364 28.2971 36.6364 29C36.6364 29.7029 36.0665 30.2727 35.3636 30.2727H22.6364C21.9335 30.2727 21.3636 29.7029 21.3636 29C21.3636 28.2971 21.9335 27.7273 22.6364 27.7273H35.3636ZM35.3636 22C36.0665 22 36.6364 22.5698 36.6364 23.2727C36.6364 23.9756 36.0665 24.5455 35.3636 24.5455H22.6364C21.9335 24.5455 21.3636 23.9756 21.3636 23.2727C21.3636 22.5698 21.9335 22 22.6364 22H35.3636Z" fill="white"/>
</svg>
