<svg width="58" height="58" viewBox="0 0 58 58" fill="none" xmlns="http://www.w3.org/2000/svg">
<rect width="58" height="58" rx="20" fill="#44A1A4"/>
<path d="M30.6493 15.0488C31.1612 15.1307 31.6454 15.3266 32.0803 15.6744C32.7925 16.2443 33.1317 16.9626 33.3939 18.0112C33.461 18.2797 33.5772 18.5927 33.7223 18.8964C34.0553 19.038 34.381 19.1953 34.6985 19.3678C35.0119 19.2904 35.3129 19.1875 35.5533 19.0756C37.2442 18.2884 38.6628 18.3298 39.8244 19.5828C39.9227 19.6887 39.9813 19.7589 40.109 19.9166L40.8625 20.8471C41.0651 21.0973 41.1517 21.2114 41.2796 21.4241C42.1079 22.8028 41.7849 24.0868 40.7379 25.4781C40.5641 25.7089 40.3868 26.0112 40.2384 26.3291C40.332 26.6674 40.4099 27.0104 40.4719 27.3573C40.7386 27.571 41.0221 27.7582 41.2725 27.886C42.2353 28.3773 42.8589 28.8694 43.2539 29.6916C43.495 30.1936 43.577 30.7095 43.5416 31.2267C43.5229 31.5001 43.4934 31.6525 43.4146 31.9937L43.1453 33.1603C43.0665 33.5015 43.0263 33.6515 42.9232 33.9054C42.7282 34.3857 42.4284 34.8135 41.9917 35.1589C41.2762 35.7248 40.5 35.8937 39.4193 35.9133C39.1459 35.9182 38.8192 35.96 38.4942 36.0316C38.2829 36.3236 38.0579 36.6053 37.82 36.8759C37.824 37.2042 37.8567 37.5269 37.9126 37.7908C38.1367 38.8482 38.1467 39.6425 37.7563 40.467C37.5179 40.9702 37.1686 41.3585 36.7444 41.6566C36.5202 41.8141 36.3831 41.887 36.0684 42.0405L34.9922 42.5654C34.6775 42.7189 34.5356 42.782 34.2735 42.8617C33.7775 43.0125 33.2563 43.0487 32.713 42.9267C31.823 42.7268 31.2033 42.2299 30.5079 41.4022C30.3241 41.1835 30.073 40.9454 29.7999 40.731C29.6253 40.7389 29.4502 40.7429 29.2747 40.7429C29.0992 40.7429 28.9241 40.7389 28.7495 40.731C28.4764 40.9454 28.2253 41.1835 28.0415 41.4022C27.3461 42.2299 26.7264 42.7268 25.8364 42.9267C25.2931 43.0487 24.772 43.0125 24.2759 42.8617C24.0138 42.782 23.8719 42.7189 23.5572 42.5654L22.481 42.0405C22.3864 41.9945 22.3277 41.9654 22.2592 41.9297C20.6888 41.1119 20.2284 39.7182 20.6368 37.7908C20.6927 37.5269 20.7254 37.2042 20.7294 36.8759C20.4915 36.6053 20.2665 36.3236 20.0552 36.0316C19.7302 35.96 19.4035 35.9182 19.1302 35.9133C18.0494 35.8937 17.2732 35.7248 16.5577 35.1589C16.121 34.8135 15.8212 34.3857 15.6262 33.9054C15.5232 33.6515 15.4829 33.5015 15.4041 33.1603L15.1348 31.9937C15.0514 31.6324 15.0207 31.4713 15.0048 31.1786C14.9752 30.6298 15.0802 30.0847 15.3587 29.5674C15.7646 28.8138 16.3653 28.3512 17.2769 27.886C17.5273 27.7582 17.8108 27.571 18.0775 27.3573C18.1395 27.0104 18.2174 26.6674 18.3111 26.3291C18.1627 26.0112 17.9853 25.7089 17.8115 25.4781C16.7645 24.0868 16.4415 22.8028 17.2699 21.4241C17.3977 21.2114 17.4843 21.0973 17.6869 20.8471L18.4404 19.9166C18.5681 19.7589 18.6267 19.6887 18.725 19.5828C19.8867 18.3298 21.3052 18.2884 22.9962 19.0756C23.2365 19.1875 23.5375 19.2904 23.8509 19.3678C24.1684 19.1953 24.4942 19.038 24.8271 18.8964C24.9722 18.5927 25.0884 18.2797 25.1555 18.0112C25.4177 16.9626 25.7569 16.2443 26.4692 15.6744C26.904 15.3266 27.3882 15.1307 27.9001 15.0488C28.1166 15.0141 28.2592 15.0037 28.4868 15.0009L29.8734 15C30.2236 15 30.3787 15.0055 30.6493 15.0488ZM29.976 17.3949L28.676 17.3947C28.0774 17.3947 27.778 17.3947 27.4787 18.592C27.3125 19.2566 26.9619 20.1057 26.4781 20.8321C25.7087 21.084 24.9851 21.437 24.3229 21.8755C23.4647 21.7909 22.5987 21.5321 21.9855 21.2466C20.8666 20.7257 20.6782 20.9583 20.3015 21.4236L19.5479 22.3541C19.1712 22.8194 18.9828 23.052 19.7249 24.0381C20.1426 24.5932 20.5884 25.415 20.8469 26.2605C20.5822 26.9781 20.4065 27.7387 20.3333 28.5291C19.7327 29.1688 18.9791 29.7058 18.3654 30.019C17.2661 30.58 17.3334 30.8717 17.4681 31.455L17.7375 32.6216C17.8721 33.205 17.9395 33.4966 19.1735 33.519C19.8557 33.5313 20.7575 33.6808 21.5716 33.9864C21.9851 34.6746 22.4882 35.3028 23.0647 35.855C23.1777 36.7141 23.1204 37.6221 22.9795 38.2872C22.7237 39.4946 22.9927 39.6258 23.5308 39.8882L24.607 40.4131C25.145 40.6755 25.4141 40.8068 26.208 39.8618C26.6532 39.332 27.35 38.7154 28.1124 38.2737C28.4929 38.3229 28.8808 38.3482 29.2747 38.3482C29.6686 38.3482 30.0566 38.3229 30.4371 38.2737C31.1994 38.7154 31.8962 39.332 32.3414 39.8618C33.1353 40.8068 33.4044 40.6755 33.9425 40.4131L35.0186 39.8882C35.5567 39.6258 35.8257 39.4946 35.5699 38.2872C35.429 37.6221 35.3717 36.7141 35.4847 35.855C36.0612 35.3028 36.5643 34.6746 36.9778 33.9864C37.7919 33.6808 38.6937 33.5313 39.376 33.519C40.6099 33.4966 40.6773 33.205 40.812 32.6216L41.0813 31.455C41.216 30.8717 41.2833 30.58 40.184 30.019C39.5703 29.7058 38.8167 29.1688 38.2161 28.5291C38.1429 27.7387 37.9672 26.9781 37.7025 26.2605C37.961 25.415 38.4068 24.5932 38.8245 24.0381C39.5666 23.052 39.3782 22.8194 39.0015 22.3541L38.248 21.4236C37.8712 20.9583 37.6828 20.7257 36.5639 21.2466C35.9507 21.5321 35.0847 21.7909 34.2265 21.8755C33.5644 21.437 32.8407 21.084 32.0714 20.8321C31.5875 20.1057 31.2369 19.2566 31.0707 18.592C30.789 17.4651 30.5073 17.3988 29.976 17.3949ZM29.2747 23.9801C32.2504 23.9801 34.6628 26.3924 34.6628 29.3681C34.6628 32.3439 32.2504 34.7562 29.2747 34.7562C26.299 34.7562 23.8867 32.3439 23.8867 29.3681C23.8867 26.3924 26.299 23.9801 29.2747 23.9801ZM29.2747 26.3748C27.6215 26.3748 26.2813 27.715 26.2813 29.3681C26.2813 31.0213 27.6215 32.3615 29.2747 32.3615C30.9279 32.3615 32.2681 31.0213 32.2681 29.3681C32.2681 27.715 30.9279 26.3748 29.2747 26.3748Z" fill="white"/>
</svg>
