<svg width="58" height="58" viewBox="0 0 58 58" fill="none" xmlns="http://www.w3.org/2000/svg">
<rect width="58" height="58" rx="20" fill="#44A1A4"/>
<path d="M19.4 16.2001C19.2586 16.1981 19.1183 16.2242 18.9871 16.2769C18.856 16.3296 18.7366 16.4078 18.6359 16.5071C18.5353 16.6063 18.4553 16.7246 18.4008 16.855C18.3462 16.9854 18.3181 17.1254 18.3181 17.2667C18.3181 17.4081 18.3462 17.548 18.4008 17.6784C18.4553 17.8089 18.5353 17.9271 18.6359 18.0264C18.7366 18.1256 18.856 18.2039 18.9871 18.2566C19.1183 18.3093 19.2586 18.3354 19.4 18.3334H38.6C38.7413 18.3354 38.8816 18.3093 39.0128 18.2566C39.144 18.2039 39.2634 18.1256 39.364 18.0264C39.4647 17.9271 39.5446 17.8089 39.5992 17.6784C39.6537 17.548 39.6818 17.4081 39.6818 17.2667C39.6818 17.1254 39.6537 16.9854 39.5992 16.855C39.5446 16.7246 39.4647 16.6063 39.364 16.5071C39.2634 16.4078 39.144 16.3296 39.0128 16.2769C38.8816 16.2242 38.7413 16.1981 38.6 16.2001H19.4ZM17.2666 20.4667C17.1253 20.4647 16.985 20.4908 16.8538 20.5435C16.7226 20.5963 16.6032 20.6745 16.5026 20.7738C16.4019 20.873 16.322 20.9913 16.2674 21.1217C16.2129 21.2521 16.1848 21.392 16.1848 21.5334C16.1848 21.6748 16.2129 21.8147 16.2674 21.9451C16.322 22.0755 16.4019 22.1938 16.5026 22.293C16.6032 22.3923 16.7226 22.4705 16.8538 22.5232C16.985 22.5759 17.1253 22.6021 17.2666 22.6001H40.7333C40.8746 22.6021 41.015 22.5759 41.1461 22.5232C41.2773 22.4705 41.3967 22.3923 41.4974 22.293C41.598 22.1938 41.6779 22.0755 41.7325 21.9451C41.7871 21.8147 41.8152 21.6748 41.8152 21.5334C41.8152 21.392 41.7871 21.2521 41.7325 21.1217C41.6779 20.9913 41.598 20.873 41.4974 20.7738C41.3967 20.6745 41.2773 20.5963 41.1461 20.5435C41.015 20.4908 40.8746 20.4647 40.7333 20.4667H17.2666ZM17.2666 24.7334C16.7788 24.7341 16.3059 24.9019 15.9268 25.209C15.5477 25.5161 15.2853 25.9438 15.1833 26.4209C15.1808 26.4321 15.1772 26.4429 15.175 26.4542C15.1477 26.59 15.1338 26.7282 15.1333 26.8667V39.6667C15.134 40.1546 15.3018 40.6275 15.6089 41.0066C15.916 41.3857 16.3437 41.6481 16.8208 41.7501C16.832 41.7525 16.8428 41.7561 16.8541 41.7584C16.99 41.7856 17.1281 41.7996 17.2666 41.8001H40.7333C41.2212 41.7994 41.6941 41.6315 42.0732 41.3245C42.4523 41.0174 42.7147 40.5897 42.8166 40.1126C42.8191 40.1013 42.8227 40.0905 42.825 40.0792C42.8522 39.9434 42.8662 39.8053 42.8666 39.6667V26.8667C42.866 26.3789 42.6981 25.906 42.391 25.5269C42.084 25.1477 41.6562 24.8853 41.1791 24.7834C41.1679 24.7809 41.1571 24.7773 41.1458 24.7751C41.01 24.7478 40.8718 24.7339 40.7333 24.7334H17.2666ZM19.4 26.8667H38.6C38.6 27.4325 38.8247 27.9751 39.2248 28.3752C39.6249 28.7753 40.1675 29.0001 40.7333 29.0001V37.5334C40.1675 37.5334 39.6249 37.7582 39.2248 38.1582C38.8247 38.5583 38.6 39.1009 38.6 39.6667H19.4C19.4 39.1009 19.1752 38.5583 18.7751 38.1582C18.3751 37.7582 17.8324 37.5334 17.2666 37.5334V29.0001C17.8324 29.0001 18.3751 28.7753 18.7751 28.3752C19.1752 27.9751 19.4 27.4325 19.4 26.8667ZM29 29.0001C26.6437 29.0001 24.7333 31.1494 24.7333 33.8001C24.7333 35.3169 25.3708 36.6534 26.3479 37.5334H31.652C32.6291 36.6534 33.2666 35.3169 33.2666 33.8001C33.2666 31.1494 31.3562 29.0001 29 29.0001ZM20.4666 32.2001C20.1837 32.2001 19.9124 32.3124 19.7124 32.5125C19.5123 32.7125 19.4 32.9838 19.4 33.2667C19.4 33.5496 19.5123 33.8209 19.7124 34.021C19.9124 34.221 20.1837 34.3334 20.4666 34.3334C20.7495 34.3334 21.0208 34.221 21.2209 34.021C21.4209 33.8209 21.5333 33.5496 21.5333 33.2667C21.5333 32.9838 21.4209 32.7125 21.2209 32.5125C21.0208 32.3124 20.7495 32.2001 20.4666 32.2001ZM37.5333 32.2001C37.2504 32.2001 36.9791 32.3124 36.779 32.5125C36.579 32.7125 36.4666 32.9838 36.4666 33.2667C36.4666 33.5496 36.579 33.8209 36.779 34.021C36.9791 34.221 37.2504 34.3334 37.5333 34.3334C37.8162 34.3334 38.0875 34.221 38.2875 34.021C38.4876 33.8209 38.6 33.5496 38.6 33.2667C38.6 32.9838 38.4876 32.7125 38.2875 32.5125C38.0875 32.3124 37.8162 32.2001 37.5333 32.2001Z" fill="white"/>
</svg>
