<svg width="58" height="58" viewBox="0 0 58 58" fill="none" xmlns="http://www.w3.org/2000/svg">
<rect width="58" height="58" rx="20" fill="#44A1A4"/>
<path d="M21.5169 16.1854C21.4652 16.1866 21.4137 16.1914 21.3627 16.2H19.4002C19.2589 16.198 19.1185 16.2241 18.9874 16.2768C18.8562 16.3296 18.7368 16.4078 18.6362 16.5071C18.5355 16.6063 18.4556 16.7246 18.401 16.855C18.3465 16.9854 18.3184 17.1253 18.3184 17.2667C18.3184 17.408 18.3465 17.548 18.401 17.6784C18.4556 17.8088 18.5355 17.9271 18.6362 18.0263C18.7368 18.1256 18.8562 18.2038 18.9874 18.2565C19.1185 18.3092 19.2589 18.3354 19.4002 18.3334H20.4669V20.4667C20.4669 25.386 23.7865 27.9903 25.2294 29C23.7865 30.0097 20.4669 32.614 20.4669 37.5334V39.6667H19.4002C19.2589 39.6647 19.1185 39.6908 18.9874 39.7435C18.8562 39.7962 18.7368 39.8745 18.6362 39.9737C18.5355 40.073 18.4556 40.1912 18.401 40.3216C18.3465 40.452 18.3184 40.592 18.3184 40.7334C18.3184 40.8747 18.3465 41.0147 18.401 41.1451C18.4556 41.2755 18.5355 41.3937 18.6362 41.493C18.7368 41.5922 18.8562 41.6705 18.9874 41.7232C19.1185 41.7759 19.2589 41.802 19.4002 41.8H21.3544C21.4696 41.8191 21.5871 41.8191 21.7023 41.8H36.2877C36.4029 41.8191 36.5204 41.8191 36.6356 41.8H38.6002C38.7416 41.802 38.8819 41.7759 39.0131 41.7232C39.1442 41.6705 39.2636 41.5922 39.3643 41.493C39.4649 41.3937 39.5449 41.2755 39.5994 41.1451C39.654 41.0147 39.6821 40.8747 39.6821 40.7334C39.6821 40.592 39.654 40.452 39.5994 40.3216C39.5449 40.1912 39.4649 40.073 39.3643 39.9737C39.2636 39.8745 39.1442 39.7962 39.0131 39.7435C38.8819 39.6908 38.7416 39.6647 38.6002 39.6667H37.5336V37.5334C37.5336 32.614 34.2139 30.0097 32.7711 29C34.2139 27.9903 37.5336 25.386 37.5336 20.4667V18.3334H38.6002C38.7416 18.3354 38.8819 18.3092 39.0131 18.2565C39.1442 18.2038 39.2636 18.1256 39.3643 18.0263C39.4649 17.9271 39.5449 17.8088 39.5994 17.6784C39.654 17.548 39.6821 17.408 39.6821 17.2667C39.6821 17.1253 39.654 16.9854 39.5994 16.855C39.5449 16.7246 39.4649 16.6063 39.3643 16.5071C39.2636 16.4078 39.1442 16.3296 39.0131 16.2768C38.8819 16.2241 38.7416 16.198 38.6002 16.2H36.6315C36.5716 16.19 36.5109 16.1851 36.4502 16.1854C36.3985 16.1866 36.347 16.1914 36.2961 16.2H21.6981C21.6382 16.19 21.5776 16.1851 21.5169 16.1854ZM22.6002 20.4667H35.4002C35.4002 25.0889 30.5856 28.0854 30.5856 28.0854C30.4277 28.1802 30.2971 28.3143 30.2064 28.4746C30.1157 28.6348 30.068 28.8159 30.068 29C30.068 29.1842 30.1157 29.3652 30.2064 29.5255C30.2971 29.6858 30.4277 29.8198 30.5856 29.9146C30.5856 29.9146 35.4002 32.9111 35.4002 37.5334H33.2669C33.2669 35.1771 31.3565 33.2667 29.0002 33.2667C26.644 33.2667 24.7336 35.1771 24.7336 37.5334H22.6002C22.6002 32.9111 27.4148 29.9146 27.4148 29.9146C27.5727 29.8198 27.7033 29.6858 27.7941 29.5255C27.8848 29.3652 27.9324 29.1842 27.9324 29C27.9324 28.8159 27.8848 28.6348 27.7941 28.4746C27.7033 28.3143 27.5727 28.1802 27.4148 28.0854C27.4148 28.0854 22.6002 25.0889 22.6002 20.4667ZM26.3336 23.6667C26.3336 25.1398 27.5272 26.3334 29.0002 26.3334C30.4733 26.3334 31.6669 25.1398 31.6669 23.6667H26.3336Z" fill="white"/>
</svg>
