<svg width="58" height="58" viewBox="0 0 58 58" fill="none" xmlns="http://www.w3.org/2000/svg">
<rect width="58" height="58" rx="20" fill="#44A1A4"/>
<path d="M38.5291 14.8334L39.5312 16.2771L36.2666 18.273L31.3416 17.2875C31.139 17.2474 30.9292 17.267 30.7375 17.3438L25.8 19.3188L20.8625 17.3438C20.7227 17.2878 20.5727 17.2619 20.4222 17.268C20.2718 17.2741 20.1243 17.312 19.9896 17.3792L15.7229 19.5125C15.47 19.6392 15.2777 19.861 15.1883 20.1294C15.0989 20.3977 15.1198 20.6906 15.2463 20.9436C15.3727 21.1965 15.5945 21.3889 15.8628 21.4784C16.1311 21.568 16.424 21.5472 16.6771 21.4209L20.5146 19.5021L25.4041 21.4563C25.6583 21.5578 25.9417 21.5578 26.1958 21.4563L31.2354 19.4417L36.2583 20.4459C36.5211 20.4984 36.7941 20.45 37.0229 20.3105L40.75 18.0313L41.9708 19.7896L42.7271 15.5917L38.5291 14.8334ZM17.2666 23.6667C17.1281 23.6672 16.99 23.6811 16.8541 23.7084C16.8428 23.7106 16.832 23.7143 16.8208 23.7167C16.3437 23.8187 15.916 24.0811 15.6089 24.4602C15.3018 24.8393 15.134 25.3122 15.1333 25.8V38.6C15.1338 38.7386 15.1477 38.8767 15.175 39.0125C15.1772 39.0238 15.1808 39.0346 15.1833 39.0459C15.2853 39.523 15.5477 39.9507 15.9268 40.2578C16.3059 40.5649 16.7788 40.7327 17.2666 40.7334H40.7333C40.8718 40.7329 41.01 40.719 41.1458 40.6917C41.1571 40.6894 41.1679 40.6858 41.1791 40.6834C41.6562 40.5814 42.084 40.319 42.391 39.9399C42.6981 39.5608 42.866 39.0879 42.8666 38.6V25.8C42.8662 25.6615 42.8522 25.5234 42.825 25.3875C42.8227 25.3762 42.8191 25.3654 42.8166 25.3542C42.7147 24.8771 42.4523 24.4494 42.0732 24.1423C41.6941 23.8352 41.2212 23.6674 40.7333 23.6667H17.2666ZM19.4 25.8H38.6C38.6 26.3658 38.8247 26.9085 39.2248 27.3085C39.6249 27.7086 40.1675 27.9334 40.7333 27.9334V36.4667C40.1675 36.4667 39.6249 36.6915 39.2248 37.0915C38.8247 37.4916 38.6 38.0342 38.6 38.6H19.4C19.4 38.0342 19.1752 37.4916 18.7751 37.0915C18.3751 36.6915 17.8324 36.4667 17.2666 36.4667V27.9334C17.8324 27.9334 18.3751 27.7086 18.7751 27.3085C19.1752 26.9085 19.4 26.3658 19.4 25.8ZM29 27.9334C26.6437 27.9334 24.7333 30.0827 24.7333 32.7334C24.7333 34.2502 25.3708 35.5867 26.3479 36.4667H31.6521C32.6291 35.5867 33.2666 34.2502 33.2666 32.7334C33.2666 30.0827 31.3562 27.9334 29 27.9334ZM20.4666 31.1334C20.1837 31.1334 19.9124 31.2458 19.7124 31.4458C19.5123 31.6458 19.4 31.9171 19.4 32.2C19.4 32.4829 19.5123 32.7542 19.7124 32.9543C19.9124 33.1543 20.1837 33.2667 20.4666 33.2667C20.7495 33.2667 21.0208 33.1543 21.2209 32.9543C21.4209 32.7542 21.5333 32.4829 21.5333 32.2C21.5333 31.9171 21.4209 31.6458 21.2209 31.4458C21.0208 31.2458 20.7495 31.1334 20.4666 31.1334ZM37.5333 31.1334C37.2504 31.1334 36.9791 31.2458 36.7791 31.4458C36.579 31.6458 36.4666 31.9171 36.4666 32.2C36.4666 32.4829 36.579 32.7542 36.7791 32.9543C36.9791 33.1543 37.2504 33.2667 37.5333 33.2667C37.8162 33.2667 38.0875 33.1543 38.2875 32.9543C38.4876 32.7542 38.6 32.4829 38.6 32.2C38.6 31.9171 38.4876 31.6458 38.2875 31.4458C38.0875 31.2458 37.8162 31.1334 37.5333 31.1334Z" fill="white"/>
</svg>
