<svg width="58" height="58" viewBox="0 0 58 58" fill="none" xmlns="http://www.w3.org/2000/svg">
<rect width="58" height="58" rx="20" fill="#44A1A4"/>
<path d="M29 19.3999C25.6059 19.3999 24.2 21.577 24.2 24.1999C24.2 25.0831 24.6229 25.9707 24.6229 25.9707C24.4533 26.0689 24.1713 26.3808 24.2417 26.9312C24.3729 27.9573 24.8184 28.2161 25.1021 28.2374C25.2098 29.1953 26.2405 30.4218 26.6 30.5999V32.0312C25.8 34.4312 19.4 34.0666 19.4 39.6666H38.6C38.6 34.0666 32.2 34.4312 31.4 32.0312V30.5999C31.7605 30.4218 32.7902 29.1953 32.8979 28.2374C33.1817 28.2161 33.6271 27.9573 33.7583 26.9312C33.8287 26.3797 33.5467 26.0689 33.3771 25.9707C33.3771 25.9707 33.8 25.1695 33.8 24.1999C33.8 22.2575 33.0373 20.5999 31.4 20.5999C31.4 20.5999 30.8315 19.3999 29 19.3999ZM37 21.5312C36.4539 21.5312 35.9892 21.6299 35.5625 21.7707C35.7961 22.495 35.9333 23.3028 35.9333 24.1999C35.9333 24.7674 35.8443 25.2876 35.7313 25.7228C35.8859 26.1804 35.9391 26.6836 35.8729 27.1999C35.7225 28.3743 35.2666 29.1725 34.6938 29.6749C34.5274 30.0781 34.2995 30.4601 34.0542 30.8249C34.3571 31.4468 34.8005 32.0004 35 32.1124V32.1249C37.1728 33.1436 40.7333 34.8559 40.7333 39.6666H45C45 34.378 39.6667 35.1374 39 32.8707V32.1103C39.2997 31.9418 40.1583 30.7836 40.2479 29.8791C40.4837 29.8588 40.8558 29.6153 40.9646 28.6457C41.0233 28.1252 40.7887 27.8323 40.6479 27.7395C40.6479 27.7395 41 26.9807 41 26.0666C41 24.2319 40.3643 22.6666 39 22.6666C39 22.6666 38.5264 21.5312 37 21.5312ZM21 21.5332C19.4736 21.5332 19 22.6666 19 22.6666C17.6357 22.6666 17 24.234 17 26.0687C17 26.9839 17.3521 27.7395 17.3521 27.7395C17.2102 27.8312 16.9768 28.1252 17.0354 28.6457C17.1442 29.6153 17.5164 29.8609 17.7521 29.8812C17.8417 30.7857 18.7003 31.9439 19 32.1124V32.8707C18.3333 35.1363 13 34.378 13 39.6666H17.2667C17.2667 34.8559 20.8272 33.1446 23 32.1249V32.1103C23.1995 31.9983 23.6429 31.4478 23.9458 30.8249C23.7005 30.4601 23.4727 30.076 23.3063 29.6728C22.7335 29.1715 22.2764 28.3732 22.1271 27.1999C22.0599 26.6772 22.1151 26.1659 22.2729 25.7041C22.1577 25.2657 22.0667 24.745 22.0667 24.1999C22.0667 23.3178 22.1916 22.5068 22.4188 21.7666C21.9974 21.629 21.5387 21.5332 21 21.5332Z" fill="white"/>
</svg>
