<svg width="58" height="58" viewBox="0 0 58 58" fill="none" xmlns="http://www.w3.org/2000/svg">
<rect width="58" height="58" rx="20" fill="#44A1A4"/>
<path d="M29.0002 16.2C21.9314 16.2 16.2002 21.9312 16.2002 29C16.2002 36.0688 21.9314 41.7999 29.0002 41.7999C36.069 41.7999 41.8002 36.0688 41.8002 29C41.8002 21.9312 36.069 16.2 29.0002 16.2ZM36.1543 26.5541L28.0903 34.6181C27.8898 34.8186 27.6189 34.9306 27.3362 34.9306C27.0535 34.9306 26.7815 34.8186 26.5821 34.6181L22.8989 30.9349C22.4818 30.5178 22.4818 29.8437 22.8989 29.4266C23.3159 29.0096 23.9901 29.0096 24.4071 29.4266L27.3362 32.3557L34.6461 25.0458C35.0631 24.6288 35.7373 24.6288 36.1543 25.0458C36.5714 25.4629 36.5714 26.137 36.1543 26.5541Z" fill="white"/>
</svg>
