<svg width="58" height="58" viewBox="0 0 58 58" fill="none" xmlns="http://www.w3.org/2000/svg">
<rect width="58" height="58" rx="20" fill="#44A1A4"/>
<path d="M29.0002 16.2C21.9436 16.2 16.2002 21.9433 16.2002 29C16.2002 36.0566 21.9436 41.7999 29.0002 41.7999C36.0568 41.7999 41.8002 36.0566 41.8002 29C41.8002 21.9433 36.0568 16.2 29.0002 16.2ZM27.9335 18.3854V20.4666H25.8002V18.8208C26.4836 18.6071 27.198 18.458 27.9335 18.3854ZM30.0669 18.3854C31.9114 18.5676 33.6137 19.2215 35.0585 20.2187L34.3335 20.4666V21.5333H33.2669L32.2002 22.6V24.7333L34.3335 23.6666L37.5335 24.7333L36.4669 26.8666L34.3335 25.8H32.2002L30.0669 27.9333V30.0666L32.2002 32.2H34.3335L35.4002 34.3333L33.1523 38.8312C31.8767 39.3688 30.4745 39.6666 29.0002 39.6666C28.6081 39.6666 28.2229 39.643 27.8419 39.602L25.7627 37.5708L25.8002 33.2666L22.6002 30.0666H19.4002V27.9333L24.7335 24.7333V22.6H26.8669L27.9335 23.6666L30.0669 22.6V18.3854Z" fill="white"/>
</svg>
