<svg width="58" height="58" viewBox="0 0 58 58" fill="none" xmlns="http://www.w3.org/2000/svg">
<rect width="58" height="58" rx="20" fill="#44A1A4"/>
<path d="M29.0001 16.2L30.1376 18.477L17.8418 24.852C17.5904 24.9824 17.4011 25.2074 17.3155 25.4773C17.23 25.7473 17.2552 26.0402 17.3855 26.2916C17.5159 26.543 17.7409 26.7323 18.0108 26.8179C18.2808 26.9035 18.5737 26.8783 18.8251 26.7479L31.0939 20.3854L32.2001 22.6L35.4001 16.725L29.0001 16.2ZM37.5335 23.6666C36.9447 23.6666 36.4668 24.1445 36.4668 24.7333V40.7333H40.7335V24.7333C40.7335 24.1445 40.2556 23.6666 39.6668 23.6666H37.5335ZM31.1335 26.8666C30.5447 26.8666 30.0668 27.3445 30.0668 27.9333V40.7333H34.3335V27.9333C34.3335 27.3445 33.8556 26.8666 33.2668 26.8666H31.1335ZM24.7335 30.0666C24.1447 30.0666 23.6668 30.5445 23.6668 31.1333V40.7333H27.9335V31.1333C27.9335 30.5445 27.4556 30.0666 26.8668 30.0666H24.7335ZM18.3335 33.2666C17.7447 33.2666 17.2668 33.7445 17.2668 34.3333V40.7333H21.5335V34.3333C21.5335 33.7445 21.0556 33.2666 20.4668 33.2666H18.3335Z" fill="white"/>
</svg>
