<svg width="58" height="58" viewBox="0 0 58 58" fill="none" xmlns="http://www.w3.org/2000/svg">
<rect width="58" height="58" rx="20" fill="#44A1A4"/>
<path d="M33.2666 15.1333C29.1429 15.1333 25.8 18.4762 25.8 22.6C25.8 26.7237 29.1429 30.0666 33.2666 30.0666C37.3904 30.0666 40.7333 26.7237 40.7333 22.6C40.7333 18.4762 37.3904 15.1333 33.2666 15.1333ZM32.2021 17.2666H34.3354V18.3375C35.6879 18.6553 36.5702 19.5689 36.5979 20.8062H34.6396C34.5937 20.2174 34.0341 19.8062 33.2875 19.8062C32.5408 19.8062 32.05 20.1599 32.05 20.7146C32.05 21.1711 32.42 21.4355 33.2979 21.6083L34.3729 21.8166C36.0198 22.1345 36.7604 22.8815 36.7604 24.2041C36.7593 25.6292 35.8565 26.5794 34.3333 26.8812V27.9333H32.2V26.8896C30.713 26.6069 29.8027 25.7121 29.775 24.3937H31.7958C31.8481 25.0007 32.4554 25.3875 33.3333 25.3875C34.1248 25.3875 34.6687 25.0056 34.6687 24.4562C34.6687 23.9944 34.3025 23.7471 33.35 23.5562L32.2541 23.3354C30.7288 23.0463 29.9416 22.2151 29.9416 20.9041C29.9416 19.5847 30.809 18.6438 32.2021 18.3291V17.2666ZM21.5333 29C21.125 29.0003 20.7205 29.0788 20.3416 29.2312L15.1333 31.1333V39.6666L19.6354 37.7104C20.1666 37.48 20.7676 37.4719 21.3041 37.6916L30.9729 41.6416C30.9729 41.6416 30.977 41.6416 30.9771 41.6416C31.1922 41.7452 31.4278 41.7993 31.6666 41.8C31.9429 41.799 32.2142 41.7265 32.4541 41.5896C32.4543 41.5895 32.4603 41.5896 32.4604 41.5896L42.0458 36.2645L42.0437 36.2625C42.2927 36.1241 42.5003 35.9218 42.6449 35.6764C42.7896 35.431 42.8661 35.1515 42.8666 34.8666C42.8666 34.4423 42.6981 34.0353 42.398 33.7353C42.0979 33.4352 41.691 33.2666 41.2666 33.2666C41.0317 33.2675 40.7998 33.3202 40.5875 33.4208V33.4187L33.2666 36.4666H31.6666C32.091 36.4666 32.4979 36.2981 32.798 35.998C33.0981 35.6979 33.2666 35.291 33.2666 34.8666C33.2666 34.5291 33.1597 34.2002 32.9614 33.927C32.7631 33.6539 32.4834 33.4504 32.1625 33.3458V33.3437L22.8896 29.3H22.8771C22.4562 29.1036 21.9977 29.0013 21.5333 29Z" fill="white"/>
</svg>
