<svg width="166" height="25" viewBox="0 0 166 25" fill="none" xmlns="http://www.w3.org/2000/svg">
<path d="M33.4053 12.1815V11.7836C34.0307 11.7836 34.3954 11.6572 34.4997 11.4045V1.87125C34.3954 1.61853 34.0307 1.49223 33.4053 1.49223V1.09424H37.8003V1.49223C37.1749 1.49223 36.8101 1.61853 36.7059 1.87125V11.4045C36.8101 11.6572 37.1749 11.7836 37.8003 11.7836V12.1815H33.4053Z" fill="#525A65"/>
<path d="M39.0547 12.1815V11.7836C39.6801 11.7836 40.0449 11.6572 40.1491 11.4045V1.87125C40.0449 1.61853 39.6801 1.49223 39.0547 1.49223V1.09424H42.1989L45.899 9.90726L49.5992 1.09424H52.7781V1.49223C52.1529 1.49223 51.7881 1.61853 51.6839 1.87125V11.4045C51.7881 11.6572 52.1529 11.7836 52.7781 11.7836V12.1815H48.3831V11.7836C49.0087 11.7836 49.3735 11.6572 49.4778 11.4045V2.89474L45.5866 12.1815H44.7178L40.7398 2.78097V11.4045C40.844 11.6572 41.2088 11.7836 41.8341 11.7836V12.1815H39.0547Z" fill="#525A65"/>
<path d="M54.0342 12.1815V11.7836C54.6594 11.7836 55.0241 11.6572 55.1284 11.4045V1.87125C55.0241 1.61853 54.6594 1.49223 54.0342 1.49223V1.09424H58.6549C60.0795 1.09424 61.162 1.39111 61.9034 1.98496C62.6561 2.57881 63.0325 3.24222 63.0325 3.97503C63.0325 4.92265 62.685 5.68706 61.9904 6.26831C61.2952 6.84951 60.2533 7.14013 58.8634 7.14013H57.3349V11.4045C57.4388 11.6572 57.804 11.7836 58.4292 11.7836V12.1815H54.0342ZM57.3349 1.73859V6.49573H58.2554C59.1474 6.49573 59.7726 6.30622 60.1315 5.92713C60.5021 5.53551 60.6876 4.89105 60.6876 3.99398C60.6876 2.49041 59.8074 1.73859 58.0468 1.73859H57.3349Z" fill="#525A65"/>
<path d="M68.1997 12.1815V11.7836C68.7324 11.7836 69.0683 11.7078 69.2075 11.5561L68.2347 8.65636H64.8987L63.9958 11.4424C64.1117 11.6699 64.4709 11.7836 65.0728 11.7836V12.1815H62.2236V11.7836C62.8605 11.7836 63.2253 11.6508 63.3178 11.3855L66.6887 1.09424H68.0955L71.5001 11.3855C71.581 11.6508 71.9519 11.7836 72.6121 11.7836V12.1815H68.1997ZM66.5495 3.61495L65.1078 8.0309H68.0262L66.5495 3.61495Z" fill="#525A65"/>
<path d="M78.1152 1.54918C77.1424 1.54918 76.3896 1.98506 75.8569 2.85694C75.3353 3.72876 75.0747 4.9038 75.0747 6.38212C75.0747 8.10051 75.3592 9.42086 75.9262 10.3432C76.4938 11.2656 77.2466 11.7268 78.1851 11.7268C78.7521 11.7268 79.267 11.5183 79.7311 11.1013C80.2055 10.6717 80.5298 10.1979 80.7039 9.67988L81.4156 9.90736C81.1495 10.6023 80.7266 11.1898 80.1473 11.6699C79.5803 12.1374 78.8097 12.3711 77.8375 12.3711C76.2854 12.3711 75.0343 11.8216 74.0848 10.7223C73.1352 9.62303 72.6602 8.31533 72.6602 6.79911C72.6602 5.04281 73.2045 3.62135 74.2938 2.5347C75.3819 1.44812 76.6501 0.904785 78.0974 0.904785C78.4333 0.904785 78.8508 0.99956 79.3485 1.18904C79.8463 1.37862 80.1301 1.47337 80.2 1.47337C80.3385 1.47337 80.4078 1.34701 80.4078 1.09433H80.8075L80.9466 3.76666H80.5647C80.4955 3.24862 80.1939 2.74953 79.6612 2.26939C79.1285 1.78925 78.613 1.54918 78.1152 1.54918Z" fill="#525A65"/>
<path d="M82.0156 1.09424H90.9966V2.93265H90.6319C90.6319 2.32614 90.429 1.92811 90.0238 1.73859H87.6092V11.4045C87.7134 11.6572 88.0781 11.7836 88.7034 11.7836V12.1815H84.3088V11.7836C84.9341 11.7836 85.2988 11.6572 85.403 11.4045V1.73859H82.9885C82.5826 1.92811 82.3804 2.32614 82.3804 2.93265H82.0156V1.09424Z" fill="#525A65"/>
<path d="M134.369 0.452148H143.715V2.38097H143.335C143.335 1.74464 143.125 1.32704 142.703 1.12824H140.19V11.2694C140.298 11.5346 140.678 11.6672 141.328 11.6672V12.0848H136.755V11.6672C137.407 11.6672 137.785 11.5346 137.894 11.2694V1.12824H135.381C134.959 1.32704 134.749 1.74464 134.749 2.38097H134.369V0.452148Z" fill="#525A65"/>
<path d="M128.258 12.0848V11.6672C128.923 11.6672 129.311 11.5346 129.422 11.2694V1.26743C129.311 1.0023 128.923 0.8697 128.258 0.8697V0.452148H132.931V0.8697C132.266 0.8697 131.878 1.0023 131.767 1.26743V11.2694C131.878 11.5346 132.266 11.6672 132.931 11.6672V12.0848H128.258Z" fill="#525A65"/>
<path d="M117.475 12.0848V11.6672C118.124 11.6672 118.503 11.5346 118.611 11.2694V1.26743C118.503 1.0023 118.124 0.8697 117.475 0.8697V0.452148H122.274C123.754 0.452148 124.878 0.763664 125.648 1.3867C126.429 2.00983 126.82 2.70577 126.82 3.47464C126.82 4.46885 126.46 5.27092 125.738 5.88066C125.016 6.49052 123.934 6.7954 122.49 6.7954H120.902V11.2694C121.011 11.5346 121.39 11.6672 122.04 11.6672V12.0848H117.475ZM120.902 1.12824V6.11932H121.859C122.785 6.11932 123.435 5.92046 123.807 5.52273C124.192 5.11179 124.385 4.43572 124.385 3.49451C124.385 1.91703 123.471 1.12824 121.642 1.12824H120.902Z" fill="#525A65"/>
<path d="M111.305 12.0848V11.6672C111.876 11.6672 112.236 11.5876 112.385 11.4285L111.341 8.38614H107.764L106.795 11.3092C106.919 11.5478 107.305 11.6672 107.95 11.6672V12.0848H104.895V11.6672C105.577 11.6672 105.969 11.528 106.068 11.2496L109.683 0.452148H111.192L114.845 11.2496C114.932 11.528 115.33 11.6672 116.038 11.6672V12.0848H111.305ZM109.534 3.09678L107.988 7.72994H111.118L109.534 3.09678Z" fill="#525A65"/>
<path d="M150.844 12.0848V11.6672C151.415 11.6672 151.775 11.5876 151.924 11.4285L150.88 8.38614H147.303L146.334 11.3092C146.458 11.5478 146.843 11.6672 147.489 11.6672V12.0848H144.434V11.6672C145.116 11.6672 145.508 11.528 145.607 11.2496L149.222 0.452148H150.732L154.384 11.2496C154.471 11.528 154.868 11.6672 155.577 11.6672V12.0848H150.844ZM149.073 3.09678L147.526 7.72994H150.657L149.073 3.09678Z" fill="#525A65"/>
<path d="M101.497 1.10576C100.5 1.10576 99.7292 1.54791 99.1831 2.43214C98.6492 3.31643 98.3819 4.50828 98.3819 6.00769C98.3819 7.7506 98.6725 9.08978 99.2542 10.0254C99.8359 10.9609 100.608 11.4287 101.568 11.4287C102.15 11.4287 102.678 11.2172 103.153 10.7943C103.64 10.3586 103.972 9.87797 104.15 9.35253L104.88 9.58325C104.607 10.2881 104.173 10.884 103.581 11.371C102.998 11.8452 102.209 12.0823 101.212 12.0823C99.622 12.0823 98.3402 11.5248 97.3674 10.4099C96.3939 9.29488 95.9072 7.96848 95.9072 6.43068C95.9072 4.64926 96.465 3.20749 97.5807 2.10538C98.6964 1.00325 99.9965 0.452148 101.479 0.452148C101.824 0.452148 102.251 0.54828 102.761 0.740501C103.272 0.932716 103.562 1.02885 103.634 1.02885C103.776 1.02885 103.847 0.900688 103.847 0.644412H104.257L104.399 3.35488H104.007C103.936 2.82951 103.628 2.3232 103.082 1.83621C102.536 1.34929 102.008 1.10576 101.497 1.10576Z" fill="#525A65"/>
<path d="M164.433 11.6514L165.407 9.75061H165.7V12.0849H157.184V11.8848L158.189 11.5847V1.04714L157.184 0.680341V0.413574H161.991V0.680341L160.986 1.04714V11.6514H164.433Z" fill="#525A65"/>
<path d="M34.2979 18.7363H34.8461V21.3101C34.8461 21.4545 34.8439 21.6165 34.8396 21.7959C34.8352 21.9754 34.8287 22.1395 34.82 22.2883C34.8156 22.4372 34.8091 22.5466 34.8004 22.6166H34.8265L37.3915 18.7363H38.0442V23.4243H37.496V20.8767C37.496 20.7148 37.4982 20.5419 37.5025 20.358C37.5112 20.1742 37.5199 20.0056 37.5286 19.8525C37.5373 19.6992 37.5438 19.5899 37.5482 19.5242H37.5221L34.9505 23.4243H34.2979V18.7363ZM39.7972 19.905V21.3691H41.6965V19.905H42.2708V23.4243H41.6965V21.855H39.7972V23.4243H39.2228V19.905H39.7972ZM46.1918 20.7914C46.1918 21.0102 46.1263 21.181 45.9959 21.3035C45.8654 21.4261 45.698 21.5093 45.4935 21.553V21.5793C45.7106 21.6099 45.9002 21.6887 46.0609 21.8156C46.222 21.9382 46.3024 22.1308 46.3024 22.3934C46.3024 22.6911 46.1918 22.9384 45.9697 23.1353C45.7521 23.3279 45.391 23.4243 44.8862 23.4243H43.3786V19.905H44.8797C45.1278 19.905 45.3494 19.9334 45.5454 19.9904C45.7458 20.0429 45.9025 20.1348 46.0153 20.2661C46.1331 20.393 46.1918 20.5682 46.1918 20.7914ZM45.6108 20.8636C45.6108 20.6973 45.5499 20.5769 45.428 20.5025C45.3106 20.4237 45.1169 20.3843 44.8471 20.3843H43.953V21.3495H44.7427C45.3215 21.3495 45.6108 21.1875 45.6108 20.8636ZM45.7088 22.3934C45.7088 22.1921 45.6325 22.0477 45.4804 21.9601C45.3278 21.8725 45.1038 21.8287 44.8079 21.8287H43.953V22.9581H44.821C45.1081 22.9581 45.3278 22.9165 45.4804 22.8333C45.6325 22.7457 45.7088 22.5991 45.7088 22.3934ZM48.49 19.8394C48.7906 19.8394 49.047 19.905 49.2605 20.0363C49.4776 20.1676 49.6433 20.3537 49.7562 20.5944C49.874 20.8307 49.9327 21.1087 49.9327 21.4282V21.7762H47.5374C47.546 22.1745 47.6462 22.4788 47.8377 22.6888C48.0331 22.8946 48.3053 22.9975 48.6534 22.9975C48.8755 22.9975 49.0709 22.9777 49.2407 22.9384C49.4149 22.8946 49.5932 22.8333 49.776 22.7545V23.2601C49.5977 23.3389 49.4212 23.3958 49.2475 23.4308C49.0732 23.4702 48.8664 23.4899 48.6272 23.4899C48.2963 23.4899 48.0029 23.422 47.746 23.2863C47.4937 23.1506 47.296 22.9493 47.1524 22.6823C47.0129 22.4109 46.9434 22.0804 46.9434 21.6909C46.9434 21.3057 47.0066 20.9752 47.1326 20.6994C47.263 20.4237 47.4436 20.2114 47.6743 20.0625C47.9095 19.9138 48.1812 19.8394 48.49 19.8394ZM48.4837 20.312C48.2097 20.312 47.992 20.4018 47.8309 20.5813C47.6743 20.7563 47.5808 21.0015 47.5501 21.3166H49.3323C49.3278 21.019 49.2583 20.7782 49.1233 20.5944C48.9883 20.4062 48.7753 20.312 48.4837 20.312ZM52.2264 23.4899C51.9176 23.4899 51.6413 23.4264 51.3975 23.2995C51.1583 23.1725 50.9692 22.9755 50.8297 22.7086C50.6947 22.4415 50.6274 22.1002 50.6274 21.6844C50.6274 21.251 50.6992 20.8986 50.8428 20.6272C50.9863 20.3559 51.18 20.1567 51.4237 20.0298C51.6715 19.9028 51.9524 19.8394 52.2656 19.8394C52.4439 19.8394 52.6159 19.859 52.7811 19.8985C52.9468 19.9334 53.0813 19.9773 53.1861 20.0298L53.0095 20.509C52.9053 20.4697 52.7834 20.4325 52.6444 20.3974C52.5048 20.3624 52.3744 20.3449 52.2525 20.3449C51.565 20.3449 51.2215 20.7892 51.2215 21.6777C51.2215 22.1023 51.3041 22.4284 51.4693 22.6561C51.6391 22.8793 51.8892 22.9909 52.2201 22.9909C52.4114 22.9909 52.5789 22.9712 52.7225 22.9318C52.8705 22.8924 53.0055 22.8442 53.1273 22.7874V23.2995C53.0095 23.3607 52.8791 23.4067 52.7355 23.4373C52.5965 23.4724 52.4268 23.4899 52.2264 23.4899ZM56.374 20.3909H55.2319V23.4243H54.664V20.3909H53.535V19.905H56.374V20.3909ZM57.605 19.905V22.052C57.605 22.1045 57.6027 22.1833 57.5982 22.2883C57.5942 22.3934 57.5874 22.4985 57.5788 22.6035C57.5743 22.7086 57.5702 22.7917 57.5657 22.853L59.4391 19.905H60.1437V23.4243H59.6089V21.3495C59.6089 21.2795 59.6089 21.1875 59.6089 21.0737C59.6129 20.9599 59.6174 20.8483 59.6215 20.7389C59.626 20.625 59.6305 20.5397 59.6345 20.4828L57.7747 23.4243H57.0633V19.905H57.605ZM64.71 24.6455H64.1484V23.4243H61.257V19.905H61.8313V22.9384H63.6397V19.905H64.214V22.9449H64.71V24.6455ZM65.9231 19.905V22.052C65.9231 22.1045 65.9206 22.1833 65.9163 22.2883C65.912 22.3934 65.9053 22.4985 65.8967 22.6035C65.8924 22.7086 65.8881 22.7917 65.8838 22.853L67.7571 19.905H68.4615V23.4243H67.9269V21.3495C67.9269 21.2795 67.9269 21.1875 67.9269 21.0737C67.9306 20.9599 67.9355 20.8483 67.9398 20.7389C67.9441 20.625 67.9484 20.5397 67.9521 20.4828L66.0923 23.4243H65.3812V19.905H65.9231ZM72.6164 21.6581C72.6164 22.2402 72.4686 22.6911 72.1726 23.0106C71.8808 23.3301 71.4854 23.4899 70.9852 23.4899C70.6756 23.4899 70.3998 23.4199 70.1558 23.2798C69.9167 23.1353 69.7273 22.9274 69.5882 22.6561C69.449 22.3803 69.3791 22.0477 69.3791 21.6581C69.3791 21.0759 69.525 20.6272 69.8162 20.312C70.108 19.997 70.504 19.8394 71.0042 19.8394C71.3223 19.8394 71.6 19.9116 71.8397 20.056C72.0831 20.1961 72.2731 20.4018 72.4079 20.6732C72.5471 20.9402 72.6164 21.2685 72.6164 21.6581ZM69.9731 21.6581C69.9731 22.0739 70.0534 22.4043 70.2146 22.6495C70.3802 22.8902 70.6413 23.0106 70.9974 23.0106C71.3499 23.0106 71.6092 22.8902 71.7747 22.6495C71.9396 22.4043 72.0224 22.0739 72.0224 21.6581C72.0224 21.2422 71.9396 20.9162 71.7747 20.6798C71.6092 20.4434 71.3481 20.3252 70.9913 20.3252C70.6345 20.3252 70.3759 20.4434 70.2146 20.6798C70.0534 20.9162 69.9731 21.2422 69.9731 21.6581ZM74.101 19.905V21.3691H76.0001V19.905H76.5751V23.4243H76.0001V21.855H74.101V23.4243H73.5267V19.905H74.101ZM78.2571 19.905V21.3691H80.1562V19.905H80.7306V23.4243H80.1562V21.855H78.2571V23.4243H77.6828V19.905H78.2571ZM83.1636 19.8459C83.5902 19.8459 83.9053 19.94 84.1094 20.1283C84.3148 20.3164 84.4165 20.6163 84.4165 21.0277V23.4243H83.9985L83.8881 22.9252H83.8618C83.7091 23.1179 83.5485 23.2601 83.3787 23.352C83.2132 23.4439 82.9827 23.4899 82.6867 23.4899C82.3691 23.4899 82.1055 23.4067 81.8971 23.2404C81.6881 23.0697 81.5839 22.8049 81.5839 22.4459C81.5839 22.0958 81.7206 21.8265 81.9952 21.6384C82.2692 21.4457 82.6909 21.3407 83.261 21.3232L83.855 21.3035V21.0934C83.855 20.8001 83.7919 20.5966 83.6656 20.4828C83.5393 20.3689 83.3616 20.312 83.1305 20.312C82.9478 20.312 82.7737 20.3405 82.6088 20.3974C82.4427 20.4499 82.2882 20.5113 82.1448 20.5813L81.9688 20.148C82.1215 20.0648 82.3017 19.9948 82.5107 19.9378C82.7198 19.8765 82.9374 19.8459 83.1636 19.8459ZM83.8489 21.704L83.3334 21.7237C82.8981 21.7412 82.5953 21.8113 82.4255 21.9338C82.26 22.0563 82.1772 22.2293 82.1772 22.4525C82.1772 22.6495 82.2367 22.7939 82.3538 22.8859C82.4752 22.9777 82.6303 23.0237 82.8172 23.0237C83.1133 23.0237 83.3591 22.9427 83.5546 22.7808C83.7508 22.6145 83.8489 22.3606 83.8489 22.0192V21.704ZM85.7124 23.4243H85.0467L86.0452 21.9469C85.9104 21.9119 85.7792 21.8572 85.6535 21.7828C85.5273 21.704 85.4255 21.5968 85.347 21.4611C85.2686 21.321 85.2294 21.1481 85.2294 20.9424C85.2294 20.6054 85.3421 20.3493 85.569 20.1742C85.7951 19.9948 86.0955 19.905 86.4694 19.905H88.0363V23.4243H87.4619V22.0257H86.6129L85.7124 23.4243ZM85.7841 20.949C85.7841 21.1503 85.8577 21.3013 86.006 21.402C86.158 21.4983 86.3695 21.5464 86.6392 21.5464H87.4619V20.3843H86.5283C86.2623 20.3843 86.0716 20.4368 85.9539 20.5419C85.8405 20.6469 85.7841 20.7826 85.7841 20.949ZM92.1636 19.8459C92.5896 19.8459 92.9047 19.94 93.1094 20.1283C93.3141 20.3164 93.4165 20.6163 93.4165 21.0277V23.4243H92.9991L92.8875 22.9252H92.8618C92.7091 23.1179 92.5485 23.2601 92.3787 23.352C92.2132 23.4439 91.9821 23.4899 91.6866 23.4899C91.3685 23.4899 91.1061 23.4067 90.8971 23.2404C90.6881 23.0697 90.5839 22.8049 90.5839 22.4459C90.5839 22.0958 90.7212 21.8265 90.9952 21.6384C91.2692 21.4457 91.6909 21.3407 92.261 21.3232L92.855 21.3035V21.0934C92.855 20.8001 92.7919 20.5966 92.6656 20.4828C92.5393 20.3689 92.3609 20.312 92.1311 20.312C91.9478 20.312 91.7737 20.3405 91.6082 20.3974C91.4427 20.4499 91.2882 20.5113 91.1448 20.5813L90.9688 20.148C91.1208 20.0648 91.3017 19.9948 91.5107 19.9378C91.7197 19.8765 91.9367 19.8459 92.1636 19.8459ZM92.8483 21.704L92.3327 21.7237C91.8975 21.7412 91.5953 21.8113 91.4255 21.9338C91.26 22.0563 91.1779 22.2293 91.1779 22.4525C91.1779 22.6495 91.2367 22.7939 91.3538 22.8859C91.4758 22.9777 91.6296 23.0237 91.8172 23.0237C92.1127 23.0237 92.3591 22.9427 92.5546 22.7808C92.7508 22.6145 92.8483 22.3606 92.8483 22.0192V21.704ZM96.5655 19.905H97.192L95.6975 21.5989L97.3164 23.4243H96.6501L95.071 21.6384V23.4243H94.4966V19.905H95.071V21.6121L96.5655 19.905ZM101.404 24.6455H100.843V23.4243H97.9508V19.905H98.5258V22.9384H100.334V19.905H100.908V22.9449H101.404V24.6455ZM102.617 19.905V22.052C102.617 22.1045 102.615 22.1833 102.61 22.2883C102.606 22.3934 102.6 22.4985 102.591 22.6035C102.586 22.7086 102.582 22.7917 102.578 22.853L104.451 19.905H105.156V23.4243H104.621V21.3495C104.621 21.2795 104.621 21.1875 104.621 21.0737C104.625 20.9599 104.629 20.8483 104.634 20.7389C104.638 20.625 104.642 20.5397 104.647 20.4828L102.787 23.4243H102.075V19.905H102.617ZM109.31 21.6581C109.31 22.2402 109.163 22.6911 108.866 23.0106C108.575 23.3301 108.179 23.4899 107.679 23.4899C107.37 23.4899 107.094 23.4199 106.85 23.2798C106.611 23.1353 106.421 22.9274 106.282 22.6561C106.144 22.3803 106.073 22.0477 106.073 21.6581C106.073 21.0759 106.219 20.6272 106.511 20.312C106.802 19.997 107.198 19.8394 107.698 19.8394C108.016 19.8394 108.295 19.9116 108.534 20.056C108.778 20.1961 108.967 20.4018 109.102 20.6732C109.241 20.9402 109.31 21.2685 109.31 21.6581ZM106.667 21.6581C106.667 22.0739 106.748 22.4043 106.909 22.6495C107.074 22.8902 107.335 23.0106 107.692 23.0106C108.044 23.0106 108.304 22.8902 108.469 22.6495C108.634 22.4043 108.717 22.0739 108.717 21.6581C108.717 21.2422 108.634 20.9162 108.469 20.6798C108.304 20.4434 108.043 20.3252 107.685 20.3252C107.328 20.3252 107.07 20.4434 106.909 20.6798C106.748 20.9162 106.667 21.2422 106.667 21.6581ZM110.796 19.905V21.3691H112.695V19.905H113.269V23.4243H112.695V21.855H110.796V23.4243H110.221V19.905H110.796ZM115.728 19.8394C116.028 19.8394 116.285 19.905 116.498 20.0363C116.716 20.1676 116.881 20.3537 116.994 20.5944C117.111 20.8307 117.17 21.1087 117.17 21.4282V21.7762H114.774C114.784 22.1745 114.884 22.4788 115.075 22.6888C115.271 22.8946 115.543 22.9975 115.891 22.9975C116.113 22.9975 116.309 22.9777 116.479 22.9384C116.652 22.8946 116.831 22.8333 117.013 22.7545V23.2601C116.835 23.3389 116.659 23.3958 116.485 23.4308C116.311 23.4702 116.104 23.4899 115.865 23.4899C115.535 23.4899 115.24 23.422 114.984 23.2863C114.732 23.1506 114.533 22.9493 114.39 22.6823C114.25 22.4109 114.181 22.0804 114.181 21.6909C114.181 21.3057 114.244 20.9752 114.371 20.6994C114.5 20.4237 114.681 20.2114 114.912 20.0625C115.147 19.9138 115.419 19.8394 115.728 19.8394ZM115.722 20.312C115.447 20.312 115.229 20.4018 115.069 20.5813C114.912 20.7563 114.818 21.0015 114.788 21.3166H116.569C116.566 21.019 116.496 20.7782 116.361 20.5944C116.226 20.4062 116.013 20.312 115.722 20.312ZM119.725 19.8394C120.156 19.8394 120.502 19.9904 120.763 20.2924C121.028 20.5944 121.161 21.0496 121.161 21.6581C121.161 22.2577 121.028 22.713 120.763 23.0237C120.502 23.3345 120.154 23.4899 119.718 23.4899C119.449 23.4899 119.225 23.4396 119.046 23.3389C118.872 23.2338 118.735 23.1135 118.635 22.9777H118.596C118.604 23.0521 118.614 23.1463 118.622 23.2601C118.631 23.3739 118.635 23.4724 118.635 23.5555V25H118.061V19.905H118.53L118.609 20.3843H118.635C118.739 20.2311 118.877 20.102 119.046 19.997C119.216 19.8919 119.442 19.8394 119.725 19.8394ZM119.621 20.3252C119.264 20.3252 119.012 20.4259 118.863 20.6272C118.72 20.8286 118.644 21.135 118.635 21.5464V21.6581C118.635 22.0914 118.705 22.4263 118.844 22.6626C118.988 22.8946 119.251 23.0106 119.633 23.0106C119.847 23.0106 120.021 22.9515 120.156 22.8333C120.295 22.7151 120.397 22.5554 120.462 22.3541C120.532 22.1483 120.567 21.9141 120.567 21.6515C120.567 21.2488 120.489 20.9271 120.332 20.6863C120.18 20.4456 119.943 20.3252 119.621 20.3252ZM122.651 19.905V21.3691H124.55V19.905H125.124V23.4243H124.55V21.855H122.651V23.4243H122.076V19.905H122.651ZM127.557 19.8459C127.983 19.8459 128.299 19.94 128.504 20.1283C128.708 20.3164 128.81 20.6163 128.81 21.0277V23.4243H128.393L128.282 22.9252H128.255C128.103 23.1179 127.942 23.2601 127.772 23.352C127.607 23.4439 127.376 23.4899 127.081 23.4899C126.763 23.4899 126.5 23.4067 126.291 23.2404C126.082 23.0697 125.978 22.8049 125.978 22.4459C125.978 22.0958 126.115 21.8265 126.389 21.6384C126.663 21.4457 127.085 21.3407 127.655 21.3232L128.249 21.3035V21.0934C128.249 20.8001 128.186 20.5966 128.059 20.4828C127.933 20.3689 127.755 20.312 127.525 20.312C127.342 20.312 127.167 20.3405 127.003 20.3974C126.836 20.4499 126.683 20.5113 126.539 20.5813L126.363 20.148C126.515 20.0648 126.696 19.9948 126.904 19.9378C127.113 19.8765 127.33 19.8459 127.557 19.8459ZM128.243 21.704L127.727 21.7237C127.291 21.7412 126.989 21.8113 126.819 21.9338C126.654 22.0563 126.572 22.2293 126.572 22.4525C126.572 22.6495 126.63 22.7939 126.748 22.8859C126.869 22.9777 127.024 23.0237 127.212 23.0237C127.506 23.0237 127.753 22.9427 127.949 22.7808C128.145 22.6145 128.243 22.3606 128.243 22.0192V21.704ZM130.106 23.4243H129.44L130.438 21.9469C130.304 21.9119 130.174 21.8572 130.047 21.7828C129.921 21.704 129.819 21.5968 129.74 21.4611C129.662 21.321 129.623 21.1481 129.623 20.9424C129.623 20.6054 129.736 20.3493 129.962 20.1742C130.189 19.9948 130.489 19.905 130.863 19.905H132.429V23.4243H131.855V22.0257H131.007L130.106 23.4243ZM130.178 20.949C130.178 21.1503 130.251 21.3013 130.4 21.402C130.552 21.4983 130.763 21.5464 131.032 21.5464H131.855V20.3843H130.921C130.657 20.3843 130.465 20.4368 130.348 20.5419C130.234 20.6469 130.178 20.7826 130.178 20.949ZM137.3 19.905H137.927L136.432 21.5989L138.051 23.4243H137.385L135.806 21.6384V23.4243H135.231V19.905H135.806V21.6121L137.3 19.905ZM141.6 21.6581C141.6 22.2402 141.453 22.6911 141.157 23.0106C140.865 23.3301 140.469 23.4899 139.969 23.4899C139.66 23.4899 139.384 23.4199 139.14 23.2798C138.901 23.1353 138.712 22.9274 138.572 22.6561C138.432 22.3803 138.363 22.0477 138.363 21.6581C138.363 21.0759 138.509 20.6272 138.801 20.312C139.092 19.997 139.488 19.8394 139.988 19.8394C140.306 19.8394 140.585 19.9116 140.824 20.056C141.068 20.1961 141.256 20.4018 141.392 20.6732C141.531 20.9402 141.6 21.2685 141.6 21.6581ZM138.957 21.6581C138.957 22.0739 139.037 22.4043 139.199 22.6495C139.364 22.8902 139.625 23.0106 139.982 23.0106C140.335 23.0106 140.593 22.8902 140.758 22.6495C140.924 22.4043 141.006 22.0739 141.006 21.6581C141.006 21.2422 140.924 20.9162 140.758 20.6798C140.593 20.4434 140.331 20.3252 139.975 20.3252C139.619 20.3252 139.359 20.4434 139.199 20.6798C139.037 20.9162 138.957 21.2422 138.957 21.6581ZM146.264 19.905V23.4243H145.749V21.1787C145.749 21.0868 145.75 20.9905 145.755 20.8899C145.763 20.7892 145.772 20.6907 145.781 20.5944H145.761L144.619 23.4243H144.136L143.027 20.5944H143.007C143.02 20.7914 143.027 20.9927 143.027 21.1985V23.4243H142.511V19.905H143.274L144.378 22.7348L145.5 19.905H146.264ZM150.337 19.905V23.4243H149.763V20.3974H147.955V23.4243H147.38V19.905H150.337ZM152.778 19.8459C153.205 19.8459 153.521 19.94 153.724 20.1283C153.929 20.3164 154.031 20.6163 154.031 21.0277V23.4243H153.613L153.502 22.9252H153.477C153.325 23.1179 153.163 23.2601 152.994 23.352C152.829 23.4439 152.598 23.4899 152.301 23.4899C151.985 23.4899 151.72 23.4067 151.512 23.2404C151.303 23.0697 151.199 22.8049 151.199 22.4459C151.199 22.0958 151.335 21.8265 151.61 21.6384C151.884 21.4457 152.306 21.3407 152.876 21.3232L153.47 21.3035V21.0934C153.47 20.8001 153.407 20.5966 153.28 20.4828C153.155 20.3689 152.976 20.312 152.745 20.312C152.563 20.312 152.388 20.3405 152.224 20.3974C152.058 20.4499 151.904 20.5113 151.76 20.5813L151.584 20.148C151.736 20.0648 151.916 19.9948 152.126 19.9378C152.334 19.8765 152.552 19.8459 152.778 19.8459ZM153.464 21.704L152.948 21.7237C152.513 21.7412 152.21 21.8113 152.041 21.9338C151.875 22.0563 151.793 22.2293 151.793 22.4525C151.793 22.6495 151.852 22.7939 151.969 22.8859C152.091 22.9777 152.245 23.0237 152.432 23.0237C152.728 23.0237 152.974 22.9427 153.169 22.7808C153.366 22.6145 153.464 22.3606 153.464 22.0192V21.704ZM155.686 19.905V21.3691H157.585V19.905H158.16V23.4243H157.585V21.855H155.686V23.4243H155.112V19.905H155.686ZM159.809 19.905V22.052C159.809 22.1045 159.807 22.1833 159.803 22.2883C159.799 22.3934 159.792 22.4985 159.784 22.6035C159.779 22.7086 159.774 22.7917 159.77 22.853L161.643 19.905H162.348V23.4243H161.813V21.3495C161.813 21.2795 161.813 21.1875 161.813 21.0737C161.818 20.9599 161.822 20.8483 161.826 20.7389C161.83 20.625 161.835 20.5397 161.839 20.4828L159.979 23.4243H159.268V19.905H159.809ZM163.677 23.4243H163.011L164.01 21.9469C163.875 21.9119 163.745 21.8572 163.618 21.7828C163.492 21.704 163.39 21.5968 163.311 21.4611C163.233 21.321 163.194 21.1481 163.194 20.9424C163.194 20.6054 163.307 20.3493 163.533 20.1742C163.76 19.9948 164.06 19.905 164.434 19.905H166V23.4243H165.426V22.0257H164.577L163.677 23.4243ZM163.749 20.949C163.749 21.1503 163.823 21.3013 163.97 21.402C164.123 21.4983 164.334 21.5464 164.604 21.5464H165.426V20.3843H164.493C164.228 20.3843 164.036 20.4368 163.918 20.5419C163.805 20.6469 163.749 20.7826 163.749 20.949Z" fill="#525A65"/>
<path d="M33.4053 15.3784H166" stroke="#525A65"/>
<path d="M23.9251 0H0V24.8812H23.9251V0Z" fill="#525A65"/>
<path d="M8.57715 21.7143V21.0485C9.54065 21.0485 10.1027 20.8372 10.2633 20.4144V4.46644C10.1027 4.0437 9.54065 3.83237 8.57715 3.83237V3.1665H15.3484V3.83237C14.3849 3.83237 13.8229 4.0437 13.6623 4.46644V20.4144C13.8229 20.8372 14.3849 21.0485 15.3484 21.0485V21.7143H8.57715Z" fill="white"/>
</svg>
