<svg width="208" height="32" viewBox="0 0 208 32" fill="none" xmlns="http://www.w3.org/2000/svg">
<path d="M41.8569 15.5926V15.0832C42.6405 15.0832 43.0976 14.9215 43.2282 14.598V2.39546C43.0976 2.07197 42.6405 1.9103 41.8569 1.9103V1.40088H47.3639V1.9103C46.5803 1.9103 46.1232 2.07197 45.9926 2.39546V14.598C46.1232 14.9215 46.5803 15.0832 47.3639 15.0832V15.5926H41.8569Z" fill="white"/>
<path d="M48.9355 15.5926V15.0832C49.7192 15.0832 50.1762 14.9215 50.3068 14.598V2.39546C50.1762 2.07197 49.7192 1.9103 48.9355 1.9103V1.40088H52.8753L57.5115 12.6816L62.1479 1.40088H66.1312V1.9103C65.3477 1.9103 64.8907 2.07197 64.7601 2.39546V14.598C64.8907 14.9215 65.3477 15.0832 66.1312 15.0832V15.5926H60.6241V15.0832C61.4081 15.0832 61.8651 14.9215 61.9958 14.598V3.70553L57.1201 15.5926H56.0316L51.047 3.5599V14.598C51.1775 14.9215 51.6346 15.0832 52.4182 15.0832V15.5926H48.9355Z" fill="white"/>
<path d="M67.7051 15.5926V15.0832C68.4885 15.0832 68.9455 14.9215 69.0761 14.598V2.39546C68.9455 2.07197 68.4885 1.9103 67.7051 1.9103V1.40088H73.4949C75.28 1.40088 76.6364 1.78088 77.5653 2.541C78.5085 3.30113 78.9801 4.1503 78.9801 5.08829C78.9801 6.30125 78.5446 7.27969 77.6744 8.0237C76.8033 8.76762 75.4977 9.13963 73.7562 9.13963H71.8409V14.598C71.9711 14.9215 72.4287 15.0832 73.2121 15.0832V15.5926H67.7051ZM71.8409 2.22565V8.31479H72.9943C74.112 8.31479 74.8953 8.07221 75.345 7.58698C75.8094 7.08571 76.0419 6.26079 76.0419 5.11255C76.0419 3.18798 74.939 2.22565 72.7329 2.22565H71.8409Z" fill="white"/>
<path d="M85.4549 15.5926V15.0832C86.1224 15.0832 86.5433 14.9862 86.7176 14.792L85.4987 11.0804H81.3187L80.1873 14.6466C80.3325 14.9377 80.7826 15.0832 81.5369 15.0832V15.5926H77.9668V15.0832C78.7648 15.0832 79.2219 14.9133 79.3378 14.5737L83.5616 1.40088H85.3243L89.5903 14.5737C89.6917 14.9133 90.1564 15.0832 90.9836 15.0832V15.5926H85.4549ZM83.3872 4.62739L81.5807 10.2798H85.2375L83.3872 4.62739Z" fill="white"/>
<path d="M97.8797 1.98302C96.6607 1.98302 95.7175 2.54095 95.05 3.65696C94.3964 4.77289 94.0699 6.27694 94.0699 8.16919C94.0699 10.3687 94.4263 12.0588 95.1368 13.2394C95.8481 14.42 96.7913 15.0104 97.9672 15.0104C98.6777 15.0104 99.3229 14.7435 99.9044 14.2097C100.499 13.6599 100.905 13.0534 101.123 12.3903L102.015 12.6815C101.682 13.571 101.152 14.323 100.426 14.9376C99.7154 15.536 98.7499 15.8351 97.5317 15.8351C95.5869 15.8351 94.0193 15.1317 92.8295 13.7246C91.6397 12.3176 91.0444 10.6437 91.0444 8.70293C91.0444 6.45488 91.7265 4.6354 93.0914 3.2445C94.4548 1.85368 96.0439 1.1582 97.8574 1.1582C98.2783 1.1582 98.8014 1.27951 99.4251 1.52205C100.049 1.76471 100.404 1.88599 100.492 1.88599C100.666 1.88599 100.752 1.72425 100.752 1.40083H101.253L101.427 4.8214H100.949C100.862 4.15831 100.484 3.51947 99.8168 2.90489C99.1493 2.29031 98.5034 1.98302 97.8797 1.98302Z" fill="white"/>
<path d="M102.767 1.40088H114.02V3.75404H113.563C113.563 2.97772 113.309 2.46823 112.801 2.22565H109.776V14.598C109.906 14.9215 110.364 15.0832 111.147 15.0832V15.5926H105.641V15.0832C106.424 15.0832 106.881 14.9215 107.012 14.598V2.22565H103.986C103.478 2.46823 103.224 2.97772 103.224 3.75404H102.767V1.40088Z" fill="white"/>
<path d="M168.366 0.579102H180.076V3.048H179.601C179.601 2.23349 179.336 1.69896 178.808 1.4445H175.659V14.4252C175.795 14.7647 176.271 14.9343 177.086 14.9343V15.4688H171.355V14.9343C172.172 14.9343 172.646 14.7647 172.783 14.4252V1.4445H169.634C169.105 1.69896 168.842 2.23349 168.842 3.048H168.366V0.579102Z" fill="white"/>
<path d="M160.708 15.4688V14.9343C161.542 14.9343 162.028 14.7647 162.167 14.4252V1.62266C162.028 1.28329 161.542 1.11357 160.708 1.11357V0.579102H166.564V1.11357C165.731 1.11357 165.245 1.28329 165.106 1.62266V14.4252C165.245 14.7647 165.731 14.9343 166.564 14.9343V15.4688H160.708Z" fill="white"/>
<path d="M147.197 15.4688V14.9343C148.011 14.9343 148.486 14.7647 148.621 14.4252V1.62266C148.486 1.28329 148.011 1.11357 147.197 1.11357V0.579102H153.211C155.065 0.579102 156.473 0.977842 157.438 1.77533C158.418 2.57294 158.908 3.46374 158.908 4.4479C158.908 5.72048 158.456 6.74713 157.551 7.5276C156.647 8.30822 155.291 8.69846 153.482 8.69846H151.492V14.4252C151.628 14.7647 152.103 14.9343 152.917 14.9343V15.4688H147.197ZM151.492 1.4445V7.83309H152.691C153.851 7.83309 154.665 7.57854 155.132 7.06944C155.615 6.54344 155.856 5.67807 155.856 4.47333C155.856 2.45415 154.711 1.4445 152.42 1.4445H151.492Z" fill="white"/>
<path d="M139.466 15.4688V14.9343C140.181 14.9343 140.633 14.8324 140.82 14.6288L139.512 10.7346H135.029L133.815 14.4762C133.971 14.7816 134.454 14.9343 135.263 14.9343V15.4688H131.434V14.9343C132.289 14.9343 132.78 14.7561 132.904 14.3999L137.434 0.579102H139.325L143.901 14.3999C144.01 14.7561 144.509 14.9343 145.396 14.9343V15.4688H139.466ZM137.247 3.96423L135.309 9.89467H139.232L137.247 3.96423Z" fill="white"/>
<path d="M189.009 15.4688V14.9343C189.725 14.9343 190.176 14.8324 190.363 14.6288L189.055 10.7346H184.572L183.359 14.4762C183.514 14.7816 183.996 14.9343 184.806 14.9343V15.4688H180.977V14.9343C181.833 14.9343 182.323 14.7561 182.448 14.3999L186.977 0.579102H188.869L193.445 14.3999C193.554 14.7561 194.051 14.9343 194.939 14.9343V15.4688H189.009ZM186.791 3.96423L184.852 9.89467H188.775L186.791 3.96423Z" fill="white"/>
<path d="M127.178 1.41572C125.929 1.41572 124.962 1.98168 124.278 3.11349C123.609 4.24538 123.274 5.77095 123.274 7.6902C123.274 9.92112 123.638 11.6353 124.367 12.8328C125.096 14.0304 126.063 14.6291 127.267 14.6291C127.996 14.6291 128.658 14.3584 129.252 13.817C129.862 13.2594 130.278 12.6442 130.502 11.9716L131.416 12.2669C131.074 13.1691 130.531 13.9319 129.788 14.5553C129.059 15.1622 128.07 15.4657 126.82 15.4657C124.828 15.4657 123.222 14.7521 122.003 13.325C120.783 11.8978 120.173 10.2 120.173 8.23162C120.173 5.9514 120.872 4.10594 122.27 2.69524C123.668 1.28451 125.297 0.579102 127.155 0.579102C127.587 0.579102 128.122 0.70215 128.761 0.948193C129.401 1.19423 129.765 1.31728 129.855 1.31728C130.033 1.31728 130.122 1.15323 130.122 0.825199H130.635L130.814 4.2946H130.323C130.234 3.62212 129.847 2.97405 129.163 2.35071C128.479 1.72744 127.817 1.41572 127.178 1.41572Z" fill="white"/>
<path d="M206.037 14.9137L207.257 12.4807H207.624V15.4685H196.953V15.2125L198.213 14.8283V1.34026L196.953 0.870758V0.529297H202.976V0.870758L201.718 1.34026V14.9137H206.037Z" fill="white"/>
<path d="M42.9756 23.9824H43.6626V27.2768C43.6626 27.4617 43.6598 27.669 43.6543 27.8987C43.6489 28.1284 43.6408 28.3385 43.6298 28.529C43.6243 28.7195 43.6162 28.8596 43.6053 28.9492H43.638L46.852 23.9824H47.6698V29.983H46.9829V26.7221C46.9829 26.5148 46.9856 26.2935 46.9911 26.0582C47.002 25.8229 47.0129 25.6071 47.0237 25.4111C47.0346 25.2149 47.0429 25.075 47.0483 24.9909H47.0156L43.7934 29.983H42.9756V23.9824ZM49.8664 25.4783V27.3524H52.2461V25.4783H52.9658V29.983H52.2461V27.9744H49.8664V29.983H49.1467V25.4783H49.8664ZM57.8788 26.6129C57.8788 26.893 57.7968 27.1116 57.6334 27.2684C57.4699 27.4253 57.2601 27.5318 57.0038 27.5877V27.6214C57.2759 27.6606 57.5135 27.7614 57.7148 27.9239C57.9167 28.0808 58.0174 28.3274 58.0174 28.6634C58.0174 29.0445 57.8788 29.361 57.6006 29.6132C57.3279 29.8597 56.8754 29.983 56.243 29.983H54.3538V25.4783H56.2348C56.5456 25.4783 56.8233 25.5147 57.0689 25.5876C57.32 25.6548 57.5163 25.7725 57.6577 25.9406C57.8053 26.103 57.8788 26.3272 57.8788 26.6129ZM57.1508 26.7054C57.1508 26.4925 57.0745 26.3383 56.9218 26.2431C56.7747 26.1423 56.5319 26.0918 56.194 26.0918H55.0735V27.3272H56.0631C56.7883 27.3272 57.1508 27.1199 57.1508 26.7054ZM57.2736 28.6634C57.2736 28.4058 57.178 28.2209 56.9874 28.1088C56.7962 27.9967 56.5156 27.9407 56.1448 27.9407H55.0735V29.3862H56.1612C56.521 29.3862 56.7962 29.333 56.9874 29.2265C57.178 29.1145 57.2736 28.9268 57.2736 28.6634ZM60.7585 25.3943C61.1352 25.3943 61.4565 25.4783 61.724 25.6464C61.996 25.8145 62.2037 26.0526 62.3451 26.3608C62.4927 26.6633 62.5663 27.0191 62.5663 27.428V27.8735H59.565C59.5757 28.3833 59.7013 28.7728 59.9412 29.0416C60.186 29.305 60.5271 29.4367 60.9633 29.4367C61.2415 29.4367 61.4864 29.4114 61.6991 29.361C61.9175 29.305 62.1409 29.2265 62.3699 29.1257V29.7728C62.1465 29.8737 61.9254 29.9465 61.7076 29.9913C61.4893 30.0418 61.2302 30.0669 60.9304 30.0669C60.5159 30.0669 60.1482 29.9801 59.8263 29.8064C59.5101 29.6327 59.2624 29.375 59.0825 29.0333C58.9077 28.6859 58.8206 28.2629 58.8206 27.7643C58.8206 27.2712 58.8998 26.8482 59.0576 26.4952C59.2211 26.1423 59.4474 25.8705 59.7364 25.68C60.0311 25.4895 60.3716 25.3943 60.7585 25.3943ZM60.7506 25.9993C60.4072 25.9993 60.1346 26.1143 59.9326 26.3439C59.7364 26.568 59.6193 26.8818 59.5809 27.2852H61.8139C61.8083 26.9042 61.7212 26.5961 61.5521 26.3608C61.3829 26.1198 61.116 25.9993 60.7506 25.9993ZM65.4402 30.0669C65.0533 30.0669 64.7072 29.9857 64.4017 29.8233C64.1019 29.6607 63.865 29.4086 63.6901 29.0669C63.521 28.7251 63.4367 28.2881 63.4367 27.7559C63.4367 27.2012 63.5267 26.7501 63.7066 26.4028C63.8864 26.0554 64.1291 25.8005 64.4345 25.638C64.745 25.4755 65.0969 25.3943 65.4894 25.3943C65.7128 25.3943 65.9284 25.4195 66.1354 25.47C66.343 25.5147 66.5115 25.5708 66.6428 25.638L66.4215 26.2514C66.2909 26.2011 66.1382 26.1535 65.964 26.1086C65.7892 26.0638 65.6257 26.0414 65.473 26.0414C64.6115 26.0414 64.1811 26.6101 64.1811 27.7474C64.1811 28.2909 64.2846 28.7083 64.4916 28.9997C64.7043 29.2854 65.0177 29.4283 65.4323 29.4283C65.6721 29.4283 65.882 29.4031 66.0618 29.3526C66.2473 29.3022 66.4165 29.2405 66.5692 29.1678V29.8233C66.4215 29.9017 66.2581 29.9605 66.0782 29.9997C65.904 30.0446 65.6913 30.0669 65.4402 30.0669ZM70.6372 26.1003H69.2062V29.983H68.4946V26.1003H67.08V25.4783H70.6372V26.1003ZM72.1797 25.4783V28.2265C72.1797 28.2937 72.1768 28.3946 72.1712 28.529C72.1662 28.6634 72.1576 28.7979 72.1469 28.9325C72.1413 29.0669 72.1361 29.1733 72.1305 29.2518L74.4779 25.4783H75.3608V29.983H74.6906V27.3272C74.6906 27.2376 74.6906 27.1199 74.6906 26.9742C74.6956 26.8285 74.7013 26.6857 74.7064 26.5457C74.7121 26.4 74.7177 26.2907 74.7228 26.2179L72.3924 29.983H71.5009V25.4783H72.1797ZM81.0823 31.5461H80.3787V29.983H76.7557V25.4783H77.4754V29.361H79.7412V25.4783H80.4609V29.3694H81.0823V31.5461ZM82.6024 25.4783V28.2265C82.6024 28.2937 82.5993 28.3946 82.5939 28.529C82.5885 28.6634 82.5801 28.7979 82.5693 28.9325C82.564 29.0669 82.5586 29.1733 82.5532 29.2518L84.9005 25.4783H85.783V29.983H85.1133V27.3272C85.1133 27.2376 85.1133 27.1199 85.1133 26.9742C85.1179 26.8285 85.124 26.6857 85.1294 26.5457C85.1348 26.4 85.1401 26.2907 85.1447 26.2179L82.8144 29.983H81.9234V25.4783H82.6024ZM90.9891 27.7222C90.9891 28.4674 90.804 29.0445 90.433 29.4535C90.0674 29.8625 89.572 30.0669 88.9453 30.0669C88.5574 30.0669 88.2117 29.9773 87.906 29.7981C87.6065 29.6132 87.3691 29.347 87.1948 28.9997C87.0204 28.6467 86.9329 28.2209 86.9329 27.7222C86.9329 26.9771 87.1157 26.4028 87.4805 25.9993C87.8461 25.596 88.3423 25.3943 88.9691 25.3943C89.3677 25.3943 89.7156 25.4867 90.016 25.6716C90.3209 25.8509 90.559 26.1143 90.728 26.4616C90.9024 26.8033 90.9891 27.2236 90.9891 27.7222ZM87.6771 27.7222C87.6771 28.2545 87.7778 28.6774 87.9798 28.9912C88.1871 29.2994 88.5144 29.4535 88.9606 29.4535C89.4023 29.4535 89.7272 29.2994 89.9346 28.9912C90.1412 28.6774 90.2449 28.2545 90.2449 27.7222C90.2449 27.19 90.1412 26.7726 89.9346 26.47C89.7272 26.1675 89.4 26.0162 88.9529 26.0162C88.5059 26.0162 88.1818 26.1675 87.9798 26.47C87.7778 26.7726 87.6771 27.19 87.6771 27.7222ZM92.8495 25.4783V27.3524H95.229V25.4783H95.9495V29.983H95.229V27.9744H92.8495V29.983H92.1298V25.4783H92.8495ZM98.0571 25.4783V27.3524H100.437V25.4783H101.156V29.983H100.437V27.9744H98.0571V29.983H97.3374V25.4783H98.0571ZM104.205 25.4027C104.74 25.4027 105.134 25.5232 105.39 25.7641C105.647 26.005 105.775 26.3888 105.775 26.9154V29.983H105.251L105.113 29.3442H105.08C104.889 29.5908 104.687 29.7728 104.475 29.8905C104.267 30.0082 103.978 30.0669 103.607 30.0669C103.209 30.0669 102.879 29.9605 102.618 29.7476C102.356 29.5291 102.226 29.1901 102.226 28.7307C102.226 28.2825 102.397 27.9379 102.741 27.697C103.084 27.4505 103.613 27.316 104.327 27.2936L105.071 27.2684V26.9995C105.071 26.6241 104.992 26.3636 104.834 26.2179C104.676 26.0722 104.453 25.9993 104.163 25.9993C103.935 25.9993 103.716 26.0358 103.51 26.1086C103.302 26.1759 103.108 26.2543 102.928 26.3439L102.708 25.7893C102.899 25.6829 103.125 25.5932 103.387 25.5204C103.649 25.4419 103.921 25.4027 104.205 25.4027ZM105.064 27.781L104.418 27.8063C103.872 27.8287 103.493 27.9183 103.28 28.0752C103.073 28.232 102.969 28.4534 102.969 28.7392C102.969 28.9912 103.044 29.1761 103.19 29.2938C103.342 29.4114 103.537 29.4703 103.771 29.4703C104.142 29.4703 104.45 29.3666 104.695 29.1593C104.941 28.9465 105.064 28.6215 105.064 28.1845V27.781ZM107.399 29.983H106.564L107.816 28.092C107.647 28.0472 107.482 27.9772 107.325 27.882C107.167 27.781 107.039 27.6438 106.941 27.4701C106.843 27.2908 106.793 27.0695 106.793 26.8062C106.793 26.3748 106.935 26.047 107.219 25.8229C107.502 25.5932 107.879 25.4783 108.347 25.4783H110.31V29.983H109.591V28.1928H108.527L107.399 29.983ZM107.488 26.8146C107.488 27.0723 107.581 27.2656 107.767 27.3945C107.957 27.5178 108.222 27.5794 108.56 27.5794H109.591V26.0918H108.421C108.088 26.0918 107.849 26.159 107.701 26.2935C107.559 26.428 107.488 26.6017 107.488 26.8146ZM115.482 25.4027C116.016 25.4027 116.411 25.5232 116.667 25.7641C116.924 26.005 117.052 26.3888 117.052 26.9154V29.983H116.529L116.389 29.3442H116.357C116.166 29.5908 115.964 29.7728 115.752 29.8905C115.544 30.0082 115.255 30.0669 114.884 30.0669C114.486 30.0669 114.157 29.9605 113.895 29.7476C113.633 29.5291 113.503 29.1901 113.503 28.7307C113.503 28.2825 113.675 27.9379 114.018 27.697C114.361 27.4505 114.89 27.316 115.604 27.2936L116.348 27.2684V26.9995C116.348 26.6241 116.269 26.3636 116.111 26.2179C115.953 26.0722 115.729 25.9993 115.441 25.9993C115.212 25.9993 114.993 26.0358 114.786 26.1086C114.579 26.1759 114.385 26.2543 114.205 26.3439L113.985 25.7893C114.175 25.6829 114.402 25.5932 114.664 25.5204C114.926 25.4419 115.198 25.4027 115.482 25.4027ZM116.34 27.781L115.694 27.8063C115.149 27.8287 114.77 27.9183 114.557 28.0752C114.35 28.232 114.247 28.4534 114.247 28.7392C114.247 28.9912 114.321 29.1761 114.467 29.2938C114.62 29.4114 114.813 29.4703 115.048 29.4703C115.418 29.4703 115.727 29.3666 115.972 29.1593C116.218 28.9465 116.34 28.6215 116.34 28.1845V27.781ZM120.998 25.4783H121.783L119.91 27.6466L121.939 29.983H121.104L119.125 27.697V29.983H118.405V25.4783H119.125V27.6634L120.998 25.4783ZM127.06 31.5461H126.357V29.983H122.734V25.4783H123.454V29.361H125.719V25.4783H126.439V29.3694H127.06V31.5461ZM128.58 25.4783V28.2265C128.58 28.2937 128.577 28.3946 128.572 28.529C128.566 28.6634 128.559 28.7979 128.547 28.9325C128.542 29.0669 128.536 29.1733 128.531 29.2518L130.878 25.4783H131.762V29.983H131.091V27.3272C131.091 27.2376 131.091 27.1199 131.091 26.9742C131.096 26.8285 131.102 26.6857 131.107 26.5457C131.113 26.4 131.118 26.2907 131.123 26.2179L128.793 29.983H127.901V25.4783H128.58ZM136.967 27.7222C136.967 28.4674 136.782 29.0445 136.411 29.4535C136.046 29.8625 135.55 30.0669 134.923 30.0669C134.536 30.0669 134.19 29.9773 133.885 29.7981C133.584 29.6132 133.347 29.347 133.173 28.9997C132.999 28.6467 132.911 28.2209 132.911 27.7222C132.911 26.9771 133.094 26.4028 133.459 25.9993C133.825 25.596 134.321 25.3943 134.947 25.3943C135.346 25.3943 135.694 25.4867 135.995 25.6716C136.3 25.8509 136.537 26.1143 136.706 26.4616C136.88 26.8033 136.967 27.2236 136.967 27.7222ZM133.655 27.7222C133.655 28.2545 133.756 28.6774 133.958 28.9912C134.165 29.2994 134.492 29.4535 134.939 29.4535C135.381 29.4535 135.706 29.2994 135.912 28.9912C136.12 28.6774 136.224 28.2545 136.224 27.7222C136.224 27.19 136.12 26.7726 135.912 26.47C135.706 26.1675 135.379 26.0162 134.931 26.0162C134.484 26.0162 134.16 26.1675 133.958 26.47C133.756 26.7726 133.655 27.19 133.655 27.7222ZM138.828 25.4783V27.3524H141.208V25.4783H141.927V29.983H141.208V27.9744H138.828V29.983H138.108V25.4783H138.828ZM145.008 25.3943C145.385 25.3943 145.706 25.4783 145.973 25.6464C146.246 25.8145 146.453 26.0526 146.595 26.3608C146.742 26.6633 146.815 27.0191 146.815 27.428V27.8735H143.814C143.825 28.3833 143.951 28.7728 144.19 29.0416C144.436 29.305 144.776 29.4367 145.213 29.4367C145.491 29.4367 145.736 29.4114 145.949 29.361C146.166 29.305 146.391 29.2265 146.619 29.1257V29.7728C146.395 29.8737 146.175 29.9465 145.957 29.9913C145.739 30.0418 145.48 30.0669 145.18 30.0669C144.766 30.0669 144.398 29.9801 144.076 29.8064C143.76 29.6327 143.511 29.375 143.331 29.0333C143.157 28.6859 143.07 28.2629 143.07 27.7643C143.07 27.2712 143.149 26.8482 143.308 26.4952C143.47 26.1423 143.697 25.8705 143.986 25.68C144.28 25.4895 144.621 25.3943 145.008 25.3943ZM145 25.9993C144.656 25.9993 144.384 26.1143 144.182 26.3439C143.986 26.568 143.868 26.8818 143.831 27.2852H146.063C146.058 26.9042 145.971 26.5961 145.802 26.3608C145.633 26.1198 145.365 25.9993 145 25.9993ZM150.017 25.3943C150.557 25.3943 150.99 25.5876 151.317 25.9742C151.65 26.3608 151.817 26.9434 151.817 27.7222C151.817 28.4898 151.65 29.0725 151.317 29.4703C150.99 29.8681 150.555 30.0669 150.008 30.0669C149.671 30.0669 149.39 30.0026 149.166 29.8737C148.948 29.7392 148.776 29.5852 148.651 29.4114H148.602C148.613 29.5067 148.624 29.6272 148.634 29.7728C148.646 29.9185 148.651 30.0446 148.651 30.151V31.9999H147.932V25.4783H148.52L148.618 26.0918H148.651C148.782 25.8957 148.954 25.7305 149.166 25.596C149.379 25.4615 149.663 25.3943 150.017 25.3943ZM149.886 26.0162C149.439 26.0162 149.123 26.145 148.937 26.4028C148.757 26.6605 148.662 27.0527 148.651 27.5794V27.7222C148.651 28.2769 148.739 28.7055 148.912 29.0081C149.093 29.305 149.423 29.4535 149.902 29.4535C150.17 29.4535 150.388 29.3779 150.557 29.2265C150.731 29.0753 150.859 28.8708 150.941 28.6131C151.028 28.3497 151.071 28.05 151.071 27.7138C151.071 27.1984 150.974 26.7866 150.777 26.4784C150.587 26.1703 150.29 26.0162 149.886 26.0162ZM153.683 25.4783V27.3524H156.063V25.4783H156.782V29.983H156.063V27.9744H153.683V29.983H152.963V25.4783H153.683ZM159.831 25.4027C160.365 25.4027 160.76 25.5232 161.017 25.7641C161.272 26.005 161.401 26.3888 161.401 26.9154V29.983H160.878L160.739 29.3442H160.706C160.514 29.5908 160.313 29.7728 160.1 29.8905C159.893 30.0082 159.603 30.0669 159.234 30.0669C158.835 30.0669 158.506 29.9605 158.244 29.7476C157.982 29.5291 157.851 29.1901 157.851 28.7307C157.851 28.2825 158.023 27.9379 158.367 27.697C158.71 27.4505 159.239 27.316 159.954 27.2936L160.698 27.2684V26.9995C160.698 26.6241 160.618 26.3636 160.46 26.2179C160.302 26.0722 160.078 25.9993 159.79 25.9993C159.56 25.9993 159.342 26.0358 159.136 26.1086C158.927 26.1759 158.735 26.2543 158.555 26.3439L158.334 25.7893C158.524 25.6829 158.752 25.5932 159.013 25.5204C159.275 25.4419 159.547 25.4027 159.831 25.4027ZM160.689 27.781L160.044 27.8063C159.497 27.8287 159.119 27.9183 158.906 28.0752C158.699 28.232 158.596 28.4534 158.596 28.7392C158.596 28.9912 158.669 29.1761 158.816 29.2938C158.969 29.4114 159.163 29.4703 159.398 29.4703C159.767 29.4703 160.076 29.3666 160.322 29.1593C160.567 28.9465 160.689 28.6215 160.689 28.1845V27.781ZM163.024 29.983H162.19L163.441 28.092C163.273 28.0472 163.109 27.9772 162.951 27.882C162.793 27.781 162.664 27.6438 162.566 27.4701C162.468 27.2908 162.419 27.0695 162.419 26.8062C162.419 26.3748 162.561 26.047 162.844 25.8229C163.128 25.5932 163.505 25.4783 163.972 25.4783H165.936V29.983H165.216V28.1928H164.153L163.024 29.983ZM163.114 26.8146C163.114 27.0723 163.207 27.2656 163.392 27.3945C163.583 27.5178 163.848 27.5794 164.185 27.5794H165.216V26.0918H164.046C163.714 26.0918 163.474 26.159 163.327 26.2935C163.185 26.428 163.114 26.6017 163.114 26.8146ZM172.039 25.4783H172.825L170.951 27.6466L172.98 29.983H172.146L170.166 27.697V29.983H169.446V25.4783H170.166V27.6634L172.039 25.4783ZM177.427 27.7222C177.427 28.4674 177.242 29.0445 176.871 29.4535C176.506 29.8625 176.009 30.0669 175.382 30.0669C174.995 30.0669 174.65 29.9773 174.344 29.7981C174.044 29.6132 173.808 29.347 173.633 28.9997C173.457 28.6467 173.371 28.2209 173.371 27.7222C173.371 26.9771 173.553 26.4028 173.919 25.9993C174.284 25.596 174.78 25.3943 175.407 25.3943C175.806 25.3943 176.154 25.4867 176.454 25.6716C176.759 25.8509 176.996 26.1143 177.166 26.4616C177.34 26.8033 177.427 27.2236 177.427 27.7222ZM174.115 27.7222C174.115 28.2545 174.216 28.6774 174.418 28.9912C174.625 29.2994 174.952 29.4535 175.399 29.4535C175.841 29.4535 176.165 29.2994 176.372 28.9912C176.58 28.6774 176.683 28.2545 176.683 27.7222C176.683 27.19 176.58 26.7726 176.372 26.47C176.165 26.1675 175.837 26.0162 175.391 26.0162C174.944 26.0162 174.619 26.1675 174.418 26.47C174.216 26.7726 174.115 27.19 174.115 27.7222ZM183.271 25.4783V29.983H182.625V27.1087C182.625 26.9911 182.627 26.8678 182.632 26.7389C182.643 26.6101 182.654 26.484 182.665 26.3608H182.641L181.21 29.983H180.605L179.214 26.3608H179.189C179.206 26.6129 179.214 26.8706 179.214 27.134V29.983H178.568V25.4783H179.525L180.907 29.1005L182.314 25.4783H183.271ZM188.374 25.4783V29.983H187.655V26.1086H185.389V29.983H184.669V25.4783H188.374ZM191.433 25.4027C191.968 25.4027 192.363 25.5232 192.618 25.7641C192.875 26.005 193.003 26.3888 193.003 26.9154V29.983H192.479L192.34 29.3442H192.308C192.117 29.5908 191.915 29.7728 191.703 29.8905C191.496 30.0082 191.206 30.0669 190.835 30.0669C190.438 30.0669 190.107 29.9605 189.846 29.7476C189.584 29.5291 189.454 29.1901 189.454 28.7307C189.454 28.2825 189.625 27.9379 189.969 27.697C190.312 27.4505 190.842 27.316 191.555 27.2936L192.299 27.2684V26.9995C192.299 26.6241 192.221 26.3636 192.062 26.2179C191.905 26.0722 191.681 25.9993 191.392 25.9993C191.163 25.9993 190.945 26.0358 190.738 26.1086C190.531 26.1759 190.337 26.2543 190.157 26.3439L189.936 25.7893C190.127 25.6829 190.353 25.5932 190.615 25.5204C190.876 25.4419 191.15 25.4027 191.433 25.4027ZM192.292 27.781L191.646 27.8063C191.1 27.8287 190.721 27.9183 190.509 28.0752C190.302 28.232 190.198 28.4534 190.198 28.7392C190.198 28.9912 190.272 29.1761 190.418 29.2938C190.571 29.4114 190.765 29.4703 190.999 29.4703C191.37 29.4703 191.678 29.3666 191.923 29.1593C192.169 28.9465 192.292 28.6215 192.292 28.1845V27.781ZM195.077 25.4783V27.3524H197.456V25.4783H198.176V29.983H197.456V27.9744H195.077V29.983H194.357V25.4783H195.077ZM200.242 25.4783V28.2265C200.242 28.2937 200.24 28.3946 200.235 28.529C200.23 28.6634 200.222 28.7979 200.211 28.9325C200.205 29.0669 200.199 29.1733 200.194 29.2518L202.541 25.4783H203.424V29.983H202.753V27.3272C202.753 27.2376 202.753 27.1199 202.753 26.9742C202.759 26.8285 202.765 26.6857 202.77 26.5457C202.775 26.4 202.782 26.2907 202.786 26.2179L200.455 29.983H199.564V25.4783H200.242ZM205.089 29.983H204.255L205.507 28.092C205.337 28.0472 205.174 27.9772 205.015 27.882C204.857 27.781 204.729 27.6438 204.631 27.4701C204.533 27.2908 204.484 27.0695 204.484 26.8062C204.484 26.3748 204.626 26.047 204.909 25.8229C205.193 25.5932 205.569 25.4783 206.038 25.4783H208V29.983H207.281V28.1928H206.217L205.089 29.983ZM205.179 26.8146C205.179 27.0723 205.272 27.2656 205.457 27.3945C205.648 27.5178 205.912 27.5794 206.25 27.5794H207.281V26.0918H206.111C205.779 26.0918 205.539 26.159 205.392 26.2935C205.249 26.428 205.179 26.6017 205.179 26.8146Z" fill="white"/>
<path d="M41.8569 19.6841H208" stroke="white"/>
<path d="M29.9785 0H0V31.8479H29.9785V0Z" fill="white"/>
<path d="M10.7471 27.7944V26.9422C11.9544 26.9422 12.6586 26.6717 12.8599 26.1305V5.71714C12.6586 5.17604 11.9544 4.90553 10.7471 4.90553V4.05322H19.2316V4.90553C18.0243 4.90553 17.3201 5.17604 17.1188 5.71714V26.1305C17.3201 26.6717 18.0243 26.9422 19.2316 26.9422V27.7944H10.7471Z" fill="#525A65"/>
</svg>
