<svg width="1287" height="205" viewBox="0 0 1287 205" fill="none" xmlns="http://www.w3.org/2000/svg">
<path d="M258.887 96.4418V93.2911C263.733 93.2911 266.561 92.2907 267.368 90.2899V14.8161C266.561 12.8153 263.733 11.8154 258.887 11.8154V8.66455H292.948V11.8154C288.101 11.8154 285.274 12.8153 284.466 14.8161V90.2899C285.274 92.2907 288.101 93.2911 292.948 93.2911V96.4418H258.887Z" fill="white"/>
<path d="M302.672 96.4418V93.2911C307.519 93.2911 310.346 92.2907 311.153 90.2899V14.8161C310.346 12.8153 307.519 11.8154 302.672 11.8154V8.66455H327.04L355.715 78.4366L384.392 8.66455H409.028V11.8154C404.183 11.8154 401.356 12.8153 400.548 14.8161V90.2899C401.356 92.2907 404.183 93.2911 409.028 93.2911V96.4418H374.967V93.2911C379.816 93.2911 382.643 92.2907 383.451 90.2899V22.919L353.294 96.4418H346.561L315.731 22.0183V90.2899C316.539 92.2907 319.366 93.2911 324.213 93.2911V96.4418H302.672Z" fill="white"/>
<path d="M418.764 96.4418V93.2911C423.609 93.2911 426.436 92.2907 427.244 90.2899V14.8161C426.436 12.8153 423.609 11.8154 418.764 11.8154V8.66455H454.574C465.615 8.66455 474.005 11.0149 479.75 15.7163C485.584 20.4178 488.501 25.67 488.501 31.4715C488.501 38.9738 485.807 45.0256 480.425 49.6273C475.037 54.2286 466.962 56.5294 456.19 56.5294H444.344V90.2899C445.149 92.2907 447.98 93.2911 452.825 93.2911V96.4418H418.764ZM444.344 13.7659V51.4277H451.478C458.391 51.4277 463.236 49.9274 466.018 46.9262C468.89 43.8258 470.328 38.7236 470.328 31.6216C470.328 19.7179 463.506 13.7659 449.861 13.7659H444.344Z" fill="white"/>
<path d="M528.547 96.4418V93.2911C532.675 93.2911 535.279 92.6909 536.357 91.4902L528.818 68.5333H502.965L495.967 90.5904C496.865 92.3909 499.649 93.2911 504.314 93.2911V96.4418H482.232V93.2911C487.168 93.2911 489.995 92.2403 490.712 90.1398L516.837 8.66455H527.739L554.125 90.1398C554.752 92.2403 557.626 93.2911 562.743 93.2911V96.4418H528.547ZM515.758 28.6209L504.584 63.5816H527.203L515.758 28.6209Z" fill="white"/>
<path d="M605.398 12.2652C597.858 12.2652 592.024 15.716 587.896 22.6186C583.853 29.5207 581.834 38.8234 581.834 50.5272C581.834 64.1315 584.038 74.5847 588.433 81.8871C592.832 89.189 598.666 92.8406 605.939 92.8406C610.334 92.8406 614.324 91.1898 617.921 87.8885C621.598 84.4875 624.111 80.7366 625.46 76.6353L630.975 78.4362C628.914 83.9377 625.636 88.5893 621.146 92.3905C616.752 96.0916 610.78 97.9418 603.246 97.9418C591.217 97.9418 581.521 93.5908 574.162 84.8878C566.803 76.1852 563.121 65.8323 563.121 53.8285C563.121 39.924 567.34 28.6704 575.782 20.0675C584.214 11.4651 594.043 7.16357 605.26 7.16357C607.863 7.16357 611.099 7.9139 614.956 9.41401C618.814 10.9149 621.013 11.665 621.555 11.665C622.628 11.665 623.165 10.6646 623.165 8.66422H626.263L627.341 29.8208H624.381C623.845 25.7195 621.507 21.7682 617.379 17.967C613.251 14.1658 609.255 12.2652 605.398 12.2652Z" fill="white"/>
<path d="M635.627 8.66455H705.23V23.2191H702.403C702.403 18.4175 700.83 15.2662 697.69 13.7659H678.977V90.2899C679.785 92.2907 682.612 93.2911 687.457 93.2911V96.4418H653.399V93.2911C658.245 93.2911 661.072 92.2907 661.879 90.2899V13.7659H643.166C640.021 15.2662 638.454 18.4175 638.454 23.2191H635.627V8.66455Z" fill="white"/>
<path d="M1041.36 3.58154H1113.78V18.8519H1110.84C1110.84 13.8141 1109.21 10.508 1105.94 8.93409H1086.46V89.221C1087.3 91.3206 1090.25 92.3699 1095.29 92.3699V95.676H1059.85V92.3699C1064.9 92.3699 1067.83 91.3206 1068.68 89.221V8.93409H1049.2C1045.93 10.508 1044.3 13.8141 1044.3 18.8519H1041.36V3.58154Z" fill="white"/>
<path d="M994 95.676V92.3699C999.154 92.3699 1002.16 91.3206 1003.02 89.221V10.0361C1002.16 7.93703 999.154 6.88726 994 6.88726V3.58154H1030.22V6.88726C1025.07 6.88726 1022.06 7.93703 1021.2 10.0361V89.221C1022.06 91.3206 1025.07 92.3699 1030.22 92.3699V95.676H994Z" fill="white"/>
<path d="M910.43 95.676V92.3699C915.465 92.3699 918.401 91.3206 919.238 89.221V10.0361C918.401 7.93703 915.465 6.88726 910.43 6.88726V3.58154H947.623C959.091 3.58154 967.804 6.04779 973.771 10.9803C979.828 15.9136 982.859 21.4233 982.859 27.5104C982.859 35.3815 980.066 41.7314 974.469 46.5586C968.878 51.3869 960.488 53.8005 949.3 53.8005H936.996V89.221C937.837 91.3206 940.773 92.3699 945.808 92.3699V95.676H910.43ZM936.996 8.93409V48.4481H944.407C951.585 48.4481 956.621 46.8737 959.509 43.7249C962.493 40.4715 963.984 35.1191 963.984 27.6677C963.984 15.1789 956.901 8.93409 942.73 8.93409H936.996Z" fill="white"/>
<path d="M862.608 95.676V92.3699C867.036 92.3699 869.829 91.7397 870.983 90.4804L862.893 66.3943H835.168L827.657 89.5361C828.621 91.4251 831.609 92.3699 836.612 92.3699V95.676H812.93V92.3699C818.222 92.3699 821.258 91.2678 822.027 89.0642L850.042 3.58154H861.739L890.043 89.0642C890.718 91.2678 893.801 92.3699 899.288 92.3699V95.676H862.608ZM848.888 24.5189L836.902 61.1992H861.164L848.888 24.5189Z" fill="white"/>
<path d="M1169.04 95.676V92.3699C1173.46 92.3699 1176.26 91.7397 1177.41 90.4804L1169.32 66.3943H1141.6L1134.09 89.5361C1135.05 91.4251 1138.03 92.3699 1143.04 92.3699V95.676H1119.36V92.3699C1124.65 92.3699 1127.68 91.2678 1128.46 89.0642L1156.47 3.58154H1168.17L1196.47 89.0642C1197.15 91.2678 1200.22 92.3699 1205.72 92.3699V95.676H1169.04ZM1155.32 24.5189L1143.32 61.1992H1167.59L1155.32 24.5189Z" fill="white"/>
<path d="M786.609 8.75613C778.884 8.75613 772.908 12.2566 768.675 19.257C764.537 26.2578 762.466 35.6936 762.466 47.5644C762.466 61.3628 764.718 71.965 769.226 79.3719C773.734 86.7789 779.716 90.4818 787.16 90.4818C791.668 90.4818 795.763 88.8077 799.44 85.4595C803.213 82.0101 805.787 78.205 807.17 74.0452L812.823 75.8717C810.709 81.4521 807.35 86.17 802.757 90.0254C798.243 93.7792 792.129 95.6566 784.4 95.6566C772.076 95.6566 762.143 91.2431 754.603 82.4162C747.059 73.5888 743.287 63.0877 743.287 50.9131C743.287 36.8097 747.61 25.3954 756.257 16.6701C764.903 7.94453 774.979 3.58154 786.471 3.58154C789.141 3.58154 792.452 4.34261 796.405 5.86441C800.362 7.38616 802.614 8.14723 803.17 8.14723C804.272 8.14723 804.823 7.1326 804.823 5.10368H807.997L809.099 26.5623H806.063C805.512 22.4029 803.122 18.3945 798.889 14.5391C794.661 10.6841 790.566 8.75613 786.609 8.75613Z" fill="white"/>
<path d="M1274.36 92.2426L1281.9 77.194H1284.18V95.6741H1218.17V94.0905L1225.96 91.7141V8.28933L1218.17 5.38541V3.27344H1255.43V5.38541L1247.64 8.28933V92.2426H1274.36Z" fill="white"/>
<path d="M258.887 121.748H1286.5" stroke="white" stroke-width="4"/>
<path d="M185.42 0H0V196.982H185.42V0Z" fill="white"/>
<path d="M66.4717 171.911V166.64C73.9388 166.64 78.2948 164.966 79.5395 161.619V35.3608C78.2948 32.0141 73.9388 30.3409 66.4717 30.3409V25.0693H118.949V30.3409C111.482 30.3409 107.126 32.0141 105.882 35.3608V161.619C107.126 164.966 111.482 166.64 118.949 166.64V171.911H66.4717Z" fill="#525A64"/>
<path d="M278.966 188H261.68V184.516L267.308 183.243V144.986L261.68 143.646V140.162H278.966V143.646L273.338 144.986V183.243L278.966 184.516V188ZM304.685 151.418C308.973 151.418 312.211 152.468 314.4 154.567C316.589 156.622 317.683 159.972 317.683 164.617V188H311.854V165.019C311.854 159.257 309.174 156.376 303.814 156.376C299.839 156.376 297.092 157.493 295.573 159.726C294.054 161.959 293.295 165.175 293.295 169.374V188H287.399V152.088H292.156L293.027 156.979H293.362C294.523 155.103 296.131 153.718 298.186 152.825C300.241 151.887 302.407 151.418 304.685 151.418ZM336.722 188L323.121 152.088H329.419L337.057 173.26C337.414 174.243 337.794 175.337 338.196 176.543C338.598 177.749 338.955 178.91 339.268 180.027C339.581 181.099 339.804 182.015 339.938 182.774H340.206C340.385 182.015 340.63 181.077 340.943 179.96C341.3 178.843 341.68 177.682 342.082 176.476C342.529 175.27 342.908 174.198 343.221 173.26L350.859 152.088H357.157L343.489 188H336.722ZM376.709 151.418C379.791 151.418 382.426 152.088 384.615 153.428C386.848 154.768 388.545 156.666 389.707 159.123C390.913 161.535 391.516 164.371 391.516 167.632V171.183H366.927C367.016 175.248 368.043 178.352 370.009 180.496C372.019 182.595 374.81 183.645 378.384 183.645C380.662 183.645 382.672 183.444 384.414 183.042C386.2 182.595 388.032 181.97 389.908 181.166V186.325C388.076 187.129 386.267 187.71 384.481 188.067C382.694 188.469 380.572 188.67 378.116 188.67C374.721 188.67 371.706 187.978 369.071 186.593C366.48 185.208 364.448 183.154 362.974 180.429C361.544 177.66 360.83 174.287 360.83 170.312C360.83 166.381 361.477 163.009 362.773 160.195C364.113 157.381 365.966 155.215 368.334 153.696C370.746 152.177 373.537 151.418 376.709 151.418ZM376.642 156.242C373.828 156.242 371.594 157.158 369.942 158.989C368.334 160.776 367.373 163.277 367.061 166.493H385.352C385.307 163.456 384.592 160.999 383.208 159.123C381.823 157.202 379.634 156.242 376.642 156.242ZM424.041 178.084C424.041 181.568 422.746 184.203 420.155 185.99C417.564 187.777 414.08 188.67 409.703 188.67C407.202 188.67 405.035 188.469 403.204 188.067C401.417 187.665 399.832 187.107 398.447 186.392V181.032C399.876 181.747 401.596 182.417 403.606 183.042C405.661 183.623 407.738 183.913 409.837 183.913C412.83 183.913 414.996 183.444 416.336 182.506C417.676 181.523 418.346 180.228 418.346 178.62C418.346 177.727 418.1 176.923 417.609 176.208C417.118 175.493 416.224 174.779 414.929 174.064C413.678 173.349 411.869 172.545 409.502 171.652C407.179 170.759 405.192 169.865 403.539 168.972C401.886 168.079 400.613 167.007 399.72 165.756C398.827 164.505 398.38 162.897 398.38 160.932C398.38 157.895 399.608 155.55 402.065 153.897C404.566 152.244 407.827 151.418 411.847 151.418C414.036 151.418 416.068 151.641 417.944 152.088C419.865 152.49 421.651 153.071 423.304 153.83L421.294 158.52C419.775 157.895 418.19 157.359 416.537 156.912C414.884 156.465 413.187 156.242 411.445 156.242C409.033 156.242 407.179 156.644 405.884 157.448C404.633 158.207 404.008 159.257 404.008 160.597C404.008 161.58 404.298 162.428 404.879 163.143C405.46 163.813 406.42 164.483 407.76 165.153C409.145 165.778 410.976 166.538 413.254 167.431C415.532 168.28 417.475 169.151 419.083 170.044C420.691 170.937 421.919 172.032 422.768 173.327C423.617 174.578 424.041 176.163 424.041 178.084ZM444.711 183.846C445.605 183.846 446.52 183.779 447.458 183.645C448.396 183.466 449.156 183.288 449.736 183.109V187.598C449.111 187.911 448.218 188.156 447.056 188.335C445.895 188.558 444.778 188.67 443.706 188.67C441.83 188.67 440.088 188.357 438.48 187.732C436.917 187.062 435.644 185.923 434.661 184.315C433.679 182.707 433.187 180.451 433.187 177.548V156.644H428.095V153.83L433.254 151.485L435.599 143.847H439.083V152.088H449.468V156.644H439.083V177.414C439.083 179.603 439.597 181.233 440.624 182.305C441.696 183.332 443.059 183.846 444.711 183.846ZM496.323 151.418C500.388 151.418 503.425 152.468 505.435 154.567C507.445 156.622 508.45 159.972 508.45 164.617V188H502.621V164.885C502.621 159.212 500.187 156.376 495.318 156.376C491.834 156.376 489.333 157.381 487.814 159.391C486.34 161.401 485.603 164.327 485.603 168.168V188H479.774V164.885C479.774 159.212 477.318 156.376 472.404 156.376C468.786 156.376 466.285 157.493 464.9 159.726C463.516 161.959 462.823 165.175 462.823 169.374V188H456.927V152.088H461.684L462.555 156.979H462.89C464.007 155.103 465.503 153.718 467.379 152.825C469.3 151.887 471.332 151.418 473.476 151.418C479.104 151.418 482.767 153.428 484.464 157.448H484.799C486.005 155.393 487.636 153.875 489.69 152.892C491.79 151.909 494.001 151.418 496.323 151.418ZM533.413 151.418C536.495 151.418 539.13 152.088 541.319 153.428C543.552 154.768 545.249 156.666 546.411 159.123C547.617 161.535 548.22 164.371 548.22 167.632V171.183H523.631C523.72 175.248 524.747 178.352 526.713 180.496C528.723 182.595 531.514 183.645 535.088 183.645C537.366 183.645 539.376 183.444 541.118 183.042C542.904 182.595 544.736 181.97 546.612 181.166V186.325C544.78 187.129 542.971 187.71 541.185 188.067C539.398 188.469 537.276 188.67 534.82 188.67C531.425 188.67 528.41 187.978 525.775 186.593C523.184 185.208 521.152 183.154 519.678 180.429C518.248 177.66 517.534 174.287 517.534 170.312C517.534 166.381 518.181 163.009 519.477 160.195C520.817 157.381 522.67 155.215 525.038 153.696C527.45 152.177 530.241 151.418 533.413 151.418ZM533.346 156.242C530.532 156.242 528.298 157.158 526.646 158.989C525.038 160.776 524.077 163.277 523.765 166.493H542.056C542.011 163.456 541.296 160.999 539.912 159.123C538.527 157.202 536.338 156.242 533.346 156.242ZM574.648 151.418C578.936 151.418 582.174 152.468 584.363 154.567C586.552 156.622 587.646 159.972 587.646 164.617V188H581.817V165.019C581.817 159.257 579.137 156.376 573.777 156.376C569.802 156.376 567.055 157.493 565.536 159.726C564.017 161.959 563.258 165.175 563.258 169.374V188H557.362V152.088H562.119L562.99 156.979H563.325C564.486 155.103 566.094 153.718 568.149 152.825C570.204 151.887 572.37 151.418 574.648 151.418ZM610.772 183.846C611.665 183.846 612.581 183.779 613.519 183.645C614.457 183.466 615.216 183.288 615.797 183.109V187.598C615.172 187.911 614.278 188.156 613.117 188.335C611.956 188.558 610.839 188.67 609.767 188.67C607.891 188.67 606.149 188.357 604.541 187.732C602.978 187.062 601.705 185.923 600.722 184.315C599.739 182.707 599.248 180.451 599.248 177.548V156.644H594.156V153.83L599.315 151.485L601.66 143.847H605.144V152.088H615.529V156.644H605.144V177.414C605.144 179.603 605.658 181.233 606.685 182.305C607.757 183.332 609.119 183.846 610.772 183.846ZM641.166 142.373C641.166 141.078 641.501 140.14 642.171 139.559C642.841 138.934 643.668 138.621 644.65 138.621C645.544 138.621 646.325 138.934 646.995 139.559C647.71 140.14 648.067 141.078 648.067 142.373C648.067 143.624 647.71 144.562 646.995 145.187C646.325 145.812 645.544 146.125 644.65 146.125C643.668 146.125 642.841 145.812 642.171 145.187C641.501 144.562 641.166 143.624 641.166 142.373ZM637.414 204.08C636.298 204.08 635.315 203.991 634.466 203.812C633.618 203.678 632.881 203.499 632.255 203.276V198.519C632.925 198.698 633.618 198.854 634.332 198.988C635.047 199.122 635.829 199.189 636.677 199.189C638.107 199.189 639.29 198.787 640.228 197.983C641.166 197.224 641.635 195.75 641.635 193.561V152.088H647.531V193.36C647.531 196.71 646.727 199.323 645.119 201.199C643.511 203.12 640.943 204.08 637.414 204.08ZM690.131 169.977C690.131 175.918 688.612 180.518 685.575 183.779C682.582 187.04 678.518 188.67 673.381 188.67C670.21 188.67 667.373 187.955 664.872 186.526C662.415 185.052 660.472 182.93 659.043 180.161C657.614 177.347 656.899 173.952 656.899 169.977C656.899 164.036 658.395 159.458 661.388 156.242C664.381 153.026 668.445 151.418 673.582 151.418C676.843 151.418 679.701 152.155 682.158 153.629C684.659 155.058 686.602 157.158 687.987 159.927C689.416 162.652 690.131 166.002 690.131 169.977ZM662.996 169.977C662.996 174.22 663.822 177.593 665.475 180.094C667.172 182.551 669.852 183.779 673.515 183.779C677.133 183.779 679.791 182.551 681.488 180.094C683.185 177.593 684.034 174.22 684.034 169.977C684.034 165.734 683.185 162.406 681.488 159.994C679.791 157.582 677.111 156.376 673.448 156.376C669.785 156.376 667.128 157.582 665.475 159.994C663.822 162.406 662.996 165.734 662.996 169.977ZM702.49 138.621C703.384 138.621 704.165 138.934 704.835 139.559C705.55 140.14 705.907 141.078 705.907 142.373C705.907 143.624 705.55 144.562 704.835 145.187C704.165 145.812 703.384 146.125 702.49 146.125C701.508 146.125 700.681 145.812 700.011 145.187C699.341 144.562 699.006 143.624 699.006 142.373C699.006 141.078 699.341 140.14 700.011 139.559C700.681 138.934 701.508 138.621 702.49 138.621ZM705.371 152.088V188H699.475V152.088H705.371ZM734.035 151.418C738.323 151.418 741.561 152.468 743.75 154.567C745.938 156.622 747.033 159.972 747.033 164.617V188H741.204V165.019C741.204 159.257 738.524 156.376 733.164 156.376C729.188 156.376 726.441 157.493 724.923 159.726C723.404 161.959 722.645 165.175 722.645 169.374V188H716.749V152.088H721.506L722.377 156.979H722.712C723.873 155.103 725.481 153.718 727.536 152.825C729.59 151.887 731.757 151.418 734.035 151.418ZM770.159 183.846C771.052 183.846 771.968 183.779 772.906 183.645C773.844 183.466 774.603 183.288 775.184 183.109V187.598C774.558 187.911 773.665 188.156 772.504 188.335C771.342 188.558 770.226 188.67 769.154 188.67C767.278 188.67 765.536 188.357 763.928 187.732C762.364 187.062 761.091 185.923 760.109 184.315C759.126 182.707 758.635 180.451 758.635 177.548V156.644H753.543V153.83L758.702 151.485L761.047 143.847H764.531V152.088H774.916V156.644H764.531V177.414C764.531 179.603 765.044 181.233 766.072 182.305C767.144 183.332 768.506 183.846 770.159 183.846ZM824.405 178.084C824.405 181.568 823.11 184.203 820.519 185.99C817.928 187.777 814.444 188.67 810.067 188.67C807.566 188.67 805.399 188.469 803.568 188.067C801.781 187.665 800.196 187.107 798.811 186.392V181.032C800.24 181.747 801.96 182.417 803.97 183.042C806.025 183.623 808.102 183.913 810.201 183.913C813.194 183.913 815.36 183.444 816.7 182.506C818.04 181.523 818.71 180.228 818.71 178.62C818.71 177.727 818.464 176.923 817.973 176.208C817.482 175.493 816.588 174.779 815.293 174.064C814.042 173.349 812.233 172.545 809.866 171.652C807.543 170.759 805.556 169.865 803.903 168.972C802.25 168.079 800.977 167.007 800.084 165.756C799.191 164.505 798.744 162.897 798.744 160.932C798.744 157.895 799.972 155.55 802.429 153.897C804.93 152.244 808.191 151.418 812.211 151.418C814.4 151.418 816.432 151.641 818.308 152.088C820.229 152.49 822.015 153.071 823.668 153.83L821.658 158.52C820.139 157.895 818.554 157.359 816.901 156.912C815.248 156.465 813.551 156.242 811.809 156.242C809.397 156.242 807.543 156.644 806.248 157.448C804.997 158.207 804.372 159.257 804.372 160.597C804.372 161.58 804.662 162.428 805.243 163.143C805.824 163.813 806.784 164.483 808.124 165.153C809.509 165.778 811.34 166.538 813.618 167.431C815.896 168.28 817.839 169.151 819.447 170.044C821.055 170.937 822.283 172.032 823.132 173.327C823.981 174.578 824.405 176.163 824.405 178.084ZM845.076 183.846C845.969 183.846 846.885 183.779 847.823 183.645C848.761 183.466 849.52 183.288 850.101 183.109V187.598C849.475 187.911 848.582 188.156 847.421 188.335C846.259 188.558 845.143 188.67 844.071 188.67C842.195 188.67 840.453 188.357 838.845 187.732C837.281 187.062 836.008 185.923 835.026 184.315C834.043 182.707 833.552 180.451 833.552 177.548V156.644H828.46V153.83L833.619 151.485L835.964 143.847H839.448V152.088H849.833V156.644H839.448V177.414C839.448 179.603 839.961 181.233 840.989 182.305C842.061 183.332 843.423 183.846 845.076 183.846ZM888.514 169.977C888.514 175.918 886.995 180.518 883.958 183.779C880.965 187.04 876.9 188.67 871.764 188.67C868.592 188.67 865.756 187.955 863.255 186.526C860.798 185.052 858.855 182.93 857.426 180.161C855.996 177.347 855.282 173.952 855.282 169.977C855.282 164.036 856.778 159.458 859.771 156.242C862.763 153.026 866.828 151.418 871.965 151.418C875.225 151.418 878.084 152.155 880.541 153.629C883.042 155.058 884.985 157.158 886.37 159.927C887.799 162.652 888.514 166.002 888.514 169.977ZM861.379 169.977C861.379 174.22 862.205 177.593 863.858 180.094C865.555 182.551 868.235 183.779 871.898 183.779C875.516 183.779 878.173 182.551 879.871 180.094C881.568 177.593 882.417 174.22 882.417 169.977C882.417 165.734 881.568 162.406 879.871 159.994C878.173 157.582 875.493 156.376 871.831 156.376C868.168 156.376 865.51 157.582 863.858 159.994C862.205 162.406 861.379 165.734 861.379 169.977ZM912.263 188.67C909.092 188.67 906.255 188.022 903.754 186.727C901.297 185.432 899.354 183.422 897.925 180.697C896.54 177.972 895.848 174.488 895.848 170.245C895.848 165.823 896.585 162.227 898.059 159.458C899.533 156.689 901.521 154.656 904.022 153.361C906.568 152.066 909.449 151.418 912.665 151.418C914.496 151.418 916.261 151.619 917.958 152.021C919.655 152.378 921.04 152.825 922.112 153.361L920.303 158.252C919.231 157.85 917.98 157.47 916.551 157.113C915.122 156.756 913.782 156.577 912.531 156.577C905.474 156.577 901.945 161.111 901.945 170.178C901.945 174.511 902.794 177.838 904.491 180.161C906.233 182.439 908.801 183.578 912.196 183.578C914.161 183.578 915.881 183.377 917.355 182.975C918.874 182.573 920.258 182.082 921.509 181.501V186.727C920.303 187.352 918.963 187.821 917.489 188.134C916.06 188.491 914.318 188.67 912.263 188.67ZM935.878 163.679C935.878 164.394 935.834 165.332 935.744 166.493C935.7 167.654 935.655 168.659 935.61 169.508H935.878C936.146 169.151 936.548 168.637 937.084 167.967C937.62 167.297 938.156 166.627 938.692 165.957C939.273 165.242 939.764 164.662 940.166 164.215L951.623 152.088H958.524L943.985 167.431L959.529 188H952.427L939.965 171.25L935.878 174.801V188H930.049V137.08H935.878V163.679ZM998.892 188.67C995.721 188.67 992.884 188.022 990.383 186.727C987.926 185.432 985.983 183.422 984.554 180.697C983.169 177.972 982.477 174.488 982.477 170.245C982.477 165.823 983.214 162.227 984.688 159.458C986.162 156.689 988.15 154.656 990.651 153.361C993.197 152.066 996.078 151.418 999.294 151.418C1001.13 151.418 1002.89 151.619 1004.59 152.021C1006.28 152.378 1007.67 152.825 1008.74 153.361L1006.93 158.252C1005.86 157.85 1004.61 157.47 1003.18 157.113C1001.75 156.756 1000.41 156.577 999.16 156.577C992.103 156.577 988.574 161.111 988.574 170.178C988.574 174.511 989.423 177.838 991.12 180.161C992.862 182.439 995.43 183.578 998.825 183.578C1000.79 183.578 1002.51 183.377 1003.98 182.975C1005.5 182.573 1006.89 182.082 1008.14 181.501V186.727C1006.93 187.352 1005.59 187.821 1004.12 188.134C1002.69 188.491 1000.95 188.67 998.892 188.67ZM1047.9 169.977C1047.9 175.918 1046.38 180.518 1043.34 183.779C1040.35 187.04 1036.29 188.67 1031.15 188.67C1027.98 188.67 1025.14 187.955 1022.64 186.526C1020.18 185.052 1018.24 182.93 1016.81 180.161C1015.38 177.347 1014.67 173.952 1014.67 169.977C1014.67 164.036 1016.16 159.458 1019.16 156.242C1022.15 153.026 1026.21 151.418 1031.35 151.418C1034.61 151.418 1037.47 152.155 1039.93 153.629C1042.43 155.058 1044.37 157.158 1045.76 159.927C1047.19 162.652 1047.9 166.002 1047.9 169.977ZM1020.77 169.977C1020.77 174.22 1021.59 177.593 1023.24 180.094C1024.94 182.551 1027.62 183.779 1031.28 183.779C1034.9 183.779 1037.56 182.551 1039.26 180.094C1040.95 177.593 1041.8 174.22 1041.8 169.977C1041.8 165.734 1040.95 162.406 1039.26 159.994C1037.56 157.582 1034.88 156.376 1031.22 156.376C1027.55 156.376 1024.9 157.582 1023.24 159.994C1021.59 162.406 1020.77 165.734 1020.77 169.977ZM1096.64 151.418C1100.71 151.418 1103.74 152.468 1105.75 154.567C1107.76 156.622 1108.77 159.972 1108.77 164.617V188H1102.94V164.885C1102.94 159.212 1100.5 156.376 1095.64 156.376C1092.15 156.376 1089.65 157.381 1088.13 159.391C1086.66 161.401 1085.92 164.327 1085.92 168.168V188H1080.09V164.885C1080.09 159.212 1077.64 156.376 1072.72 156.376C1069.1 156.376 1066.6 157.493 1065.22 159.726C1063.83 161.959 1063.14 165.175 1063.14 169.374V188H1057.24V152.088H1062L1062.87 156.979H1063.21C1064.32 155.103 1065.82 153.718 1067.7 152.825C1069.62 151.887 1071.65 151.418 1073.79 151.418C1079.42 151.418 1083.08 153.428 1084.78 157.448H1085.12C1086.32 155.393 1087.95 153.875 1090.01 152.892C1092.11 151.909 1094.32 151.418 1096.64 151.418ZM1136.95 151.418C1141.37 151.418 1144.92 152.959 1147.6 156.041C1150.32 159.123 1151.69 163.768 1151.69 169.977C1151.69 176.096 1150.32 180.742 1147.6 183.913C1144.92 187.084 1141.35 188.67 1136.88 188.67C1134.11 188.67 1131.81 188.156 1129.98 187.129C1128.19 186.057 1126.78 184.829 1125.76 183.444H1125.36C1125.44 184.203 1125.53 185.164 1125.62 186.325C1125.71 187.486 1125.76 188.491 1125.76 189.34V204.08H1119.86V152.088H1124.69L1125.49 156.979H1125.76C1126.83 155.416 1128.24 154.098 1129.98 153.026C1131.72 151.954 1134.04 151.418 1136.95 151.418ZM1135.87 156.376C1132.21 156.376 1129.62 157.403 1128.1 159.458C1126.63 161.513 1125.85 164.639 1125.76 168.838V169.977C1125.76 174.399 1126.47 177.816 1127.9 180.228C1129.38 182.595 1132.08 183.779 1136.01 183.779C1138.2 183.779 1139.98 183.176 1141.37 181.97C1142.8 180.764 1143.85 179.134 1144.52 177.079C1145.23 174.98 1145.59 172.59 1145.59 169.91C1145.59 165.801 1144.79 162.518 1143.18 160.061C1141.61 157.604 1139.18 156.376 1135.87 156.376ZM1174.68 151.485C1179.06 151.485 1182.3 152.445 1184.4 154.366C1186.5 156.287 1187.55 159.346 1187.55 163.545V188H1183.26L1182.12 182.908H1181.85C1180.29 184.873 1178.64 186.325 1176.89 187.263C1175.2 188.201 1172.83 188.67 1169.79 188.67C1166.53 188.67 1163.83 187.821 1161.68 186.124C1159.54 184.382 1158.47 181.68 1158.47 178.017C1158.47 174.444 1159.88 171.697 1162.69 169.776C1165.5 167.811 1169.84 166.739 1175.69 166.56L1181.78 166.359V164.215C1181.78 161.222 1181.14 159.145 1179.84 157.984C1178.55 156.823 1176.72 156.242 1174.35 156.242C1172.47 156.242 1170.69 156.532 1168.99 157.113C1167.29 157.649 1165.7 158.274 1164.23 158.989L1162.42 154.567C1163.99 153.718 1165.84 153.004 1167.98 152.423C1170.13 151.798 1172.36 151.485 1174.68 151.485ZM1176.42 170.647C1171.96 170.826 1168.85 171.54 1167.11 172.791C1165.41 174.042 1164.57 175.806 1164.57 178.084C1164.57 180.094 1165.17 181.568 1166.37 182.506C1167.63 183.444 1169.21 183.913 1171.13 183.913C1174.17 183.913 1176.69 183.087 1178.7 181.434C1180.71 179.737 1181.72 177.146 1181.72 173.662V170.446L1176.42 170.647ZM1215.92 151.418C1220.21 151.418 1223.45 152.468 1225.64 154.567C1227.83 156.622 1228.92 159.972 1228.92 164.617V188H1223.09V165.019C1223.09 159.257 1220.41 156.376 1215.05 156.376C1211.08 156.376 1208.33 157.493 1206.81 159.726C1205.29 161.959 1204.53 165.175 1204.53 169.374V188H1198.64V152.088H1203.4L1204.27 156.979H1204.6C1205.76 155.103 1207.37 153.718 1209.43 152.825C1211.48 151.887 1213.65 151.418 1215.92 151.418ZM1234.43 152.088H1240.73L1248.5 172.523C1249.17 174.31 1249.77 176.029 1250.31 177.682C1250.84 179.29 1251.24 180.831 1251.51 182.305H1251.78C1252.05 181.188 1252.47 179.737 1253.05 177.95C1253.63 176.119 1254.24 174.287 1254.86 172.456L1262.17 152.088H1268.53L1253.05 192.958C1251.8 196.353 1250.17 199.055 1248.16 201.065C1246.2 203.075 1243.47 204.08 1239.99 204.08C1238.92 204.08 1237.98 204.013 1237.17 203.879C1236.37 203.79 1235.68 203.678 1235.1 203.544V198.854C1235.59 198.943 1236.17 199.033 1236.84 199.122C1237.55 199.211 1238.29 199.256 1239.05 199.256C1241.11 199.256 1242.76 198.675 1244.01 197.514C1245.3 196.353 1246.31 194.812 1247.02 192.891L1248.9 188.134L1234.43 152.088Z" fill="white"/>
</svg>
