<svg width="28" height="28" viewBox="0 0 28 28" fill="none" xmlns="http://www.w3.org/2000/svg">
<path fill-rule="evenodd" clip-rule="evenodd" d="M28 14C28 21.732 21.732 28 14 28C6.26801 28 0 21.732 0 14C0 6.26801 6.26801 0 14 0C21.732 0 28 6.26801 28 14ZM9.37506 12.7175C7.97262 13.3299 6.53163 13.959 5.21398 14.6848L5.21389 14.6849C4.52586 15.1886 5.44039 15.5449 6.29828 15.8792C6.43467 15.9323 6.56963 15.9849 6.69649 16.0374C6.80205 16.0699 6.90941 16.1041 7.0182 16.1387C7.97234 16.4427 9.03627 16.7817 9.96257 16.2718C11.4842 15.3977 12.9203 14.3871 14.3552 13.3773C14.8253 13.0464 15.2953 12.7157 15.7681 12.3898C15.7903 12.3756 15.8153 12.3594 15.8426 12.3417C16.2454 12.0806 17.1514 11.4934 16.8163 12.3025C16.0239 13.1691 15.1751 13.9363 14.3217 14.7076C13.7465 15.2274 13.1693 15.7491 12.6058 16.3044C12.115 16.7032 11.6054 17.5051 12.1549 18.0635C13.4207 18.9496 14.7062 19.8143 15.991 20.6784C16.4091 20.9596 16.8272 21.2407 17.2444 21.5226C17.9515 22.0871 19.0566 21.6305 19.2121 20.7483C19.2812 20.3424 19.3507 19.9366 19.4201 19.5308C19.8037 17.2881 20.1874 15.0446 20.5264 12.7945C20.5724 12.4416 20.6246 12.0887 20.6769 11.7356C20.8035 10.8797 20.9303 10.0229 20.9699 9.16245C20.8678 8.30382 19.8268 8.49261 19.2473 8.68568C16.2693 9.81887 13.321 11.036 10.3844 12.2747C10.0518 12.4221 9.71454 12.5693 9.37506 12.7175Z" fill="white"/>
</svg>
