<svg width="28" height="28" viewBox="0 0 28 28" fill="none" xmlns="http://www.w3.org/2000/svg">
<path fill-rule="evenodd" clip-rule="evenodd" d="M0 14C0 21.732 6.26801 28 14 28C21.732 28 28 21.732 28 14C28 6.26801 21.732 0 14 0C6.26801 0 0 6.26801 0 14ZM22.7862 13.4642C22.7844 18.0532 19.0514 21.7871 14.4615 21.789H14.458C13.0647 21.7885 11.6957 21.4389 10.4798 20.7757L6.06667 21.9333L7.24769 17.6195C6.51918 16.357 6.13584 14.9249 6.13646 13.4576C6.13829 8.86766 9.87281 5.13334 14.4614 5.13334C16.6884 5.1343 18.7786 6.00126 20.3503 7.57483C21.922 9.14832 22.7871 11.2399 22.7862 13.4642Z" fill="white"/>
<path fill-rule="evenodd" clip-rule="evenodd" d="M8.06542 19.9557L10.6842 19.2687L10.9369 19.4187C11.9992 20.0491 13.217 20.3827 14.4586 20.3832H14.4614C18.2751 20.3832 21.3791 17.2791 21.3806 13.4639C21.3813 11.615 20.6623 9.8766 19.3559 8.56871C18.0496 7.26082 16.3123 6.54019 14.4642 6.53955C10.6475 6.53955 7.54351 9.64328 7.54199 13.4583C7.54146 14.7657 7.90727 16.0389 8.5999 17.1406L8.76442 17.4024L8.06542 19.9557ZM18.3705 15.2567C18.5156 15.3268 18.6136 15.3741 18.6554 15.444C18.7074 15.5307 18.7074 15.9472 18.5342 16.4331C18.3608 16.919 17.5298 17.3625 17.1301 17.4222C16.7717 17.4758 16.3182 17.4981 15.8199 17.3397C15.5178 17.2439 15.1304 17.1159 14.6341 16.9016C12.6841 16.0596 11.3662 14.1695 11.1172 13.8123C11.0997 13.7873 11.0875 13.7698 11.0807 13.7607L11.079 13.7585C10.969 13.6116 10.2314 12.6275 10.2314 11.6089C10.2314 10.6508 10.702 10.1486 10.9187 9.9174C10.9335 9.90156 10.9471 9.887 10.9594 9.87365C11.15 9.6654 11.3754 9.61333 11.5141 9.61333C11.6527 9.61333 11.7915 9.61461 11.9127 9.6207C11.9277 9.62145 11.9432 9.62136 11.9593 9.62127C12.0805 9.62056 12.2317 9.61967 12.3807 9.97777C12.4381 10.1156 12.522 10.3199 12.6105 10.5353C12.7895 10.9711 12.9873 11.4526 13.0221 11.5223C13.0741 11.6264 13.1087 11.7478 13.0394 11.8867C13.029 11.9075 13.0194 11.9272 13.0102 11.946C12.9581 12.0523 12.9198 12.1305 12.8314 12.2337C12.7967 12.2743 12.7607 12.318 12.7248 12.3617C12.6533 12.4489 12.5817 12.536 12.5194 12.5981C12.4153 12.7018 12.3069 12.8144 12.4282 13.0226C12.5495 13.2309 12.967 13.912 13.5854 14.4636C14.2501 15.0565 14.8278 15.3071 15.1207 15.4341C15.1778 15.4589 15.2242 15.479 15.2581 15.496C15.4661 15.6002 15.5874 15.5828 15.7088 15.444C15.8301 15.3051 16.2288 14.8366 16.3674 14.6284C16.506 14.4202 16.6448 14.4549 16.8354 14.5242C17.0261 14.5937 18.0488 15.0969 18.2568 15.201C18.2974 15.2213 18.3354 15.2397 18.3705 15.2567Z" fill="white"/>
</svg>
