<svg width="502" height="376" viewBox="0 0 502 376" fill="none" xmlns="http://www.w3.org/2000/svg">
<path opacity="0.05" d="M242.4 243.2C242.4 265.333 234.4 284.533 218.4 300.8C202.667 316.8 179.733 327.067 149.6 331.6V376H101.6V333.2C81.6 331.867 62.6667 328.533 44.8 323.2C26.9333 317.6 12.1333 310.8 0.400001 302.8L26.4 244.4C38.9333 252.667 53.4667 259.333 70 264.4C86.5333 269.467 102.8 272 118.8 272C149.2 272 164.4 264.4 164.4 249.2C164.4 241.2 160 235.333 151.2 231.6C142.667 227.6 128.8 223.467 109.6 219.2C88.5333 214.667 70.9333 209.867 56.8 204.8C42.6667 199.467 30.5333 191.067 20.4 179.6C10.2667 168.133 5.2 152.667 5.2 133.2C5.2 110.267 13.4667 90.6667 30 74.4C46.5333 57.8667 70.4 47.7333 101.6 44V-2.09808e-05H149.6V43.2C164.8 44.5333 179.333 47.2 193.2 51.2C207.333 55.2 219.867 60.4 230.8 66.8L206.4 125.6C179.733 111.2 153.867 104 128.8 104C113.067 104 101.6 106.4 94.4 111.2C87.2 115.733 83.6 121.733 83.6 129.2C83.6 136.667 87.8667 142.267 96.4 146C104.933 149.733 118.667 153.6 137.6 157.6C158.933 162.133 176.533 167.067 190.4 172.4C204.533 177.467 216.667 185.733 226.8 197.2C237.2 208.4 242.4 223.733 242.4 243.2ZM501.384 243.2C501.384 265.333 493.384 284.533 477.384 300.8C461.651 316.8 438.718 327.067 408.584 331.6V376H360.584V333.2C340.584 331.867 321.651 328.533 303.784 323.2C285.918 317.6 271.118 310.8 259.384 302.8L285.384 244.4C297.918 252.667 312.451 259.333 328.984 264.4C345.518 269.467 361.784 272 377.784 272C408.184 272 423.384 264.4 423.384 249.2C423.384 241.2 418.984 235.333 410.184 231.6C401.651 227.6 387.784 223.467 368.584 219.2C347.518 214.667 329.918 209.867 315.784 204.8C301.651 199.467 289.518 191.067 279.384 179.6C269.251 168.133 264.184 152.667 264.184 133.2C264.184 110.267 272.451 90.6667 288.984 74.4C305.518 57.8667 329.384 47.7333 360.584 44V-2.09808e-05H408.584V43.2C423.784 44.5333 438.318 47.2 452.184 51.2C466.318 55.2 478.851 60.4 489.784 66.8L465.384 125.6C438.718 111.2 412.851 104 387.784 104C372.051 104 360.584 106.4 353.384 111.2C346.184 115.733 342.584 121.733 342.584 129.2C342.584 136.667 346.851 142.267 355.384 146C363.918 149.733 377.651 153.6 396.584 157.6C417.918 162.133 435.518 167.067 449.384 172.4C463.518 177.467 475.651 185.733 485.784 197.2C496.184 208.4 501.384 223.733 501.384 243.2Z" fill="#18898D"/>
</svg>
