<svg width="350" height="350" xmlns="http://www.w3.org/2000/svg" preserveAspectRatio="xMidYMid">

 <g>
  <title>background</title>
  <rect fill="none" id="canvas_background" height="352" width="352" y="-1" x="-1"/>
 </g>
 <g>
  <title>Layer 1</title>
  <g id="svg_1" fill="#010101">
   <path id="svg_2" d="m21.488281,65.603149l41.381134,0l0,12.170929l-41.381134,0l0,-12.170929zm0,-22.603149l41.381134,0l0,12.170929l-41.381134,0l0,-12.170929zm74.242615,45.03241l-74.242615,0l0,12.170929l71.460693,0c7.824188,0 26.080566,0.173859 32.861511,11.127701l0,-6.780945c-3.303528,-10.779953 -13.040283,-16.517685 -30.07959,-16.517685l0,0zm0.173889,22.603149l-74.416504,0l0,12.170929l71.460693,0c17.387054,0 28.340881,0.69548 32.861511,3.129669l0,-5.389984c-3.477417,-8.519653 -18.08252,-9.910614 -29.905701,-9.910614l0,0zm-0.173889,57.377213l-74.242615,0l0,-12.170929l71.460693,0c7.824188,0 26.080566,-0.173859 32.861511,-11.127701l0,6.780945c-3.303528,10.779968 -13.040283,16.517685 -30.07959,16.517685l0,0zm0.173889,-22.603149l-74.416504,0l0,-12.170914l71.460693,0c17.387054,0 28.340881,-0.695496 32.861511,-3.129669l0,5.389984c-3.477417,8.519638 -18.08252,9.910599 -29.905701,9.910599l0,0zm47.98822,43.641464l54.595276,0l0,-7.47644l-53.030457,0c-4.694489,0 -15.822205,-0.173859 -19.821228,-6.607056l0,4.172882c1.912598,6.433197 7.824158,9.910614 18.256409,9.910614l0,0zm-0.173889,-13.735779l54.595306,0l0,-7.47641l-52.856598,0c-10.606079,0 -17.213165,-0.347733 -19.821228,-1.912567l0,3.303528c2.086456,5.216125 10.953857,6.085449 18.08252,6.085449l0,0z"/>
  </g>
  <g id="svg_9">
   <g transform="matrix(0.557293, 0, 0, 0.557293, 42.5753, 27.4076)" id="svg_6">
    <path id="svg_7" fill="#563D7C" d="m261.224976,535.678162c0,18.232239 14.778442,33.008789 33.008667,33.008789l189.982483,0c18.2323,0 33.008728,-14.778564 33.008728,-33.008789l0,-189.982513c0,-18.232269 -14.778381,-33.008759 -33.008728,-33.008759l-189.982483,0c-18.232178,0 -33.008667,14.778503 -33.008667,33.008759l0,189.982513z"/>
    <path id="svg_8" fill="#FFFFFF" d="m367.382446,425.924988l0,-36.25351l31.911743,0c3.039307,0 5.969971,0.253235 8.792114,0.759827c2.822144,0.506531 5.318604,1.411011 7.489502,2.713562c2.170776,1.302551 3.907471,3.111572 5.210083,5.427185c1.30249,2.315613 1.953735,5.28241 1.953735,8.900543c0,6.512665 -1.953735,11.216156 -5.861328,14.110657c-3.907593,2.894501 -8.900513,4.341736 -14.979004,4.341736l-34.516846,0l0,0zm-34.082642,-62.738129l0,155.000092l75.112061,0c6.946777,0 13.712646,-0.868286 20.297607,-2.605042c6.585083,-1.736755 12.446289,-4.414154 17.584106,-8.032257c5.137695,-3.618164 9.226074,-8.285522 12.265381,-14.002197c3.039185,-5.716553 4.558838,-12.482422 4.558838,-20.297607c0,-9.696533 -2.351807,-17.981934 -7.055298,-24.856445c-4.703613,-6.87439 -11.831299,-11.686462 -21.383057,-14.436249c6.946777,-3.328644 12.192993,-7.597992 15.73877,-12.808075c3.545776,-5.210114 5.318604,-11.722656 5.318604,-19.537842c0,-7.236267 -1.19397,-13.314636 -3.581909,-18.235291c-2.387939,-4.920654 -5.752808,-8.86438 -10.094604,-11.831238c-4.341675,-2.966858 -9.551758,-5.101501 -15.630249,-6.404053c-6.078369,-1.302551 -12.808105,-1.953796 -20.189087,-1.953796l-72.941162,0l0,0zm34.082642,128.515381l0,-42.54895l37.121826,0c7.380981,0 13.314697,1.700439 17.801147,5.101501c4.48645,3.401062 6.729736,9.081421 6.729736,17.041321c0,4.052246 -0.6875,7.380981 -2.062378,9.985962c-1.374878,2.605103 -3.220093,4.667358 -5.535645,6.187012c-2.315674,1.519653 -4.993042,2.60498 -8.032227,3.256287c-3.039307,0.651306 -6.223145,0.976868 -9.55188,0.976868l-36.470581,0l0,0z"/>
   </g>
  </g>
  <g id="svg_15">
   <g transform="matrix(0.651042, 0, 0, 0.651042, 0, 0)" id="svg_13" fill="#CD6799">
    <path id="svg_14" d="m232.707169,413.69342c-8.906372,0.046631 -16.646973,2.19165 -23.128601,5.362488c-2.378113,-4.709656 -4.756226,-8.906372 -5.175903,-11.983948c-0.466309,-3.590576 -1.025879,-5.782166 -0.466309,-10.072144c0.55957,-4.289978 3.077576,-10.39856 3.030945,-10.864868c-0.046631,-0.466309 -0.55957,-2.657898 -5.688904,-2.704529c-5.129333,-0.046631 -9.559204,0.979248 -10.072083,2.331482c-0.512939,1.352295 -1.492188,4.429871 -2.14502,7.600769c-0.885986,4.663025 -10.258667,21.309998 -15.621155,30.029846c-1.725281,-3.403992 -3.217468,-6.388367 -3.543884,-8.766479c-0.466309,-3.590515 -1.025879,-5.782166 -0.466309,-10.072144c0.55957,-4.289978 3.077637,-10.39856 3.031006,-10.864807c-0.046631,-0.46637 -0.55957,-2.657959 -5.688904,-2.70459c-5.129333,-0.046631 -9.559204,0.979248 -10.072144,2.331543c-0.512939,1.352234 -1.07251,4.523132 -2.144958,7.600708c-1.07251,3.077576 -13.522827,30.869202 -16.786926,38.050293c-1.67865,3.683777 -3.124207,6.62146 -4.150085,8.626587l0,0c0,0 -0.046631,0.139893 -0.186523,0.373047c-0.885986,1.725281 -1.398865,2.657898 -1.398865,2.657898c0,0 0,0 0,0.046631c-0.699463,1.259033 -1.445557,2.424805 -1.818604,2.424805c-0.279785,0 -0.792725,-3.357422 0.093262,-7.927185c1.865173,-9.652466 6.295105,-24.667358 6.248474,-25.180298c0,-0.279785 0.839294,-2.891113 -2.891113,-4.243347c-3.637146,-1.352295 -4.94281,0.885925 -5.269226,0.885925c-0.326416,0 -0.559509,0.792725 -0.559509,0.792725c0,0 4.056824,-16.880127 -7.740662,-16.880127c-7.367554,0 -17.532959,8.067017 -22.569031,15.34137c-3.170837,1.725281 -9.932251,5.409058 -17.159912,9.372681c-2.751221,1.538757 -5.595642,3.077576 -8.25354,4.523132c-0.186523,-0.186523 -0.373047,-0.419678 -0.55957,-0.606201c-14.268848,-15.248108 -40.661549,-26.019714 -39.542469,-46.490356c0.419678,-7.460815 2.984375,-27.045532 50.687061,-50.826965c39.262695,-19.351563 70.504944,-13.989075 75.914063,-2.098328c7.740601,16.973389 -16.740295,48.495422 -57.308594,53.065186c-15.481201,1.725342 -23.59491,-4.243347 -25.646606,-6.481628c-2.14502,-2.331482 -2.471436,-2.471375 -3.264099,-2.005066c-1.305664,0.699463 -0.466309,2.797791 0,4.010193c1.212341,3.170837 6.201782,8.766479 14.641846,11.517639c7.460876,2.424805 25.600037,3.7771 47.562866,-4.709656c24.574158,-9.512573 43.785767,-35.951904 38.143555,-58.101257c-5.642273,-22.475769 -42.946472,-29.889954 -78.245544,-17.346436c-20.983643,7.460815 -43.739185,19.21167 -60.106373,34.506348c-19.444824,18.185791 -22.5224,33.993469 -21.263367,40.614929c4.523132,23.501648 36.931091,38.796387 49.894348,50.127563c-0.652832,0.372986 -1.259033,0.699402 -1.771973,0.979187c-6.481567,3.217529 -31.195618,16.134094 -37.35083,29.796753c-6.994507,15.481262 1.119141,26.579224 6.481628,28.071411c16.646973,4.616394 33.760258,-3.683777 42.9464,-17.393066c9.186157,-13.709351 8.067078,-31.522095 3.82373,-39.682373c-0.046631,-0.093262 -0.093262,-0.186523 -0.186523,-0.279785c1.67865,-0.979248 3.403992,-2.005066 5.082642,-2.984314c3.310791,-1.958496 6.57489,-3.777039 9.372681,-5.269226c-1.585388,4.336609 -2.75116,9.512573 -3.31073,16.973389c-0.699463,8.766479 2.891113,20.144287 7.600708,24.620789c2.098389,1.958496 4.569763,2.005127 6.155212,2.005127c5.50238,0 7.973755,-4.569824 10.724976,-9.978882c3.357361,-6.621521 6.388306,-14.315491 6.388306,-14.315491c0,0 -3.777039,20.797058 6.481628,20.797058c3.730408,0 7.507446,-4.849548 9.186157,-7.320923l0,0.046631c0,0 0.093262,-0.139893 0.279785,-0.466309c0.373047,-0.606201 0.606201,-0.979248 0.606201,-0.979248l0,-0.093262c1.492126,-2.611267 4.849548,-8.533325 9.838989,-18.372314c6.434937,-12.683411 12.63678,-28.53772 12.63678,-28.53772c0,0 0.55957,3.870361 2.471375,10.305298c1.119141,3.777039 3.450623,7.927124 5.315857,11.937378c-1.492188,2.098328 -2.424744,3.264099 -2.424744,3.264099c0,0 0,0 0.046631,0.046631c-1.212402,1.585449 -2.518066,3.31073 -3.963623,4.989441c-5.082642,6.06189 -11.144592,13.009827 -11.983948,15.014893c-0.979248,2.378174 -0.746094,4.103516 1.119141,5.50238c1.352295,1.025879 3.777039,1.165771 6.248413,1.025879c4.569763,-0.326416 7.787292,-1.445557 9.372681,-2.144958c2.471436,-0.885986 5.362488,-2.238281 8.067078,-4.243408c4.989441,-3.683777 8.020386,-8.953003 7.740601,-15.900879c-0.139893,-3.823669 -1.398926,-7.647339 -2.937683,-11.237915c0.466248,-0.652832 0.885925,-1.305603 1.352234,-1.958435c7.880554,-11.5177 13.989075,-24.15448 13.989075,-24.15448c0,0 0.55957,3.8703 2.471436,10.305298c0.932617,3.264099 2.844421,6.807983 4.523132,10.258667c-7.414246,6.015259 -11.984009,13.009827 -13.616028,17.57959c-2.937744,8.486694 -0.652832,12.310364 3.683777,13.19635c1.958435,0.419678 4.756287,-0.512939 6.807983,-1.398926c2.611328,-0.839355 5.688904,-2.284851 8.626648,-4.429871c4.98938,-3.683777 9.792297,-8.81311 9.512512,-15.760986c-0.139893,-3.170898 -0.979187,-6.295105 -2.144958,-9.32605c6.295105,-2.611328 14.408752,-4.056885 24.760681,-2.844482c22.196091,2.611328 26.579269,16.46051 25.740036,22.289246c-0.839355,5.828796 -5.502472,8.999634 -7.041306,9.978882c-1.538818,0.979248 -2.051636,1.305664 -1.911743,2.005127c0.186523,1.025879 0.932495,0.979248 2.238174,0.792725c1.818604,-0.326416 11.657623,-4.709656 12.077301,-15.434631c0.699463,-13.70929 -12.357101,-28.677612 -35.439133,-28.53772l0,0zm-171.226185,57.728271c-7.367554,8.020386 -17.626221,11.051331 -22.056091,8.486694c-4.756287,-2.75116 -2.891113,-14.595276 6.155151,-23.08197c5.50238,-5.175964 12.59021,-9.978882 17.299866,-12.916565c1.072449,-0.652832 2.657902,-1.585449 4.569752,-2.751221c0.326416,-0.186523 0.512939,-0.279785 0.512939,-0.279785l0,0c0.372986,-0.233154 0.746033,-0.466309 1.11908,-0.699463c3.310791,12.123901 0.139893,22.802185 -7.600697,31.24231l0,0zm53.624744,-36.464844c-2.564636,6.248413 -7.927124,22.242615 -11.191223,21.356628c-2.797852,-0.746094 -4.523132,-12.869934 -0.55957,-24.853943c2.005066,-6.015259 6.248413,-13.19635 8.719849,-15.994141c4.010193,-4.476501 8.440063,-5.968689 9.512573,-4.150085c1.352234,2.378113 -4.896179,19.724548 -6.481628,23.641541l0,0zm44.252075,21.170105c-1.072449,0.55957 -2.098328,0.932617 -2.564636,0.652832c-0.326416,-0.186523 0.466309,-0.932617 0.466309,-0.932617c0,0 5.549011,-5.968689 7.740601,-8.673218c1.259033,-1.585449 2.751221,-3.450623 4.336609,-5.549011l0,0.606201c0,7.134399 -6.901245,11.937317 -9.978882,13.895813l0,0zm34.133362,-7.787231c-0.792725,-0.55957 -0.652832,-2.424805 2.005127,-8.253601c1.025818,-2.284851 3.450623,-6.108521 7.600708,-9.792297c0.466309,1.492126 0.792725,2.937683 0.746094,4.289978c-0.046631,8.999634 -6.481628,12.356995 -10.351929,13.75592l0,0z"/>
   </g>
  </g>
  <!-- Generator: Sketch 3.0.3 (7891) - http://www.bohemiancoding.com/sketch -->
  <desc>Created with Sketch.</desc>

  <g id="svg_29">
   <g transform="matrix(0.482359, 0, 0, 0.482359, -25.5094, 37.4914)" fill-rule="evenodd" fill="none" id="svg_23">
    <g fill="#DA4648" id="svg_24">
     <g id="svg_25">
      <path id="svg_27" d="m584.854858,233.726624c-22.573975,0 -40.01709,-3.391052 -48.405029,-5.412048c-5.735962,-1.381958 -10.342041,-2.811951 -13.840942,-4.281006l11.18689,19.113037l4.376099,59.718994c0,6.695007 21.267944,12.122009 47.50293,12.122009c26.234985,0 47.503052,-5.427002 47.503052,-12.122009l3.464966,-60.369019l10.584961,-18.518982c-3.513916,1.489014 -8.160889,2.938049 -13.968994,4.336975c-8.387939,2.020996 -25.830933,5.412048 -48.403931,5.412048zm62.735962,-194.327988c-16.567993,2.314026 -38.557007,3.588989 -61.916016,3.588989c-23.359009,0 -45.348022,-1.274963 -61.916016,-3.588989c-8.206909,-1.145996 -14.69989,-2.497986 -19.298889,-4.015991c-1.097046,-0.363037 -2.956055,-0.981995 -4.744995,-1.968018l10.265015,94.472954c0.476929,-1.626953 1.007935,-3.251945 1.596924,-4.870956c1.205078,-3.317978 2.598938,-6.561996 4.180969,-9.730942c1.583008,-3.16803 3.30603,-6.163025 5.169067,-8.984009c1.861938,-2.820007 3.844971,-5.416992 5.945923,-7.790039c2.102051,-2.372009 4.258057,-4.411987 6.472046,-6.122009c2.213013,-1.707947 4.447021,-3.044006 6.702026,-4.005981c2.255981,-0.961975 4.48999,-1.444031 6.703003,-1.444031c2.54895,0 5.014893,0.697021 7.396973,2.091064c2.380981,1.392944 4.606934,3.649963 6.68103,6.768982c0.475952,0.69696 0.777954,1.401978 0.902954,2.11499c0.126953,0.713989 0.188965,1.385986 0.188965,2.015991c0,1.492981 -0.356934,2.671997 -1.070923,3.533997c-0.713989,0.863037 -1.562012,1.294006 -2.541992,1.294006c-0.898071,0 -1.731079,-0.472961 -2.501099,-1.41803c-0.770996,-0.945984 -1.631958,-2.297974 -2.584961,-4.056946c-0.896973,-1.593018 -1.884033,-2.745056 -2.962036,-3.459045c-1.078979,-0.713013 -2.247925,-1.069946 -3.508911,-1.069946c-1.96106,0 -4.055054,0.812988 -6.282104,2.438965c-2.227905,1.625 -4.43396,3.773987 -6.61792,6.445007c-2.186035,2.671997 -4.280029,5.723999 -6.283081,9.158997c-2.00293,3.434021 -3.776001,6.950989 -5.316895,10.551018c-1.541016,3.601974 -2.765015,7.152924 -3.676025,10.652924c-0.911011,3.5 -1.365967,6.644043 -1.365967,9.43103c0,0.929993 0.063965,1.88501 0.188965,2.862c0.126953,0.97998 0.364014,1.867004 0.714966,2.664001c0.348999,0.796997 0.82605,1.450989 1.427979,1.963989c0.603027,0.515991 1.366089,0.771973 2.290039,0.771973c1.036987,0 2.213013,-0.347961 3.531006,-1.044983c1.31604,-0.695007 2.682007,-1.609009 4.095947,-2.736023c1.415039,-1.128967 2.837036,-2.405945 4.265991,-3.833984c1.430054,-1.425964 2.76001,-2.868958 3.992065,-4.329956c1.231934,-1.459045 2.324951,-2.862061 3.276978,-4.205017c0.953003,-1.343994 1.666992,-2.513977 2.144043,-3.51001l3.907959,-11.696922c0.475952,-1.26001 1.098999,-2.156006 1.869995,-2.687012c0.77002,-0.531006 1.562012,-0.796997 2.375,-0.796997c0.390991,0 0.782959,0.066956 1.176025,0.198975c0.392944,0.132996 0.741943,0.341003 1.051025,0.622009c0.307983,0.28302 0.552979,0.646973 0.734985,1.096008c0.182007,0.44696 0.272949,0.969971 0.272949,1.567017c0,1.592949 -0.140015,3.084953 -0.419922,4.479965c-0.280029,1.395012 -0.637085,2.75396 -1.072021,4.081955c-0.434082,1.325981 -0.918091,2.662041 -1.450073,4.006035c-0.531982,1.343994 -1.050903,2.745972 -1.553955,4.20697c-0.112061,0.166016 -0.315063,0.687012 -0.609985,1.565979c-0.294067,0.881042 -0.650024,1.984985 -1.071045,3.311035c-0.419922,1.328003 -0.875977,2.812012 -1.365967,4.454956c-0.490967,1.643066 -0.994019,3.317993 -1.511963,5.027039c-0.519043,1.708984 -1.015991,3.38501 -1.492065,5.028015c-0.476929,1.641968 -0.905029,3.126953 -1.281982,4.454956c-0.378052,1.32605 -0.692993,2.437012 -0.946045,3.333984c-0.251953,0.896057 -0.406006,1.426025 -0.461914,1.594055c-0.140015,0.528992 -0.36499,1.118958 -0.671997,1.764954c-0.307983,0.647034 -0.671997,1.262024 -1.093018,1.842041c-0.420044,0.579956 -0.88208,1.062988 -1.386963,1.442993c-0.504028,0.380981 -1.022095,0.572998 -1.555054,0.572998c-0.895996,0 -1.547974,-0.299011 -1.953003,-0.89502c-0.406982,-0.598022 -0.609009,-1.692993 -0.609009,-3.284973l0,-0.697021c0,-0.232971 0.013062,-0.482971 0.041016,-0.745972c0.026978,-0.532043 0.238037,-1.528015 0.630981,-2.989014c0.391968,-1.458984 0.860962,-3.109009 1.407959,-4.950989c0.546021,-1.842041 1.13501,-3.75 1.765015,-5.725037c0.629028,-1.973999 1.197021,-3.73999 1.702026,-5.299988c-1.486938,1.660034 -3.095947,3.309998 -4.833008,4.953003c-1.738037,1.641968 -3.516968,3.119019 -5.337036,4.429016c-1.821899,1.310974 -3.656982,2.380981 -5.505005,3.210999c-1.848999,0.828979 -3.62793,1.244995 -5.336914,1.244995c-1.96106,0 -3.649048,-0.432007 -5.065002,-1.294983c-0.255005,-0.157043 -0.495972,-0.332031 -0.735962,-0.506042l5.711975,59.888062c1.486938,3.726929 29.480957,12.883972 66.390991,12.883972c36.927002,0 64.932007,-9.166016 66.392944,-12.890015l8.205078,-71.201965c-0.679077,0.622986 -1.340088,1.231934 -1.972046,1.82196c-2.354004,2.189026 -4.574951,4.072021 -6.661987,5.64801c-2.08606,1.575989 -4.125,2.796997 -6.114014,3.657959c-1.98999,0.864014 -4.119019,1.295044 -6.387939,1.295044c-2.129028,0 -3.776001,-0.465027 -4.93811,-1.394043c-1.161987,-0.927979 -1.743896,-2.204956 -1.743896,-3.83197l0,-0.372986c0,-0.116028 0.013916,-0.257996 0.042969,-0.424011c0.110962,-0.994019 0.546997,-2.140991 1.302979,-3.434021c0.755981,-1.294983 1.666016,-2.637939 2.72998,-4.031006c1.065063,-1.393982 2.198975,-2.804993 3.404053,-4.231934c1.204956,-1.426025 2.31897,-2.778015 3.341919,-4.057007c1.022095,-1.275024 1.869019,-2.445007 2.541016,-3.508057c0.674072,-1.061951 1.01001,-1.92395 1.01001,-2.587952c0,-0.39801 -0.140991,-0.713013 -0.419922,-0.947021c-0.281006,-0.22998 -0.744019,-0.348022 -1.387085,-0.348022c-1.120972,0 -2.276978,0.291016 -3.465942,0.871033c-1.192017,0.579956 -2.369995,1.362 -3.531982,2.339966c-1.161987,0.979004 -2.296997,2.100037 -3.404053,3.360046c-1.10498,1.260986 -2.141968,2.57196 -3.109009,3.930969c-0.967041,1.362 -1.848022,2.731018 -2.646973,4.108032c-0.799072,1.376953 -1.478027,2.645996 -2.039063,3.805969c-0.167969,0.366028 -0.406006,0.881042 -0.714966,1.54303c-0.307983,0.66394 -0.644043,1.411987 -1.007935,2.240967c-0.365112,0.830017 -0.75,1.684998 -1.156006,2.562012c-0.406006,0.880981 -0.7771,1.710999 -1.113037,2.48999c-0.33606,0.780029 -0.636963,1.474976 -0.901978,2.090027c-0.268066,0.612976 -0.457031,1.036987 -0.569092,1.269958c-0.139893,0.298035 -0.370972,0.861023 -0.692993,1.69104c-0.321899,0.829956 -0.69397,1.800964 -1.112915,2.911987c-0.420044,1.110962 -0.862061,2.281006 -1.325073,3.51001c-0.459961,1.225952 -0.895996,2.388977 -1.302002,3.484009c-0.406982,1.093994 -0.763916,2.057007 -1.070923,2.886963c-0.307983,0.828003 -0.505981,1.393005 -0.590088,1.692017c-0.278931,0.862976 -0.608887,1.674011 -0.985962,2.440002c-0.379028,0.762024 -0.812012,1.434021 -1.302979,2.015991c-0.48999,0.580017 -1.050049,1.044006 -1.68103,1.392029c-0.630981,0.349976 -1.338013,0.522949 -2.120972,0.522949c-1.01001,0 -1.842041,-0.241943 -2.501953,-0.721985c-0.657104,-0.481018 -0.987061,-1.403015 -0.987061,-2.762024c0,-0.66394 0.083984,-1.343994 0.251953,-2.039978c0.168091,-0.69696 0.379028,-1.387024 0.631104,-2.065979c0.251953,-0.682007 0.511963,-1.343994 0.777954,-1.991028c0.265015,-0.64801 0.510986,-1.268982 0.734009,-1.867004c1.514038,-3.317993 3.054932,-6.643982 4.623047,-9.97998c1.567993,-3.333984 3.073975,-6.63501 4.517944,-9.903992c0.300049,-0.682007 0.57605,-1.350037 0.869019,-2.028015c-0.088013,0.085999 -0.174072,0.176025 -0.26001,0.26001c-1.822021,1.76001 -3.63501,3.309998 -5.442017,4.653992c-1.807983,1.343994 -3.600952,2.414001 -5.378052,3.210999c-1.779907,0.795044 -3.509888,1.194031 -5.191895,1.194031c-1.148071,0 -2.107056,-0.182007 -2.877075,-0.546997c-0.770996,-0.366028 -1.385986,-0.864014 -1.848999,-1.493042c-0.463013,-0.629944 -0.792969,-1.377014 -0.989014,-2.23999c-0.065918,-0.294983 -0.106934,-0.602966 -0.149902,-0.909973c-0.492065,0.382996 -0.988037,0.755981 -1.488037,1.109985c-1.737061,1.226013 -3.446045,2.213989 -5.127075,2.959961c-1.679932,0.74707 -3.19397,1.120056 -4.536987,1.120056c-1.345947,0 -2.437988,-0.447998 -3.279907,-1.344055c-0.840088,-0.894958 -1.259033,-2.421997 -1.259033,-4.577942c0,-1.528015 0.223999,-3.30304 0.671021,-5.325989c-0.728027,1.293945 -1.638062,2.60498 -2.72998,3.930969c-1.094116,1.328003 -2.340088,2.539001 -3.740112,3.63501c-1.402954,1.093994 -2.970947,1.981995 -4.706909,2.661987c-1.738037,0.679993 -3.629028,1.02002 -5.673096,1.02002c-0.924927,0 -1.813965,-0.116028 -2.668945,-0.348022c-0.85498,-0.232971 -1.604004,-0.630981 -2.248047,-1.195007c-0.644897,-0.562988 -1.161987,-1.31897 -1.554932,-2.263977c-0.391968,-0.945007 -0.588013,-2.132996 -0.588013,-3.559021c0,-0.032959 0.05603,-0.539001 0.167969,-1.518982c0.112061,-0.979004 0.468994,-2.522034 1.072021,-4.629028c0.602051,-2.106018 1.534058,-4.835999 2.792969,-8.187988c1.262085,-3.351013 3.041016,-7.416016 5.338013,-12.192978c0.588013,-1.262016 1.268066,-2.166008 2.036987,-2.712997c0.772095,-0.547974 1.604004,-0.82196 2.5,-0.82196c0.393066,0 0.799072,0.05896 1.218994,0.17395c0.421997,0.117004 0.812988,0.299011 1.178101,0.548035c0.362915,0.248962 0.657959,0.564995 0.882935,0.945976c0.222046,0.380981 0.33606,0.820007 0.33606,1.317993c0,0.332024 -0.043091,0.64904 -0.127075,0.945c-0.140991,0.567017 -0.442017,1.30304 -0.901978,2.215019c-0.463013,0.91394 -1.003052,1.958977 -1.619995,3.136955c-0.61499,1.177979 -1.266968,2.447021 -1.953003,3.809021c-0.687012,1.359009 -1.323975,2.768982 -1.911987,4.22998c-0.588013,1.460999 -1.093018,2.945007 -1.513062,4.455017c-0.419922,1.51001 -0.658936,2.979004 -0.713989,4.405029c0,0.596985 0.139038,1.143982 0.420044,1.641968c0.280029,0.497986 0.743042,0.745972 1.386963,0.745972c1.820068,0 3.557007,-0.597961 5.21106,-1.790955c1.651978,-1.195007 3.177979,-2.679993 4.579956,-4.455017c1.401001,-1.775024 2.667969,-3.684021 3.802979,-5.724976c1.13501,-2.041016 2.080078,-3.906006 2.83606,-5.598999c0.532959,-1.127014 1.001953,-2.340027 1.407959,-3.633049c0.406006,-1.294983 0.848022,-2.487968 1.323975,-3.583977c0.477051,-1.096001 1.022095,-2.007988 1.639038,-2.737961c0.61499,-0.729004 1.386963,-1.095032 2.310059,-1.095032c1.009888,0 1.807007,0.382019 2.396973,1.14502c0.588013,0.76403 0.880981,1.676018 0.880981,2.736984c0,0.596985 -0.187988,1.419983 -0.567017,2.465019c-0.379028,1.044983 -0.85498,2.239983 -1.428955,3.583977c-0.575073,1.343994 -1.197998,2.778992 -1.869019,4.303955c-0.671997,1.528015 -1.296997,3.078003 -1.869019,4.655029c-0.577026,1.575989 -1.051025,3.119019 -1.430054,4.629028c-0.378906,1.508972 -0.566895,2.911987 -0.566895,4.204956c0,1.195007 0.615967,1.79303 1.8479,1.79303c0.869019,0 1.947021,-0.299011 3.236084,-0.897034c1.28894,-0.597961 2.640991,-1.434937 4.054932,-2.513977c0.353027,-0.268982 0.708984,-0.549988 1.062012,-0.845032c0.39502,-1.628967 0.858032,-3.134949 1.396973,-4.503967c0.980103,-2.590027 1.975098,-5.159973 2.984009,-7.715027c1.008057,-2.554993 1.932007,-4.894958 2.774048,-7.018974l12.731934,-32.103973c0.504028,-1.294006 1.184082,-2.20697 2.037109,-2.737976c0.855957,-0.530029 1.716919,-0.796021 2.585938,-0.796021c0.867065,0 1.657959,0.281982 2.373047,0.846008c0.714966,0.565002 1.072998,1.47699 1.072998,2.737976c0,0.597046 -0.119995,1.228027 -0.358032,1.890991c-0.238037,0.664063 -0.53894,1.377014 -0.904053,2.140015c-0.698975,1.561035 -1.532959,3.468018 -2.5,5.723999c-0.966919,2.257019 -2.003906,4.713013 -3.109985,7.367004c-1.106934,2.655029 -2.241943,5.417053 -3.403931,8.287041c-1.161987,2.870964 -2.296997,5.665939 -3.404053,8.386932c-1.10498,2.721985 -2.142944,5.299988 -3.109985,7.73999c-0.965942,2.439026 -1.797974,4.555054 -2.5,6.346008c-0.307983,0.763 -0.609009,1.652039 -0.901978,2.664001c-0.295044,1.010986 -0.44104,1.916016 -0.44104,2.713013c0,0.495972 0.083984,0.893982 0.252075,1.192993c0.167969,0.299011 0.48999,0.448975 0.965942,0.448975c0.588013,0 1.322998,-0.20697 2.206055,-0.622986c0.881958,-0.414001 1.833984,-0.962952 2.856934,-1.643005c1.024048,-0.678955 2.088013,-1.458984 3.192993,-2.338989c1.108032,-0.879028 2.207031,-1.791016 3.299072,-2.737c1.093994,-0.94696 2.136963,-1.892029 3.130981,-2.838013c0.994019,-0.945007 1.88501,-1.815979 2.669922,-2.612976c0.184082,-0.19104 0.404053,-0.325989 0.645996,-0.427002c0.473022,-1.413025 0.905029,-2.796997 1.286011,-4.151001c0.223999,-0.598022 0.533081,-1.442993 0.925049,-2.539001c0.390991,-1.096008 0.839966,-2.174004 1.343994,-3.236015c0.504028,-1.060966 1.072998,-1.982964 1.70105,-2.761948c0.630981,-0.778992 1.310913,-1.170044 2.03894,-1.170044c1.120972,0 1.93396,0.258057 2.437988,0.770996c0.504028,0.516052 0.755981,1.270012 0.755981,2.266045c0,0.198975 -0.027954,0.513977 -0.083984,0.945c-0.057007,0.432007 -0.125,0.888977 -0.208984,1.369995c-0.083984,0.479973 -0.176025,0.937004 -0.274048,1.36895c-0.098999,0.43103 -0.188965,0.746033 -0.272949,0.945007c1.035034,-1.128967 2.156006,-2.247978 3.360962,-3.359001c1.205078,-1.111992 2.45105,-2.117973 3.73999,-3.011948c1.290039,-0.897034 2.606079,-1.625 3.952026,-2.192009c1.343018,-0.562012 2.689087,-0.844971 4.033081,-0.844971c0.92395,0 1.841919,0.132996 2.751953,0.398987c0.910034,0.264954 1.723999,0.654968 2.437012,1.168999c0.714966,0.515991 1.296997,1.161987 1.744019,1.942009c0.447998,0.778931 0.671997,1.682983 0.671997,2.711967c0,1.361992 -0.342041,2.812981 -1.029053,4.35601c-0.686035,1.542969 -1.546997,3.093994 -2.583984,4.651978c-1.036987,1.560974 -2.157959,3.078003 -3.360962,4.554993c-1.205078,1.47699 -2.332031,2.820007 -3.383057,4.031006c-1.051025,1.213013 -1.93396,2.23999 -2.648926,3.085999c-0.712036,0.848022 -1.08606,1.419983 -1.113037,1.718994c0,0.39801 0.126953,0.721008 0.379028,0.971008c0.251953,0.247986 0.671997,0.372986 1.26001,0.372986c0.475952,0 1.177979,-0.265991 2.100952,-0.796997c0.92395,-0.531006 2.220947,-1.450989 3.886963,-2.761963c1.666016,-1.311035 3.783081,-3.070068 6.346069,-5.277039c1.757935,-1.512024 3.815918,-3.315002 6.13501,-5.366028l11.114014,-102.92894c-1.790039,0.987976 -3.6521,1.607971 -4.75,1.971008c-4.598022,1.518005 -11.091064,2.869995 -19.299072,4.015991zm-61.981934,-24.42102c-48.048584,0 -86.999939,5.372375 -86.999939,11.999999c0,6.627625 38.951355,12 86.999939,12c48.048462,0 87,-5.372375 87,-12c0,-6.627625 -38.951538,-11.999999 -87,-11.999999zm34.737915,15.507018c0,1.554993 -4.629028,2.815979 -10.339966,2.815979c-5.709961,0 -10.338989,-1.260986 -10.338989,-2.815979c0,-1.555969 4.629028,-2.817017 10.338989,-2.817017c5.710938,0 10.339966,1.261047 10.339966,2.817017z"/>
      <path id="svg_26" d="m601.761597,29.239639c-0.05127,0.081726 -0.077759,0.165161 -0.077759,0.25c0,1.007019 3.727051,1.822021 8.322998,1.822021c4.597046,0 8.322998,-0.815002 8.322998,-1.822021l10.870972,-44.077999l43.233032,-45.644779c0.01416,-0.013916 0.027832,-0.02832 0.041016,-0.043213c0.915039,-1.035034 -0.942017,-4.238037 -4.023071,-6.984978c-3.080933,-2.747009 -6.407959,-3.676994 -7.441895,-2.631042c-0.007813,0.007813 -0.015381,0.015808 -0.022705,0.023804l-46.127319,48.538202l-13.098267,50.570005z"/>
     </g>
    </g>
   </g>
  </g>
 </g>
</svg>