<svg xmlns="http://www.w3.org/2000/svg" viewBox="0 0 1200 1200" shape-rendering="geometricPrecision" fill-rule="evenodd" clip-rule="evenodd" class="bv-logo">
  <defs>
    <filter id="a" filterUnits="objectBoundingBox" x="-50%" y="-50%" width="200%" height="200%">
      <feOffset in="SourceAlpha" dx="-10" dy="25" result="ALPHA1"/>
      <feMorphology in="ALPHA1" operator="dilate" radius="15" result="ALPHA"/>
      <feGaussianBlur in="ALPHA" stdDeviation="20" result="DROP"/>
      <feFlood flood-color="#333" result="SOLID"/>
      <feComposite in="DROP" in2="SOLID" operator="in" result="SHADOW1"/>
      <feComponentTransfer in="SHADOW1" result="SHADOW">
        <feFuncA type="linear" slope=".55"/>
      </feComponentTransfer>
      <feMerge>
        <feMergeNode in="SHADOW"/>
        <feMergeNode in="SourceGraphic"/>
      </feMerge>
    </filter>
  </defs>
  <g>
    <g filter="url(#a)" class="logo-dark-v">
      <path fill="#34495E" d="M747 311L602 562 458 311H227l375 651 376-651z"/>
    </g>
    <g filter="url(#a)" class="logo-purple-v">
      <path fill="#563D7C" fill-rule="nonzero" d="M219 195h762L599 857z"/>
      <path fill="#fff" d="M501 282h132c25 0 44 5 59 16 15 12 22 28 22 51 0 14-3 26-10 35-7 10-16 18-29 23v1c17 3 30 11 38 24 9 12 13 27 13 46 0 11-2 21-6 30-3 9-9 17-17 24-9 6-19 12-32 16-12 4-28 6-45 6H501V282zm48 114h77c12 0 21-4 29-10 8-7 11-16 11-28 0-14-3-24-10-29-7-6-17-9-30-9h-77v76zm0 119h84c14 0 26-4 33-11 8-8 13-19 13-32 0-14-4-24-13-31-8-8-19-11-33-11h-84v85z" class="logo-white-b"/>
    </g>
    <g filter="url(#a)" class="logo-green-v">
      <path fill="#41B883" d="M839 357L600 771 361 357H202l398 690 398-690z"/>
    </g>
  </g>
</svg>
