<svg width="29" height="28" viewBox="0 0 29 28" fill="none" xmlns="http://www.w3.org/2000/svg">
<path d="M14.5 2.8C13.4687 2.8 12.6334 3.63534 12.6334 4.66667V4.94011C9.93511 5.74358 7.9667 8.24071 7.9667 11.2V13.774C7.9667 16.3098 6.95963 18.7404 5.1667 20.5333C4.91916 20.5333 4.68177 20.6317 4.50673 20.8067C4.3317 20.9817 4.23337 21.2191 4.23337 21.4667C4.23337 21.7142 4.3317 21.9516 4.50673 22.1266C4.68177 22.3017 4.91916 22.4 5.1667 22.4H23.8334C24.0809 22.4 24.3183 22.3017 24.4933 22.1266C24.6684 21.9516 24.7667 21.7142 24.7667 21.4667C24.7667 21.2191 24.6684 20.9817 24.4933 20.8067C24.3183 20.6317 24.0809 20.5333 23.8334 20.5333C22.0404 18.7404 21.0334 16.3098 21.0334 13.774V11.2C21.0334 8.24071 19.065 5.74358 16.3667 4.94011V4.66667C16.3667 3.63534 15.5314 2.8 14.5 2.8ZM4.19144 7.45573C4.02415 7.46432 3.86226 7.51776 3.72274 7.61045C3.58322 7.70314 3.47122 7.83167 3.39847 7.98255C3.39847 7.98255 2.3667 9.95556 2.3667 12.1333C2.3667 14.3111 3.39847 16.2841 3.39847 16.2841C3.50922 16.5055 3.70336 16.6738 3.93819 16.752C4.17302 16.8303 4.42931 16.812 4.6507 16.7013C4.87209 16.5906 5.04045 16.3966 5.11876 16.1617C5.19706 15.9269 5.1789 15.6706 5.06826 15.4492C5.06826 15.4492 4.23337 13.6889 4.23337 12.1333C4.23337 10.5778 5.06826 8.81745 5.06826 8.81745C5.14388 8.67155 5.17965 8.50827 5.17193 8.34411C5.16422 8.17996 5.11331 8.02075 5.02434 7.88258C4.93537 7.74441 4.8115 7.63217 4.66525 7.55722C4.519 7.48227 4.35556 7.44726 4.19144 7.45573ZM24.7813 7.45573C24.6194 7.45222 24.4595 7.49086 24.3171 7.56786C24.1747 7.64485 24.0548 7.75755 23.9691 7.89489C23.8834 8.03223 23.8349 8.18949 23.8284 8.35124C23.8219 8.51298 23.8575 8.67364 23.9318 8.81745C23.9318 8.81745 24.7667 10.5778 24.7667 12.1333C24.7667 13.6889 23.9318 15.4492 23.9318 15.4492C23.877 15.5589 23.8442 15.6782 23.8355 15.8005C23.8268 15.9228 23.8423 16.0456 23.8811 16.1619C23.9198 16.2782 23.9811 16.3858 24.0614 16.4784C24.1417 16.571 24.2395 16.6469 24.3492 16.7017C24.4588 16.7565 24.5782 16.7892 24.7005 16.7979C24.8228 16.8066 24.9456 16.7911 25.0619 16.7523C25.1782 16.7135 25.2857 16.6522 25.3783 16.5719C25.4709 16.4916 25.5468 16.3938 25.6016 16.2841C25.6016 16.2841 26.6334 14.3111 26.6334 12.1333C26.6334 9.95556 25.6016 7.98255 25.6016 7.98255C25.5267 7.82767 25.4104 7.69651 25.2657 7.60354C25.1209 7.51057 24.9533 7.45942 24.7813 7.45573ZM11.7 24.2667C11.7 25.8132 12.9535 27.0667 14.5 27.0667C16.0466 27.0667 17.3 25.8132 17.3 24.2667H11.7Z" fill="#18898D"/>
</svg>
