<svg width="29" height="28" viewBox="0 0 29 28" fill="none" xmlns="http://www.w3.org/2000/svg">
<path d="M22.9001 3.73334C22.405 3.73334 21.9302 3.93 21.5801 4.28007C21.2301 4.63014 21.0334 5.10493 21.0334 5.6C21.0335 5.70632 21.0426 5.81243 21.0607 5.91719L17.9417 8.51667C17.7363 8.44043 17.5191 8.40094 17.3001 8.4C16.9344 8.40037 16.5769 8.50813 16.2719 8.7099L13.5613 7.35365C13.5325 6.87937 13.3239 6.43391 12.9781 6.10807C12.6323 5.78222 12.1752 5.60052 11.7001 5.6C11.205 5.6 10.7302 5.79667 10.3801 6.14674C10.0301 6.49681 9.8334 6.9716 9.8334 7.46667C9.83393 7.50682 9.83575 7.54695 9.83887 7.58698L6.92585 9.52839C6.66921 9.40084 6.38665 9.3341 6.10007 9.33334C5.60499 9.33334 5.1302 9.53 4.78013 9.88007C4.43006 10.2301 4.2334 10.7049 4.2334 11.2C4.2334 11.6951 4.43006 12.1699 4.78013 12.5199C5.1302 12.87 5.60499 13.0667 6.10007 13.0667C6.59514 13.0667 7.06993 12.87 7.42 12.5199C7.77007 12.1699 7.96673 11.6951 7.96673 11.2C7.96616 11.1605 7.96434 11.1209 7.96126 11.0815L10.8743 9.13829C11.1309 9.26583 11.4135 9.33257 11.7001 9.33334C12.0657 9.33297 12.4232 9.22521 12.7282 9.02344L15.4389 10.3797C15.4676 10.854 15.6762 11.2994 16.022 11.6253C16.3678 11.9511 16.8249 12.1328 17.3001 12.1333C17.7951 12.1333 18.2699 11.9367 18.62 11.5866C18.9701 11.2365 19.1667 10.7617 19.1667 10.2667C19.1667 10.1604 19.1575 10.0542 19.1394 9.94948L22.2584 7.35C22.4638 7.42625 22.681 7.46574 22.9001 7.46667C23.3951 7.46667 23.8699 7.27 24.22 6.91994C24.5701 6.56987 24.7667 6.09507 24.7667 5.6C24.7667 5.10493 24.5701 4.63014 24.22 4.28007C23.8699 3.93 23.3951 3.73334 22.9001 3.73334ZM21.9667 11.2C21.4515 11.2 21.0334 11.6181 21.0334 12.1333V24.2667H24.7667V12.1333C24.7667 11.6181 24.3486 11.2 23.8334 11.2H21.9667ZM10.7667 13.0667C10.2515 13.0667 9.8334 13.4848 9.8334 14V24.2667H13.5667V14C13.5667 13.4848 13.1486 13.0667 12.6334 13.0667H10.7667ZM16.3667 14.9333C15.8515 14.9333 15.4334 15.3515 15.4334 15.8667V24.2667H19.1667V15.8667C19.1667 15.3515 18.7486 14.9333 18.2334 14.9333H16.3667ZM5.16673 16.8C4.65153 16.8 4.2334 17.2181 4.2334 17.7333V24.2667H7.96673V17.7333C7.96673 17.2181 7.5486 16.8 7.0334 16.8H5.16673Z" fill="#18898D"/>
</svg>
