<svg width="29" height="28" viewBox="0 0 29 28" fill="none" xmlns="http://www.w3.org/2000/svg">
<path d="M5.16672 3.73334C4.13538 3.73334 3.30005 4.56867 3.30005 5.6V8.4V23.3333C3.30007 23.5809 3.39841 23.8182 3.57344 23.9933C3.74847 24.1683 3.98585 24.2666 4.23338 24.2667H24.7667C25.0142 24.2666 25.2516 24.1683 25.4267 23.9933C25.6017 23.8182 25.7 23.5809 25.7 23.3333V7.46667V5.6C25.7 4.56867 24.8647 3.73334 23.8334 3.73334H5.16672ZM5.16672 8.4H23.8334V22.4H5.16672V8.4ZM7.96672 11.2C7.84304 11.1983 7.72025 11.2211 7.60548 11.2672C7.49071 11.3133 7.38625 11.3818 7.29817 11.4687C7.21009 11.5555 7.14015 11.659 7.09241 11.7731C7.04467 11.8872 7.02009 12.0096 7.02009 12.1333C7.02009 12.257 7.04467 12.3795 7.09241 12.4936C7.14015 12.6077 7.21009 12.7112 7.29817 12.798C7.38625 12.8849 7.49071 12.9533 7.60548 12.9995C7.72025 13.0456 7.84304 13.0684 7.96672 13.0667H11.7C11.8237 13.0684 11.9465 13.0456 12.0613 12.9995C12.1761 12.9533 12.2805 12.8849 12.3686 12.798C12.4567 12.7112 12.5266 12.6077 12.5744 12.4936C12.6221 12.3795 12.6467 12.257 12.6467 12.1333C12.6467 12.0096 12.6221 11.8872 12.5744 11.7731C12.5266 11.659 12.4567 11.5555 12.3686 11.4687C12.2805 11.3818 12.1761 11.3133 12.0613 11.2672C11.9465 11.2211 11.8237 11.1983 11.7 11.2H7.96672ZM15.4334 11.2C14.9182 11.2 14.5 11.6181 14.5 12.1333V19.6C14.5 20.1152 14.9182 20.5333 15.4334 20.5333H21.0334C21.5486 20.5333 21.9667 20.1152 21.9667 19.6V12.1333C21.9667 11.6181 21.5486 11.2 21.0334 11.2H15.4334ZM7.96672 14.9333C7.84304 14.9316 7.72025 14.9544 7.60548 15.0006C7.49071 15.0467 7.38625 15.1151 7.29817 15.202C7.21009 15.2888 7.14015 15.3923 7.09241 15.5064C7.04467 15.6205 7.02009 15.743 7.02009 15.8667C7.02009 15.9904 7.04467 16.1128 7.09241 16.2269C7.14015 16.341 7.21009 16.4445 7.29817 16.5314C7.38625 16.6182 7.49071 16.6867 7.60548 16.7328C7.72025 16.7789 7.84304 16.8018 7.96672 16.8H11.7C11.8237 16.8018 11.9465 16.7789 12.0613 16.7328C12.1761 16.6867 12.2805 16.6182 12.3686 16.5314C12.4567 16.4445 12.5266 16.341 12.5744 16.2269C12.6221 16.1128 12.6467 15.9904 12.6467 15.8667C12.6467 15.743 12.6221 15.6205 12.5744 15.5064C12.5266 15.3923 12.4567 15.2888 12.3686 15.202C12.2805 15.1151 12.1761 15.0467 12.0613 15.0006C11.9465 14.9544 11.8237 14.9316 11.7 14.9333H7.96672ZM7.96672 18.6667C7.84304 18.6649 7.72025 18.6878 7.60548 18.7339C7.49071 18.78 7.38625 18.8485 7.29817 18.9353C7.21009 19.0222 7.14015 19.1256 7.09241 19.2397C7.04467 19.3539 7.02009 19.4763 7.02009 19.6C7.02009 19.7237 7.04467 19.8462 7.09241 19.9603C7.14015 20.0744 7.21009 20.1778 7.29817 20.2647C7.38625 20.3515 7.49071 20.42 7.60548 20.4661C7.72025 20.5122 7.84304 20.5351 7.96672 20.5333H11.7C11.8237 20.5351 11.9465 20.5122 12.0613 20.4661C12.1761 20.42 12.2805 20.3515 12.3686 20.2647C12.4567 20.1778 12.5266 20.0744 12.5744 19.9603C12.6221 19.8462 12.6467 19.7237 12.6467 19.6C12.6467 19.4763 12.6221 19.3539 12.5744 19.2397C12.5266 19.1256 12.4567 19.0222 12.3686 18.9353C12.2805 18.8485 12.1761 18.78 12.0613 18.7339C11.9465 18.6878 11.8237 18.6649 11.7 18.6667H7.96672Z" fill="#18898D"/>
</svg>
